<svg width="538" height="197" viewBox="0 0 538 197" fill="none" xmlns="http://www.w3.org/2000/svg">
<path d="M99.1012 138.116H99.0861L99.1012 138.131L99.0861 138.116L32.0464 167.653L105.36 188.211L99.1164 138.116H99.1012Z" fill="#92E3F3"/>
<path d="M55.2797 83.3351H55.2645L55.2494 83.3502L55.2645 83.3804L32.0464 167.653L99.0861 138.116L55.2797 83.3351Z" fill="white"/>
<path d="M148.773 134.926L99.1162 138.116L105.359 188.211L148.773 134.926Z" fill="#00C9CC"/>
<path d="M148.772 134.926L125.493 61.7191L99.1006 138.116L148.681 134.926H148.772Z" fill="#2437DF"/>
<g opacity="0.5">
<mask id="mask0_698_215" style="mask-type:luminance" maskUnits="userSpaceOnUse" x="55" y="83" width="1" height="1">
<path d="M55.2648 83.2898H55.2344V83.3353H55.2648V83.2898Z" fill="white"/>
</mask>
<g mask="url(#mask0_698_215)">
<mask id="mask1_698_215" style="mask-type:luminance" maskUnits="userSpaceOnUse" x="54" y="83" width="2" height="2">
<path d="M55.5067 83.1689H54.5088V84.1666H55.5067V83.1689Z" fill="white"/>
</mask>
<g mask="url(#mask1_698_215)">
<path d="M55.2496 83.3353H55.2648V83.3202L55.2344 83.2898L55.2496 83.3353Z" fill="#04CEE6"/>
</g>
</g>
</g>
<path d="M105.359 188.211L185.58 195.421L204.763 175.075L105.359 188.211Z" fill="#00008C"/>
<path d="M148.773 134.926L105.359 188.211L204.763 175.075L148.773 134.926Z" fill="#2437DF"/>
<path d="M55.2188 83.3502L0 102.865L32.0461 167.653L55.2491 83.3502V83.3351L55.2188 83.3502Z" fill="#0081FF"/>
<path d="M36.7622 0L55.234 83.2898L55.2643 83.32L69.3072 30.7764L36.7773 0H36.7622Z" fill="#92E3F3"/>
<path d="M69.3071 30.7765L69.2466 31.0032L55.2642 83.3201V83.3352L125.494 61.7192L69.3071 30.7765Z" fill="#00C9CC"/>
<path d="M125.494 61.7191L55.249 83.3502L99.116 138.116L125.494 61.7191Z" fill="#0081FF"/>
<path d="M0 102.865L55.2188 83.3503L55.2491 83.3352L55.234 83.2899L7.76952 23.6115L0 102.865Z" fill="#2437DF"/>
<path d="M55.233 83.2898L7.76855 23.6114L36.7611 0L55.233 83.2898Z" fill="#00C9CC"/>
<path d="M196.57 36.1276L184.598 48.0995C184.356 48.3414 184.22 48.6739 184.22 49.0065V61.9307C184.22 62.2633 184.341 62.5656 184.568 62.8075L207.212 85.4514C207.454 85.6782 207.771 85.7991 208.089 85.7991H230.808C231.519 85.7991 232.093 86.3735 232.093 87.084V104.981C232.093 105.692 231.519 106.266 230.808 106.266H200.289C199.578 106.266 199.004 105.692 199.004 104.981V90.3793C199.004 89.6688 198.429 89.0944 197.719 89.0944H185.505C184.795 89.0944 184.22 89.6688 184.22 90.3793V107.914C184.22 108.624 198.324 120.717 198.324 120.717C198.566 120.944 198.883 121.065 199.2 121.065H233.65C233.997 121.065 234.315 120.929 234.557 120.687L246.529 108.715C246.771 108.473 246.907 108.141 246.907 107.808V94.8839C246.907 94.5513 246.786 94.249 246.559 94.0071L225.366 71.4086C225.124 71.1516 224.792 71.0155 224.429 71.0155H200.304C199.593 71.0155 199.019 70.4411 199.019 69.7307V51.8332C199.019 51.1227 199.593 50.5483 200.304 50.5483H230.823C231.534 50.5483 232.108 51.1227 232.108 51.8332V66.8888C232.108 67.5993 232.682 68.1737 233.393 68.1737H245.607C246.317 68.1737 246.892 67.5993 246.892 66.8888V49.0216C246.892 48.6739 246.755 48.3565 246.514 48.1146L234.542 36.1427C234.3 35.9008 233.967 35.7648 233.635 35.7648H197.462C197.114 35.7648 196.797 35.9008 196.555 36.1427" fill="#1313E2"/>
<path d="M271.379 49.6262H310.681C311.392 49.6262 311.966 49.0518 311.966 48.3413V36.1275C311.966 35.417 311.392 34.8426 310.681 34.8426H268.553C268.19 34.8426 267.857 34.9938 267.615 35.2508L255.644 48.039C255.417 48.2809 255.296 48.5983 255.296 48.9157V107.007C255.296 107.339 255.417 107.642 255.644 107.884L267.615 120.672C267.857 120.929 268.205 121.08 268.553 121.08H310.681C311.392 121.08 311.966 120.506 311.966 119.795V107.581C311.966 106.871 311.392 106.296 310.681 106.296H271.379C270.669 106.296 270.095 105.722 270.095 105.012V85.9351C270.095 85.2246 270.669 84.6502 271.379 84.6502H310.681C311.392 84.6502 311.966 84.0758 311.966 83.3653V71.1515C311.966 70.4411 311.392 69.8666 310.681 69.8666H270.079V50.9413C270.079 50.2308 270.654 49.6564 271.364 49.6564" fill="#1313E2"/>
<path d="M383.723 53.8134L364.979 36.0973C364.737 35.8706 364.419 35.7496 364.087 35.7496H341.579C341.262 35.7496 340.944 35.8706 340.717 36.0822L322.003 53.1634C321.731 53.4053 321.581 53.7529 321.581 54.1157V119.795C321.581 120.506 322.155 121.08 322.865 121.08H335.079C335.79 121.08 336.364 120.506 336.364 119.795V86.2979C336.364 85.5874 336.938 85.013 337.649 85.013H368.047C368.758 85.013 369.332 85.5874 369.332 86.2979V119.795C369.332 120.506 369.907 121.08 370.617 121.08H382.831C383.541 121.08 384.116 120.506 384.116 119.795V54.7657C384.116 54.418 383.965 54.0703 383.708 53.8285M356.816 70.2144H337.649C336.938 70.2144 336.364 69.6399 336.364 68.9295V51.8332C336.364 51.1227 336.938 50.5483 337.649 50.5483H368.047C368.758 50.5483 369.332 51.1227 369.332 51.8332V80.7805L358.781 70.9853C358.237 70.5016 357.542 70.2295 356.816 70.2295" fill="#1313E2"/>
<path d="M535.791 35.7496H523.577C522.866 35.7496 522.292 36.324 522.292 37.0345V104.997C522.292 105.707 521.718 106.281 521.007 106.281H509.277C508.567 106.281 507.992 105.707 507.992 104.997V37.0345C507.992 36.324 507.418 35.7496 506.707 35.7496H494.493C493.783 35.7496 493.208 36.324 493.208 37.0345V93.9618C493.208 94.6722 493.465 95.3676 493.949 95.8966L504.077 106.281H480.194C479.483 106.281 478.909 105.707 478.909 104.997V37.0345C478.909 36.324 478.334 35.7496 477.624 35.7496H465.41C464.7 35.7496 464.125 36.324 464.125 37.0345V107.823C464.125 108.186 464.276 108.519 464.533 108.76L477.321 120.732C477.563 120.959 477.881 121.08 478.198 121.08H494.75C495.098 121.08 495.416 120.944 495.657 120.702L503.926 112.434C504.349 112.01 505.09 112.313 505.09 112.917V119.78C505.09 120.491 505.664 121.065 506.375 121.065H523.032C523.365 121.065 523.667 120.944 523.909 120.717L536.697 108.745C536.954 108.503 537.106 108.156 537.106 107.808V37.0194C537.106 36.3089 536.531 35.7345 535.821 35.7345" fill="#171553"/>
<path d="M453.846 69.1562V49.5355C453.846 49.2181 453.725 48.9007 453.498 48.6739L441.526 36.1578C441.285 35.9008 440.937 35.7648 440.589 35.7648H395.498C394.787 35.7648 394.213 36.3241 394.213 37.0194V119.825C394.213 120.521 394.787 121.095 395.498 121.095H440.589C440.952 121.095 441.285 120.944 441.526 120.687L453.498 108.171C453.725 107.944 453.846 107.627 453.846 107.309V87.6886C453.846 87.3561 453.71 87.0386 453.468 86.7968L443.476 78.4375L453.468 70.0783C453.71 69.8365 453.846 69.519 453.846 69.1865M408.996 51.4553C408.996 50.76 409.571 50.1856 410.282 50.1856H437.762C438.473 50.1856 439.048 50.7448 439.048 51.4553V69.4284C439.048 70.1237 438.473 70.683 437.762 70.683H410.282C409.571 70.683 408.996 70.1237 408.996 69.4284V51.4553ZM439.048 105.359C439.048 106.055 438.473 106.629 437.762 106.629H410.282C409.571 106.629 408.996 106.07 408.996 105.359V87.3863C408.996 86.691 409.571 86.1165 410.282 86.1165H437.762C438.473 86.1165 439.048 86.6758 439.048 87.3863V105.359Z" fill="#171553"/>
<path d="M271.667 158.598V155.877H276.02V160.866H283.185V155.212L271.667 150.753V145.493C271.667 141.517 273.949 139.688 279.602 139.688C285.256 139.688 287.538 141.562 287.538 145.493V148.213H283.185V143.21H276.02V148.894L287.538 153.353V158.598C287.538 162.574 285.271 164.403 279.602 164.403C273.934 164.403 271.667 162.544 271.667 158.598Z" fill="#1313E2"/>
<path d="M292.859 158.598V145.493C292.859 141.517 295.141 139.688 301.188 139.688C307.234 139.688 309.516 141.517 309.516 145.493V158.598C309.516 162.574 307.234 164.403 301.188 164.403C295.141 164.403 292.859 162.574 292.859 158.598ZM305.133 160.881V143.225H297.242V160.881H305.133Z" fill="#1313E2"/>
<path d="M314.989 158.598V139.945H319.373V160.881H326.78V139.945H331.148V158.598C331.148 162.574 328.881 164.403 323.092 164.403C317.302 164.403 315.004 162.574 315.004 158.598H314.989Z" fill="#1313E2"/>
<path d="M340.671 143.527H335.259V139.945H350.436V143.527H345.025V164.161H340.656V143.527H340.671Z" fill="#1313E2"/>
<path d="M354.608 139.945H358.992V150.148H366.399V139.945H370.752V164.161H366.399V153.247H358.992V164.161H354.608V139.945Z" fill="#1313E2"/>
<path d="M376.315 139.945H388.876V143.422H380.683V150.315H388.876V153.202H380.683V160.669H388.876V164.146H376.315V139.93V139.945Z" fill="#1313E2"/>
<path d="M405.837 159.112H398.475L397.417 164.146H392.731L398.309 139.93H406.033L411.611 164.146H406.91L405.852 159.112H405.837ZM405.232 156.134L403.131 146.112C402.935 145.205 402.768 144.268 402.587 143.346H401.74C401.574 144.268 401.393 145.205 401.211 146.112L399.11 156.134H405.247H405.232Z" fill="#1313E2"/>
<path d="M415.572 158.598V155.877H419.925V160.866H427.09V155.212L415.572 150.753V145.493C415.572 141.517 417.854 139.688 423.508 139.688C429.161 139.688 431.444 141.562 431.444 145.493V148.213H427.09V143.21H419.925V148.894L431.444 153.353V158.598C431.444 162.574 429.176 164.403 423.508 164.403C417.839 164.403 415.572 162.544 415.572 158.598Z" fill="#1313E2"/>
<path d="M440.815 143.527H435.403V139.945H450.58V143.527H445.169V164.161H440.8V143.527H440.815Z" fill="#1313E2"/>
<path d="M474.252 159.112H466.89L465.832 164.146H461.131L466.709 139.93H474.433L480.011 164.146H475.325L474.267 159.112H474.252ZM473.632 156.134L471.531 146.112C471.334 145.205 471.168 144.268 470.987 143.346H470.14C469.974 144.268 469.793 145.205 469.611 146.112L467.51 156.134H473.647H473.632Z" fill="#1313E2"/>
<path d="M483.972 158.598V155.877H488.34V160.866H495.505V155.212L483.987 150.753V145.493C483.987 141.517 486.269 139.688 491.923 139.688C497.576 139.688 499.874 141.562 499.874 145.493V148.213H495.505V143.21H488.34V148.894L499.859 153.353V158.598C499.859 162.574 497.591 164.403 491.908 164.403C486.224 164.403 483.972 162.544 483.972 158.598Z" fill="#1313E2"/>
<path d="M505.407 139.945H509.775V164.161H505.407V139.945Z" fill="#1313E2"/>
<path d="M527.279 159.112H519.918L518.859 164.146H514.173L519.751 139.93H527.476L533.053 164.146H528.352L527.294 159.112H527.279ZM526.674 156.134L524.573 146.112C524.377 145.205 524.21 144.268 524.029 143.346H523.182C523.016 144.268 522.835 145.205 522.653 146.112L520.552 156.134H526.69H526.674Z" fill="#1313E2"/>
<path d="M271.893 172.399H281.9C285.921 172.399 287.78 174.274 287.78 177.826V179.141C287.78 182.331 286.616 184.039 283.985 184.205V184.281C286.616 184.432 287.78 186.155 287.78 189.299V191.158C287.78 194.696 285.905 196.615 281.9 196.615H271.893V172.399ZM283.426 182.769V175.664H276.261V182.769H283.426ZM283.426 193.32V185.686H276.261V193.32H283.426Z" fill="#171553"/>
<path d="M291.302 172.399H295.67V193.033H303.546V196.615H291.302V172.399Z" fill="#171553"/>
<path d="M305.284 191.053V177.947C305.284 173.971 307.567 172.142 313.613 172.142C319.66 172.142 321.942 173.971 321.942 177.947V191.053C321.942 195.028 319.66 196.857 313.613 196.857C307.567 196.857 305.284 195.028 305.284 191.053ZM317.558 193.32V175.664H309.668V193.32H317.558Z" fill="#171553"/>
<path d="M325.464 191.053V177.947C325.464 173.971 327.762 172.142 333.672 172.142C339.583 172.142 341.865 173.971 341.865 177.947V181.605H337.481V175.649H329.833V193.305H337.481V187.349H341.865V191.037C341.865 195.013 339.598 196.842 333.672 196.842C327.747 196.842 325.464 195.013 325.464 191.037V191.053Z" fill="#171553"/>
<path d="M345.417 172.399H349.786V196.615H345.417V172.399ZM350.375 184.205L357.011 172.399H361.848L355.001 184.205L361.954 196.615H357.117L350.39 184.205H350.375Z" fill="#171553"/>
<path d="M363.859 191.053V177.947C363.859 173.971 366.172 172.142 372.067 172.142C377.962 172.142 380.26 173.971 380.26 177.947V181.605H375.876V175.649H368.227V193.305H375.876V187.349H380.26V191.037C380.26 195.013 377.992 196.842 372.067 196.842C366.141 196.842 363.859 195.013 363.859 191.037V191.053Z" fill="#171553"/>
<path d="M383.812 172.399H388.196V182.603H395.603V172.399H399.956V196.615H395.603V185.701H388.196V196.615H383.812V172.399Z" fill="#171553"/>
<path d="M415.329 191.566H407.968L406.91 196.6H402.224L407.801 172.384H415.526L421.104 196.6H416.403L415.344 191.566H415.329ZM414.725 188.589L412.624 178.567C412.427 177.66 412.261 176.722 412.079 175.8H411.233C411.066 176.722 410.885 177.66 410.704 178.567L408.603 188.589H414.74H414.725Z" fill="#171553"/>
<path d="M423.523 172.399H427.876V196.615H423.523V172.399Z" fill="#171553"/>
<path d="M431.7 172.399H438.729L443.385 187.712C443.914 189.465 444.398 191.234 444.881 192.987H445.517V172.414H449.22V196.63H442.191L437.52 181.318C437.006 179.564 436.507 177.796 436.039 176.042H435.404V196.63H431.7V172.414V172.399Z" fill="#171553"/>
<path d="M457.58 172.399H461.872L464.049 187.5C464.291 189.36 464.548 191.219 464.775 193.063H465.531C465.757 191.219 466.03 189.375 466.286 187.546L468.644 172.399H475.431L477.79 187.546C478.062 189.39 478.319 191.234 478.545 193.063H479.332C479.543 191.219 479.8 189.36 480.042 187.5L482.234 172.399H486.512L482.446 196.615H475.522L473.134 181.227C472.877 179.519 472.62 177.811 472.408 176.118H471.683C471.456 177.811 471.199 179.519 470.942 181.227L468.569 196.615H461.631L457.564 172.399H457.58Z" fill="#171553"/>
<path d="M489.066 172.399H501.627V175.876H493.435V182.769H501.627V185.656H493.435V193.123H501.627V196.6H489.066V172.384V172.399Z" fill="#171553"/>
<path d="M504.908 172.399H517.454V175.876H509.261V182.769H517.454V185.656H509.261V193.123H517.454V196.6H504.908V172.384V172.399Z" fill="#171553"/>
<path d="M520.735 172.399H525.103V196.615H520.735V172.399ZM525.693 184.205L532.329 172.399H537.166L530.318 184.205L537.272 196.615H532.435L525.708 184.205H525.693Z" fill="#171553"/>
</svg>
