<?xml version="1.0" encoding="UTF-8"?>
<svg id="katman_2" data-name="katman 2" xmlns="http://www.w3.org/2000/svg" viewBox="0 0 1026.79 288.98">
  <defs>
    <style>
      .cls-1 {
        fill: #fff;
      }

      .cls-2 {
        fill: #ff394a;
      }
    </style>
  </defs>
  <g id="katman_1" data-name="katman 1">
    <g>
      <path class="cls-1" d="M608.94,283.33V85.36c0-3.5,2.82-6.35,6.32-6.39l43.25-.45c3.55-.04,6.46,2.84,6.46,6.39v13.95c9.77-7.47,20.4-13.36,31.89-17.67,11.78-4.31,24.42-6.46,37.93-6.46,14.37,0,25.43,2.15,33.19,6.46,8.04,4.31,14.22,10.49,18.53,18.53,9.48-7.47,20.26-13.5,32.33-18.1,12.36-4.6,26.86-6.9,43.53-6.9,23.56,0,40.95,6.18,52.15,18.53,11.21,12.07,16.81,30.6,16.81,55.6v134.47h-57.32v-128.01c0-13.5-2.87-23.13-8.62-28.88-5.75-6.03-14.94-9.05-27.58-9.05-17.24,0-29.45,6.18-40.95,18.53,0,6.8-.13,11.06,0,17.67v129.73h-54.3v-128.01c0-12.64-2.16-22.12-6.47-28.45-4.31-6.32-12.64-9.48-25-9.48-8.62,0-16.81,2.3-24.57,6.9-7.47,4.31-14.22,9.34-20.26,15.09v143.95h-57.32Z"/>
      <path class="cls-1" d="M447.44,287.64c-12.93,0-25-2.3-36.2-6.9-10.92-4.88-19.83-11.92-26.72-21.12-6.61-9.48-9.91-21.26-9.91-35.34,0-20.11,7.04-36.2,21.12-48.27,14.37-12.07,35.48-18.1,63.36-18.1h60.34v-5.6c0-12.64-3.59-21.55-10.77-26.72-6.9-5.17-20.97-7.76-42.24-7.76s-39.83,2.72-58.77,8.15c-4.19,1.2-8.47-1.88-8.47-6.24v-27.73c0-2.63,1.6-5,4.08-5.87,8.64-3.04,18.78-5.55,30.4-7.53,13.79-2.59,28.73-3.88,44.82-3.88,30.75,0,54.45,6.32,71.12,18.96,16.95,12.36,25.43,32.33,25.43,59.91v129.73l-53.44-.81v-17.73c-8.05,7.18-17.96,12.79-29.74,16.81-11.78,4.02-26.58,6.04-44.39,6.04ZM463.38,249.28c12.93,0,24.14-2.16,33.62-6.47,9.48-4.31,16.95-9.77,22.41-16.38v-32.33h-59.05c-22.7,0-34.05,9.34-34.05,28.02s12.36,27.15,37.07,27.15Z"/>
      <path class="cls-1" d="M269.01,287.64c-35.34,0-63.36-8.76-84.05-26.29-20.69-17.82-31.03-44.68-31.03-80.6,0-32.47,8.62-58.19,25.86-77.15,17.53-19.25,43.53-28.88,78.01-28.88,31.61,0,55.74,8.33,72.41,25,16.95,16.38,25.43,37.93,25.43,64.65v32.81c0,2.35-1.91,4.26-4.26,4.26h-143.57c3.16,16.38,10.63,27.58,22.41,33.62,12.07,6.04,29.02,9.05,50.86,9.05,10.92,0,21.98-1.01,33.19-3.02,7.56-1.32,14.37-2.9,20.44-4.72,4.31-1.29,8.87,1.83,8.87,6.34v29.25c0,1.67-.97,3.2-2.51,3.84-8.91,3.75-19.13,6.55-30.67,8.38-12.64,2.3-26.43,3.45-41.38,3.45ZM207.8,165.66h96.98v-11.21c0-11.78-3.45-20.98-10.34-27.58-6.9-6.9-18.53-10.34-34.91-10.34-19.25,0-32.76,3.88-40.51,11.64-7.47,7.76-11.21,20.26-11.21,37.5Z"/>
      <path class="cls-2" d="M1020.91,181.07h-46.78c-3.25,0-5.88-2.63-5.88-5.88V63.4c0-3.25-2.63-5.88-5.88-5.88h-25.57c-3.25,0-5.88-2.63-5.88-5.88V5.88c0-3.25,2.63-5.88,5.88-5.88h84.1c3.25,0,5.88,2.63,5.88,5.88v169.31c0,3.25-2.63,5.88-5.88,5.88Z"/>
      <path class="cls-1" d="M98.27,288.98c-23.56,0-41.09-6.18-52.58-18.53-11.21-12.36-16.81-29.16-16.81-50.43v-90.56c0-2.35-1.91-4.26-4.26-4.26H6.39c-3.53,0-6.39-2.86-6.39-6.39v-32.04c0-3.53,2.86-6.39,6.39-6.39h16.1c3.53,0,6.39-2.86,6.39-6.39V25.56c0-3.53,2.86-6.39,6.39-6.39h45.4c3.53,0,6.39,2.86,6.39,6.39v48.42c0,3.53,2.86,6.39,6.39,6.39h38.43c3.72,0,6.66,3.17,6.37,6.88l-2.46,32.04c-.26,3.33-3.03,5.9-6.37,5.9h-35.96c-3.53,0-6.39,2.86-6.39,6.39v84.55c0,11.21,2.59,18.97,7.76,23.28,5.17,4.02,13.22,6.03,24.14,6.03,5.36,0,10.85-.64,16.46-1.91,4.25-.97,8.53,2.11,8.53,6.47v28.36c0,1.73-1.04,3.3-2.67,3.9-5.58,2.06-11.59,3.58-18.02,4.57-7.47,1.44-15.8,2.16-25,2.16Z"/>
    </g>
  </g>
</svg>