<svg preserveAspectRatio="none" width="100%" height="100%" overflow="visible" style="display: block;" viewBox="0 0 719.899 113.399" fill="none" xmlns="http://www.w3.org/2000/svg">
<g id="Group">
<path id="Vector" d="M226.064 20.7093C227.454 18.3093 229.344 17.0092 231.724 16.8092C236.244 16.4292 241.254 17.0193 246.754 18.5893C248.754 19.1593 250.564 19.4992 252.204 19.6092C256.844 19.8992 265.814 20.3592 272.344 20.3192C295.564 20.1892 317.594 18.2492 338.424 14.5092C381.654 6.73925 403.484 2.81926 403.934 2.73926C404.274 2.67926 404.534 2.54924 404.634 2.37924C406.364 -0.560758 409.094 -0.500756 411.834 1.06924C413.674 2.10924 416.544 2.74925 418.114 4.41925C420.574 7.03925 419.814 10.6593 416.994 12.5793C412.094 15.9193 404.484 17.6592 399.244 18.8192C386.334 21.6492 375.604 23.7392 367.074 25.0692C345.934 28.3792 325.064 31.5192 305.164 33.3192C283.494 35.2792 264.304 36.7192 247.604 37.6192C240.244 38.0192 233.554 35.6692 227.524 30.5692C227.294 30.3792 227.034 30.2492 226.744 30.1892C222.824 29.3592 220.454 26.1692 223.434 22.7492C223.654 22.4992 224.344 22.0092 225.504 21.2892C225.734 21.1392 225.914 20.9493 226.054 20.7093H226.064Z" fill="var(--fill-0, #CEDDFF)"/>
<path id="Vector_2" d="M144.223 106.154C222.136 102.152 284.592 85.1817 283.723 68.2489C282.853 51.3161 218.987 40.8331 141.074 44.8346C63.161 48.836 0.704977 65.8066 1.57461 82.7394C2.44424 99.6722 66.3102 110.155 144.223 106.154Z" fill="var(--fill-0, #CEDDFF)"/>
<path id="Vector_3" d="M719.874 85.6318C719.888 72.4764 658.638 61.7476 583.069 61.6685C507.5 61.5894 446.228 72.1898 446.214 85.3452C446.2 98.5006 507.45 109.229 583.019 109.308C658.588 109.388 719.86 98.7872 719.874 85.6318Z" fill="var(--fill-0, #CEDDFF)"/>
</g>
</svg>
