<svg preserveAspectRatio="none" width="100%" height="100%" overflow="visible" style="display: block;" viewBox="0 0 299.327 520.291" fill="none" xmlns="http://www.w3.org/2000/svg">
<g id="Mirror">
<g id="Group">
<path id="Vector" d="M57.0898 316.199C56.3398 315.139 55.9198 314.369 55.7998 313.879C48.7798 284.649 44.1398 264.409 41.8698 253.159C39.8698 243.259 37.8598 233.369 35.8298 223.499C31.1998 201.029 28.6198 186.539 24.5898 167.129C22.9098 159.029 19.3798 140.289 13.9898 110.909C13.8998 110.379 11.6098 97.4888 7.10981 72.2388C6.84981 70.7888 6.27981 66.6988 5.37981 59.9688C4.21981 51.2588 4.20981 40.7588 7.14981 32.8588C10.2698 24.4588 16.5998 18.5088 26.1498 15.0088C31.5798 13.0188 36.8498 11.5288 41.9498 10.5488C58.6898 7.32875 75.9098 5.51875 93.6098 5.12875C97.1298 5.04875 99.1898 5.02875 99.7898 5.06875C102.09 5.18875 104.14 5.20875 105.95 5.12875C111.1 4.89875 117.57 5.03875 125.38 5.56875C128.52 5.77875 132.1 5.66875 135.34 5.71875C135.82 5.72875 136.3 5.67875 136.76 5.56875L138.66 5.12875C138.74 5.10875 138.82 5.10875 138.9 5.10875C154.53 5.78875 170.64 7.80875 183.69 16.1188C189.05 19.5288 193.69 24.5488 197.63 31.1888C204.13 42.1288 208.53 51.4988 211.1 62.9088C212.75 70.2088 215.27 80.5487 218.66 93.9287C221.07 103.489 222.99 110.659 224.41 115.449C228.44 129.069 231.97 142.539 235.87 155.879C239.83 169.389 241.97 180.269 245.55 195.099C248.94 209.119 252 224.459 256.32 242.939C263.48 273.619 269.05 303.599 276.35 343.519C281.14 369.669 286.76 405.679 291.79 431.319C293.03 437.629 293.74 442.809 293.92 446.869C294.52 460.159 294.54 470.709 290.13 482.379C287.64 488.939 281.99 493.859 275.25 497.039C269.68 499.659 263.8 501.559 257.61 502.719C231.41 507.649 203.73 511.409 174.58 514.009C169.17 514.489 164.19 514.809 159.63 514.969C150.52 515.289 142.81 515.759 134.06 515.119C128.66 514.719 124.04 513.089 119.5 509.579C113.06 504.579 108.51 498.199 105.85 490.429C103.01 482.159 101.49 477.689 101.29 477.019C97.8398 465.839 95.3498 457.849 93.8098 453.049C90.5798 442.929 87.7298 432.459 84.7498 422.079C82.5298 414.299 78.4698 399.679 72.5698 378.209C67.2198 358.709 62.2298 338.179 58.0098 322.359C57.4898 320.419 57.5498 319.009 57.4398 317.259C57.4198 316.879 57.2898 316.509 57.0698 316.189L57.0898 316.199ZM36.9498 170.279C44.6498 208.109 52.0298 247.899 56.7098 269.289C58.6398 278.129 60.8098 288.629 63.2098 300.819C64.7398 308.589 68.0098 323.399 72.9998 345.239C75.2398 355.029 77.2098 362.919 78.9098 368.909C86.2198 394.519 93.3798 417.209 107.56 462.679C109.42 468.639 111.64 474.289 113.05 479.139C114.62 484.549 116.27 488.519 117.99 491.059C122.61 497.869 129.47 501.529 138.57 502.039C142 502.229 144.65 502.129 148.27 502.489C150.82 502.739 153.79 502.809 157.19 502.719C179.48 502.059 202.73 500.169 225.18 496.709C240.34 494.369 249.33 492.969 252.14 492.509C257.09 491.719 261.82 490.529 266.31 488.939C278.02 484.799 284.36 476.259 285.34 463.299C285.74 458.119 284.81 453.109 284.83 447.739C284.83 446.179 284.64 444.199 284.25 441.789C279.64 413.659 276.69 396.379 275.4 389.959C268.48 355.579 262.93 328.689 257.59 300.469C252.49 273.489 246.85 248.459 237.73 205.859C233.99 188.349 230.1 172.079 226.06 157.039C223.23 146.499 221 136.519 218.15 126.099C216.41 119.729 214.46 111.969 212.31 102.839C208.83 88.0888 205.32 74.7688 201.78 62.8888C201.41 61.6588 201.33 59.9688 201 58.7788C199.07 51.5888 195.73 44.2588 190.98 36.7688C187.87 31.8788 183.92 27.9288 179.11 24.9288C173.22 21.2588 166.59 18.7288 159.21 17.3188C150.8 15.7188 140.68 14.7788 128.85 14.4888C120.67 14.2888 114.53 14.2088 110.43 14.2388C103.23 14.2888 92.4998 14.6288 78.2198 15.2688C66.7098 15.7888 55.5498 17.0288 44.7398 18.9888C43.4698 19.2188 41.6098 19.6788 39.1498 20.3688C33.8098 21.8588 29.0598 22.7788 24.6698 26.7688C18.0898 32.7288 15.1898 44.7088 15.5898 53.0888C15.9598 61.0488 17.0998 69.3288 19.0198 77.9188C20.1898 83.2088 21.0398 87.6287 21.5698 91.1787C23.0898 101.439 24.3098 108.729 25.2198 113.039C27.1898 122.379 31.1098 141.459 36.9698 170.279H36.9498Z" fill="var(--fill-0, #98C6E7)"/>
<path id="Vector_2" d="M45.6998 295.619C45.7098 295.559 45.7698 295.519 45.8298 295.529C45.8598 295.529 45.8898 295.559 45.9098 295.589C45.9698 295.709 45.9998 295.779 45.9998 295.799C45.9998 295.899 45.9298 295.979 45.8298 295.989C45.7598 295.989 45.6998 295.959 45.6698 295.899C45.6698 295.889 45.6798 295.799 45.6998 295.619Z" fill="var(--fill-0, black)"/>
<path id="Vector_3" d="M45.4698 297.319C45.4898 297.099 45.6898 296.929 45.9098 296.959C46.0898 296.979 46.2398 297.109 46.2698 297.289L47.0198 301.209C47.0298 301.289 47.0498 301.369 47.0698 301.449L52.2398 322.339C52.4298 323.089 52.4798 323.869 52.3898 324.629C51.6598 331.109 50.6498 338.369 49.3698 346.419C48.1298 354.189 46.9698 363.769 45.8898 375.169C44.0698 394.519 42.1198 415.659 41.4198 435.939C41.1398 443.769 40.5498 451.889 39.6398 460.289C39.0198 465.959 39.7998 475.429 47.2098 476.229C62.3498 477.859 78.3698 478.019 95.2798 476.729C95.7498 476.699 96.1798 476.989 96.3098 477.439L97.4398 481.269C97.5498 481.659 97.3298 482.059 96.9498 482.179C96.9098 482.189 96.8598 482.199 96.8198 482.209C86.7298 483.249 78.1598 484.139 71.1298 484.859C63.6798 485.619 56.0998 485.729 48.4098 485.199C43.0298 484.829 38.4598 483.149 34.7098 480.169C34.4698 479.979 34.2598 479.759 34.0798 479.519C32.0498 476.789 30.9598 473.579 30.8198 469.869C29.9098 446.069 32.5898 421.979 35.4098 398.739C39.5298 364.819 41.8298 336.339 45.4698 297.309V297.319Z" fill="var(--fill-0, #498CBD)"/>
<path id="Vector_4" d="M48.1798 403.109L48.1398 404.069C48.0898 403.729 48.0998 403.409 48.1798 403.109Z" fill="var(--fill-0, #3D4960)"/>
<path id="Vector_5" d="M45.7898 439.959L45.6798 440.969C45.6398 440.569 45.6798 440.229 45.7898 439.959Z" fill="var(--fill-0, #3D4960)"/>
<path id="Vector_6" d="M53.9398 472.459C53.5898 472.509 53.3098 472.469 53.0698 472.349L53.9398 472.459Z" fill="var(--fill-0, #3D4960)"/>
<path id="Vector_7" d="M83.4498 472.349C83.0398 472.509 82.5698 472.539 82.0198 472.449L83.4498 472.349Z" fill="var(--fill-0, #3D4960)"/>
</g>
<path id="Vector_8" d="M36.9498 170.279C31.0898 141.459 27.1698 122.379 25.1998 113.039C24.2898 108.729 23.0798 101.449 21.5498 91.1788C21.0198 87.6288 20.1698 83.2088 18.9998 77.9188C17.0898 69.3288 15.9498 61.0488 15.5698 53.0888C15.1698 44.7088 18.0698 32.7288 24.6498 26.7688C29.0398 22.7788 33.7998 21.8588 39.1298 20.3688C41.5898 19.6788 43.4498 19.2288 44.7198 18.9888C55.5298 17.0288 66.6898 15.7888 78.1998 15.2688C92.4698 14.6288 103.21 14.2888 110.41 14.2388C114.51 14.2088 120.65 14.2888 128.83 14.4888C140.66 14.7788 150.78 15.7188 159.19 17.3188C166.57 18.7188 173.21 21.2588 179.09 24.9288C183.9 27.9288 187.85 31.8688 190.96 36.7688C195.71 44.2588 199.05 51.5888 200.98 58.7788C201.3 59.9688 201.39 61.6588 201.76 62.8888C205.3 74.7688 208.81 88.0888 212.29 102.839C214.44 111.969 216.39 119.719 218.13 126.099C220.98 136.529 223.22 146.509 226.04 157.039C230.07 172.079 233.96 188.349 237.71 205.859C246.83 248.459 252.47 273.489 257.57 300.469C262.92 328.679 268.47 355.579 275.38 389.959C276.67 396.379 279.62 413.659 284.23 441.789C284.62 444.189 284.82 446.179 284.81 447.739C284.79 453.109 285.72 458.119 285.32 463.299C284.34 476.259 278 484.799 266.29 488.939C261.8 490.529 257.07 491.719 252.12 492.509C249.31 492.959 240.32 494.359 225.16 496.709C202.71 500.169 179.46 502.059 157.17 502.719C153.77 502.819 150.8 502.739 148.25 502.489C144.64 502.129 141.98 502.229 138.55 502.039C129.45 501.529 122.59 497.869 117.97 491.059C116.25 488.519 114.6 484.539 113.03 479.139C111.62 474.289 109.39 468.639 107.54 462.679C93.3598 417.219 86.1898 394.529 78.8898 368.909C77.1798 362.919 75.2098 355.029 72.9798 345.239C67.9798 323.399 64.7198 308.589 63.1898 300.819C60.7898 288.639 58.6298 278.129 56.6898 269.289C52.0098 247.899 44.6398 208.109 36.9298 170.279H36.9498ZM32.9198 125.239L42.5998 172.389L45.5598 186.199L46.7498 192.249L50.1498 210.359L60.5598 261.909L67.0798 292.039C66.9598 293.949 67.3698 295.639 68.3398 297.089C68.3598 297.249 68.3998 297.519 68.4598 297.899C69.7098 304.879 70.6998 309.919 71.4198 313.029C76.1598 333.279 80.3998 353.659 86.4598 374.939C91.6598 393.159 96.3098 408.549 100.43 421.099C102.64 427.869 105.73 437.919 109.69 451.259C109.8 451.619 110.03 451.929 110.38 452.179C110.19 452.149 110.06 452.219 109.99 452.389C109.97 452.439 109.97 452.489 109.99 452.539L112.08 459.489L119.03 482.399L121.06 486.639C123.96 491.959 128.13 495.319 133.58 496.689C135.76 497.179 138.09 497.449 140.6 497.499C146.23 497.629 149.17 497.449 151.81 497.909C151.98 497.939 152.15 497.949 152.31 497.939L180.25 496.669C182.26 496.449 187.08 496.049 194.69 495.479C210.56 494.289 230.5 490.719 248.33 487.869C253.08 487.109 256.99 486.349 260.05 485.589C264.8 484.409 268.17 483.119 270.18 481.729C276.18 477.559 279.51 471.859 280.18 464.629C280.72 458.809 280.43 451.699 279.31 443.319C279.26 442.969 279.23 442.489 279.21 441.869C279.21 441.509 279.15 441.009 279.03 440.369C275.77 421.379 272.43 402.259 268.99 382.989L257.13 323.829C248.29 276.609 237.34 225.129 227.42 182.729C224.24 169.129 220.11 154.789 216.84 140.649C215.24 133.789 211.83 121.819 210.36 115.579C205.9 96.6188 201.7 79.3988 197.74 63.9388C196.66 59.7088 195.5 56.2088 194.25 53.4488C190.31 44.6988 186.56 36.1488 178.72 29.9788C176.53 28.2588 173.04 26.3788 168.26 24.3388C162.95 22.3188 158.24 21.1288 154.16 20.7588C147.45 20.1588 137.55 19.7588 124.45 19.5688C124.26 19.4288 124.04 19.3688 123.8 19.3788C123.62 19.3888 123.54 19.4488 123.56 19.5588L111.83 19.2988C94.0198 18.9488 76.2698 19.6488 58.5698 21.3788C53.7598 21.8488 48.8098 22.7688 43.6098 23.7388C41.8498 24.0688 38.2898 25.2988 32.9098 27.4288C27.9298 29.3988 25.1698 32.7788 23.2598 37.6088C21.0598 43.1688 20.1598 48.8688 20.5498 54.7288C21.1298 63.5688 22.3498 71.7988 24.1998 79.4488C25.2498 83.7788 26.1598 88.2488 26.9298 92.8788C28.7298 103.709 30.7498 114.489 32.9698 125.229L32.9198 125.239Z" fill="var(--fill-0, #4B6AA9)"/>
<g id="Group_2">
<path id="Vector_9" d="M111.8 19.3188C112.06 19.9488 112.04 20.4488 111.74 20.8288C84.2798 54.1588 58.5198 88.7388 34.4298 124.579C34.0198 125.199 33.6298 125.239 32.9198 125.249C30.6998 114.509 28.6898 103.719 26.8798 92.8988C26.1098 88.2688 25.1998 83.7888 24.1498 79.4688C22.2998 71.8288 21.0898 63.5888 20.4998 54.7488C20.1098 48.8988 21.0198 43.1888 23.2098 37.6288C25.1198 32.7888 27.8798 29.4188 32.8598 27.4488C38.2398 25.3188 41.8098 24.0888 43.5598 23.7588C48.7598 22.7888 53.7098 21.8688 58.5198 21.3988C76.2198 19.6688 93.9698 18.9688 111.78 19.3188H111.8Z" fill="var(--fill-0, #E2F8FF)"/>
<path id="Vector_10" d="M123.53 19.5788C123.83 19.7088 124.13 19.7088 124.42 19.5788C137.52 19.7688 147.43 20.1688 154.13 20.7688C158.22 21.1388 162.92 22.3288 168.23 24.3488C142.3 56.8288 122.99 81.0088 98.1198 109.479C97.9398 109.689 97.8598 110.099 97.8798 110.709C96.8798 110.769 96.2498 110.929 95.9798 111.179C87.0898 113.189 78.8498 116.229 71.2798 120.299C68.2798 121.909 64.7698 124.469 60.7398 127.999C56.4298 131.769 53.6498 136.099 52.4298 140.979C50.6398 148.119 49.6998 155.359 49.6298 162.709L49.4298 164.389C46.6798 166.909 44.4098 169.569 42.6098 172.389L32.9298 125.239C33.6298 125.239 34.0198 125.179 34.4398 124.569C58.5198 88.7287 84.2898 54.1488 111.75 20.8188C112.06 20.4488 112.08 19.9488 111.81 19.3088L123.54 19.5688L123.53 19.5788Z" fill="var(--fill-0, #C0E1FF)"/>
<path id="Vector_11" d="M124.42 19.5788C124.13 19.6988 123.83 19.6988 123.53 19.5788C123.51 19.4688 123.59 19.4088 123.77 19.3988C124.01 19.3788 124.22 19.4488 124.42 19.5888V19.5788Z" fill="var(--fill-0, black)"/>
<path id="Vector_12" d="M257.1 323.839L255.68 324.419C253.45 317.979 250.8 311.699 247.73 305.579C247.48 305.079 247.32 304.529 247.26 303.979C246.05 292.389 244.22 281.299 241.78 270.699C237.74 253.109 236.45 245.699 232.55 227.109C231.34 221.359 230.04 216.199 228.66 211.619C225.55 201.309 223.73 196.199 220.4 188.619C220.24 188.279 220.29 187.869 220.51 187.569C223.37 183.699 222.42 180.269 219.52 177.299C217.56 175.289 214.83 173.169 211.34 170.929C204.85 166.779 199.59 163.579 195.57 161.319C195.31 161.169 195.17 160.889 195.21 160.589L195.79 156.399C195.85 155.949 196.19 155.589 196.63 155.499C199.75 154.859 205 152.999 204.29 148.919C203.66 145.229 196.6 145.679 193.61 145.549C191.22 145.449 189.37 144.719 188.02 143.159C183.37 137.819 177.77 134.299 171.23 132.589C170.96 132.519 170.74 132.319 170.63 132.059C167.18 123.629 162.57 115.749 153.79 112.209C136.31 105.149 116.55 105.859 97.8798 110.719C97.8598 110.099 97.9398 109.689 98.1198 109.489C122.99 81.0188 142.3 56.8388 168.23 24.3588C173.01 26.3988 176.5 28.2788 178.69 29.9988C186.53 36.1588 190.28 44.7188 194.22 53.4688C195.47 56.2388 196.63 59.7288 197.71 63.9588C201.67 79.4288 205.88 96.6388 210.33 115.599C211.8 121.849 215.21 133.809 216.81 140.669C220.08 154.809 224.21 169.139 227.39 182.749C237.31 225.149 248.26 276.629 257.1 323.849V323.839Z" fill="var(--fill-0, #E2F8FF)"/>
<path id="Vector_13" d="M255.68 324.409L255.82 325.069C255.63 325.029 255.44 325.029 255.28 325.069C255.13 325.099 254.99 325.199 254.86 325.369C253.83 326.669 252.75 328.009 251.64 329.379C251.63 329.399 251.62 329.419 251.62 329.439C249.57 322.769 247.14 316.279 244.34 309.999C243.47 308.039 242.48 305.199 241.84 303.229C241.69 302.779 241.72 302.279 241.92 301.839L242.36 300.869C242.46 300.659 242.49 300.429 242.46 300.209C240.76 288.799 239.05 279.199 237.31 271.399C233.29 253.419 232.54 248.879 228.88 230.819C226.63 219.729 224.12 210.639 221.24 202.139C220.15 198.949 218.14 194.209 215.2 187.929C214.62 186.679 213.98 185.599 213.28 184.699C213.09 184.459 212.8 184.319 212.5 184.309C204.33 184.199 202.36 200.729 202.02 206.689C200.81 227.789 200.91 247.529 201.81 269.619C202.17 278.279 201.86 288.709 202.57 296.319C202.6 296.639 202.53 296.959 202.36 297.239C201.35 298.949 198.93 298.339 198.6 296.439C198.31 294.739 198.13 292.679 198.06 290.259C197.85 282.769 197.56 275.169 197.18 267.459C196.64 252.809 196.39 241.569 196.44 233.749C196.48 227.079 196.89 217.919 197.68 206.279C197.98 203.759 197.84 201.239 197.26 198.719C196.24 194.279 195.03 189.869 193.63 185.489C193.56 185.249 193.34 185.089 193.1 185.079L187.26 184.859C177.01 184.679 166.86 185.119 156.82 186.169C146.85 187.039 137.22 188.429 127.92 190.319C113.55 192.719 99.4798 195.889 85.6798 199.809L69.6998 205.159L56.3698 211.289C56.1398 211.399 55.9798 211.629 55.9698 211.879C55.6898 218.669 55.9498 225.589 56.7498 232.619C57.9298 243.129 61.9798 254.159 66.2898 263.099C70.9798 272.789 74.6898 280.429 77.4398 286.019C79.5698 290.359 71.8998 295.589 68.3798 297.089C67.4198 295.629 66.9998 293.949 67.1198 292.039L72.8198 287.469C73.0198 287.309 73.0798 287.029 72.9598 286.809C71.3898 283.809 69.6798 281.069 68.1998 277.869C65.7498 272.539 63.2098 267.219 60.5898 261.909L50.1798 210.359C52.3298 208.699 54.5298 207.319 56.7698 206.239C60.6698 204.359 64.3898 202.639 67.9098 201.079C78.7498 197.119 89.5498 193.839 100.3 191.249C119.4 186.639 138.31 183.419 157.05 181.599C167.79 180.559 179.78 180.189 193.03 180.469C197.7 180.569 201.71 181.259 206.19 181.769C206.46 181.799 206.74 181.729 206.96 181.569C209.51 179.759 211.5 179.719 214.24 180.119C214.32 180.119 214.38 180.079 214.39 179.999C214.39 179.949 214.38 179.909 214.34 179.879C211.77 177.879 209.68 176.379 208.06 175.379C198.81 169.699 189.04 163.829 178.75 157.759C175.53 155.859 174.13 153.409 172.64 150.179C172.51 149.889 172.23 149.689 171.91 149.669C156.02 148.619 139.9 149.129 123.56 151.209C123.43 151.219 123.34 151.339 123.35 151.459C123.35 151.529 123.39 151.589 123.44 151.629C126.47 154.089 128.03 157.249 128.11 161.089C128.11 161.759 127.85 162.599 127.91 163.209C127.94 163.449 128.15 163.619 128.39 163.599C128.41 163.599 128.43 163.599 128.46 163.589C132.75 162.399 139.43 161.069 148.49 159.599C153.01 158.859 156.44 158.489 158.78 158.499C159.4 158.499 159.94 158.949 160.04 159.559L160.1 159.889C160.23 160.619 159.74 161.319 159.01 161.449L126.93 167.179C126.74 167.219 126.57 167.329 126.48 167.499C124.54 170.969 121.86 173.409 118.46 174.809C112.33 177.339 106.75 176.349 101.75 171.849C101.59 171.699 101.35 171.719 101.2 171.879C101.16 171.919 101.13 171.979 101.11 172.029L100.99 172.429C100.88 172.799 100.55 173.049 100.17 173.079C91.4798 173.689 80.9698 178.559 73.6998 183.059C73.5298 183.169 73.3898 183.309 73.2798 183.479L72.0898 185.349C72.0398 185.439 71.9698 185.519 71.8998 185.579C69.7898 187.479 67.8598 187.529 66.1198 185.739C65.1198 184.699 64.6298 182.869 64.0098 181.569C63.8698 181.269 63.6198 181.049 63.3098 180.939C61.0798 180.169 57.6298 179.129 57.4698 176.279C57.2998 173.209 60.8198 172.589 63.4598 171.739C64.0898 171.539 64.5898 171.039 64.7898 170.399L65.9198 166.729C65.9898 166.499 65.8698 166.259 65.6398 166.189C65.5198 166.149 65.3998 166.169 65.2898 166.229L53.9698 172.779C53.7298 172.909 53.5698 173.149 53.5298 173.409C52.9398 177.219 53.3898 179.869 54.8798 181.349C52.5798 185.159 49.8898 188.799 46.7998 192.259L45.6098 186.209L48.5898 183.279C48.7498 183.119 48.8498 182.899 48.8598 182.659L49.4698 164.399L49.6698 162.719C50.3998 162.679 50.8898 162.539 51.1398 162.299C54.5598 158.919 57.8198 155.119 60.9098 150.889C61.3598 150.089 62.7098 149.179 64.9798 148.179C68.0398 146.459 71.3198 145.059 74.8398 143.979C75.1198 143.899 75.3298 143.659 75.3698 143.359C75.7298 141.159 76.3998 139.599 77.3998 138.689C79.4898 136.789 81.8298 137.149 83.2198 139.579C83.4498 139.989 83.6198 140.249 83.7298 140.369C83.9198 140.579 84.2098 140.659 84.4798 140.559C93.4098 137.359 102.62 135.079 112.1 133.739C112.36 133.699 112.59 133.569 112.75 133.369C113.26 132.719 113.8 132.039 114.35 131.339C118.57 125.969 126.27 125.479 130.43 131.649C130.58 131.869 130.85 131.989 131.12 131.949C142.47 130.169 153.45 129.789 164.05 130.819C164.16 130.819 164.26 130.749 164.27 130.639C164.27 130.609 164.27 130.569 164.25 130.539C161.91 125.439 158.42 119.759 153.35 117.329C138.64 110.269 120.72 110.289 104.99 113.739C98.8298 115.089 94.7698 116.089 92.8098 116.729C92.4598 116.639 92.0298 116.649 91.5198 116.759C93.4798 115.049 94.9798 113.199 96.0198 111.189C96.2898 110.939 96.9198 110.779 97.9198 110.719C116.59 105.859 136.35 105.149 153.83 112.209C162.61 115.749 167.22 123.629 170.67 132.059C170.78 132.319 171 132.519 171.27 132.589C177.82 134.299 183.41 137.829 188.06 143.159C189.41 144.719 191.26 145.449 193.65 145.549C196.64 145.679 203.69 145.229 204.33 148.919C205.03 152.999 199.79 154.859 196.67 155.499C196.22 155.589 195.89 155.949 195.83 156.399L195.25 160.589C195.21 160.879 195.36 161.169 195.61 161.319C199.63 163.579 204.89 166.779 211.38 170.929C214.87 173.169 217.6 175.289 219.56 177.299C222.46 180.269 223.41 183.699 220.55 187.569C220.32 187.879 220.28 188.279 220.44 188.619C223.77 196.199 225.59 201.309 228.7 211.619C230.08 216.189 231.38 221.359 232.59 227.109C236.49 245.699 237.77 253.109 241.82 270.699C244.26 281.299 246.09 292.389 247.3 303.979C247.36 304.539 247.52 305.079 247.77 305.579C250.84 311.699 253.49 317.979 255.72 324.419L255.68 324.409ZM126.31 133.929C126.39 134.019 126.52 134.019 126.61 133.929C126.7 133.849 126.7 133.719 126.61 133.629C123.38 129.199 117.7 131.799 116.15 135.999C115.91 136.649 115.93 137.309 116.21 137.959C117.67 141.399 117.81 144.659 116.65 147.739C116.54 148.039 116.68 148.369 116.98 148.479C117.02 148.499 117.07 148.509 117.11 148.509L117.77 148.599C118.15 148.649 118.49 148.389 118.55 148.009C118.84 145.839 118.71 143.749 118.17 141.719C117.6 139.629 117.81 136.389 118.89 135.009C121.2 132.089 123.67 131.719 126.31 133.919V133.929ZM169.74 144.999C169.91 145.009 170.06 144.879 170.08 144.709C170.08 144.659 170.08 144.619 170.06 144.579L166.64 135.809C166.56 135.589 166.36 135.439 166.12 135.409C154.58 134.029 142.29 134.659 130.9 135.909C130.62 135.939 130.36 136.069 130.16 136.269L128.47 137.959C128.41 138.019 128.33 138.079 128.25 138.109C126.4 139.059 124.83 138.679 123.54 136.979C123.34 136.709 122.97 136.659 122.7 136.859C122.63 136.909 122.58 136.969 122.53 137.049C122.08 137.829 121.95 138.679 122.15 139.619C122.95 143.429 123.3 145.729 123.2 146.519C123.17 146.749 123.33 146.949 123.56 146.979C123.6 146.979 123.64 146.979 123.67 146.979C138.59 145.029 154.42 143.969 169.74 144.999ZM88.4398 154.539C93.3798 152.639 98.3398 151.229 103.31 150.319C103.97 150.199 104.58 150.159 105.12 150.219C105.42 150.249 105.72 150.179 105.97 150.009C107.62 148.879 109.55 148.159 111.74 147.839C112.06 147.789 112.32 147.579 112.44 147.289C113.61 144.389 113.45 141.419 111.96 138.379C111.85 138.149 111.6 138.029 111.35 138.059C102.36 139.509 93.6698 141.699 85.2698 144.619C84.9998 144.709 84.8198 144.959 84.8098 145.249L84.6998 150.519C84.6998 150.759 84.8198 150.979 85.0298 151.099C85.9698 151.649 86.8098 152.689 87.5598 154.199C87.7198 154.509 88.0898 154.659 88.4198 154.529L88.4398 154.539ZM197.66 150.299C197.66 150.299 195.9 150.159 192.44 149.889C188.03 149.549 185.8 147.179 182.71 143.919C180.57 141.669 177.56 139.679 173.66 137.929C173.52 137.859 173.35 137.929 173.28 138.069C173.25 138.139 173.25 138.219 173.28 138.289L178.66 152.079C178.76 152.349 178.96 152.569 179.22 152.699L190.86 158.709C191 158.779 191.17 158.709 191.24 158.579C191.26 158.529 191.27 158.469 191.27 158.419C190.69 154.629 192.27 152.069 195.75 151.169C196.93 150.869 197.58 150.689 197.69 150.639C197.79 150.589 197.83 150.479 197.78 150.379C197.76 150.339 197.72 150.299 197.67 150.279L197.66 150.299ZM80.1998 150.639C80.6198 150.619 80.8798 148.779 80.7798 146.529C80.6698 144.279 80.2398 142.479 79.8198 142.499C79.3998 142.519 79.1398 144.359 79.2398 146.609C79.3398 148.859 79.7798 150.659 80.1998 150.639ZM53.6598 166.939C53.6298 167.119 53.7598 167.289 53.9498 167.309C54.0198 167.309 54.0798 167.309 54.1498 167.279L67.8998 160.249C68.0498 160.179 68.1698 160.049 68.2498 159.899C70.0398 156.479 72.3898 153.869 75.2998 152.089C75.6498 151.879 75.8298 151.479 75.7598 151.079L75.3498 148.779C75.2898 148.469 74.9998 148.259 74.6798 148.309C74.6398 148.309 74.6098 148.329 74.5798 148.339C67.8398 150.929 61.2898 154.929 54.9398 160.329C54.6698 160.559 54.4898 160.889 54.4498 161.249L53.6698 166.939H53.6598ZM105.63 156.999C112.5 157.089 117.88 159.219 121.74 163.409C122.16 163.869 122.88 163.889 123.33 163.459C123.61 163.199 123.74 162.809 123.67 162.439L123.1 159.259C122.91 158.189 122.42 157.189 121.67 156.379C119.21 153.699 114.95 151.269 111.31 152.259C108.83 152.939 106.84 154.359 105.36 156.519C105.26 156.659 105.3 156.859 105.44 156.959C105.49 156.999 105.55 157.009 105.62 157.019L105.63 156.999ZM63.3798 176.639C66.2098 177.349 67.9198 179.109 68.5198 181.929C68.5798 182.199 68.8398 182.359 69.1098 182.299C69.2798 182.259 69.4098 182.139 69.4698 181.979C70.2498 179.759 71.1098 177.829 72.0498 176.179C73.6798 173.339 76.6498 170.999 79.3798 167.929C82.3498 164.589 83.7898 161.029 83.7098 157.249C83.6598 154.839 82.5698 153.929 80.4398 154.509C77.5798 155.299 75.1098 157.239 73.0398 160.329C72.7098 160.829 72.6698 161.529 72.4998 162.109C72.4298 162.339 72.3098 162.539 72.1398 162.709C71.3298 163.499 70.7498 164.539 70.4098 165.809C69.1298 170.529 68.9398 174.679 63.3898 176.199C63.2698 176.229 63.1998 176.339 63.2198 176.459C63.2398 176.549 63.3098 176.609 63.3998 176.629L63.3798 176.639ZM77.4298 176.579C84.2098 173.049 91.8598 169.819 99.5198 169.859C99.6898 169.859 99.8398 169.729 99.8398 169.549C99.8398 169.499 99.8398 169.449 99.8098 169.399C97.5898 164.769 97.9898 160.159 101.03 155.559C101.12 155.419 101.08 155.239 100.95 155.139C100.88 155.089 100.79 155.079 100.7 155.099L88.9898 158.549C88.5198 158.689 88.1798 159.089 88.1098 159.569C87.0798 166.859 82.4298 171.439 77.2798 176.349C77.2298 176.409 77.2398 176.489 77.2898 176.539C77.3298 176.569 77.3798 176.579 77.4298 176.559V176.579ZM120.57 167.499C115.96 162.909 110.26 160.869 103.47 161.359C103.19 161.379 102.95 161.579 102.89 161.859C102.22 164.839 103.15 167.299 105.69 169.239C110.27 172.729 116.52 172.009 120.57 167.939C120.69 167.819 120.69 167.629 120.57 167.499ZM200.26 190.919C200.26 190.919 200.37 190.879 200.39 190.839C201.8 188.089 202.61 186.519 202.81 186.139C202.89 185.979 202.83 185.789 202.67 185.699C202.66 185.699 202.65 185.689 202.64 185.679C202.47 185.619 201.81 185.539 200.66 185.449C199.52 185.369 198.85 185.349 198.68 185.389C198.51 185.429 198.4 185.599 198.44 185.779C198.44 185.789 198.44 185.799 198.44 185.809C198.58 186.219 199.14 187.879 200.13 190.819C200.15 190.859 200.21 190.909 200.25 190.919H200.26Z" fill="var(--fill-0, #606060)"/>
<path id="Vector_14" d="M95.9798 111.189C94.9398 113.189 93.4398 115.049 91.4798 116.759C89.2698 117.479 85.7098 118.799 80.7898 120.739C74.3798 123.259 68.9398 126.509 64.4598 130.499C60.1798 134.309 57.7798 137.299 56.4198 143.149C55.4398 147.369 54.7998 151.119 54.4998 154.379C54.4898 154.579 54.6298 154.749 54.8298 154.759C54.9098 154.759 54.9898 154.749 55.0498 154.699L60.8598 150.899C57.7698 155.119 54.5098 158.929 51.0898 162.309C50.8398 162.549 50.3498 162.689 49.6198 162.729C49.6998 155.379 50.6298 148.139 52.4198 140.999C53.6498 136.119 56.4198 131.789 60.7298 128.019C64.7598 124.499 68.2698 121.929 71.2698 120.319C78.8398 116.249 87.0698 113.209 95.9698 111.199L95.9798 111.189Z" fill="var(--fill-0, #3D4960)"/>
<path id="Vector_15" d="M64.9298 148.169C64.7098 148.219 64.5198 148.169 64.3598 147.979C64.2798 147.879 64.2798 147.739 64.3598 147.629C70.5898 140.679 76.7898 133.729 82.9798 126.749C86.2398 123.059 88.7998 119.309 92.7598 116.709C94.7298 116.069 98.7898 115.069 104.94 113.719C120.67 110.269 138.59 110.249 153.3 117.309C158.36 119.739 161.85 125.429 164.2 130.519C164.25 130.619 164.2 130.739 164.1 130.789C164.07 130.799 164.03 130.809 164 130.809C153.4 129.779 142.42 130.159 131.07 131.939C130.8 131.979 130.54 131.859 130.38 131.639C126.22 125.479 118.52 125.959 114.3 131.329C113.74 132.029 113.21 132.709 112.7 133.359C112.54 133.559 112.31 133.699 112.05 133.729C102.57 135.069 93.3598 137.349 84.4298 140.549C84.1698 140.649 83.8698 140.569 83.6798 140.359C83.5698 140.239 83.3998 139.969 83.1698 139.569C81.7798 137.139 79.4398 136.779 77.3498 138.679C76.3498 139.589 75.6698 141.149 75.3198 143.349C75.2798 143.639 75.0698 143.879 74.7898 143.969C71.2698 145.039 67.9898 146.439 64.9298 148.169Z" fill="var(--fill-0, #C8B39B)"/>
<path id="Vector_16" d="M91.4798 116.749C91.9898 116.639 92.4198 116.629 92.7698 116.719C88.8198 119.319 86.2598 123.079 82.9898 126.759C76.7998 133.729 70.5898 140.689 64.3698 147.639C64.2798 147.739 64.2798 147.889 64.3698 147.989C64.5298 148.169 64.7198 148.229 64.9398 148.179C62.6798 149.179 61.3198 150.089 60.8698 150.889L55.0598 154.689C54.8998 154.799 54.6698 154.749 54.5698 154.589C54.5298 154.519 54.5098 154.449 54.5098 154.369C54.8098 151.109 55.4498 147.369 56.4298 143.139C57.7898 137.299 60.1898 134.299 64.4698 130.489C68.9498 126.499 74.3898 123.249 80.7998 120.729C85.7198 118.799 89.2798 117.469 91.4898 116.749H91.4798Z" fill="var(--fill-0, #A59C9B)"/>
<path id="Vector_17" d="M67.8898 201.099C64.8098 193.539 60.4598 186.959 54.8398 181.349C53.3398 179.869 52.8898 177.219 53.4898 173.409C53.5298 173.139 53.6898 172.909 53.9298 172.779L65.2498 166.229C65.4598 166.109 65.7298 166.179 65.8498 166.389C65.9098 166.489 65.9198 166.619 65.8898 166.729L64.7598 170.399C64.5598 171.029 64.0698 171.529 63.4298 171.739C60.7998 172.599 57.2698 173.209 57.4398 176.279C57.5998 179.119 61.0498 180.169 63.2798 180.939C63.5898 181.049 63.8398 181.279 63.9798 181.569C64.5998 182.869 65.0798 184.699 66.0898 185.739C67.8298 187.529 69.7498 187.469 71.8698 185.579C71.9498 185.509 72.0098 185.429 72.0598 185.349L73.2498 183.479C73.3598 183.309 73.5098 183.169 73.6698 183.059C80.9398 178.559 91.4498 173.689 100.14 173.079C100.52 173.059 100.84 172.799 100.96 172.429L101.08 172.029C101.15 171.819 101.37 171.699 101.57 171.769C101.63 171.789 101.68 171.819 101.72 171.859C106.73 176.359 112.3 177.339 118.43 174.819C121.83 173.419 124.51 170.989 126.45 167.509C126.55 167.349 126.71 167.229 126.9 167.189L158.98 161.459C159.71 161.329 160.2 160.629 160.07 159.899L160.01 159.569C159.9 158.959 159.37 158.509 158.75 158.509C156.41 158.509 152.98 158.869 148.46 159.609C139.4 161.079 132.72 162.419 128.43 163.599C128.2 163.659 127.96 163.529 127.9 163.289C127.9 163.269 127.89 163.249 127.89 163.219C127.83 162.599 128.1 161.769 128.09 161.099C128.01 157.249 126.45 154.099 123.42 151.639C123.32 151.559 123.3 151.409 123.37 151.309C123.41 151.259 123.47 151.219 123.54 151.219C139.88 149.139 156 148.629 171.89 149.679C172.21 149.699 172.49 149.899 172.62 150.189C174.11 153.419 175.5 155.869 178.73 157.769C189.02 163.839 198.79 169.709 208.04 175.389C209.65 176.379 211.75 177.879 214.32 179.889C214.38 179.939 214.39 180.029 214.34 180.079C214.31 180.119 214.26 180.139 214.22 180.129C211.48 179.729 209.49 179.769 206.94 181.579C206.72 181.739 206.44 181.809 206.17 181.779C201.7 181.259 197.69 180.569 193.01 180.479C179.76 180.199 167.77 180.579 157.03 181.609C138.3 183.429 119.38 186.649 100.28 191.259C89.5198 193.859 78.7198 197.139 67.8898 201.089V201.099Z" fill="var(--fill-0, #C8B39B)"/>
<path id="Vector_18" d="M49.4198 164.399L48.8098 182.659C48.7998 182.889 48.6998 183.109 48.5398 183.279L45.5598 186.209L42.5998 172.399C44.3998 169.589 46.6698 166.919 49.4198 164.399Z" fill="var(--fill-0, #E2F8FF)"/>
<path id="Vector_19" d="M67.8898 201.099C64.3698 202.659 60.6598 204.379 56.7498 206.259C54.4998 207.339 52.3098 208.709 50.1598 210.379L46.7598 192.269C49.8498 188.809 52.5498 185.169 54.8398 181.359C60.4598 186.969 64.8098 193.549 67.8898 201.109V201.099Z" fill="var(--fill-0, black)"/>
<path id="Vector_20" d="M251.61 329.439C245.84 336.979 240.07 344.569 234.3 352.199C233.87 352.759 233.54 353.369 233.3 354.039C233.19 353.669 233.03 353.399 232.81 353.229C229.82 346.369 227.8 342.029 226.77 340.209C223 333.579 216.57 325.049 209.89 317.619C206.61 313.969 202.81 309.509 198.5 304.249C196.66 302.009 194.93 299.199 193.31 295.809C191.64 292.329 191.52 289.199 192.54 285.719C194.27 279.809 195.81 273.729 197.16 267.479C197.54 275.189 197.83 282.789 198.04 290.279C198.11 292.699 198.29 294.759 198.58 296.459C198.9 298.359 201.33 298.969 202.34 297.259C202.51 296.979 202.58 296.659 202.55 296.339C201.84 288.729 202.14 278.299 201.79 269.639C200.89 247.539 200.79 227.809 202 206.709C202.34 200.749 204.32 184.219 212.48 184.329C212.78 184.329 213.07 184.479 213.26 184.719C213.96 185.619 214.6 186.699 215.18 187.949C218.12 194.229 220.14 198.969 221.22 202.159C224.1 210.659 226.61 219.749 228.86 230.839C232.52 248.899 233.27 253.429 237.29 271.419C239.03 279.219 240.75 288.819 242.44 300.229C242.47 300.459 242.44 300.689 242.34 300.889L241.9 301.859C241.7 302.299 241.67 302.789 241.82 303.249C242.46 305.229 243.45 308.059 244.32 310.019C247.12 316.309 249.55 322.789 251.6 329.459L251.61 329.439Z" fill="var(--fill-0, #B0CAFF)"/>
<path id="Vector_21" d="M187.22 184.879C189.15 186.969 190.52 188.709 191.34 190.099C194.19 194.959 196.29 200.359 197.65 206.299C196.86 217.939 196.45 227.099 196.41 233.769C196.36 241.589 196.61 252.829 197.15 267.479C195.8 273.729 194.26 279.809 192.53 285.719C191.51 289.199 191.63 292.339 193.3 295.809C194.92 299.199 196.65 302.009 198.49 304.249C202.8 309.509 206.6 313.969 209.88 317.619C216.56 325.059 222.99 333.579 226.76 340.209C227.8 342.019 229.81 346.359 232.8 353.229C232.72 353.989 232.42 354.719 231.88 355.429C217.11 375.209 202.55 395.149 188.2 415.249C178.61 428.679 169.31 442.279 160.29 456.049C152.18 456.159 144.04 455.559 135.87 454.239C134.37 453.999 133.07 453.959 131.96 454.139C131.19 454.269 130.67 454.989 130.8 455.759C130.87 456.199 131.15 456.579 131.54 456.779L132.15 457.089C132.38 457.209 132.53 457.439 132.55 457.709C132.65 459.319 132.33 460.409 131.6 460.979C123.92 459.059 116.84 456.129 110.38 452.189C110.03 451.939 109.8 451.639 109.69 451.269C105.73 437.929 102.64 427.879 100.43 421.109C96.3098 408.559 91.6598 393.169 86.4598 374.949C80.3998 353.679 76.1598 333.299 71.4198 313.039C70.6898 309.929 69.6998 304.889 68.4598 297.909C68.3998 297.529 68.3498 297.259 68.3398 297.099C71.8598 295.599 79.5398 290.379 77.3998 286.029C74.6598 280.449 70.9398 272.809 66.2498 263.109C61.9298 254.169 57.8898 243.139 56.7098 232.629C55.9098 225.599 55.6498 218.689 55.9298 211.889C55.9398 211.639 56.0898 211.409 56.3298 211.299L69.6598 205.169C70.1398 210.729 71.8698 216.119 74.8398 221.339C75.2398 222.029 75.4798 222.799 75.5698 223.599C76.3998 231.289 78.8898 240.429 83.6298 246.469C84.1198 247.099 84.9598 247.369 85.7298 247.139H85.7698C86.3298 246.969 86.6598 246.379 86.4998 245.819C86.4798 245.739 86.4498 245.669 86.4098 245.589C81.3698 236.509 78.9198 226.819 79.0898 216.519C79.1898 210.169 81.3798 204.599 85.6598 199.809C99.4498 195.879 113.53 192.719 127.9 190.319C130.69 192.099 133.67 193.649 136.85 194.969C139.86 196.219 142.68 196.219 145.3 194.969C146.02 194.629 147.62 193.309 150.11 191.019C152.04 189.249 154.27 187.639 156.79 186.169C166.83 185.119 176.98 184.679 187.23 184.859L187.22 184.879ZM186.87 236.129C192.25 233.489 194.01 226.029 190.79 219.459C187.57 212.889 180.6 209.699 175.22 212.339C169.84 214.979 168.08 222.439 171.3 229.009C174.52 235.579 181.49 238.769 186.87 236.129ZM114.54 246.269C120.35 243.979 122.99 236.859 120.43 230.369C117.87 223.879 111.09 220.469 105.28 222.759C99.4698 225.049 96.8298 232.169 99.3898 238.659C101.95 245.149 108.73 248.559 114.54 246.269ZM142.81 232.179C138.85 234.839 129.53 241.739 136.03 247.229C136.85 247.919 138.68 249.239 141.54 251.199C145.8 254.119 152.56 255.119 157.19 251.999C158.77 250.939 160.49 249.359 162.37 247.249C162.43 247.189 162.48 247.109 162.52 247.029L165.01 242.579C165.05 242.489 165.09 242.399 165.12 242.309C165.95 239.129 164.55 237.459 162.1 235.519C158.42 232.619 153.5 229.299 148.9 229.999C146.48 230.359 144.45 231.089 142.82 232.169L142.81 232.179ZM83.6698 322.749C83.7998 323.269 83.9798 323.599 84.1998 323.749C84.8498 324.169 85.6998 324.009 86.1098 323.409C86.2298 323.239 86.2998 323.029 86.3198 322.819C86.5898 319.779 87.1298 315.149 87.9298 308.919C88.0098 308.269 87.5398 307.669 86.8798 307.589C86.8698 307.589 86.8598 307.589 86.8498 307.589C86.0698 307.509 85.4998 307.829 85.1198 308.549C84.3298 310.069 80.6998 318.389 81.5398 321.439C81.6298 321.779 81.9198 322.029 82.2598 322.069L82.9998 322.169C83.3198 322.209 83.5798 322.449 83.6598 322.759L83.6698 322.749Z" fill="var(--fill-0, white)"/>
<path id="Vector_22" d="M197.65 206.299C196.29 200.359 194.19 194.959 191.34 190.099C190.52 188.709 189.15 186.969 187.22 184.879L193.06 185.099C193.31 185.099 193.52 185.279 193.59 185.509C194.99 189.879 196.2 194.289 197.22 198.739C197.8 201.259 197.94 203.779 197.64 206.299H197.65Z" fill="var(--fill-0, #B0CAFF)"/>
<path id="Vector_23" d="M156.78 186.189C154.25 187.659 152.02 189.279 150.1 191.039C147.61 193.329 146.01 194.639 145.29 194.989C142.67 196.239 139.85 196.239 136.84 194.989C133.66 193.669 130.68 192.119 127.89 190.339C137.18 188.449 146.82 187.069 156.79 186.189H156.78Z" fill="var(--fill-0, #B0CAFF)"/>
<path id="Vector_24" d="M85.6498 199.829C81.3698 204.629 79.1798 210.199 79.0798 216.539C78.9198 226.839 81.3598 236.529 86.3998 245.609C86.6898 246.119 86.5098 246.769 85.9898 247.049C85.9198 247.089 85.8398 247.119 85.7598 247.139H85.7198C84.9498 247.369 84.1198 247.109 83.6198 246.479C78.8798 240.439 76.3898 231.299 75.5598 223.609C75.4698 222.809 75.2298 222.039 74.8298 221.349C71.8598 216.129 70.1298 210.739 69.6498 205.179L85.6298 199.829H85.6498Z" fill="var(--fill-0, #B0CAFF)"/>
<path id="Vector_25" d="M67.0898 292.059L60.5698 261.929C63.1898 267.239 65.7198 272.559 68.1798 277.889C69.6498 281.089 71.3598 283.839 72.9398 286.829C73.0598 287.059 72.9998 287.339 72.7998 287.489L67.0998 292.059H67.0898Z" fill="var(--fill-0, #E2F8FF)"/>
<path id="Vector_26" d="M257.1 323.839L268.96 382.999C267.71 382.409 266.81 383.789 266.25 387.159L265.93 384.709C266.02 380.479 266.59 375.929 266.07 371.939C264.51 360.009 262.17 349.969 259.08 336.569C258.19 332.679 257.1 328.849 255.82 325.079L255.68 324.419L257.1 323.839Z" fill="var(--fill-0, #B9D7F2)"/>
<path id="Vector_27" d="M255.82 325.069C257.1 328.839 258.19 332.679 259.08 336.559C262.17 349.959 264.51 359.999 266.07 371.929C266.59 375.919 266.02 380.469 265.93 384.699C265.11 387.769 263.55 389.969 261.26 391.289C261.97 383.779 261.75 376.449 260.61 369.279C258.48 355.809 255.48 342.509 251.63 329.379C252.75 328.009 253.82 326.669 254.85 325.369C254.99 325.199 255.13 325.099 255.27 325.069C255.44 325.029 255.62 325.029 255.81 325.069H255.82Z" fill="var(--fill-0, #3D4960)"/>
<path id="Vector_28" d="M251.63 329.379C255.49 342.509 258.48 355.809 260.61 369.279C261.75 376.449 261.97 383.779 261.26 391.289C261.13 392.519 260.96 393.269 260.77 393.529C247.9 411.239 233.99 429.789 219.04 449.169C218.83 449.449 218.89 449.719 219.21 449.979L217.05 451.009C202.74 456.839 190.75 461.119 176.95 463.419C169.92 464.589 162.6 463.989 155.46 463.859C155.31 463.879 155.17 463.829 155.05 463.709L160.39 456.159C174.89 455.659 189.76 453.449 202.84 447.099C217.85 439.809 228.85 428.679 235.83 413.679C238.75 407.409 241.68 398.199 241.45 390.719C241.08 378.409 237.75 365.469 233.29 354.039C233.53 353.379 233.86 352.759 234.29 352.199C240.06 344.559 245.83 336.979 251.6 329.439C251.6 329.419 251.61 329.399 251.62 329.379H251.63Z" fill="var(--fill-0, #8EB3FF)"/>
<path id="Vector_29" d="M233.3 354.039C237.76 365.469 241.08 378.419 241.46 390.719C241.69 398.199 238.75 407.409 235.84 413.679C228.86 428.669 217.87 439.809 202.85 447.099C189.78 453.449 174.9 455.649 160.4 456.159C160.37 456.129 160.34 456.099 160.3 456.069C169.31 442.299 178.62 428.699 188.21 415.269C202.56 395.169 217.12 375.229 231.89 355.449C232.42 354.739 232.73 353.999 232.81 353.249C233.03 353.419 233.2 353.689 233.3 354.059V354.039Z" fill="var(--fill-0, #DCE8FF)"/>
<path id="Vector_30" d="M268.96 382.999C272.4 402.259 275.75 421.389 279 440.379C279.11 441.019 279.17 441.519 279.18 441.879C279.2 442.499 279.23 442.979 279.28 443.329C280.4 451.719 280.7 458.819 280.15 464.639C279.49 471.869 276.15 477.569 270.15 481.739C268.15 483.139 264.77 484.429 260.02 485.599C256.96 486.359 253.05 487.109 248.3 487.879C230.48 490.739 210.53 494.299 194.66 495.489C187.05 496.059 182.24 496.459 180.22 496.679L193.68 480.519C198.19 482.349 201.52 482.799 206.64 483.269C209.05 483.489 211.31 483.519 213.41 483.369C221.32 482.789 229.04 481.479 236.57 479.439C243.12 477.669 249.23 474.589 254.09 469.549C259.13 464.329 259.14 457.229 252.55 453.319C247.94 450.589 242.51 449.829 237.75 449.099C237.04 448.989 236.24 448.729 235.37 448.319C235.11 448.199 235 447.899 235.12 447.639C235.16 447.549 235.23 447.469 235.32 447.419C238.34 445.499 241.42 443.189 244.55 440.489C246.8 438.549 248.03 436.739 250.04 434.409C251.22 433.039 252.37 431.359 253.5 429.349C260.85 416.279 265.09 402.219 266.23 387.159C266.78 383.799 267.68 382.409 268.94 382.999H268.96Z" fill="var(--fill-0, #E2F8FF)"/>
<path id="Vector_31" d="M265.93 384.699L266.25 387.149C265.11 402.209 260.87 416.269 253.52 429.339C252.39 431.349 251.24 433.039 250.06 434.399C248.05 436.729 246.82 438.549 244.57 440.479C241.43 443.179 238.35 445.489 235.34 447.409C235.1 447.559 235.03 447.869 235.17 448.109C235.22 448.199 235.3 448.259 235.39 448.309C236.26 448.719 237.06 448.979 237.77 449.089C242.53 449.819 247.96 450.579 252.57 453.309C259.16 457.219 259.15 464.329 254.11 469.539C249.25 474.579 243.13 477.669 236.59 479.429C229.06 481.469 221.34 482.779 213.43 483.359C211.32 483.509 209.07 483.479 206.66 483.259C201.54 482.799 198.21 482.339 193.7 480.509C193.72 480.529 193.73 480.549 193.74 480.569L196.48 477.059C201.32 478.249 206.25 478.719 211.28 478.459C219.83 478.019 228.31 476.559 236.72 474.089C241.73 472.619 246.05 470.249 249.67 466.989C251.97 464.899 254.03 461.149 251.26 458.569C250.27 457.649 248.41 456.809 245.7 456.069C239.58 454.409 233.15 453.439 226.4 453.159C226.18 453.149 225.95 453.179 225.74 453.259L212.33 457.939L217.07 450.969L219.23 449.939C220.84 449.179 222.46 448.439 224.1 447.719C225.96 446.909 227.55 446.109 228.86 445.319C231.81 443.559 235.17 442.139 237.52 440.439C243.77 435.919 248.64 430.109 252.11 423.019C256.55 413.939 259.44 404.099 260.79 393.499C260.98 393.239 261.14 392.499 261.28 391.259C263.57 389.939 265.13 387.749 265.95 384.669L265.93 384.699Z" fill="var(--fill-0, #606060)"/>
<path id="Vector_32" d="M260.78 393.519C259.44 404.119 256.54 413.959 252.1 423.039C248.63 430.139 243.76 435.939 237.51 440.459C235.16 442.159 231.8 443.589 228.85 445.339C227.53 446.129 225.94 446.929 224.09 447.739C222.45 448.459 220.83 449.199 219.22 449.959C218.9 449.699 218.84 449.429 219.05 449.149C234 429.769 247.91 411.229 260.78 393.509V393.519Z" fill="var(--fill-0, #8EB3FF)"/>
<path id="Vector_33" d="M217.06 450.999L212.32 457.969L211.7 458.109C205 460.149 197.41 462.409 193.53 468.839C191.86 471.599 190.43 474.069 194.19 476.039C195.3 476.619 196.06 476.969 196.48 477.089L193.74 480.599C187.68 477.899 185.48 473.239 188.9 467.009C189.01 466.819 188.94 466.569 188.74 466.459C188.64 466.409 188.53 466.389 188.43 466.419C176.64 469.639 164.59 470.419 152.29 468.749C153.04 466.749 154.1 465.119 155.47 463.859C162.61 463.989 169.93 464.589 176.96 463.419C190.76 461.119 202.74 456.839 217.06 451.009V450.999Z" fill="var(--fill-0, #3D4960)"/>
<path id="Vector_34" d="M110.39 452.199C116.85 456.139 123.93 459.069 131.61 460.989C139.14 462.469 146.96 463.369 155.06 463.699C155.18 463.819 155.31 463.869 155.47 463.849C154.1 465.109 153.04 466.739 152.29 468.739L151.5 468.789C150.67 468.769 149.84 468.879 149.02 469.139C148.76 469.219 148.57 469.459 148.57 469.739C148.62 474.919 145.26 477.779 141.85 480.949C141.66 481.129 141.44 481.289 141.2 481.409C136.43 483.939 132.2 485.469 128.5 486.009C127.4 486.169 124.92 486.389 121.06 486.649L119.03 482.409C122.66 482.569 125.97 482.159 128.94 481.179C132.99 480.409 136.52 478.999 139.52 476.949C142.24 475.089 143.95 472.589 144.65 469.449C144.71 469.149 144.52 468.859 144.23 468.799C144.22 468.799 144.21 468.799 144.2 468.799L132.07 467.149C132.01 467.149 131.94 467.149 131.88 467.179C131.83 467.209 131.76 467.249 131.69 467.309C131.79 467.269 131.72 467.219 131.48 467.159C124.83 465.499 118.36 462.949 112.09 459.499L110 452.549C110 452.549 109.99 452.449 110 452.399C110.07 452.229 110.2 452.159 110.39 452.189V452.199Z" fill="var(--fill-0, #606060)"/>
<path id="Vector_35" d="M196.48 477.079L211.83 458.369C211.83 458.369 211.85 458.319 211.83 458.299C211.81 458.219 211.76 458.159 211.69 458.109L212.31 457.969L225.72 453.289C225.93 453.219 226.16 453.179 226.38 453.189C233.13 453.469 239.56 454.439 245.68 456.099C248.39 456.839 250.24 457.669 251.24 458.599C254.01 461.179 251.95 464.929 249.65 467.019C246.03 470.279 241.71 472.649 236.7 474.119C228.29 476.589 219.81 478.039 211.26 478.489C206.23 478.749 201.3 478.279 196.46 477.089L196.48 477.079Z" fill="var(--fill-0, #FBD0A9)"/>
<path id="Vector_36" d="M160.31 456.059C160.31 456.059 160.37 456.119 160.41 456.149L155.07 463.699C146.97 463.369 139.15 462.469 131.62 460.989C132.35 460.419 132.67 459.329 132.57 457.719C132.55 457.459 132.4 457.219 132.17 457.099L131.56 456.789C130.87 456.429 130.6 455.579 130.96 454.889C131.16 454.499 131.54 454.219 131.98 454.149C133.09 453.969 134.4 453.999 135.89 454.249C144.06 455.569 152.19 456.179 160.31 456.059Z" fill="var(--fill-0, #B0CAFF)"/>
<path id="Vector_37" d="M211.7 458.099C211.77 458.149 211.82 458.219 211.84 458.289C211.84 458.319 211.84 458.339 211.84 458.359L196.49 477.069C196.07 476.949 195.3 476.599 194.2 476.019C190.44 474.049 191.88 471.579 193.54 468.819C197.42 462.399 205.01 460.139 211.71 458.089L211.7 458.099Z" fill="var(--fill-0, #D9B9A9)"/>
<path id="Vector_38" d="M131.68 467.299L128.94 481.179C125.97 482.159 122.67 482.569 119.03 482.409L112.08 459.499C118.35 462.949 124.81 465.499 131.47 467.159C131.71 467.219 131.78 467.269 131.68 467.309V467.299Z" fill="var(--fill-0, black)"/>
<path id="Vector_39" d="M193.74 480.589C193.74 480.589 193.72 480.549 193.7 480.529L180.24 496.689L152.3 497.959C152.13 497.959 151.96 497.959 151.8 497.929C149.16 497.469 146.22 497.649 140.59 497.519C138.09 497.469 135.75 497.199 133.57 496.709L151.07 470.089C151.24 469.829 151.36 469.539 151.41 469.229L151.49 468.789L152.28 468.739C164.58 470.409 176.63 469.629 188.42 466.409C188.64 466.349 188.87 466.479 188.93 466.699C188.96 466.799 188.95 466.909 188.89 467.009C185.47 473.239 187.67 477.909 193.73 480.599L193.74 480.589Z" fill="var(--fill-0, #C0E1FF)"/>
<path id="Vector_40" d="M128.94 481.179L131.68 467.299C131.76 467.239 131.82 467.199 131.87 467.169C131.93 467.139 131.99 467.129 132.06 467.139L144.19 468.789C144.49 468.829 144.69 469.109 144.65 469.409C144.65 469.419 144.65 469.429 144.65 469.439C143.95 472.579 142.24 475.079 139.52 476.939C136.52 478.989 132.99 480.399 128.94 481.169V481.179Z" fill="var(--fill-0, #FBD0A9)"/>
<path id="Vector_41" d="M151.49 468.789L151.41 469.229C151.36 469.529 151.24 469.829 151.07 470.089L133.57 496.709C128.13 495.329 123.95 491.979 121.05 486.659C124.91 486.399 127.38 486.179 128.49 486.019C132.19 485.479 136.42 483.949 141.19 481.419C141.43 481.299 141.64 481.139 141.84 480.959C145.26 477.789 148.61 474.929 148.56 469.749C148.56 469.469 148.74 469.229 149.01 469.149C149.83 468.899 150.66 468.779 151.49 468.799V468.789Z" fill="var(--fill-0, #E2F8FF)"/>
</g>
<g id="Group_3">
<path id="Vector_42" d="M126.32 133.929C123.68 131.739 121.21 132.099 118.9 135.019C117.81 136.399 117.61 139.639 118.18 141.729C118.73 143.759 118.85 145.849 118.56 148.019C118.51 148.399 118.16 148.659 117.78 148.609L117.12 148.519C116.81 148.479 116.58 148.189 116.62 147.879C116.62 147.829 116.64 147.789 116.65 147.749C117.82 144.669 117.67 141.409 116.21 137.969C115.93 137.319 115.92 136.659 116.15 136.009C117.7 131.809 123.38 129.209 126.61 133.639C126.69 133.729 126.69 133.859 126.61 133.939C126.52 134.019 126.39 134.019 126.31 133.939L126.32 133.929Z" fill="var(--fill-0, #DFDEDF)"/>
<path id="Vector_43" d="M169.74 144.999C154.42 143.969 138.59 145.029 123.67 146.979C123.44 147.009 123.23 146.859 123.2 146.629C123.2 146.589 123.2 146.549 123.2 146.519C123.3 145.729 122.95 143.429 122.15 139.619C121.96 138.689 122.08 137.829 122.53 137.049C122.69 136.759 123.06 136.659 123.35 136.819C123.42 136.859 123.49 136.919 123.54 136.989C124.83 138.699 126.39 139.069 128.25 138.119C128.33 138.079 128.4 138.029 128.47 137.969L130.16 136.279C130.36 136.079 130.62 135.949 130.9 135.919C142.29 134.669 154.58 134.039 166.12 135.419C166.35 135.439 166.55 135.599 166.64 135.819L170.06 144.589C170.12 144.749 170.04 144.929 169.88 144.989C169.84 145.009 169.79 145.009 169.74 145.009V144.999Z" fill="var(--fill-0, #B99688)"/>
<path id="Vector_44" d="M87.5898 154.209C86.8398 152.689 85.9998 151.659 85.0598 151.109C84.8498 150.989 84.7198 150.769 84.7298 150.529L84.8398 145.259C84.8398 144.969 85.0298 144.719 85.2998 144.629C93.6898 141.709 102.38 139.519 111.38 138.069C111.63 138.029 111.88 138.159 111.99 138.389C113.48 141.429 113.63 144.399 112.47 147.299C112.35 147.599 112.08 147.809 111.77 147.849C109.58 148.169 107.65 148.889 106 150.019C105.75 150.189 105.45 150.259 105.15 150.229C104.6 150.169 104 150.199 103.34 150.329C98.3698 151.239 93.4098 152.649 88.4698 154.549C88.1398 154.679 87.7698 154.529 87.6098 154.219L87.5898 154.209Z" fill="var(--fill-0, #B99688)"/>
<path id="Vector_45" d="M197.68 150.659C197.57 150.709 196.93 150.879 195.74 151.189C192.26 152.089 190.69 154.649 191.26 158.439C191.28 158.599 191.17 158.739 191.02 158.759C190.97 158.759 190.91 158.759 190.86 158.729L179.22 152.719C178.96 152.589 178.77 152.369 178.66 152.099L173.28 138.309C173.22 138.159 173.29 137.999 173.44 137.939C173.51 137.909 173.59 137.909 173.66 137.939C177.55 139.679 180.57 141.679 182.71 143.929C185.8 147.189 188.03 149.559 192.44 149.899C195.9 150.159 197.64 150.299 197.66 150.309C197.76 150.349 197.81 150.459 197.77 150.559C197.75 150.609 197.72 150.639 197.67 150.669L197.68 150.659Z" fill="var(--fill-0, #FDB69C)"/>
<path id="Vector_46" d="M80.1971 150.649C80.6219 150.629 80.8804 148.793 80.7745 146.547C80.6686 144.302 80.2385 142.498 79.8137 142.518C79.3889 142.538 79.1304 144.375 79.2363 146.62C79.3421 148.865 79.7723 150.669 80.1971 150.649Z" fill="var(--fill-0, #CCCBCC)"/>
<path id="Vector_47" d="M53.6698 166.939L54.4498 161.249C54.4998 160.889 54.6698 160.569 54.9398 160.329C61.2898 154.929 67.8398 150.929 74.5798 148.339C74.8798 148.229 75.2098 148.379 75.3198 148.669C75.3298 148.699 75.3398 148.739 75.3498 148.769L75.7598 151.069C75.8298 151.469 75.6498 151.869 75.2998 152.079C72.3898 153.859 70.0398 156.469 68.2498 159.889C68.1698 160.039 68.0498 160.159 67.8998 160.239L54.1498 167.269C53.9798 167.349 53.7798 167.289 53.6998 167.119C53.6698 167.059 53.6598 166.989 53.6698 166.929V166.939Z" fill="var(--fill-0, #B99688)"/>
<path id="Vector_48" d="M105.63 156.999C105.46 156.999 105.31 156.859 105.32 156.679C105.32 156.619 105.34 156.559 105.38 156.499C106.87 154.339 108.85 152.919 111.33 152.239C114.97 151.249 119.23 153.679 121.69 156.359C122.43 157.169 122.93 158.169 123.12 159.239L123.69 162.419C123.8 163.039 123.38 163.619 122.77 163.729C122.39 163.799 122.01 163.669 121.75 163.389C117.88 159.199 112.51 157.069 105.64 156.979L105.63 156.999Z" fill="var(--fill-0, #FFDC8E)"/>
<path id="Vector_49" d="M63.3798 176.649C63.2598 176.629 63.1798 176.519 63.1998 176.399C63.2198 176.309 63.2798 176.239 63.3698 176.219C68.9298 174.699 69.1098 170.549 70.3898 165.829C70.7398 164.559 71.3098 163.519 72.1198 162.729C72.2898 162.569 72.4198 162.359 72.4798 162.129C72.6498 161.549 72.6898 160.849 73.0198 160.349C75.0898 157.259 77.5598 155.309 80.4198 154.529C82.5498 153.949 83.6398 154.859 83.6898 157.269C83.7798 161.049 82.3298 164.609 79.3598 167.949C76.6298 171.029 73.6598 173.369 72.0298 176.199C71.0798 177.849 70.2198 179.779 69.4498 181.999C69.3598 182.259 69.0798 182.389 68.8198 182.299C68.6598 182.239 68.5398 182.109 68.4998 181.939C67.8998 179.119 66.1898 177.359 63.3598 176.649H63.3798Z" fill="var(--fill-0, #A9BCF1)"/>
<path id="Vector_50" d="M77.4398 176.589C77.3698 176.619 77.2898 176.589 77.2598 176.509C77.2398 176.459 77.2598 176.409 77.2798 176.369C82.4298 171.449 87.0798 166.879 88.1098 159.589C88.1798 159.109 88.5198 158.709 88.9898 158.569L100.7 155.119C100.86 155.069 101.03 155.169 101.07 155.329C101.09 155.409 101.07 155.499 101.03 155.579C97.9898 160.179 97.5898 164.799 99.8098 169.419C99.8898 169.579 99.8198 169.769 99.6598 169.849C99.6098 169.869 99.5598 169.879 99.5098 169.879C91.8498 169.829 84.1998 173.059 77.4198 176.599L77.4398 176.589Z" fill="var(--fill-0, #C8B39B)"/>
<path id="Vector_51" d="M120.57 167.509C120.69 167.629 120.69 167.819 120.57 167.949C116.52 172.029 110.27 172.749 105.69 169.259C103.15 167.319 102.21 164.859 102.89 161.879C102.95 161.599 103.19 161.399 103.47 161.379C110.26 160.889 115.96 162.939 120.57 167.519V167.509Z" fill="var(--fill-0, #FFDC8E)"/>
<path id="Vector_52" d="M200.66 185.469C201.8 185.559 202.46 185.629 202.64 185.699C202.81 185.759 202.89 185.949 202.83 186.119C202.83 186.129 202.83 186.139 202.81 186.149C202.61 186.529 201.8 188.099 200.39 190.849C200.37 190.889 200.3 190.929 200.26 190.929C200.22 190.929 200.15 190.869 200.14 190.829C199.15 187.899 198.59 186.229 198.45 185.819C198.39 185.649 198.48 185.469 198.65 185.409C198.66 185.409 198.67 185.409 198.68 185.409C198.86 185.369 199.52 185.389 200.66 185.469Z" fill="var(--fill-0, #DCE8FF)"/>
<path id="Vector_53" d="M186.88 236.129C181.5 238.769 174.52 235.579 171.31 229.009C168.09 222.439 169.85 214.979 175.23 212.339C180.61 209.699 187.59 212.889 190.81 219.459C194.03 226.029 192.27 233.489 186.89 236.129H186.88ZM186.15 226.959C188.73 225.939 189.72 222.299 188.35 218.829C186.98 215.359 183.78 213.369 181.19 214.389C178.6 215.409 177.62 219.049 178.99 222.519C180.36 225.989 183.56 227.979 186.15 226.959ZM178.82 233.779C179.91 233.289 180.28 231.769 179.66 230.379C179.04 228.989 177.65 228.259 176.57 228.749C175.48 229.239 175.11 230.759 175.73 232.149C176.35 233.539 177.74 234.269 178.82 233.779Z" fill="var(--fill-0, #606060)"/>
<path id="Vector_54" d="M114.55 246.259C108.74 248.549 101.95 245.139 99.3998 238.649C96.8398 232.159 99.4798 225.039 105.29 222.749C111.1 220.459 117.89 223.869 120.44 230.359C123 236.849 120.36 243.969 114.55 246.259ZM114.53 237.289C117.31 236.509 118.78 233.099 117.82 229.659C116.86 226.219 113.83 224.059 111.05 224.839C108.27 225.619 106.8 229.029 107.76 232.469C108.72 235.909 111.75 238.069 114.53 237.289ZM106.75 243.839C107.92 243.449 108.49 242.019 108.04 240.639C107.58 239.259 106.27 238.449 105.1 238.839C103.93 239.229 103.36 240.659 103.81 242.039C104.26 243.419 105.58 244.229 106.75 243.839Z" fill="var(--fill-0, #606060)"/>
<path id="Vector_55" d="M136.04 247.219C129.54 241.729 138.86 234.829 142.82 232.169C144.45 231.079 146.47 230.359 148.9 229.999C153.5 229.299 158.43 232.619 162.1 235.519C164.55 237.459 165.95 239.129 165.12 242.309C165.09 242.399 165.06 242.489 165.01 242.579L162.52 247.029C162.48 247.109 162.43 247.179 162.37 247.249C160.5 249.359 158.77 250.939 157.19 251.999C152.56 255.119 145.8 254.109 141.54 251.199C138.68 249.239 136.85 247.919 136.03 247.229L136.04 247.219ZM138.1 244.009C142.29 247.689 149.39 252.019 154.67 249.059C157.92 247.249 160.12 244.649 161.28 241.279C161.51 240.609 161.31 239.869 160.77 239.399C158.03 237.059 151.07 231.989 147.36 234.239C143.13 236.799 139.62 238.359 137.74 242.139C137.43 242.779 137.57 243.539 138.1 244.009Z" fill="var(--fill-0, #606060)"/>
<path id="Vector_56" d="M83.0198 322.149L82.2798 322.049C81.9398 322.009 81.6498 321.759 81.5598 321.419C80.7198 318.369 84.3498 310.049 85.1398 308.529C85.5098 307.819 86.0898 307.499 86.8698 307.569C87.5298 307.639 88.0198 308.219 87.9498 308.879C87.9498 308.879 87.9498 308.899 87.9498 308.909C87.1498 315.139 86.6098 319.769 86.3398 322.809C86.2698 323.529 85.5998 324.049 84.8398 323.959C84.6198 323.929 84.3998 323.859 84.2198 323.739C83.9898 323.589 83.8098 323.259 83.6898 322.739C83.6098 322.429 83.3498 322.189 83.0298 322.149H83.0198Z" fill="var(--fill-0, #B0CAFF)"/>
</g>
<g id="Group_4">
<path id="Vector_57" d="M186.147 226.959C188.732 225.941 189.718 222.299 188.349 218.826C186.981 215.352 183.777 213.361 181.192 214.38C178.607 215.398 177.621 219.039 178.989 222.513C180.358 225.986 183.562 227.977 186.147 226.959Z" fill="var(--fill-0, white)"/>
<path id="Vector_58" d="M114.523 237.283C117.299 236.508 118.772 233.094 117.813 229.657C116.854 226.221 113.825 224.064 111.048 224.839C108.271 225.614 106.798 229.028 107.758 232.465C108.717 235.901 111.746 238.058 114.523 237.283Z" fill="var(--fill-0, white)"/>
<path id="Vector_59" d="M178.819 233.769C179.902 233.282 180.275 231.764 179.652 230.379C179.03 228.994 177.647 228.265 176.564 228.752C175.481 229.239 175.108 230.756 175.73 232.142C176.353 233.527 177.735 234.255 178.819 233.769Z" fill="var(--fill-0, white)"/>
<path id="Vector_60" d="M138.09 244.009C137.56 243.539 137.41 242.779 137.73 242.139C139.61 238.369 143.13 236.799 147.35 234.239C151.06 231.989 158.03 237.059 160.76 239.399C161.3 239.869 161.5 240.609 161.27 241.279C160.11 244.659 157.91 247.249 154.66 249.059C149.38 252.019 142.27 247.679 138.09 244.009ZM148.6 239.459C144.53 239.759 141.53 240.099 139.61 240.499C138.83 240.659 138.26 241.299 138.24 242.049C138.2 243.319 138.91 243.909 140.37 243.789C143.27 243.559 146.1 243.349 148.87 243.149C151.64 242.939 154.47 242.739 157.38 242.539C158.84 242.439 159.45 241.759 159.23 240.509C159.1 239.769 158.45 239.219 157.65 239.169C155.7 239.069 152.68 239.169 148.61 239.459H148.6Z" fill="var(--fill-0, #FBD0A9)"/>
<path id="Vector_61" d="M106.751 243.831C107.92 243.444 108.498 242.012 108.042 240.633C107.586 239.254 106.269 238.45 105.099 238.837C103.93 239.223 103.352 240.655 103.808 242.034C104.264 243.413 105.582 244.217 106.751 243.831Z" fill="var(--fill-0, white)"/>
</g>
<path id="Vector_62" d="M148.88 243.149C146.11 243.349 143.28 243.559 140.38 243.789C138.92 243.899 138.21 243.319 138.25 242.049C138.27 241.299 138.84 240.659 139.62 240.499C141.54 240.109 144.54 239.759 148.61 239.459C152.68 239.159 155.7 239.069 157.65 239.169C158.44 239.209 159.1 239.769 159.23 240.509C159.46 241.759 158.84 242.439 157.38 242.539C154.47 242.739 151.64 242.939 148.87 243.149H148.88Z" fill="var(--fill-0, #606060)"/>
<g id="Group_5">
<path id="Vector_63" d="M298.67 445.759C298.61 446.059 298.62 446.329 298.7 446.569C299.54 454.159 299.54 461.719 298.68 469.249C298.58 469.489 298.56 469.779 298.64 470.099C297.88 474.299 296.91 478.159 295.74 481.679C293.17 489.339 288.38 495.149 281.34 499.099C274.11 503.149 266.21 505.979 257.63 507.599C247.77 509.459 242.73 510.409 242.51 510.449C234.64 511.789 221.43 513.699 202.9 516.179C191.36 517.719 179.63 518.859 167.7 519.609C154.45 520.439 142.51 520.779 130.49 519.049C117.38 517.159 106.52 505.549 101.91 493.789C101.01 491.499 100.27 489.489 99.6898 487.749C99.6098 487.499 99.3698 487.329 99.0998 487.339C98.5598 487.359 97.8898 487.829 97.2398 487.899C81.6198 489.669 70.7498 490.689 64.6298 490.969C56.5298 491.339 49.0198 490.829 42.0898 489.439C39.7398 488.959 36.8998 487.679 33.5798 485.579C29.7798 483.179 27.4398 479.649 26.5398 474.999C25.8498 471.409 25.4998 467.629 25.4998 463.629C25.4998 457.069 25.7398 450.509 26.2198 443.949L26.2798 441.989C27.7198 421.179 30.0598 400.979 32.7398 378.379L32.7998 377.179L36.7398 332.979L36.8098 332.219L39.1298 305.689C39.3098 305.269 39.3498 304.799 39.2398 304.269L41.9498 280.869C42.0298 280.209 41.9898 279.539 41.8398 278.899C37.0698 258.109 32.9098 236.699 28.7998 216.869C27.0698 208.539 25.1698 198.789 23.1098 187.619C20.7098 174.599 17.9798 162.449 15.4498 148.649C13.0398 135.569 10.6398 122.499 8.2398 109.439C7.2798 104.199 5.45981 91.9588 2.77981 72.7388C2.93981 72.3688 2.9098 72.0988 2.7198 71.9088C2.6098 71.0088 2.44981 70.1188 2.22981 69.2388C0.209807 60.9288 -0.440196 52.5388 0.289804 44.0488L0.349802 43.0188C0.749802 39.0988 1.48981 35.4988 2.58981 32.1988C6.91981 19.1288 18.2598 12.0588 31.4398 8.35875C38.3498 6.41875 45.0298 5.00875 51.4798 4.12875C63.2298 2.52875 71.9298 1.49875 77.5898 1.03875C94.6798 -0.341247 111.53 -0.351247 128.15 1.03875C128.45 1.05875 128.76 1.03875 129.06 0.998753C130.38 0.768753 131.28 0.638753 131.76 0.628753C142.26 0.318753 153.39 1.38875 165.14 3.84875C174.63 5.82875 183.99 9.72875 191.44 16.1488C194.63 18.8888 197.73 22.5788 200.74 27.1988C205.98 35.2488 210 43.8488 212.79 52.9988C214.13 57.3688 215.53 62.6588 216.99 68.8688C219.7 80.3588 224.89 101.049 229.76 117.429C232.91 127.999 236.71 141.149 241.17 156.869C242.77 162.509 243.74 166.079 244.08 167.569C248.19 185.829 251.52 199.379 254.94 216.179C257.66 229.489 261.5 244.349 264.29 257.349C270.58 286.679 274.76 308.449 280 336.839C282.15 348.519 284.26 360.439 286.33 372.599C290.07 394.669 293.86 416.699 297.7 438.689C298.11 441.049 298.44 443.409 298.7 445.769L298.67 445.759ZM57.4498 317.269C57.5598 319.009 57.4998 320.429 58.0198 322.369C62.2298 338.179 67.2198 358.719 72.5798 378.219C78.4798 399.689 82.5398 414.319 84.7598 422.089C87.7298 432.469 90.5798 442.939 93.8198 453.059C95.3498 457.859 97.8498 465.849 101.3 477.029C101.5 477.689 103.02 482.159 105.86 490.439C108.52 498.209 113.07 504.589 119.51 509.589C124.05 513.109 128.66 514.729 134.07 515.129C142.82 515.759 150.53 515.289 159.64 514.979C164.2 514.819 169.19 514.499 174.59 514.019C203.75 511.419 231.42 507.649 257.62 502.729C263.81 501.569 269.7 499.679 275.26 497.049C282 493.869 287.65 488.949 290.14 482.389C294.55 470.719 294.53 460.179 293.93 446.879C293.75 442.819 293.04 437.639 291.8 431.329C286.77 405.679 281.15 369.679 276.36 343.529C269.05 303.609 263.49 273.629 256.33 242.949C252.01 224.459 248.96 209.129 245.56 195.109C241.98 180.289 239.84 169.409 235.88 155.889C231.98 142.549 228.45 129.079 224.42 115.459C223 110.669 221.08 103.499 218.67 93.9388C215.28 80.5588 212.76 70.2188 211.11 62.9188C208.53 51.5088 204.14 42.1388 197.64 31.1988C193.7 24.5588 189.06 19.5388 183.7 16.1288C170.65 7.81875 154.55 5.79875 138.91 5.11875C138.83 5.11875 138.75 5.11875 138.67 5.13875L136.77 5.57875C136.31 5.68875 135.83 5.73875 135.35 5.72875C132.1 5.66875 128.53 5.78875 125.39 5.57875C117.58 5.05875 111.1 4.90875 105.96 5.13875C104.15 5.21875 102.1 5.19875 99.7998 5.07875C99.1998 5.04875 97.1298 5.06875 93.6198 5.13875C75.9198 5.52875 58.6998 7.33875 41.9598 10.5588C36.8598 11.5388 31.5998 13.0188 26.1598 15.0188C16.6198 18.5188 10.2898 24.4688 7.1598 32.8688C4.2198 40.7788 4.22981 51.2688 5.38981 59.9788C6.27981 66.7088 6.85981 70.8087 7.11981 72.2487C11.6098 97.4987 13.9098 110.389 13.9998 110.919C19.3898 140.299 22.9198 159.039 24.5998 167.139C28.6298 186.549 31.1998 201.029 35.8398 223.509C37.8698 233.379 39.8798 243.269 41.8798 253.169C44.1498 264.419 48.7998 284.659 55.8098 313.889C55.9198 314.379 56.3498 315.159 57.0998 316.209C57.3198 316.529 57.4498 316.899 57.4698 317.279L57.4498 317.269ZM45.6898 295.619C45.6698 295.789 45.6598 295.879 45.6598 295.899C45.7098 295.989 45.8198 296.009 45.8998 295.959C45.9598 295.929 45.9898 295.859 45.9898 295.799C45.9898 295.779 45.9598 295.709 45.8998 295.589C45.8698 295.539 45.7998 295.519 45.7498 295.549C45.7198 295.569 45.6998 295.589 45.6898 295.629V295.619ZM45.4598 297.319C41.8098 336.349 39.5198 364.829 35.3998 398.749C32.5698 421.989 29.8998 446.079 30.8098 469.879C30.9498 473.579 32.0398 476.799 34.0698 479.529C34.2498 479.769 34.4698 479.989 34.6998 480.179C38.4498 483.159 43.0198 484.839 48.3998 485.209C56.0998 485.739 63.6698 485.629 71.1198 484.869C78.1498 484.149 86.7098 483.259 96.8098 482.219C97.2098 482.179 97.4998 481.819 97.4598 481.419C97.4598 481.379 97.4498 481.329 97.4298 481.289L96.2998 477.459C96.1698 477.009 95.7398 476.709 95.2698 476.749C78.3598 478.039 62.3398 477.869 47.1998 476.249C39.7898 475.449 39.0098 465.979 39.6298 460.309C40.5398 451.909 41.1398 443.789 41.4098 435.959C42.1098 415.679 44.0598 394.539 45.8798 375.189C46.9598 363.789 48.1198 354.209 49.3598 346.439C50.6498 338.389 51.6498 331.119 52.3798 324.649C52.4698 323.879 52.4198 323.109 52.2298 322.359L47.0598 301.469C47.0398 301.389 47.0198 301.309 47.0098 301.229L46.2598 297.309C46.2198 297.089 46.0098 296.939 45.7898 296.979C45.6098 297.009 45.4798 297.159 45.4598 297.339V297.319ZM48.1698 403.109C48.0898 403.409 48.0798 403.729 48.1298 404.069L45.7798 439.969C45.6698 440.249 45.6398 440.579 45.6698 440.979C45.4698 446.249 44.9998 451.499 44.2598 456.719C43.6398 461.129 43.3098 466.819 45.4398 470.719C45.7498 471.279 46.3198 471.659 46.9598 471.719L53.0498 472.349C53.2798 472.469 53.5698 472.509 53.9198 472.459C63.2698 472.919 72.6298 472.909 81.9998 472.439C82.5498 472.539 83.0298 472.499 83.4298 472.339L93.8898 471.869C94.3498 471.849 94.6998 471.459 94.6798 471.009C94.6798 470.929 94.6598 470.849 94.6398 470.779C90.7398 459.589 87.3898 449.259 84.5998 439.799C76.3698 411.889 69.0398 385.879 62.6098 361.759C59.9298 351.689 57.7298 343.149 56.0298 336.149C55.9998 336.059 55.9098 336.009 55.8198 336.029C55.7598 336.049 55.7098 336.099 55.6998 336.159C53.5498 348.899 51.8298 362.359 50.5598 376.539C49.7598 385.389 48.9598 394.239 48.1598 403.089L48.1698 403.109Z" fill="var(--fill-0, #4B6AA9)"/>
<g id="Vector_64">
</g>
<path id="Vector_65" d="M2.78981 72.7388L2.72981 71.9088C2.92981 72.0888 2.94981 72.3688 2.78981 72.7388Z" fill="var(--fill-0, #3D4960)"/>
<path id="Vector_66" d="M39.2598 304.279C39.3698 304.809 39.3398 305.279 39.1498 305.699L39.2598 304.279Z" fill="var(--fill-0, #3D4960)"/>
<g id="Vector_67">
</g>
<path id="Vector_68" d="M32.8198 377.179L32.7598 378.379C32.6698 377.949 32.6898 377.549 32.8198 377.179Z" fill="var(--fill-0, #3D4960)"/>
<g id="Vector_69">
</g>
<path id="Vector_70" d="M298.71 446.569C298.62 446.329 298.61 446.059 298.68 445.759C298.64 446.049 298.65 446.319 298.71 446.569Z" fill="var(--fill-0, #3D4960)"/>
<path id="Vector_71" d="M298.69 469.259L298.65 470.109C298.57 469.789 298.59 469.499 298.69 469.259Z" fill="var(--fill-0, #3D4960)"/>
</g>
</g>
</svg>
