<svg preserveAspectRatio="none" width="100%" height="100%" overflow="visible" style="display: block;" viewBox="0 0 2861.02 525.69" fill="none" xmlns="http://www.w3.org/2000/svg">
<g id="Layer_1" clip-path="url(#clip0_0_20908)">
<g id="Group">
<path id="Vector" d="M1102.02 209.35V314.83C1102.02 331.47 1088.38 345.06 1071.76 345.06H830.66C826.3 345.06 822.19 344.14 818.44 342.48L823.97 330.76C825.28 328.03 823.47 326.26 820.75 327.54L807.29 333.91C803 328.71 800.42 322.05 800.42 314.83V209.35C800.42 192.71 814.02 179.12 830.68 179.12H1071.78C1075.11 179.12 1078.33 179.65 1081.35 180.68L1070.51 203.9C1069.27 206.59 1071.04 208.4 1073.77 207.09L1098.5 195.2C1100.77 199.41 1102.04 204.26 1102.04 209.36L1102.02 209.35Z" fill="var(--fill-0, #EFF8FD)"/>
<path id="Vector_2" d="M1102.02 209.35V314.83C1102.02 331.47 1088.38 345.06 1071.76 345.06H830.66C826.3 345.06 822.19 344.14 818.44 342.48L823.97 330.76C825.28 328.03 823.47 326.26 820.75 327.54L807.29 333.91C803 328.71 800.42 322.05 800.42 314.83V209.35C800.42 192.71 814.02 179.12 830.68 179.12H1071.78C1075.11 179.12 1078.33 179.65 1081.35 180.68L1070.51 203.9C1069.27 206.59 1071.04 208.4 1073.77 207.09L1098.5 195.2C1100.77 199.41 1102.04 204.26 1102.04 209.36L1102.02 209.35Z" fill="var(--fill-0, #EFF8FD)"/>
</g>
<g id="Group_2">
<path id="Vector_3" d="M934.8 389.97V495.45C934.8 512.09 921.16 525.68 904.51 525.68H676.42L672.77 515.41C671.74 512.58 669.19 512.58 668.2 515.41L664.52 525.68H663.46C646.81 525.68 633.2 512.09 633.2 495.45V389.97C633.2 373.33 646.8 359.74 663.46 359.74H859.63L863.46 370.43C864.49 373.26 867.04 373.26 868.03 370.43L871.86 359.74H904.53C921.18 359.74 934.82 373.33 934.82 389.97H934.8Z" fill="var(--fill-0, #EFF8FD)"/>
<path id="Vector_4" d="M934.8 390.63V494.83C934.8 511.8 920.9 525.68 903.92 525.68H676.86C676.6 525.68 676.36 525.51 676.27 525.27L672.77 515.42C671.74 512.59 669.19 512.59 668.2 515.42L664.66 525.27C664.57 525.52 664.34 525.68 664.07 525.68C647.09 525.68 633.19 511.8 633.19 494.83V390.6C633.19 373.63 647.09 359.75 664.07 359.75H859.18C859.44 359.75 859.68 359.92 859.77 360.16L863.45 370.44C864.48 373.27 867.03 373.27 868.02 370.44L871.7 360.16C871.79 359.91 872.02 359.75 872.29 359.75H903.89C920.89 359.75 934.81 373.65 934.81 390.64L934.8 390.63Z" fill="var(--fill-0, #EFF8FD)"/>
</g>
<path id="Vector_5" d="M979.17 359.74H1224.44C1241.26 359.74 1254.92 373.4 1254.92 390.22V495.21C1254.92 512.03 1241.26 525.69 1224.44 525.69H979.17C962.35 525.69 948.69 512.03 948.69 495.21V390.22C948.69 373.4 962.35 359.74 979.17 359.74Z" fill="var(--fill-0, #EFF8FD)"/>
<path id="Vector_6" d="M684.73 1.33H921.98C938.41 1.33 951.74 14.67 951.74 31.09V134.85C951.74 151.28 938.4 164.61 921.98 164.61H684.73C668.3 164.61 654.97 151.27 654.97 134.85V31.1C654.97 14.67 668.31 1.34 684.73 1.34V1.33Z" fill="var(--fill-0, #CDE3F5)"/>
<path id="Vector_7" d="M1147.03 180.44H1384.28C1400.71 180.44 1414.04 193.78 1414.04 210.2V313.96C1414.04 330.39 1400.7 343.72 1384.28 343.72H1147.03C1130.6 343.72 1117.27 330.38 1117.27 313.96V210.2C1117.27 193.77 1130.61 180.44 1147.03 180.44Z" fill="var(--fill-0, #CDE3F5)"/>
<g id="Group_3">
<path id="Vector_8" d="M462.7 209.35V314.83C462.7 331.47 449.06 345.06 432.44 345.06H191.34C186.98 345.06 182.87 344.14 179.12 342.48L184.65 330.76C185.96 328.03 184.15 326.26 181.43 327.54L167.97 333.91C163.68 328.71 161.1 322.05 161.1 314.83V209.35C161.1 192.71 174.7 179.12 191.36 179.12H432.46C435.79 179.12 439.01 179.65 442.03 180.68L431.19 203.9C429.95 206.59 431.72 208.4 434.45 207.09L459.18 195.2C461.45 199.41 462.72 204.26 462.72 209.36L462.7 209.35Z" fill="var(--fill-0, #EFF8FD)"/>
<path id="Vector_9" d="M462.7 209.35V314.83C462.7 331.47 449.06 345.06 432.44 345.06H191.34C186.98 345.06 182.87 344.14 179.12 342.48L184.65 330.76C185.96 328.03 184.15 326.26 181.43 327.54L167.97 333.91C163.68 328.71 161.1 322.05 161.1 314.83V209.35C161.1 192.71 174.7 179.12 191.36 179.12H432.46C435.79 179.12 439.01 179.65 442.03 180.68L431.19 203.9C429.95 206.59 431.72 208.4 434.45 207.09L459.18 195.2C461.45 199.41 462.72 204.26 462.72 209.36L462.7 209.35Z" fill="var(--fill-0, #EFF8FD)"/>
</g>
<g id="Group_4">
<path id="Vector_10" d="M637.72 30.23V135.71C637.72 152.35 624.08 165.94 607.43 165.94H379.34L375.69 155.67C374.66 152.84 372.11 152.84 371.12 155.67L367.44 165.94H366.38C349.73 165.94 336.12 152.35 336.12 135.71V30.23C336.11 13.6 349.72 0 366.37 0H562.54L566.37 10.69C567.4 13.52 569.95 13.52 570.94 10.69L574.76 0H607.43C624.08 0 637.72 13.59 637.72 30.23Z" fill="var(--fill-0, #EFF8FD)"/>
<path id="Vector_11" d="M637.72 30.89V135.09C637.72 152.06 623.82 165.94 606.84 165.94H379.78C379.52 165.94 379.28 165.77 379.19 165.53L375.69 155.68C374.66 152.85 372.11 152.85 371.12 155.68L367.58 165.53C367.49 165.78 367.26 165.94 366.99 165.94C350.01 165.94 336.11 152.06 336.11 135.09V30.86C336.11 13.89 350.01 0 366.99 0H562.1C562.36 0 562.6 0.17 562.69 0.41L566.37 10.69C567.4 13.52 569.95 13.52 570.94 10.69L574.62 0.41C574.71 0.16 574.94 0 575.21 0H606.81C623.81 0 637.73 13.9 637.73 30.89H637.72Z" fill="var(--fill-0, #EFF8FD)"/>
</g>
<path id="Vector_12" d="M508.92 179.11H754.19C771.01 179.11 784.67 192.77 784.67 209.59V314.58C784.67 331.4 771.01 345.06 754.19 345.06H508.92C492.1 345.06 478.44 331.4 478.44 314.58V209.59C478.44 192.77 492.1 179.11 508.92 179.11Z" fill="var(--fill-0, #EFF8FD)"/>
<path id="Vector_13" d="M343.56 359.74H588.83C605.65 359.74 619.31 373.4 619.31 390.22V495.21C619.31 512.03 605.65 525.69 588.83 525.69H343.56C326.74 525.69 313.08 512.03 313.08 495.21V390.22C313.08 373.4 326.74 359.74 343.56 359.74Z" fill="var(--fill-0, #EFF8FD)"/>
<path id="Vector_14" d="M29.76 361.07H267.01C283.44 361.07 296.77 374.41 296.77 390.83V494.59C296.77 511.02 283.43 524.35 267.01 524.35H29.76C13.33 524.35 0 511.01 0 494.59V390.83C0 374.4 13.34 361.07 29.76 361.07Z" fill="var(--fill-0, #CDE3F5)"/>
<g id="Group_5">
<path id="Vector_15" d="M1290.13 135.72V30.23C1290.13 13.6 1303.77 0 1320.42 0H1548.51L1552.16 10.27C1553.19 13.1 1555.74 13.1 1556.73 10.27L1560.42 0H1561.48C1578.13 0 1591.74 13.59 1591.74 30.23V135.71C1591.74 152.35 1578.14 165.94 1561.48 165.94H1365.31L1361.48 155.25C1360.45 152.42 1357.9 152.42 1356.91 155.25L1353.08 165.94H1320.41C1303.76 165.94 1290.12 152.35 1290.12 135.71L1290.13 135.72Z" fill="var(--fill-0, #EFF8FD)"/>
<path id="Vector_16" d="M1290.13 135.06V30.86C1290.13 13.89 1304.03 0 1321.01 0H1548.07C1548.33 0 1548.57 0.17 1548.66 0.41L1552.16 10.26C1553.19 13.09 1555.74 13.09 1556.73 10.26L1560.27 0.41C1560.36 0.16 1560.59 0 1560.86 0C1577.84 0 1591.74 13.88 1591.74 30.85V135.08C1591.74 152.05 1577.84 165.93 1560.86 165.93H1365.75C1365.49 165.93 1365.25 165.76 1365.16 165.52L1361.48 155.24C1360.45 152.41 1357.9 152.41 1356.91 155.24L1353.23 165.52C1353.14 165.77 1352.91 165.93 1352.64 165.93H1321.04C1304.04 165.93 1290.12 152.03 1290.12 135.04L1290.13 135.06Z" fill="var(--fill-0, #EFF8FD)"/>
</g>
<path id="Vector_17" d="M1244.78 165.95L999.51 165.95C982.69 165.95 969.03 152.29 969.03 135.47V30.48C969.03 13.66 982.69 0 999.51 0L1244.78 0C1261.6 0 1275.26 13.66 1275.26 30.48V135.47C1275.26 152.29 1261.6 165.95 1244.78 165.95Z" fill="var(--fill-0, #EFF8FD)"/>
<g id="Group_6">
<path id="Vector_18" d="M2371.52 209.35V314.83C2371.52 331.47 2357.88 345.06 2341.26 345.06H2100.16C2095.8 345.06 2091.69 344.14 2087.94 342.48L2093.47 330.76C2094.78 328.03 2092.97 326.26 2090.25 327.54L2076.79 333.91C2072.5 328.71 2069.92 322.05 2069.92 314.83V209.35C2069.92 192.71 2083.52 179.12 2100.18 179.12H2341.28C2344.61 179.12 2347.83 179.65 2350.85 180.68L2340.01 203.9C2338.77 206.59 2340.54 208.4 2343.27 207.09L2368 195.2C2370.27 199.41 2371.54 204.26 2371.54 209.36L2371.52 209.35Z" fill="var(--fill-0, #EFF8FD)"/>
<path id="Vector_19" d="M2371.52 209.35V314.83C2371.52 331.47 2357.88 345.06 2341.26 345.06H2100.16C2095.8 345.06 2091.69 344.14 2087.94 342.48L2093.47 330.76C2094.78 328.03 2092.97 326.26 2090.25 327.54L2076.79 333.91C2072.5 328.71 2069.92 322.05 2069.92 314.83V209.35C2069.92 192.71 2083.52 179.12 2100.18 179.12H2341.28C2344.61 179.12 2347.83 179.65 2350.85 180.68L2340.01 203.9C2338.77 206.59 2340.54 208.4 2343.27 207.09L2368 195.2C2370.27 199.41 2371.54 204.26 2371.54 209.36L2371.52 209.35Z" fill="var(--fill-0, #EFF8FD)"/>
</g>
<g id="Group_7">
<path id="Vector_20" d="M2206.03 389.97V495.45C2206.03 512.09 2192.39 525.68 2175.74 525.68H1947.65L1944 515.41C1942.97 512.58 1940.42 512.58 1939.43 515.41L1935.75 525.68H1934.69C1918.04 525.68 1904.43 512.09 1904.43 495.45V389.97C1904.43 373.33 1918.03 359.74 1934.69 359.74H2130.86L2134.69 370.43C2135.72 373.26 2138.27 373.26 2139.26 370.43L2143.09 359.74H2175.76C2192.41 359.74 2206.05 373.33 2206.05 389.97H2206.03Z" fill="var(--fill-0, #EFF8FD)"/>
<path id="Vector_21" d="M2206.03 390.63V494.83C2206.03 511.8 2192.13 525.68 2175.15 525.68H1948.09C1947.83 525.68 1947.59 525.51 1947.5 525.27L1944 515.42C1942.97 512.59 1940.42 512.59 1939.43 515.42L1935.89 525.27C1935.8 525.52 1935.57 525.68 1935.3 525.68C1918.32 525.68 1904.42 511.8 1904.42 494.83V390.6C1904.42 373.63 1918.32 359.75 1935.3 359.75H2130.41C2130.67 359.75 2130.91 359.92 2131 360.16L2134.68 370.44C2135.71 373.27 2138.26 373.27 2139.25 370.44L2142.93 360.16C2143.02 359.91 2143.25 359.75 2143.52 359.75H2175.12C2192.12 359.75 2206.04 373.65 2206.04 390.64L2206.03 390.63Z" fill="var(--fill-0, #EFF8FD)"/>
</g>
<g id="Group_8">
<path id="Vector_22" d="M1570.41 389.97V495.45C1570.41 512.09 1556.77 525.68 1540.12 525.68H1312.03L1308.38 515.41C1307.35 512.58 1304.8 512.58 1303.81 515.41L1300.13 525.68H1299.07C1282.42 525.68 1268.81 512.09 1268.81 495.45V389.97C1268.81 373.33 1282.41 359.74 1299.07 359.74H1495.24L1499.07 370.43C1500.1 373.26 1502.65 373.26 1503.64 370.43L1507.47 359.74H1540.14C1556.79 359.74 1570.43 373.33 1570.43 389.97H1570.41Z" fill="var(--fill-0, #EFF8FD)"/>
<path id="Vector_23" d="M1570.41 390.63V494.83C1570.41 511.8 1556.51 525.68 1539.53 525.68H1312.47C1312.21 525.68 1311.97 525.51 1311.88 525.27L1308.38 515.42C1307.35 512.59 1304.8 512.59 1303.81 515.42L1300.27 525.27C1300.18 525.52 1299.95 525.68 1299.68 525.68C1282.7 525.68 1268.8 511.8 1268.8 494.83V390.6C1268.8 373.63 1282.7 359.75 1299.68 359.75H1494.79C1495.05 359.75 1495.29 359.92 1495.38 360.16L1499.06 370.44C1500.09 373.27 1502.64 373.27 1503.63 370.44L1507.31 360.16C1507.4 359.91 1507.63 359.75 1507.9 359.75H1539.5C1556.5 359.75 1570.42 373.65 1570.42 390.64L1570.41 390.63Z" fill="var(--fill-0, #EFF8FD)"/>
</g>
<path id="Vector_24" d="M2250.39 359.74H2495.66C2512.48 359.74 2526.14 373.4 2526.14 390.22V495.21C2526.14 512.03 2512.48 525.69 2495.66 525.69H2250.39C2233.57 525.69 2219.91 512.03 2219.91 495.21V390.22C2219.91 373.4 2233.57 359.74 2250.39 359.74Z" fill="var(--fill-0, #EFF8FD)"/>
<path id="Vector_25" d="M1954.01 1.33H2191.26C2207.69 1.33 2221.02 14.67 2221.02 31.09V134.85C2221.02 151.28 2207.68 164.61 2191.26 164.61H1954.01C1937.58 164.61 1924.25 151.27 1924.25 134.85V31.1C1924.25 14.67 1937.59 1.34 1954.01 1.34V1.33Z" fill="var(--fill-0, #CDE3F5)"/>
<path id="Vector_26" d="M2418.23 180.44H2655.48C2671.91 180.44 2685.24 193.78 2685.24 210.2V313.96C2685.24 330.39 2671.9 343.72 2655.48 343.72H2418.23C2401.8 343.72 2388.47 330.38 2388.47 313.96V210.2C2388.47 193.77 2401.81 180.44 2418.23 180.44Z" fill="var(--fill-0, #CDE3F5)"/>
<g id="Group_9">
<path id="Vector_27" d="M1732.2 209.35V314.83C1732.2 331.47 1718.56 345.06 1701.94 345.06H1460.84C1456.48 345.06 1452.37 344.14 1448.62 342.48L1454.15 330.76C1455.46 328.03 1453.65 326.26 1450.93 327.54L1437.47 333.91C1433.18 328.71 1430.6 322.05 1430.6 314.83V209.35C1430.6 192.71 1444.2 179.12 1460.86 179.12H1701.96C1705.29 179.12 1708.51 179.65 1711.53 180.68L1700.69 203.9C1699.45 206.59 1701.22 208.4 1703.95 207.09L1728.68 195.2C1730.95 199.41 1732.22 204.26 1732.22 209.36L1732.2 209.35Z" fill="var(--fill-0, #EFF8FD)"/>
<path id="Vector_28" d="M1732.2 209.35V314.83C1732.2 331.47 1718.56 345.06 1701.94 345.06H1460.84C1456.48 345.06 1452.37 344.14 1448.62 342.48L1454.15 330.76C1455.46 328.03 1453.65 326.26 1450.93 327.54L1437.47 333.91C1433.18 328.71 1430.6 322.05 1430.6 314.83V209.35C1430.6 192.71 1444.2 179.12 1460.86 179.12H1701.96C1705.29 179.12 1708.51 179.65 1711.53 180.68L1700.69 203.9C1699.45 206.59 1701.22 208.4 1703.95 207.09L1728.68 195.2C1730.95 199.41 1732.22 204.26 1732.22 209.36L1732.2 209.35Z" fill="var(--fill-0, #EFF8FD)"/>
</g>
<g id="Group_10">
<path id="Vector_29" d="M1909.35 30.23V135.71C1909.35 152.35 1895.71 165.94 1879.06 165.94H1650.97L1647.32 155.67C1646.29 152.84 1643.74 152.84 1642.75 155.67L1639.07 165.94H1638.01C1621.36 165.94 1607.75 152.35 1607.75 135.71V30.23C1607.74 13.6 1621.35 0 1638 0H1834.17L1838 10.69C1839.03 13.52 1841.58 13.52 1842.57 10.69L1846.39 0H1879.06C1895.71 0 1909.35 13.59 1909.35 30.23Z" fill="var(--fill-0, #EFF8FD)"/>
<path id="Vector_30" d="M1909.35 30.89V135.09C1909.35 152.06 1895.45 165.94 1878.47 165.94H1651.41C1651.15 165.94 1650.91 165.77 1650.82 165.53L1647.32 155.68C1646.29 152.85 1643.74 152.85 1642.75 155.68L1639.21 165.53C1639.12 165.78 1638.89 165.94 1638.62 165.94C1621.64 165.94 1607.74 152.06 1607.74 135.09V30.86C1607.74 13.89 1621.64 0 1638.62 0H1833.73C1833.99 0 1834.23 0.17 1834.32 0.41L1838 10.69C1839.03 13.52 1841.58 13.52 1842.57 10.69L1846.25 0.41C1846.34 0.16 1846.57 0 1846.84 0H1878.44C1895.44 0 1909.36 13.9 1909.36 30.89H1909.35Z" fill="var(--fill-0, #EFF8FD)"/>
</g>
<path id="Vector_31" d="M1778.42 179.11H2023.69C2040.51 179.11 2054.17 192.77 2054.17 209.59V314.58C2054.17 331.4 2040.51 345.06 2023.69 345.06H1778.42C1761.6 345.06 1747.94 331.4 1747.94 314.58V209.59C1747.94 192.77 1761.6 179.11 1778.42 179.11Z" fill="var(--fill-0, #EFF8FD)"/>
<path id="Vector_32" d="M1614.78 359.74H1860.05C1876.87 359.74 1890.53 373.4 1890.53 390.22V495.21C1890.53 512.03 1876.87 525.69 1860.05 525.69H1614.78C1597.96 525.69 1584.3 512.03 1584.3 495.21V390.22C1584.3 373.4 1597.96 359.74 1614.78 359.74Z" fill="var(--fill-0, #EFF8FD)"/>
<g id="Group_11">
<path id="Vector_33" d="M2559.41 135.72V30.23C2559.41 13.59 2573.05 0 2589.7 0H2817.79L2821.44 10.27C2822.47 13.1 2825.02 13.1 2826.01 10.27L2829.7 0H2830.76C2847.41 0 2861.02 13.59 2861.02 30.23V135.71C2861.02 152.35 2847.42 165.94 2830.76 165.94H2634.59L2630.76 155.25C2629.73 152.42 2627.18 152.42 2626.19 155.25L2622.36 165.94H2589.69C2573.04 165.94 2559.4 152.35 2559.4 135.71L2559.41 135.72Z" fill="var(--fill-0, #EFF8FD)"/>
<path id="Vector_34" d="M2559.41 135.06V30.86C2559.41 13.89 2573.31 0.01 2590.29 0.01H2817.35C2817.61 0.01 2817.85 0.18 2817.94 0.42L2821.44 10.27C2822.47 13.1 2825.02 13.1 2826.01 10.27L2829.55 0.42C2829.64 0.17 2829.87 0.01 2830.14 0.01C2847.12 0.01 2861.02 13.89 2861.02 30.86V135.09C2861.02 152.06 2847.12 165.94 2830.14 165.94H2635.03C2634.77 165.94 2634.53 165.77 2634.44 165.53L2630.76 155.25C2629.73 152.42 2627.18 152.42 2626.19 155.25L2622.51 165.53C2622.42 165.78 2622.19 165.94 2621.92 165.94H2590.32C2573.32 165.94 2559.4 152.04 2559.4 135.05L2559.41 135.06Z" fill="var(--fill-0, #EFF8FD)"/>
</g>
<path id="Vector_35" d="M2514.06 165.95L2268.79 165.95C2251.97 165.95 2238.31 152.29 2238.31 135.47V30.48C2238.31 13.66 2251.97 0 2268.79 0L2514.06 0C2530.88 0 2544.54 13.66 2544.54 30.48V135.47C2544.54 152.29 2530.89 165.95 2514.06 165.95Z" fill="var(--fill-0, #EFF8FD)"/>
</g>
<defs>
<clipPath id="clip0_0_20908">
<rect width="2861.02" height="525.69" fill="white"/>
</clipPath>
</defs>
</svg>
