<svg width="1920" height="526" viewBox="0 0 1920 526" fill="none" xmlns="http://www.w3.org/2000/svg">
<g clip-path="url(#clip0_0_20560)">
<path d="M769.883 209.35V314.83C769.883 331.47 756.243 345.06 739.623 345.06H498.523C494.163 345.06 490.053 344.14 486.303 342.48L491.833 330.76C493.143 328.03 491.333 326.26 488.613 327.54L475.153 333.91C470.863 328.71 468.283 322.05 468.283 314.83V209.35C468.283 192.71 481.883 179.12 498.543 179.12H739.643C742.973 179.12 746.193 179.65 749.213 180.68L738.373 203.9C737.133 206.59 738.903 208.4 741.633 207.09L766.363 195.2C768.633 199.41 769.903 204.26 769.903 209.36L769.883 209.35Z" fill="#EFF8FD"/>
<path d="M769.883 209.35V314.83C769.883 331.47 756.243 345.06 739.623 345.06H498.523C494.163 345.06 490.053 344.14 486.303 342.48L491.833 330.76C493.143 328.03 491.333 326.26 488.613 327.54L475.153 333.91C470.863 328.71 468.283 322.05 468.283 314.83V209.35C468.283 192.71 481.883 179.12 498.543 179.12H739.643C742.973 179.12 746.193 179.65 749.213 180.68L738.373 203.9C737.133 206.59 738.903 208.4 741.633 207.09L766.363 195.2C768.633 199.41 769.903 204.26 769.903 209.36L769.883 209.35Z" fill="#EFF8FD"/>
<path d="M602.663 389.97V495.45C602.663 512.09 589.023 525.68 572.373 525.68H344.283L340.633 515.41C339.603 512.58 337.053 512.58 336.063 515.41L332.383 525.68H331.323C314.673 525.68 301.063 512.09 301.063 495.45V389.97C301.063 373.33 314.663 359.74 331.323 359.74H527.493L531.323 370.43C532.353 373.26 534.903 373.26 535.893 370.43L539.723 359.74H572.393C589.043 359.74 602.683 373.33 602.683 389.97H602.663Z" fill="#EFF8FD"/>
<path d="M602.663 390.63V494.83C602.663 511.8 588.763 525.68 571.783 525.68H344.723C344.463 525.68 344.223 525.51 344.133 525.27L340.633 515.42C339.603 512.59 337.053 512.59 336.063 515.42L332.523 525.27C332.433 525.52 332.203 525.68 331.933 525.68C314.953 525.68 301.053 511.8 301.053 494.83V390.6C301.053 373.63 314.953 359.75 331.933 359.75H527.043C527.303 359.75 527.543 359.92 527.633 360.16L531.313 370.44C532.343 373.27 534.893 373.27 535.883 370.44L539.563 360.16C539.653 359.91 539.883 359.75 540.153 359.75H571.753C588.753 359.75 602.673 373.65 602.673 390.64L602.663 390.63Z" fill="#EFF8FD"/>
<path d="M647.033 359.74H892.303C909.123 359.74 922.783 373.4 922.783 390.22V495.21C922.783 512.03 909.123 525.69 892.303 525.69H647.033C630.213 525.69 616.553 512.03 616.553 495.21V390.22C616.553 373.4 630.213 359.74 647.033 359.74Z" fill="#EFF8FD"/>
<path d="M352.593 1.33008H589.843C606.273 1.33008 619.603 14.6701 619.603 31.0901V134.85C619.603 151.28 606.263 164.61 589.843 164.61H352.593C336.163 164.61 322.833 151.27 322.833 134.85V31.1001C322.833 14.6701 336.173 1.34008 352.593 1.34008V1.33008Z" fill="#CDE3F5"/>
<path d="M814.893 180.44H1052.14C1068.57 180.44 1081.9 193.78 1081.9 210.2V313.96C1081.9 330.39 1068.56 343.72 1052.14 343.72H814.893C798.463 343.72 785.133 330.38 785.133 313.96V210.2C785.133 193.77 798.473 180.44 814.893 180.44Z" fill="#CDE3F5"/>
<path d="M130.563 209.35V314.83C130.563 331.47 116.923 345.06 100.303 345.06H-140.797C-145.157 345.06 -149.267 344.14 -153.017 342.48L-147.487 330.76C-146.177 328.03 -147.987 326.26 -150.707 327.54L-164.167 333.91C-168.457 328.71 -171.037 322.05 -171.037 314.83V209.35C-171.037 192.71 -157.437 179.12 -140.777 179.12H100.323C103.653 179.12 106.873 179.65 109.893 180.68L99.0526 203.9C97.8127 206.59 99.5826 208.4 102.313 207.09L127.043 195.2C129.313 199.41 130.583 204.26 130.583 209.36L130.563 209.35Z" fill="#EFF8FD"/>
<path d="M130.563 209.35V314.83C130.563 331.47 116.923 345.06 100.303 345.06H-140.797C-145.157 345.06 -149.267 344.14 -153.017 342.48L-147.487 330.76C-146.177 328.03 -147.987 326.26 -150.707 327.54L-164.167 333.91C-168.457 328.71 -171.037 322.05 -171.037 314.83V209.35C-171.037 192.71 -157.437 179.12 -140.777 179.12H100.323C103.653 179.12 106.873 179.65 109.893 180.68L99.0526 203.9C97.8127 206.59 99.5826 208.4 102.313 207.09L127.043 195.2C129.313 199.41 130.583 204.26 130.583 209.36L130.563 209.35Z" fill="#EFF8FD"/>
<path d="M305.583 30.23V135.71C305.583 152.35 291.943 165.94 275.293 165.94H47.2026L43.5526 155.67C42.5226 152.84 39.9726 152.84 38.9826 155.67L35.3026 165.94H34.2426C17.5926 165.94 3.98261 152.35 3.98261 135.71V30.23C3.97261 13.6 17.5826 0 34.2326 0H230.403L234.233 10.69C235.263 13.52 237.813 13.52 238.803 10.69L242.623 0H275.293C291.943 0 305.583 13.59 305.583 30.23Z" fill="#EFF8FD"/>
<path d="M305.583 30.89V135.09C305.583 152.06 291.683 165.94 274.703 165.94H47.6426C47.3826 165.94 47.1426 165.77 47.0526 165.53L43.5526 155.68C42.5226 152.85 39.9726 152.85 38.9826 155.68L35.4426 165.53C35.3526 165.78 35.1226 165.94 34.8526 165.94C17.8726 165.94 3.9726 152.06 3.9726 135.09V30.86C3.9726 13.89 17.8726 0 34.8526 0H229.963C230.223 0 230.463 0.17 230.553 0.41L234.233 10.69C235.263 13.52 237.813 13.52 238.803 10.69L242.483 0.41C242.573 0.16 242.803 0 243.073 0H274.673C291.673 0 305.593 13.9 305.593 30.89H305.583Z" fill="#EFF8FD"/>
<path d="M176.783 179.11H422.053C438.873 179.11 452.533 192.77 452.533 209.59V314.58C452.533 331.4 438.873 345.06 422.053 345.06H176.783C159.963 345.06 146.303 331.4 146.303 314.58V209.59C146.303 192.77 159.963 179.11 176.783 179.11Z" fill="#EFF8FD"/>
<path d="M11.4226 359.74H256.693C273.513 359.74 287.173 373.4 287.173 390.22V495.21C287.173 512.03 273.513 525.69 256.693 525.69H11.4226C-5.39736 525.69 -19.0574 512.03 -19.0574 495.21V390.22C-19.0574 373.4 -5.39736 359.74 11.4226 359.74Z" fill="#EFF8FD"/>
<path d="M957.993 135.72V30.23C957.993 13.6 971.633 0 988.283 0H1216.37L1220.02 10.27C1221.05 13.1 1223.6 13.1 1224.59 10.27L1228.28 0H1229.34C1245.99 0 1259.6 13.59 1259.6 30.23V135.71C1259.6 152.35 1246 165.94 1229.34 165.94H1033.17L1029.34 155.25C1028.31 152.42 1025.76 152.42 1024.77 155.25L1020.94 165.94H988.273C971.623 165.94 957.983 152.35 957.983 135.71L957.993 135.72Z" fill="#EFF8FD"/>
<path d="M957.993 135.06V30.86C957.993 13.89 971.893 0 988.873 0H1215.93C1216.19 0 1216.43 0.17 1216.52 0.41L1220.02 10.26C1221.05 13.09 1223.6 13.09 1224.59 10.26L1228.13 0.41C1228.22 0.16 1228.45 0 1228.72 0C1245.7 0 1259.6 13.88 1259.6 30.85V135.08C1259.6 152.05 1245.7 165.93 1228.72 165.93H1033.61C1033.35 165.93 1033.11 165.76 1033.02 165.52L1029.34 155.24C1028.31 152.41 1025.76 152.41 1024.77 155.24L1021.09 165.52C1021 165.77 1020.77 165.93 1020.5 165.93H988.903C971.903 165.93 957.983 152.03 957.983 135.04L957.993 135.06Z" fill="#EFF8FD"/>
<path d="M912.643 165.95L667.373 165.95C650.553 165.95 636.893 152.29 636.893 135.47V30.4802C636.893 13.6602 650.553 0.000198364 667.373 0.000198364L912.643 0.000198364C929.463 0.000198364 943.123 13.6602 943.123 30.4802V135.47C943.123 152.29 929.463 165.95 912.643 165.95Z" fill="#EFF8FD"/>
<path d="M2039.38 209.35V314.83C2039.38 331.47 2025.74 345.06 2009.12 345.06H1768.02C1763.66 345.06 1759.55 344.14 1755.8 342.48L1761.33 330.76C1762.64 328.03 1760.83 326.26 1758.11 327.54L1744.65 333.91C1740.36 328.71 1737.78 322.05 1737.78 314.83V209.35C1737.78 192.71 1751.38 179.12 1768.04 179.12H2009.14C2012.47 179.12 2015.69 179.65 2018.71 180.68L2007.87 203.9C2006.63 206.59 2008.4 208.4 2011.13 207.09L2035.86 195.2C2038.13 199.41 2039.4 204.26 2039.4 209.36L2039.38 209.35Z" fill="#EFF8FD"/>
<path d="M2039.38 209.35V314.83C2039.38 331.47 2025.74 345.06 2009.12 345.06H1768.02C1763.66 345.06 1759.55 344.14 1755.8 342.48L1761.33 330.76C1762.64 328.03 1760.83 326.26 1758.11 327.54L1744.65 333.91C1740.36 328.71 1737.78 322.05 1737.78 314.83V209.35C1737.78 192.71 1751.38 179.12 1768.04 179.12H2009.14C2012.47 179.12 2015.69 179.65 2018.71 180.68L2007.87 203.9C2006.63 206.59 2008.4 208.4 2011.13 207.09L2035.86 195.2C2038.13 199.41 2039.4 204.26 2039.4 209.36L2039.38 209.35Z" fill="#EFF8FD"/>
<path d="M1873.89 389.97V495.45C1873.89 512.09 1860.25 525.68 1843.6 525.68H1615.51L1611.86 515.41C1610.83 512.58 1608.28 512.58 1607.29 515.41L1603.61 525.68H1602.55C1585.9 525.68 1572.29 512.09 1572.29 495.45V389.97C1572.29 373.33 1585.89 359.74 1602.55 359.74H1798.72L1802.55 370.43C1803.58 373.26 1806.13 373.26 1807.12 370.43L1810.95 359.74H1843.62C1860.27 359.74 1873.91 373.33 1873.91 389.97H1873.89Z" fill="#EFF8FD"/>
<path d="M1873.89 390.63V494.83C1873.89 511.8 1859.99 525.68 1843.01 525.68H1615.95C1615.69 525.68 1615.45 525.51 1615.36 525.27L1611.86 515.42C1610.83 512.59 1608.28 512.59 1607.29 515.42L1603.75 525.27C1603.66 525.52 1603.43 525.68 1603.16 525.68C1586.18 525.68 1572.28 511.8 1572.28 494.83V390.6C1572.28 373.63 1586.18 359.75 1603.16 359.75H1798.27C1798.53 359.75 1798.77 359.92 1798.86 360.16L1802.54 370.44C1803.57 373.27 1806.12 373.27 1807.11 370.44L1810.79 360.16C1810.88 359.91 1811.11 359.75 1811.38 359.75H1842.98C1859.98 359.75 1873.9 373.65 1873.9 390.64L1873.89 390.63Z" fill="#EFF8FD"/>
<path d="M1238.27 389.97V495.45C1238.27 512.09 1224.63 525.68 1207.98 525.68H979.893L976.243 515.41C975.213 512.58 972.663 512.58 971.673 515.41L967.993 525.68H966.932C950.282 525.68 936.673 512.09 936.673 495.45V389.97C936.673 373.33 950.272 359.74 966.932 359.74H1163.1L1166.93 370.43C1167.96 373.26 1170.51 373.26 1171.5 370.43L1175.33 359.74H1208C1224.65 359.74 1238.29 373.33 1238.29 389.97H1238.27Z" fill="#EFF8FD"/>
<path d="M1238.27 390.63V494.83C1238.27 511.8 1224.37 525.68 1207.39 525.68H980.333C980.073 525.68 979.833 525.51 979.743 525.27L976.243 515.42C975.213 512.59 972.663 512.59 971.673 515.42L968.133 525.27C968.043 525.52 967.813 525.68 967.543 525.68C950.563 525.68 936.663 511.8 936.663 494.83V390.6C936.663 373.63 950.563 359.75 967.543 359.75H1162.65C1162.91 359.75 1163.15 359.92 1163.24 360.16L1166.92 370.44C1167.95 373.27 1170.5 373.27 1171.49 370.44L1175.17 360.16C1175.26 359.91 1175.49 359.75 1175.76 359.75H1207.36C1224.36 359.75 1238.28 373.65 1238.28 390.64L1238.27 390.63Z" fill="#EFF8FD"/>
<path d="M1918.25 359.74H2163.52C2180.34 359.74 2194 373.4 2194 390.22V495.21C2194 512.03 2180.34 525.69 2163.52 525.69H1918.25C1901.43 525.69 1887.77 512.03 1887.77 495.21V390.22C1887.77 373.4 1901.43 359.74 1918.25 359.74Z" fill="#EFF8FD"/>
<path d="M1621.87 1.33008H1859.12C1875.55 1.33008 1888.88 14.6701 1888.88 31.0901V134.85C1888.88 151.28 1875.54 164.61 1859.12 164.61H1621.87C1605.44 164.61 1592.11 151.27 1592.11 134.85V31.1001C1592.11 14.6701 1605.45 1.34008 1621.87 1.34008V1.33008Z" fill="#CDE3F5"/>
<path d="M1400.06 209.35V314.83C1400.06 331.47 1386.42 345.06 1369.8 345.06H1128.7C1124.34 345.06 1120.23 344.14 1116.48 342.48L1122.01 330.76C1123.32 328.03 1121.51 326.26 1118.79 327.54L1105.33 333.91C1101.04 328.71 1098.46 322.05 1098.46 314.83V209.35C1098.46 192.71 1112.06 179.12 1128.72 179.12H1369.82C1373.15 179.12 1376.37 179.65 1379.39 180.68L1368.55 203.9C1367.31 206.59 1369.08 208.4 1371.81 207.09L1396.54 195.2C1398.81 199.41 1400.08 204.26 1400.08 209.36L1400.06 209.35Z" fill="#EFF8FD"/>
<path d="M1400.06 209.35V314.83C1400.06 331.47 1386.42 345.06 1369.8 345.06H1128.7C1124.34 345.06 1120.23 344.14 1116.48 342.48L1122.01 330.76C1123.32 328.03 1121.51 326.26 1118.79 327.54L1105.33 333.91C1101.04 328.71 1098.46 322.05 1098.46 314.83V209.35C1098.46 192.71 1112.06 179.12 1128.72 179.12H1369.82C1373.15 179.12 1376.37 179.65 1379.39 180.68L1368.55 203.9C1367.31 206.59 1369.08 208.4 1371.81 207.09L1396.54 195.2C1398.81 199.41 1400.08 204.26 1400.08 209.36L1400.06 209.35Z" fill="#EFF8FD"/>
<path d="M1577.21 30.23V135.71C1577.21 152.35 1563.57 165.94 1546.92 165.94H1318.83L1315.18 155.67C1314.15 152.84 1311.6 152.84 1310.61 155.67L1306.93 165.94H1305.87C1289.22 165.94 1275.61 152.35 1275.61 135.71V30.23C1275.6 13.6 1289.21 0 1305.86 0H1502.03L1505.86 10.69C1506.89 13.52 1509.44 13.52 1510.43 10.69L1514.25 0H1546.92C1563.57 0 1577.21 13.59 1577.21 30.23Z" fill="#EFF8FD"/>
<path d="M1577.21 30.89V135.09C1577.21 152.06 1563.31 165.94 1546.33 165.94H1319.27C1319.01 165.94 1318.77 165.77 1318.68 165.53L1315.18 155.68C1314.15 152.85 1311.6 152.85 1310.61 155.68L1307.07 165.53C1306.98 165.78 1306.75 165.94 1306.48 165.94C1289.5 165.94 1275.6 152.06 1275.6 135.09V30.86C1275.6 13.89 1289.5 0 1306.48 0H1501.59C1501.85 0 1502.09 0.17 1502.18 0.41L1505.86 10.69C1506.89 13.52 1509.44 13.52 1510.43 10.69L1514.11 0.41C1514.2 0.16 1514.43 0 1514.7 0H1546.3C1563.3 0 1577.22 13.9 1577.22 30.89H1577.21Z" fill="#EFF8FD"/>
<path d="M1446.28 179.11H1691.55C1708.37 179.11 1722.03 192.77 1722.03 209.59V314.58C1722.03 331.4 1708.37 345.06 1691.55 345.06H1446.28C1429.46 345.06 1415.8 331.4 1415.8 314.58V209.59C1415.8 192.77 1429.46 179.11 1446.28 179.11Z" fill="#EFF8FD"/>
<path d="M1282.64 359.74H1527.91C1544.73 359.74 1558.39 373.4 1558.39 390.22V495.21C1558.39 512.03 1544.73 525.69 1527.91 525.69H1282.64C1265.82 525.69 1252.16 512.03 1252.16 495.21V390.22C1252.16 373.4 1265.82 359.74 1282.64 359.74Z" fill="#EFF8FD"/>
<path d="M2181.92 165.95L1936.65 165.95C1919.83 165.95 1906.17 152.29 1906.17 135.47V30.4802C1906.17 13.6602 1919.83 0.000198364 1936.65 0.000198364L2181.92 0.000198364C2198.74 0.000198364 2212.4 13.6602 2212.4 30.4802V135.47C2212.4 152.29 2198.75 165.95 2181.92 165.95Z" fill="#EFF8FD"/>
</g>
<defs>
<clipPath id="clip0_0_20560">
<rect width="2861.02" height="525.69" fill="white" transform="translate(-332.137)"/>
</clipPath>
</defs>
</svg>
