<svg width="302" height="156" viewBox="0 0 302 156" fill="none" xmlns="http://www.w3.org/2000/svg">
<g clip-path="url(#clip0_0_9471)">
<path d="M262.4 13.3053L255.843 19.9238L254.331 10.5521C254.073 8.87709 253.646 7.35131 253.069 5.98828L262.407 13.3053H262.4Z" fill="white"/>
<path d="M286.63 19.4351C286.243 21.0965 284.907 23.9175 283.097 26.1011L262.346 51.2663C262.319 51.307 262.292 51.3545 262.278 51.4019L257.396 72.7358C256.44 76.9469 254.521 80.2969 251.856 82.4194C251.211 82.928 250.533 83.362 249.842 83.701C249.557 83.8367 249.272 83.9655 248.987 84.074C248.974 84.074 248.96 84.0876 248.946 84.0944C248.824 84.1418 248.696 84.1825 248.574 84.23L248.499 84.2571L247.997 84.4131L247.597 84.5216C247.38 84.5826 247.156 84.6233 246.926 84.664C246.234 84.786 245.522 84.8539 244.803 84.8539C244.552 84.8539 244.288 84.8539 244.037 84.8335C244.05 84.6775 244.057 84.5216 244.057 84.3588L244.281 74.9125C244.396 70.2674 243.128 66.5106 240.633 64.049C240.043 63.459 239.358 62.9369 238.592 62.4961C238.564 62.4622 238.53 62.4283 238.49 62.4147L235.716 61.0042L237.29 54.0873C238.727 53.2736 239.982 52.2767 241.019 51.1171C243.603 48.2554 245.027 44.3901 245.129 39.9281C245.291 33.3367 242.769 27.6743 238.035 23.9853C237.093 23.2597 236.062 22.6087 234.984 22.0527C234.014 21.5373 232.651 20.7914 231.071 19.9166L230.739 19.7403L230.027 16.8243C228.738 12.525 229.45 7.96124 231.946 4.61131C234.123 1.68859 237.432 0.00683594 241.026 0.00683594C241.799 0.00683594 242.586 0.0746485 243.379 0.230617C245.359 0.576461 247.055 1.30205 248.438 2.38027C250.716 4.17052 252.174 7.00509 252.771 10.8026L254.385 20.8727L254.758 22.7579C254.778 22.8732 254.873 22.9749 254.995 23.0088C255.022 23.0088 255.05 23.0224 255.077 23.0224C255.172 23.0224 255.26 22.9817 255.328 22.9071L256.379 21.6322L264.801 13.1421C269.114 8.19181 272.376 6.17099 276.058 6.17099C276.492 6.17099 276.946 6.19134 277.401 6.25237C280.71 6.6389 283.653 8.35456 285.267 10.8297C286.854 13.2303 287.342 16.2886 286.623 19.4555L286.63 19.4351Z" fill="white"/>
<path d="M216.248 52.8397L216.153 56.8135V56.9492L215.99 63.2896L220.269 65.4732C220.269 65.4596 220.289 65.4529 220.289 65.4393C222.48 62.225 226.935 61.357 230.095 60.9705C230.76 60.9026 231.397 60.862 232.014 60.862L216.241 52.8262L216.248 52.8397Z" fill="white"/>
<path d="M227.341 19.659C225.87 19.442 224.337 19.3335 222.764 19.3335C221.503 19.3335 220.207 19.4013 218.905 19.537C200.332 21.6391 191.346 35.283 190.614 62.4623C190.302 75.4552 192.052 85.41 195.815 92.0489C196.27 92.8423 196.758 93.595 197.28 94.3003C196.12 93.7103 194.879 93.0864 193.584 92.4354C193.279 92.2794 191.265 91.2623 191.265 91.2623C189.176 90.2179 187.461 89.3364 185.874 88.5023C185.02 88.0412 184.158 87.5868 183.358 87.146C183.324 87.1257 183.29 87.1053 183.223 87.0714C183.006 86.9562 182.314 86.5628 182.314 86.5628C182.015 86.4001 181.717 86.2374 181.419 86.061L180.557 85.5728C180.557 85.5728 179.371 84.8675 179.208 84.7726C179.445 84.4946 179.683 84.2165 179.913 83.9317C181.236 82.2907 182.551 80.3037 183.738 78.1812C188.709 69.0537 191.719 56.1964 191.604 44.614L191.591 44.2411C191.563 42.5729 191.428 40.8708 191.177 38.85C190.417 33.1808 188.627 28.3526 185.874 24.5008C183.643 21.3001 180.524 18.6351 176.848 16.7702C177.119 16.4583 177.397 16.1531 177.682 15.8615C178.048 15.4886 178.482 15.0478 178.957 14.6206C179.228 14.3696 179.513 14.1187 179.798 13.8814C184.579 9.90759 190.397 7.89355 197.097 7.89355C198.229 7.89355 199.416 7.95459 200.637 8.06309H200.752C205.913 8.06309 219.868 15.536 227.355 19.6455L227.341 19.659Z" fill="white"/>
<path d="M57.0032 62.523C56.6845 62.6722 56.3658 62.8214 56.0403 62.957C55.1112 63.3639 54.1686 63.7301 53.226 64.0624C52.8666 64.1844 52.4937 64.3065 52.1071 64.4286C51.151 64.7269 50.1406 65.0118 49.0963 65.2627C48.2011 65.4729 47.2857 65.6695 46.3973 65.8323C46.377 65.8323 46.3295 65.8323 46.2956 65.8526C46.2346 65.8526 46.1803 65.873 46.1668 65.8865C46.004 65.9204 45.8548 66.0086 45.7328 66.1374C45.4344 66.4562 45.4683 66.8563 45.4819 66.9444L46.8856 82.7515C46.933 83.3076 46.9534 83.8569 46.9534 84.3722C46.9534 85.0029 46.9195 85.6335 46.8584 86.2371L46.8381 86.3524C46.5872 89.3361 45.2716 92.2046 43.1491 94.4288C42.7287 94.8628 42.3218 95.229 41.9081 95.5681C41.6098 95.819 41.3046 96.0428 41.013 96.2394C40.7011 96.4496 40.3824 96.6531 40.0636 96.843C39.555 97.1278 39.0464 97.3787 38.5446 97.5957C38.3751 97.6635 38.192 97.7381 38.0157 97.7991C37.1002 98.1382 36.1644 98.3687 35.2354 98.4976C34.8149 98.5654 34.4013 98.6129 33.9876 98.6535C33.5875 98.6875 33.1807 98.7078 32.7806 98.7078C32.1703 98.7078 31.5667 98.6671 30.9903 98.5857C30.5089 98.5179 30.102 98.4433 29.7222 98.3348C29.6069 98.3145 29.4984 98.2806 29.3764 98.2467C28.9831 98.1382 28.5762 97.9958 28.1354 97.8127C28.1219 97.7991 28.1151 97.7923 28.1015 97.7923L27.7489 97.6364C27.5183 97.5211 27.2945 97.4058 27.0843 97.2905L26.752 97.0939L15.3188 89.8176C15.7122 89.8515 16.119 89.8718 16.5123 89.8718C17.3871 89.8718 18.3162 89.7904 19.2723 89.6345C22.6697 89.0716 25.6467 87.5933 27.8777 85.3419C28.3456 84.874 28.7796 84.3654 29.1865 83.8365C30.1223 82.6023 30.8615 81.1986 31.3904 79.6593C31.5532 79.1778 31.682 78.7438 31.7837 78.3301C31.8448 78.1064 31.8922 77.869 31.9465 77.6317C32.0143 77.2926 32.0685 76.9535 32.1228 76.6009C32.1906 76.133 32.2381 75.6515 32.2652 75.1972C32.2855 75.0751 32.2855 74.9395 32.2855 74.8174C32.2991 74.5191 32.3059 74.2071 32.3059 73.8952C32.3059 73.2781 32.2855 72.722 32.2381 72.1931L31.5667 64.6659L31.4989 63.8657L30.9293 57.4235L30.8818 56.8607H30.9022C30.9022 56.8607 30.9564 56.8607 30.9835 56.8471C32.3601 56.6776 44.1934 54.9755 51.9173 45.6309C52.0461 45.475 52.1682 45.3326 52.2834 45.1834C52.4733 44.9596 52.6496 44.7222 52.8327 44.4781L53.2125 43.956C53.538 43.5084 53.8364 43.0608 54.1551 42.5455C54.2704 42.3556 54.3856 42.1657 54.5009 41.9758C54.6501 41.7249 54.7925 41.4808 54.9214 41.2299C55.0163 41.0672 55.1044 40.8908 55.1858 40.7349C55.3079 40.484 55.4367 40.2263 55.5588 39.9754C55.6741 39.738 55.7826 39.5007 55.8775 39.2701C56.0131 38.9785 56.1352 38.6802 56.2505 38.3886C56.3658 38.097 56.481 37.8122 56.5828 37.5273L57.0168 62.5095L57.0032 62.523Z" fill="white"/>
<path d="M56.7861 26.6777V26.6574V26.5082C56.7861 26.2709 56.7861 26.0742 56.7726 25.8843L56.7522 25.2876C56.7522 25.1994 56.7387 25.1723 56.7387 25.1316C56.7183 24.684 56.6844 24.2229 56.6505 23.755V23.6804C55.9114 15.4209 52.6428 9.05326 47.1975 5.2761C43.2236 2.51613 38.1106 1.12598 32.0075 1.12598C29.6476 1.12598 27.1249 1.34298 24.5074 1.7702L11.7044 3.88595C11.4806 3.92663 11.2704 3.96054 11.0466 4.01479C10.816 4.05548 10.6058 4.10973 10.3956 4.16398C10.1718 4.21823 9.9616 4.27926 9.75817 4.34029C9.35807 4.45557 8.95798 4.5912 8.54432 4.76073C8.34089 4.83532 8.15101 4.92348 7.96792 5.01163C7.80517 5.07945 7.66954 5.14726 7.52035 5.21507L7.39829 5.28288C7.05923 5.44563 6.69982 5.64907 6.32685 5.87963C6.08273 6.02882 5.85895 6.18479 5.62838 6.34754C5.57413 6.38145 5.56057 6.39501 5.54023 6.41535L5.28254 6.61201C5.14013 6.72051 4.99773 6.82901 4.8621 6.94429C4.69935 7.07992 4.55017 7.20876 4.40098 7.34438C4.25179 7.47323 4.1026 7.61563 3.97376 7.75804C3.80423 7.93435 3.65504 8.0971 3.50585 8.25307L3.25495 8.5311C3.21426 8.58535 3.14645 8.67351 3.07863 8.75488C2.93623 8.92442 2.79382 9.11429 2.6582 9.29738C2.54291 9.46013 2.46154 9.56863 2.38695 9.68392C2.38695 9.68392 2.38695 9.70426 2.37338 9.70426C2.30557 9.80598 2.24454 9.90092 2.17673 10.0026C2.17673 10.0026 2.1157 10.1044 2.10891 10.1044C2.05466 10.1925 2.00041 10.2807 1.94616 10.3756C1.94616 10.3892 1.9326 10.3959 1.92582 10.4163L1.84445 10.5655C1.81054 10.6265 1.72916 10.7757 1.7156 10.7893C1.7156 10.7893 1.68848 10.8503 1.6817 10.8571C1.62745 10.9724 1.5732 11.0605 1.53251 11.1554C1.53251 11.1554 1.36976 11.4945 1.32907 11.5827C1.2816 11.6979 1.22735 11.8132 1.18666 11.9285C1.11207 12.098 1.03748 12.2676 0.983227 12.4235C0.901852 12.6473 0.820477 12.8643 0.752664 13.0881C0.67807 13.3119 0.610258 13.5357 0.549227 13.7662C0.508539 13.9086 0.467852 14.0375 0.433945 14.1731C0.433945 14.1731 0.366133 14.4511 0.366133 14.4647C0.345789 14.5461 0.339008 14.6003 0.325445 14.6478L0.257633 15.0343C0.230508 15.2039 0.18982 15.3802 0.169477 15.57L0.149133 15.6989C0.149133 15.6989 0.149133 15.7396 0.13557 15.787C0.115227 15.9701 0.101664 16.1058 0.0813203 16.2414C0.0813203 16.2549 0.0813203 16.2956 0.0813203 16.3092C0.0541953 16.6144 0.0270703 16.9263 0.0135078 17.245C-5.46863e-05 17.5027 -0.00683594 17.7604 -0.00683594 18.0181C-0.00683594 18.5199 0.0135078 19.0692 0.0609766 19.6456L5.08588 76.6962C5.44529 80.8057 7.0321 84.0539 9.64967 86.0815C11.5484 87.553 13.854 88.299 16.5123 88.299C17.3125 88.299 18.1534 88.2311 19.0078 88.0955C19.3469 88.0345 19.6724 87.9735 19.9979 87.8921C20.1674 87.8582 20.3166 87.8175 20.4793 87.7768C20.6828 87.7226 20.8794 87.6615 21.0761 87.6073C21.2795 87.5395 21.483 87.4852 21.6864 87.4038C21.8695 87.3428 22.039 87.2818 22.2153 87.2072C22.3984 87.1394 22.5815 87.058 22.7646 86.9766C23.1783 86.7867 23.5444 86.6037 23.8767 86.4206C24.2294 86.2171 24.5752 86.0001 24.9143 85.7696C25.0499 85.6746 25.1855 85.5797 25.3144 85.478L25.4364 85.383C25.5517 85.2949 25.6399 85.2203 25.7416 85.1389C25.8772 85.0304 25.9925 84.9287 26.1281 84.8134C26.1688 84.7795 26.1959 84.7524 26.223 84.732C26.3654 84.6167 26.4807 84.5015 26.6028 84.3726C26.6706 84.3116 26.7113 84.2845 26.7384 84.2505C26.8401 84.1421 26.9351 84.0471 27.0165 83.9522C27.0504 83.9115 27.0707 83.8912 27.0843 83.8776C27.1385 83.8301 27.1656 83.803 27.1928 83.7691C27.308 83.6402 27.3962 83.5385 27.4911 83.43C27.5996 83.3012 27.7014 83.1723 27.8031 83.0367L27.9387 82.874C28.0404 82.7383 28.1421 82.5824 28.2506 82.4332L28.332 82.3179C28.332 82.3179 28.3591 82.2636 28.3659 82.2569C28.5015 82.0534 28.5965 81.9042 28.6846 81.7483C28.7524 81.6466 28.7999 81.5516 28.8474 81.4635C28.9762 81.2329 29.0915 81.0295 29.1865 80.8396C29.2746 80.6701 29.3492 80.5005 29.4306 80.331L29.5255 80.0869C29.5255 80.0869 29.5459 80.053 29.5526 80.0326C29.6544 79.7953 29.7357 79.5986 29.8035 79.3816L29.912 79.09L30.0884 78.5204C30.1223 78.4051 30.1562 78.2898 30.1765 78.1746C30.2375 77.9847 30.2715 77.8287 30.3054 77.6727L30.3325 77.5575L30.3528 77.449C30.3799 77.3065 30.4206 77.1709 30.4342 77.0353C30.4342 77.0217 30.4478 76.9811 30.4478 76.9675C30.4478 76.9404 30.4681 76.9132 30.4681 76.8861C30.4817 76.8183 30.4884 76.798 30.4884 76.7708C30.5224 76.5267 30.563 76.2622 30.6037 75.991L30.6376 75.618C30.658 75.4281 30.6715 75.2315 30.6851 75.0281C30.6851 74.9602 30.6851 74.9128 30.6851 74.8653C30.6851 74.7229 30.6987 74.6076 30.6987 74.4991C30.7122 74.3092 30.7122 74.1533 30.7122 73.9837C30.7122 73.4819 30.6919 72.9326 30.6444 72.3495L29.2746 56.8882C29.2746 56.8882 29.2746 56.7458 29.2746 56.7322L29.1932 55.8914C29.1797 55.7286 29.3017 55.5726 29.4645 55.5455L30.224 55.4099C30.4681 55.3692 30.7055 55.3285 30.936 55.2743C30.9699 55.2607 31.0038 55.2607 31.0377 55.2607L31.1055 55.2404L31.4514 55.1726C31.8786 55.0844 32.2923 54.9895 32.6924 54.9013L32.7602 54.881C32.9636 54.8335 33.1603 54.786 33.3569 54.7318C33.54 54.6911 33.7095 54.6436 33.8723 54.5961L34.035 54.5555C34.4351 54.447 34.8352 54.3385 35.2285 54.2232L35.2896 54.2028C35.7846 54.0469 36.2186 53.9112 36.6323 53.7688C36.6458 53.7688 36.6526 53.7688 36.6662 53.7688C37.073 53.6196 37.4799 53.4772 37.8732 53.3348C38.2937 53.1789 38.687 53.0229 39.0871 52.8534C39.4126 52.7245 39.7245 52.5889 40.0297 52.4465C40.0297 52.4465 40.4365 52.2702 40.4433 52.2634C40.4637 52.2498 40.5111 52.2363 40.5383 52.2295C40.7824 52.1074 41.0469 51.9786 41.2978 51.8497C41.2978 51.8497 41.3791 51.8023 41.3859 51.8023C41.7589 51.6192 42.1183 51.4293 42.4777 51.2326L42.6405 51.1445C42.7761 51.0767 42.8981 51.0021 43.027 50.9275L43.5424 50.6291L44.0577 50.3172C44.2408 50.2019 44.4036 50.107 44.5528 49.9985C44.8986 49.7815 45.2173 49.5577 45.5428 49.3339L45.6446 49.2661C45.7327 49.205 45.8141 49.1508 45.8955 49.083C46.0989 48.9338 46.2888 48.7846 46.4854 48.649C46.777 48.4252 47.0618 48.2014 47.3331 47.9641C47.5772 47.7674 47.8078 47.5708 48.0383 47.3605C48.1536 47.252 48.2757 47.1503 48.391 47.035C48.6283 46.8248 48.8589 46.601 49.0759 46.3773C49.3403 46.1196 49.6048 45.8415 49.8557 45.5703C50.0998 45.3058 50.3372 45.0414 50.5745 44.7701C50.5745 44.7565 50.6084 44.7226 50.6152 44.7091C50.8526 44.4378 51.0831 44.1462 51.3001 43.8614C51.3205 43.8411 51.334 43.8207 51.3544 43.8004C51.5171 43.597 51.6663 43.3732 51.8291 43.163L51.924 43.0341C51.9782 42.9595 52.0325 42.8781 52.08 42.8035C52.2834 42.5187 52.4665 42.2475 52.636 41.9762C52.636 41.9559 52.6564 41.9491 52.6564 41.9355C52.7988 41.7185 52.9276 41.5015 53.0565 41.2778C53.1717 41.0743 53.287 40.8845 53.4023 40.6878C53.5651 40.403 53.7075 40.1182 53.8499 39.8334C53.9855 39.5757 54.094 39.3519 54.1957 39.1213C54.2839 38.9247 54.3585 38.7755 54.4263 38.6127C54.5009 38.4364 54.5822 38.2669 54.6433 38.0906C54.7857 37.7583 54.9145 37.426 55.0366 37.087L55.1383 36.8089C55.179 36.7004 55.2197 36.5919 55.2536 36.4834C55.3214 36.3003 55.3756 36.1376 55.4299 35.9613C55.5384 35.6086 55.6401 35.2492 55.7418 34.8898C55.7418 34.8695 55.7418 34.8695 55.7418 34.8559C55.8503 34.483 55.9385 34.11 56.0266 33.7302C56.0402 33.6421 56.0606 33.5471 56.0945 33.4454C56.0945 33.4319 56.108 33.3844 56.1148 33.3776C56.1148 33.3098 56.1284 33.2827 56.1351 33.2623C56.1487 33.1877 56.2369 32.7063 56.2369 32.7063C56.264 32.5774 56.2911 32.4554 56.3047 32.3197C56.3589 32.0146 56.4064 31.7026 56.4539 31.4043C56.5013 31.0381 56.5488 30.6787 56.5963 30.3125C56.6505 29.7429 56.698 29.1461 56.7319 28.5155C56.7658 27.8848 56.7794 27.2813 56.7726 26.7049L56.7861 26.6777ZM29.0644 38.6602C28.8135 38.7077 28.5829 38.7212 28.3524 38.7212C27.6132 38.7212 26.969 38.5178 26.4468 38.1177C25.7077 37.5413 25.2669 36.5987 25.1516 35.3849L24.1005 23.3346C23.8903 20.9883 25.0974 19.3133 27.2538 18.9539C28.2845 18.7911 29.2 18.9742 29.8781 19.5032C30.6173 20.0796 31.0649 21.0222 31.1734 22.236L32.2312 34.2863C32.4415 36.6326 31.2276 38.3008 29.0576 38.6602H29.0644Z" fill="white"/>
<path d="M24.1211 106.371C26.1691 106.357 27.5253 106.384 28.1763 106.452C29.0443 106.547 30.4345 106.886 32.3468 107.469C36.3884 108.703 39.5349 111.117 41.7795 114.712C42.5865 116.027 43.0679 117.01 43.2171 117.661C43.3663 118.312 43.346 119.553 43.1493 121.371C42.9662 123.1 42.7424 124.293 42.4915 124.951C42.2406 125.609 41.7388 126.348 40.9929 127.162C39.8401 128.362 38.5652 129.312 37.175 130.01C35.4051 130.81 34.2591 131.597 33.7369 132.37C33.2148 133.143 32.8215 134.784 32.5502 137.307C32.5095 137.68 32.4553 138.371 32.3807 139.375C32.3061 140.385 32.2383 141.24 32.1637 141.938L31.7365 145.932C31.4924 148.218 31.2686 149.635 31.0584 150.177C30.8549 150.72 30.4819 151.106 29.9462 151.33C28.9629 151.602 27.7491 151.663 26.3047 151.507C25.3621 151.405 24.3653 151.181 23.3006 150.828C22.3105 150.489 21.6731 149.784 21.3883 148.713C21.0967 147.641 20.9339 145.593 20.8933 142.569C20.8119 137.178 20.344 130.302 19.4828 121.947C19.0216 118.075 18.8182 114.82 18.8792 112.182C18.8657 111.612 18.9131 110.867 19.0081 109.931C19.164 108.486 19.5777 107.537 20.249 107.089C20.9204 106.642 22.2088 106.404 24.1144 106.371H24.1211ZM32.123 115.729C31.1465 115.295 30.5091 115.057 30.2243 115.03C29.6411 114.969 29.3156 115.308 29.2342 116.054C29.1799 116.57 29.1664 117.017 29.2003 117.397C29.2749 118.773 29.2613 119.926 29.1596 120.862C29.085 121.561 29.4444 121.954 30.2446 122.042C30.8956 122.11 31.6483 121.934 32.496 121.506C33.3436 121.079 33.9539 120.509 34.3269 119.791C34.3269 119.743 34.3608 119.662 34.4083 119.553C34.4558 119.438 34.4829 119.363 34.4897 119.316C34.5575 118.712 34.354 118.048 33.8794 117.336C33.4047 116.624 32.8215 116.088 32.1298 115.729H32.123Z" fill="white"/>
<path d="M55.9118 108.317C57.8512 107.964 59.8042 107.7 61.764 107.53C63.1406 107.408 63.9815 107.408 64.2866 107.53C65.4869 107.896 66.3956 109.537 67.0127 112.453C67.1415 113.104 67.2432 113.823 67.3111 114.616C67.3857 115.505 67.0873 116.237 66.4024 116.814C65.514 117.505 64.2798 118.082 62.7134 118.543C60.9977 118.977 59.7025 119.641 58.8345 120.536C57.9597 121.438 57.5664 122.333 57.641 123.222C57.7088 124.015 58.1699 124.687 59.0176 125.222C59.8652 125.758 61.0655 126.056 62.5981 126.111C64.3544 126.145 65.5073 126.375 66.0565 126.802C66.6058 127.23 66.9381 128.118 67.0534 129.474C67.1687 130.83 67.0873 131.807 66.8025 132.254C66.5109 132.702 65.6903 133.177 64.3477 133.665C61.6487 134.608 60.245 136.072 60.1229 138.059C60.1297 138.154 60.1229 138.297 60.1026 138.486C60.0822 138.676 60.0755 138.819 60.0822 138.914C60.1704 139.944 60.5637 140.677 61.2554 141.111C61.9539 141.545 63.0592 141.721 64.5918 141.633C65.9752 141.606 66.9584 141.748 67.5348 142.047C68.1112 142.352 68.4367 142.969 68.5181 143.905C68.5927 144.746 68.5792 145.458 68.4842 146.027C68.3282 147.594 67.9756 148.618 67.4331 149.086C66.8906 149.553 65.609 149.954 63.5882 150.265C59.5601 150.991 56.5289 151.439 54.5013 151.615C52.8331 151.757 51.6938 151.669 51.0835 151.344L49.612 150.767L47.8217 131.339L47.069 122.639C46.6486 117.776 46.4587 114.718 46.4926 113.464C46.5333 112.209 46.7503 111.402 47.1572 111.036C48.2422 110.093 51.1581 109.185 55.905 108.303L55.9118 108.317Z" fill="white"/>
<path d="M76.6693 109.504C77.3949 109.266 78.5206 109.144 80.0531 109.138H80.6024C81.8366 109.131 82.7114 109.382 83.2267 109.897C84.6915 111.348 86.7055 114.929 89.2892 120.639C91.7915 126.213 93.5885 129 94.6803 128.993C95.5551 128.993 95.9823 126.85 95.9552 122.578C95.9416 120.557 95.7924 118.896 95.494 117.58C95.1957 116.217 95.0465 115.139 95.0397 114.346C95.0397 113.64 95.216 113.078 95.5754 112.65C96.2264 111.708 97.5487 110.867 99.5492 110.128C101.55 109.389 103.313 109.016 104.839 109.009C105.713 109.009 106.33 109.144 106.697 109.422C107.497 110.033 108.039 111.891 108.311 115.01C108.582 118.13 108.738 123.894 108.778 132.296C108.84 143.892 108.609 150.022 108.107 150.68C107.748 151.337 106.697 151.934 104.947 152.456C103.638 152.836 102.73 153.033 102.221 153.033C101.855 153.033 101.346 152.965 100.688 152.829C99.6645 152.599 98.8304 152.09 98.1726 151.29C97.5148 150.496 96.5926 148.788 95.4194 146.163C93.5071 142.04 92.0424 139.986 91.0184 139.986H90.9099C90.4759 140.175 90.2657 142.434 90.286 146.753C90.2996 149.852 90.2386 151.731 90.0961 152.388C89.9537 153.046 89.5943 153.521 89.0111 153.806C88.211 154.185 87.1192 154.375 85.7358 154.389C84.3524 154.396 83.3352 154.213 82.6775 153.84C82.0943 153.514 81.6738 152.985 81.4161 152.26C81.1585 151.534 80.8397 150.022 80.4668 147.723C79.1851 139.843 77.7746 132.994 76.2149 127.183C74.879 122.449 74.1263 117.872 73.9635 113.464V112.901C73.9568 111.87 74.1534 111.104 74.5467 110.609C74.9468 110.114 75.6521 109.748 76.6693 109.504Z" fill="white"/>
<path d="M125.304 109.442C126.009 109.266 127.182 109.198 128.823 109.239C132.573 109.334 135.137 109.714 136.527 110.378C137.605 110.894 138.493 111.253 139.192 111.463C140.901 111.897 142.427 113.206 143.783 115.403C145.132 117.593 145.783 119.635 145.736 121.527C145.715 122.449 145.458 123.195 144.976 123.764C144.088 124.856 142.63 125.378 140.602 125.324C139.741 125.304 138.846 125.209 137.917 125.039L135.232 124.605L134.94 122.123C134.411 118.326 132.587 116.386 129.461 116.312C125.555 116.21 123.351 119.919 122.849 127.42L122.808 129.02C122.734 132.071 122.91 134.953 123.351 137.652C123.792 140.358 124.355 142.081 125.039 142.827C125.724 143.572 126.809 143.966 128.294 144C128.762 144.013 129.115 143.973 129.352 143.878C131.088 143.24 131.99 141.423 132.072 138.419C132.105 137.205 132.044 136.445 131.895 136.12C131.746 135.801 131.285 135.537 130.512 135.32C129.501 135.048 128.85 134.574 128.559 133.889C128.416 133.401 128.349 132.96 128.355 132.573C128.416 130.295 128.918 128.972 129.861 128.613C130.492 128.389 132.838 128.321 136.9 128.43C139.239 128.491 140.88 128.606 141.816 128.776C143.139 129.054 144 129.739 144.4 130.844C144.8 131.949 144.963 134.147 144.875 137.442C144.766 141.613 144.502 144.42 144.074 145.865C143.647 147.309 142.65 148.991 141.077 150.917C139.504 152.842 138.127 154.077 136.941 154.633C135.679 155.134 133.719 155.351 131.061 155.284C129.346 155.243 127.82 155.107 126.504 154.877C124.944 154.646 123.303 153.921 121.581 152.714C119.852 151.507 118.577 150.191 117.756 148.76C115.139 144.183 113.945 137.388 114.169 128.369C114.352 121.099 115.491 116.298 117.58 113.979C118.143 113.315 119.357 112.433 121.222 111.341C123.086 110.249 124.449 109.619 125.311 109.442H125.304Z" fill="white"/>
<path d="M180.524 109.808C182.484 109.232 184.342 108.947 186.084 108.934C187.251 108.934 187.976 109.062 188.268 109.347C189 109.863 189.373 111.382 189.38 113.918C189.387 115.423 189.292 117.654 189.088 120.611C188.349 132.865 186.173 141.05 182.551 145.152C178.93 149.255 174.76 151.316 170.026 151.344C169.077 151.344 168.134 151.283 167.185 151.147C165.144 150.876 163.618 150.509 162.594 150.042C158.505 148.136 155.352 142.616 153.121 133.468C151.412 126.531 150.551 121.248 150.53 117.634V116.223C150.585 114.535 150.707 113.477 150.89 113.05C151.066 112.623 151.486 112.25 152.137 111.917C153.155 111.443 154.789 111.178 157.047 111.117C157.339 111.117 157.718 111.104 158.193 111.076C158.668 111.049 158.973 111.036 159.122 111.036C160.797 111.029 161.78 111.538 162.079 112.568C162.37 113.599 162.608 116.718 162.784 121.933C162.865 123.249 162.906 124.28 162.906 125.032C163.089 133.244 163.55 137.917 164.289 139.036C164.947 139.971 165.754 140.439 166.697 140.433C167.639 140.426 168.718 139.951 169.911 139.008C171.105 138.066 171.959 137.001 172.461 135.828C173.254 134.133 173.77 132.397 174.021 130.606C174.265 128.823 174.488 125.676 174.685 121.167C174.746 119.241 174.794 117.844 174.827 116.976C174.861 116.108 174.983 115.193 175.194 114.23C175.404 113.267 175.587 112.629 175.729 112.324C175.872 112.019 176.218 111.653 176.76 111.226C177.303 110.798 177.791 110.527 178.232 110.405C178.666 110.29 179.432 110.08 180.524 109.795V109.808Z" fill="white"/>
<path d="M197.646 110.731C198.521 110.636 199.504 110.582 200.596 110.575H201.796C203.031 110.609 203.831 110.697 204.197 110.84C204.563 110.982 205.038 111.396 205.621 112.101C206.13 112.759 206.469 113.837 206.618 115.336C206.774 116.834 206.97 120.428 207.221 126.104C207.628 134.601 208.13 140.087 208.727 142.576C209.547 146.468 209.995 148.652 210.069 149.12C210.144 149.635 210.185 150.225 210.185 150.883C210.185 151.636 209.825 152.226 209.1 152.646C207.791 153.501 205.974 153.928 203.648 153.941C201.681 153.948 200.223 153.656 199.274 153.046C198.182 152.443 197.443 151.181 197.07 149.255C196.697 147.336 196.31 142.732 195.91 135.462C195.273 124.809 194.73 117.885 194.276 114.698C194.201 114.373 194.161 113.945 194.161 113.43C194.161 112.582 194.405 111.965 194.913 111.558C195.422 111.158 196.331 110.88 197.639 110.731H197.646Z" fill="white"/>
<path d="M216.83 109.538C217.556 109.301 218.682 109.179 220.214 109.172H220.764C221.998 109.165 222.872 109.416 223.388 109.931C224.853 111.382 226.867 114.963 229.45 120.673C231.953 126.247 233.75 129.034 234.841 129.027C235.716 129.027 236.143 126.884 236.116 122.612C236.103 120.591 235.954 118.93 235.655 117.614C235.357 116.251 235.208 115.173 235.201 114.38C235.201 113.675 235.377 113.112 235.737 112.684C236.388 111.742 237.71 110.901 239.71 110.162C241.711 109.423 243.474 109.05 245 109.043C245.875 109.043 246.492 109.179 246.858 109.457C247.658 110.067 248.2 111.925 248.472 115.044C248.743 118.164 248.899 123.928 248.94 132.33C249.001 143.926 248.77 150.056 248.268 150.714C247.909 151.372 246.858 151.968 245.108 152.49C243.799 152.87 242.891 153.067 242.382 153.067C242.016 153.067 241.507 152.999 240.85 152.863C239.826 152.633 238.992 152.124 238.334 151.324C237.676 150.531 236.754 148.822 235.581 146.197C233.668 142.074 232.203 140.02 231.18 140.02H231.071C230.637 140.21 230.427 142.468 230.447 146.787C230.461 149.886 230.4 151.765 230.257 152.423C230.115 153.08 229.755 153.555 229.172 153.84C228.372 154.22 227.28 154.41 225.897 154.423C224.514 154.43 223.496 154.247 222.839 153.874C222.255 153.548 221.835 153.019 221.577 152.294C221.32 151.568 221.001 150.056 220.628 147.757C219.346 139.877 217.936 133.028 216.376 127.217C215.04 122.483 214.287 117.906 214.125 113.498V112.935C214.118 111.905 214.315 111.138 214.708 110.643C215.108 110.148 215.813 109.782 216.83 109.538Z" fill="white"/>
<path d="M264.258 109.51C265.133 109.321 266.15 109.219 267.317 109.212C269.209 109.205 271.209 109.571 273.325 110.311C274.708 110.819 276.37 111.796 278.309 113.247C280.242 114.691 281.361 115.79 281.659 116.543C281.659 116.59 281.679 116.658 281.713 116.753C281.747 116.848 281.768 116.916 281.768 116.963C281.768 117.621 281.374 118.36 280.581 119.187C279.781 120.015 278.77 120.666 277.536 121.14C276.376 121.662 275.468 121.927 274.81 121.927C273.644 121.927 272.511 121.14 271.413 119.547C270.314 117.96 268.998 117.166 267.473 117.173C266.815 117.173 266.232 117.343 265.73 117.675C265.079 118.102 264.753 118.855 264.76 119.933C264.76 121.201 265.208 122.68 266.089 124.361C266.971 126.043 268.103 127.521 269.493 128.783C273.881 132.702 276.553 135.605 277.509 137.476C278.39 139.07 278.906 140.847 279.062 142.82C279.069 144.651 278.424 146.414 277.122 148.109C275.895 149.71 274.607 150.835 273.264 151.473C271.921 152.11 270.117 152.442 267.866 152.449C263.641 152.47 260.434 151.432 258.243 149.33C256.195 147.275 255.165 145.329 255.158 143.498C255.151 141.62 256.162 140.209 258.196 139.26C259.138 138.833 260.081 138.616 261.03 138.609C263.431 138.595 264.821 139.924 265.201 142.603C265.276 143.586 265.425 144.224 265.648 144.502C265.865 144.78 266.266 144.97 266.856 145.058H267.181C267.981 145.058 268.653 144.847 269.195 144.447C269.738 144.047 270.009 143.539 270.009 142.928C269.927 141.335 268.171 138.853 264.733 135.489C259.979 130.865 257.05 127.176 255.945 124.409C255.429 123.141 255.165 121.805 255.158 120.401C255.144 117.817 255.972 115.505 257.633 113.45C259.294 111.402 261.512 110.087 264.272 109.51H264.258Z" fill="white"/>
<path d="M92.9569 18.9608C90.0207 21.8767 88.4678 26.2777 88.5763 31.3298L89.2476 71.2781C89.2476 72.397 88.4949 72.9056 87.7964 72.9056C87.1454 72.9056 86.3656 72.4513 86.3452 71.1764L85.6671 31.2281C85.6196 25.8031 83.6734 21.124 80.1743 18.0656C77.5364 15.76 74.2136 14.5462 70.5585 14.5462C69.9143 14.5462 69.2565 14.5869 68.6055 14.6615C73.1693 11.0945 78.601 7.06645 81.422 6.42223C81.6526 6.3612 81.8832 6.32052 82.1205 6.27983C82.3443 6.24592 82.5681 6.21202 82.7783 6.18489H82.819C82.819 6.18489 82.9139 6.18489 82.941 6.17133C83.0631 6.15777 83.1919 6.1442 83.2937 6.13742H83.3818L83.6598 6.11708C83.8362 6.10352 84.0057 6.10352 84.182 6.10352H84.2295C84.4058 6.10352 84.5889 6.10352 84.7788 6.11708C85.1178 6.13064 85.4637 6.15777 85.8502 6.20523C85.8638 6.20523 85.918 6.22558 85.9316 6.22558C86.0943 6.24592 86.2638 6.26627 86.4537 6.30695C86.63 6.3273 86.8063 6.37477 86.9962 6.42223C87.159 6.44936 87.3149 6.49005 87.4777 6.53752C87.6743 6.59177 87.8642 6.6528 88.0541 6.70705C88.4067 6.81555 88.7593 6.94439 89.0984 7.08002C89.7765 7.35805 90.4411 7.69711 91.0718 8.08364C91.2277 8.17858 91.3769 8.27352 91.5464 8.3888C91.6956 8.48373 91.8313 8.59223 92.0211 8.72108C92.1296 8.79567 92.2246 8.88383 92.3331 8.97198C92.4755 9.08048 92.6111 9.1822 92.7535 9.31105C92.923 9.46023 93.0993 9.60942 93.2689 9.77217C93.4113 9.90102 93.5401 10.0299 93.6622 10.1587L93.7639 10.2672C93.8589 10.3621 93.9538 10.4639 94.0487 10.5724C94.1843 10.7215 94.3132 10.8707 94.4692 11.0606C94.5641 11.1759 94.6658 11.298 94.7675 11.4404C94.8625 11.5556 94.9439 11.6777 95.0252 11.793L95.0795 11.8744C95.2015 12.0575 95.3236 12.2338 95.4321 12.4236L95.4796 12.4915C95.5203 12.5593 95.5542 12.6203 95.6016 12.6949C95.6559 12.7763 95.7033 12.8576 95.7372 12.9458C95.7508 12.9594 95.8322 13.1085 95.8322 13.1085C95.8932 13.2238 95.9543 13.3459 96.0153 13.4815C96.1306 13.7053 96.2323 13.9359 96.3476 14.2003L96.3747 14.2681C96.395 14.3224 96.4154 14.3834 96.4425 14.4648C96.4968 14.5936 96.551 14.7225 96.5917 14.8717C96.6595 15.048 96.7138 15.2311 96.768 15.421C96.8155 15.5566 96.8494 15.6854 96.8833 15.8278L96.9511 16.0584C96.9714 16.1262 96.9782 16.2008 96.9986 16.2686C95.4931 16.906 94.1369 17.8147 92.9773 18.9743L92.9569 18.9608Z" fill="white"/>
<path d="M118.272 82.7107C117.831 83.0701 117.383 83.4227 116.97 83.7482C116.915 83.7753 116.881 83.8092 116.841 83.8363C116.258 84.3043 115.647 84.7586 115.03 85.2062L114.847 85.335C114.271 85.7622 113.674 86.1894 113.077 86.6234L112.779 86.8269C112.819 86.7726 112.853 86.7116 112.894 86.6573L113.213 86.1827C113.328 86.0199 113.443 85.8504 113.545 85.6876C113.952 85.0502 114.338 84.3788 114.725 83.6465C114.901 83.3006 115.084 82.9412 115.254 82.5886C115.356 82.3852 115.451 82.1817 115.546 81.9647L115.749 81.4968C115.824 81.3205 115.898 81.1442 115.959 80.9747C115.98 80.9408 115.993 80.9001 116.007 80.8594C116.678 81.5578 117.438 82.1749 118.272 82.6971V82.7107Z" fill="white"/>
<path d="M125.812 10.2328L125.785 10.2735C124.171 12.3282 123.052 14.9118 122.462 17.9431L117.939 41.5757L117.77 31.8446C117.614 22.0457 111.646 15.3458 102.926 15.1763C102.79 15.1763 102.661 15.1763 102.525 15.1763C101.59 15.1763 100.688 15.2509 99.813 15.4136C100.43 14.9593 101.115 14.4304 101.854 13.8743L101.983 13.7658C106.655 9.9344 111.673 6.40137 116.712 6.40137C119.397 6.40137 121.92 7.37109 124.409 9.37156C124.585 9.52074 124.761 9.66993 124.938 9.84624C124.985 9.88693 125.032 9.92762 125.087 9.98187C125.195 10.0768 125.29 10.1785 125.378 10.2599C125.399 10.287 125.419 10.3141 125.466 10.3548C125.48 10.3752 125.541 10.4362 125.561 10.4566L125.812 10.2463V10.2328Z" fill="white"/>
<path d="M174.285 87.7971C174.719 87.458 175.132 87.0986 175.546 86.7324C175.132 87.1122 174.719 87.4648 174.285 87.7971Z" fill="white"/>
<path d="M190.017 46.6074C189.76 56.5216 187.101 70.6605 180.402 80.6153C179.927 81.3342 179.378 82.0733 178.632 83.0091L178.455 83.2261C178.32 83.3889 178.191 83.5516 178.062 83.7008L177.669 84.1484C177.472 84.3722 177.269 84.5959 177.052 84.8265C176.869 85.0232 176.679 85.213 176.482 85.4029C176.319 85.5657 176.15 85.7284 175.953 85.9183C175.933 85.9386 175.912 85.959 175.885 85.9861L175.648 86.2031C175.539 86.298 175.444 86.393 175.329 86.4879C174.888 86.888 174.482 87.2338 174.081 87.5458C173.878 87.7153 173.668 87.8781 173.43 88.0476C173.356 88.1154 173.268 88.1697 173.173 88.2443L172.922 88.4273C172.922 88.4273 172.868 88.468 172.813 88.5019L172.142 88.9563C168.256 91.5331 163.476 92.8894 158.308 92.8894C156.484 92.8894 154.626 92.7199 152.782 92.3808L139.795 90.1091L129.447 85.7284L136.954 87.0372C137.992 87.2135 139.029 87.3491 140.04 87.4441C141.016 87.5187 141.918 87.5593 142.813 87.5593C150.144 87.5593 156.477 84.9079 161.651 79.6795L161.794 79.5236C161.929 79.3879 162.065 79.2455 162.18 79.1099C162.377 78.9065 162.574 78.703 162.757 78.4928C162.906 78.3301 163.048 78.1605 163.184 78.0046C163.218 77.9639 163.387 77.7672 163.387 77.7672C163.638 77.4688 163.889 77.1569 164.14 76.8314C164.344 76.5737 164.547 76.2957 164.778 75.9837C164.839 75.9024 164.9 75.8142 164.961 75.7328C165.117 75.5226 165.266 75.2988 165.415 75.0751L165.598 74.8174L165.761 74.5732L165.951 74.2817C166.107 74.0443 166.256 73.8002 166.405 73.5628C166.649 73.1695 166.887 72.783 167.117 72.3829C167.354 71.9828 167.578 71.5759 167.795 71.1623C168.012 70.769 168.222 70.3621 168.426 69.9484C168.439 69.9281 168.446 69.9145 168.453 69.8942C168.575 69.6636 168.69 69.4195 168.799 69.1821C168.887 68.9991 169.192 68.3345 169.192 68.3345L169.565 67.5072C169.565 67.5072 169.83 66.8765 169.952 66.5917C170.196 65.995 170.433 65.3982 170.664 64.7879C170.786 64.4827 170.901 64.164 171.01 63.8453C171.193 63.3367 171.369 62.8146 171.538 62.2924C171.715 61.7702 171.884 61.2413 172.047 60.7056C172.169 60.2919 172.298 59.8851 172.434 59.3968C172.501 59.1934 172.556 58.9696 172.61 58.7662C172.732 58.3186 172.861 57.8575 172.983 57.3489C173.078 56.9759 173.173 56.6029 173.254 56.2367C173.356 55.8434 173.444 55.4366 173.525 55.0432C173.62 54.6431 173.708 54.2431 173.783 53.8362C173.871 53.4293 173.946 53.0224 174.034 52.6088C176.292 40.8365 175.756 30.6375 172.488 23.1171C172.488 23.1171 172.44 23.029 172.434 23.0086C172.434 22.9883 172.42 22.9679 172.413 22.9408C172.251 22.5882 172.095 22.2355 171.918 21.9033C171.369 20.7911 170.752 19.7265 170.094 18.7432C170.081 18.7296 170.053 18.689 170.053 18.689C169.809 18.3295 169.565 17.9837 169.301 17.6514C169.05 17.3191 168.779 16.9869 168.507 16.6681C168.406 16.5461 168.304 16.4172 168.195 16.302C168.087 16.1935 167.985 16.0782 167.883 15.9629C167.673 15.7255 167.449 15.495 167.232 15.2712C167.11 15.1491 166.981 15.0271 166.846 14.905C166.846 14.905 166.371 14.4642 166.283 14.3761C166.249 14.3422 166.208 14.3083 166.168 14.2676L174.359 17.387C174.76 17.5497 175.153 17.7328 175.539 17.9159C175.539 17.9159 175.587 17.9362 175.6 17.943C175.777 18.0244 175.946 18.1125 176.116 18.1939C176.584 18.4448 177.052 18.689 177.492 18.9534C177.94 19.2179 178.388 19.5027 178.822 19.7943C179.201 20.0452 179.527 20.2758 179.852 20.5402C180.069 20.703 180.286 20.8725 180.49 21.042C180.7 21.2184 180.924 21.4015 181.127 21.5845C181.297 21.7405 181.466 21.8829 181.629 22.0389C181.792 22.2016 181.961 22.3576 182.11 22.5136C182.341 22.7441 182.565 22.9679 182.789 23.2256C182.904 23.3409 183.006 23.4562 183.107 23.5715L183.182 23.6528C183.182 23.6528 183.229 23.7206 183.243 23.7274L183.399 23.9037C183.494 24.019 183.596 24.1343 183.69 24.2496C184.016 24.6565 184.314 25.0565 184.586 25.4499C188.322 30.7053 190.16 37.8392 190.024 46.6277L190.017 46.6074Z" fill="white"/>
<path d="M239.527 65.1677C241.704 67.3174 242.81 70.6809 242.701 74.8717L242.477 84.3315C242.477 84.3993 242.477 84.4604 242.464 84.535V84.657C242.45 84.7655 242.443 84.874 242.443 84.9825C242.443 85.091 242.43 85.1995 242.423 85.308C242.41 85.4911 242.396 85.6742 242.369 85.8505C242.369 85.8709 242.355 85.8912 242.348 85.9115L242.294 86.3455L242.226 86.7728V86.8202C242.159 87.1322 242.104 87.4441 242.023 87.7628C241.996 87.8917 241.955 88.0341 241.908 88.1833C241.874 88.3324 241.826 88.4884 241.772 88.6512C241.752 88.7325 241.657 89.0309 241.657 89.0309C241.609 89.1598 241.569 89.2818 241.508 89.431C241.48 89.5056 241.453 89.587 241.426 89.6548C241.426 89.6548 241.379 89.7633 241.379 89.7701C241.318 89.9125 241.263 90.0549 241.196 90.1905L241.087 90.4346C240.985 90.6313 240.891 90.8279 240.782 91.0246C240.755 91.0856 240.721 91.1399 240.68 91.2145C240.612 91.3298 240.551 91.445 240.463 91.5739C240.355 91.7638 240.239 91.9469 240.111 92.13C239.907 92.4283 239.677 92.7403 239.385 93.0929L239.324 93.1607C239.29 93.2014 239.256 93.2353 239.195 93.3031C239.107 93.4116 239.005 93.5201 238.89 93.6354L238.714 93.8117C238.592 93.927 238.47 94.049 238.354 94.1508L238.225 94.266C238.144 94.3406 238.063 94.4152 237.968 94.4898C237.846 94.5983 237.71 94.6933 237.574 94.7882C237.018 95.2086 236.442 95.5613 235.852 95.8393C235.71 95.9071 235.567 95.9749 235.418 96.0427C235.269 96.1105 235.12 96.1648 234.937 96.2326C234.862 96.2665 234.774 96.3004 234.659 96.3343C234.564 96.375 234.455 96.4021 234.36 96.4361L234.245 96.4767L234.13 96.5106C234.008 96.5513 233.879 96.5784 233.736 96.6191C233.621 96.653 233.506 96.6802 233.39 96.7073L233.343 96.7209L232.882 96.8022C232.095 96.9379 231.336 97.0057 230.617 97.0057C227.918 97.0057 225.985 96.0359 223.944 95.012C223.049 94.5644 222.134 94.0965 221.103 93.6964C221.069 93.6761 221.028 93.6761 220.988 93.6761C220.893 93.6761 220.798 93.7168 220.737 93.7981C218.255 96.9514 215.027 98.8095 211.378 99.1621C210.802 99.2299 210.232 99.257 209.676 99.257C207.567 99.257 205.581 98.8095 203.784 97.9076C203.126 97.5889 202.61 97.2769 201.986 96.8158C200.135 95.4935 198.521 93.6286 197.199 91.2959C193.584 84.9147 191.896 75.2379 192.208 62.5298C192.94 34.4825 202.658 21.2659 222.798 20.9336C223.096 20.9336 223.388 20.9336 223.72 20.9472C224.073 20.9675 224.432 20.9743 224.785 21.0014C225.036 21.0217 225.28 21.0353 225.545 21.0624C225.809 21.0828 226.073 21.1167 226.379 21.1506L226.453 21.1642C226.663 21.1845 226.88 21.2184 227.091 21.2455C227.253 21.2659 227.423 21.293 227.626 21.3269C227.66 21.3405 228.359 21.4625 228.359 21.4625C228.535 21.4964 228.711 21.5303 228.888 21.5778L228.976 21.5982C229.24 21.6592 229.505 21.7202 229.762 21.788C229.776 21.788 229.796 21.8016 229.796 21.8016C230.115 21.8762 230.413 21.9643 230.732 22.0525C230.753 22.0728 230.78 22.0796 230.807 22.0864C231.417 22.2763 231.96 22.4662 232.482 22.6628C232.678 22.7374 232.868 22.8188 233.065 22.9069C233.065 22.9069 233.343 23.0222 233.445 23.0697C233.648 23.1646 233.845 23.2596 234.055 23.3681C234.177 23.4291 234.286 23.4833 234.394 23.5376C234.414 23.5579 234.435 23.5579 234.462 23.5715C235.404 24.0665 236.279 24.6294 237.079 25.2465C241.413 28.6168 243.712 33.8248 243.569 39.9075C243.467 43.9898 242.186 47.5025 239.867 50.0862C239.67 50.3032 239.473 50.5202 239.256 50.7101L239.229 50.7372C239.032 50.9271 238.829 51.1169 238.653 51.2661C238.619 51.2865 238.585 51.3204 238.565 51.3407C238.348 51.517 238.117 51.7001 237.88 51.8697C237.642 52.0392 237.405 52.2087 237.161 52.3647C237.147 52.3647 237.14 52.3783 237.14 52.385C236.808 52.5885 236.462 52.7919 236.062 52.9954C235.899 53.0835 235.716 53.1649 235.547 53.2463C234.306 53.8294 232.956 54.2499 231.532 54.5076C231.146 54.5754 230.725 54.6364 230.271 54.6839C229.206 54.7992 228.108 54.9144 227.003 54.9144C224.704 54.9144 223.124 54.3787 222.052 53.2259L222.283 43.5559C222.317 42.1996 221.937 41.1078 221.198 40.4229C220.648 39.9279 219.916 39.6634 219.082 39.6634C218.926 39.6634 218.763 39.677 218.641 39.6838C218.54 39.6838 218.438 39.7041 218.295 39.7244C217.265 39.9008 216.41 40.4229 215.813 41.2299C215.264 41.9826 214.952 42.9862 214.918 44.1323L214.138 76.4856C214.098 77.8486 214.478 78.9336 215.217 79.6118C215.766 80.1204 216.505 80.3848 217.353 80.3848C217.509 80.3848 217.658 80.3713 217.834 80.3577H217.909C217.983 80.3374 218.058 80.3306 218.112 80.317C219.943 79.9915 221.144 78.642 221.435 76.6551C223.097 78.3165 225.328 79.2456 227.667 79.2456C228.488 79.2456 229.308 79.1303 230.115 78.8997C230.319 78.8455 230.481 78.7166 230.59 78.5335C230.692 78.3504 230.719 78.1334 230.658 77.9232C230.563 77.5842 230.251 77.3468 229.898 77.3468C229.83 77.3468 229.756 77.3604 229.688 77.3739C229.03 77.5638 228.352 77.6588 227.674 77.6588C225.144 77.6588 222.764 76.3093 221.469 74.1393L221.428 74.0715C221.347 73.9359 221.266 73.8002 221.191 73.6375C221.123 73.5086 221.062 73.373 221.001 73.2306C220.94 73.1085 220.886 72.9729 220.838 72.8441C220.777 72.6949 220.73 72.5457 220.682 72.3965C220.492 71.7319 220.398 71.047 220.398 70.3689C220.398 70.2129 220.398 70.0705 220.418 69.8942C220.418 69.8332 220.418 69.7789 220.438 69.6908C220.452 69.528 220.472 69.3653 220.506 69.189C220.52 69.094 220.526 68.9991 220.56 68.8974C220.581 68.8092 220.594 68.7279 220.628 68.6194C220.682 68.3888 220.743 68.1718 220.832 67.948C220.872 67.8395 220.913 67.731 220.96 67.6157C221.049 67.3919 221.15 67.1817 221.272 66.9579C221.313 66.8698 221.361 66.7884 221.415 66.707C221.489 66.585 221.571 66.4561 221.652 66.3409C223.463 63.6758 227.464 62.9163 230.305 62.5773C230.617 62.5501 230.922 62.523 231.261 62.5094C231.512 62.4959 231.763 62.4891 232.007 62.4891H232.183C232.353 62.4891 232.529 62.4891 232.685 62.5027C232.712 62.5027 232.753 62.5027 232.78 62.5027C232.8 62.5027 232.828 62.5027 232.855 62.5027C232.943 62.5027 233.038 62.5027 233.146 62.523C233.302 62.5366 233.465 62.5434 233.628 62.5637C234.062 62.6044 234.503 62.679 234.937 62.7739C234.957 62.7739 234.984 62.7943 235.004 62.7943C235.465 62.9095 235.805 62.9977 236.123 63.1062C236.239 63.1401 236.361 63.1876 236.476 63.235C236.591 63.2757 236.706 63.3232 236.822 63.3774L236.923 63.4181C237.113 63.5063 237.296 63.5944 237.507 63.7029C237.886 63.9064 238.232 64.1234 238.571 64.3607C238.687 64.4421 238.802 64.5303 238.917 64.6388C238.999 64.6998 239.08 64.7676 239.168 64.8422C239.304 64.9575 239.426 65.0795 239.555 65.1948L239.527 65.1677Z" fill="white"/>
<path d="M298.185 37.2762L297.886 37.6559C297.886 37.6559 297.866 37.683 297.859 37.6966C297.859 37.6966 277.726 62.1159 277.719 62.1295C277.712 62.1362 277.705 62.1498 277.699 62.1566C277.685 62.1701 277.678 62.1769 277.665 62.1905C277.611 62.2583 277.549 62.3193 277.502 62.3804L277.414 62.4821C277.387 62.516 277.36 62.5635 277.346 62.6109L277.143 63.1399C275.603 69.9279 274.044 76.7159 272.491 83.5107C271.684 87.3557 270.083 90.6717 267.968 92.8485C265.865 95.0931 262.739 96.3816 259.396 96.3816C256.745 96.3816 254.188 95.5407 252.222 94.0217L243.725 87.3286C243.779 87.0438 243.826 86.7454 243.874 86.4131C244.165 86.4335 244.477 86.4538 244.789 86.4538C247.746 86.4538 250.519 85.4841 252.839 83.6667C255.795 81.3136 257.904 77.6585 258.928 73.088L263.56 52.8391C263.58 52.7849 263.594 52.7306 263.6 52.6967L263.695 52.2627C263.716 52.1746 263.736 52.0932 263.75 52.0118C263.865 51.883 263.987 51.7474 264.116 51.5982L284.317 27.1111C286.284 24.7309 287.742 21.625 288.162 19.7873C288.779 17.0545 288.61 14.4166 287.681 12.0635L297.893 20.0247C300.016 21.6318 301.291 23.951 301.589 26.7178C301.982 30.2915 300.687 34.3331 298.192 37.2762H298.185Z" fill="white"/>
<path d="M114.535 79.0289C114.644 79.1849 114.746 79.3273 114.854 79.4765C114.793 79.646 114.603 80.1207 114.603 80.1207C114.535 80.2902 114.474 80.4665 114.4 80.6429C114.312 80.8531 114.217 81.0769 114.122 81.2939C114.04 81.4973 113.945 81.694 113.837 81.9177C113.634 82.345 113.43 82.7586 113.206 83.1655C112.732 84.047 112.23 84.8811 111.714 85.6271C111.477 85.9661 111.24 86.2984 110.989 86.6239C110.806 86.8613 110.629 87.0918 110.433 87.3224C110.189 87.6208 109.938 87.9191 109.68 88.204C109.524 88.3735 109.375 88.543 109.212 88.7058C105.143 93.0051 99.6438 95.704 93.3101 96.5042C91.8861 96.6941 90.4349 96.789 88.9769 96.789C80.3105 96.789 72.0848 93.4526 66.9718 87.8581C61.662 82.25 58.78 74.6211 58.624 65.8055L58.5766 63.3439C58.5766 63.3439 58.5766 63.3032 58.5766 63.2761L58.5562 62.2657L58.0205 30.6718C58.0205 30.5498 58.0205 30.4209 58.0205 30.2921C58.0205 29.1053 58.129 27.9458 58.3257 26.8201C58.3392 26.7862 58.346 26.7726 58.346 26.7387C58.4613 26.1758 58.5834 25.6401 58.7393 25.1044C58.8004 24.901 58.8614 24.7043 58.9292 24.5077C59.0852 24.0533 59.2276 23.6939 59.3632 23.3616C59.4514 23.1718 59.5327 22.9887 59.6209 22.8056C59.7294 22.5886 59.8379 22.3648 59.9667 22.141C59.9667 22.1274 59.9871 22.1139 59.9871 22.1139C60.2176 21.6934 60.5024 21.2594 60.8212 20.8187C61.1128 20.4253 61.4315 20.0456 61.7909 19.6658C61.9197 19.5302 62.0486 19.4014 62.1842 19.2725C63.12 18.3706 64.2186 17.645 65.4392 17.1229C66.1038 16.8313 66.7887 16.6143 67.4329 16.4651C67.4532 16.4651 67.4804 16.4651 67.5075 16.4515C67.6906 16.4108 67.8737 16.3702 68.0703 16.3362C68.267 16.3023 68.4569 16.2684 68.6467 16.2481C69.2774 16.1667 69.9148 16.1328 70.5319 16.1328C73.8073 16.1328 76.7707 17.211 79.117 19.259C82.2703 22.0257 84.0266 26.2843 84.0673 31.255L84.7454 71.2237C84.8065 73.4683 86.3661 74.4923 87.8105 74.4923C89.2956 74.4923 90.8011 73.3801 90.8146 71.278L90.1433 31.316C90.0348 26.7048 91.4317 22.7106 94.0696 20.0931C96.2532 17.9163 99.1691 16.7635 102.492 16.7635H102.878C110.697 16.9262 116.034 22.9954 116.183 31.8857L116.482 49.1168L112.854 68.0229C112.047 72.2205 112.616 76.0316 114.522 79.0493L114.535 79.0289Z" fill="white"/>
<path d="M173.81 38.0158C173.81 37.8666 173.81 37.7378 173.797 37.6089V37.5276C173.797 37.019 173.763 36.5511 173.736 36.1103C173.736 36.0899 173.736 36.0289 173.736 36.0086C173.722 35.8458 173.715 35.6695 173.702 35.5135C173.702 35.344 173.681 35.1745 173.668 35.0253C173.647 34.8218 173.634 34.632 173.607 34.4421C173.58 33.981 173.532 33.5198 173.457 33.0248L173.396 32.5433C173.376 32.3874 173.356 32.2382 173.329 32.0958C173.288 31.8177 173.247 31.5601 173.2 31.2956L173.064 30.5157L172.827 29.3629C172.752 28.9832 172.657 28.617 172.562 28.2508C172.372 27.5252 172.162 26.7996 171.932 26.1012C171.681 25.362 171.471 24.8059 171.267 24.3041C171.267 24.2906 171.254 24.2702 171.247 24.2702C171.186 24.0871 171.111 23.9108 171.037 23.7413C170.989 23.6328 170.942 23.5378 170.887 23.4293L170.704 23.0496L170.684 23.0157C170.569 22.7783 170.46 22.541 170.338 22.3104L170.026 21.7069C169.918 21.5102 169.816 21.3204 169.714 21.1305C169.592 20.9203 169.463 20.7101 169.334 20.5066C169.077 20.0862 168.812 19.6861 168.548 19.3131C168.48 19.2046 168.419 19.1165 168.351 19.0351C168.243 18.8791 168.148 18.7503 168.046 18.6282C167.931 18.4655 167.802 18.3095 167.68 18.1603L167.626 18.0857C167.626 18.0857 167.592 18.0518 167.578 18.0382C167.449 17.8687 167.32 17.706 167.164 17.55C166.995 17.3533 166.832 17.1702 166.669 16.9939C166.33 16.621 165.991 16.2819 165.652 15.9632C165.476 15.7937 165.3 15.6241 165.123 15.4749C164.94 15.3054 164.764 15.1494 164.574 15.0002C164.384 14.8375 164.194 14.6951 163.998 14.5391C163.808 14.3899 163.611 14.2407 163.421 14.1051C163.218 13.9559 163.021 13.8203 162.818 13.6779C162.607 13.5355 162.397 13.3999 162.187 13.271C161.929 13.1083 161.672 12.9523 161.407 12.7963C161.339 12.7557 161.326 12.7421 161.305 12.7285C161 12.559 160.722 12.403 160.431 12.2538C160.193 12.1318 159.963 12.0165 159.725 11.908C159.488 11.7927 159.258 11.6842 159.02 11.5893C158.817 11.4943 158.634 11.4197 158.444 11.3384L157.901 11.1214C157.528 10.9722 157.149 10.8298 156.769 10.7009C156.511 10.6128 156.253 10.5314 155.996 10.4568C155.724 10.3686 155.46 10.2873 155.196 10.2127C154.68 10.0635 154.144 9.92787 153.541 9.79224C152.863 9.63627 152.327 9.54134 151.818 9.4464C151.642 9.42606 150.096 9.15481 147.974 8.78184C144.162 8.11727 137.808 6.99837 137.259 6.97124H137.191C136.832 6.93734 136.445 6.91699 136.005 6.91699C135.645 6.91699 135.279 6.93734 134.879 6.97124L134.675 6.99159C134.581 6.99159 134.499 7.01193 134.418 7.02549C134.411 7.02549 134.404 7.02549 134.397 7.02549C134.384 7.02549 134.364 7.02549 134.35 7.03227L134.14 7.0594C133.95 7.08652 133.774 7.12043 133.597 7.16112C133.543 7.16112 133.516 7.17468 133.482 7.18146L133.36 7.20859C133.292 7.22215 133.211 7.23571 133.143 7.26284C132.831 7.33065 132.539 7.4188 132.248 7.51374C131.902 7.62902 131.583 7.75109 131.278 7.88671C131.075 7.97487 130.864 8.07659 130.661 8.18509C130.498 8.25968 130.356 8.34784 130.213 8.43599C130.01 8.55127 129.82 8.66656 129.644 8.7954C129.623 8.81574 129.596 8.82252 129.569 8.83609C129.366 8.97849 129.203 9.09377 129.04 9.22262C128.932 9.30399 128.823 9.39215 128.715 9.48709L128.606 9.58202C128.545 9.62949 128.491 9.68374 128.43 9.73799C128.288 9.86684 128.145 9.99568 128.003 10.1449C127.82 10.3144 127.657 10.4839 127.494 10.667C127.304 10.884 127.108 11.1146 126.931 11.3519C126.918 11.3723 126.904 11.3994 126.884 11.4197C126.836 11.474 126.796 11.5282 126.762 11.5825C126.674 11.6978 126.599 11.7995 126.545 11.9012C126.294 12.2403 126.111 12.5658 125.948 12.8438C125.894 12.932 125.846 13.0201 125.792 13.1218C125.629 13.4067 125.514 13.6372 125.419 13.8542C125.304 14.0916 125.202 14.3221 125.094 14.5595C124.978 14.8375 124.87 15.1223 124.775 15.4139C124.721 15.5427 124.687 15.658 124.646 15.7665C124.463 16.3022 124.3 16.8651 124.178 17.4347C124.11 17.706 124.056 17.9704 124.002 18.2417L118.055 49.2863L117.2 53.728L114.4 68.3619C114.352 68.6196 114.305 68.8841 114.271 69.135C114.223 69.4266 114.189 69.7046 114.162 69.9759C114.135 70.1929 114.122 70.4031 114.108 70.6065C114.108 70.6608 114.108 70.6879 114.108 70.7218C114.108 70.8032 114.108 70.8574 114.108 70.9117C114.088 71.305 114.088 71.6373 114.094 71.956C114.094 72.0848 114.094 72.2001 114.108 72.3018C114.108 72.39 114.108 72.4578 114.122 72.5256V72.6477C114.135 72.7494 114.142 72.8511 114.149 72.9528C114.169 73.1902 114.196 73.4072 114.23 73.6242C114.257 73.8479 114.298 74.0582 114.339 74.2819C114.4 74.5532 114.461 74.8312 114.535 75.1025C114.583 75.272 114.63 75.4483 114.691 75.6111C114.759 75.8484 114.847 76.0654 114.922 76.2824C115.179 76.9402 115.498 77.5573 115.864 78.1405C115.864 78.154 115.878 78.1608 115.885 78.1744C116.075 78.4728 116.278 78.7576 116.502 79.0288C116.515 79.0424 116.522 79.0492 116.522 79.0559C116.624 79.1848 116.726 79.3136 116.841 79.4357C116.936 79.551 117.024 79.6391 117.112 79.7341L117.207 79.8358C117.322 79.9511 117.451 80.0799 117.58 80.1884C117.743 80.3444 117.905 80.48 118.068 80.6224C118.245 80.758 118.414 80.8937 118.597 81.0225C118.943 81.2802 119.323 81.5243 119.73 81.7413C120.489 82.1618 121.303 82.5008 122.157 82.7449C122.388 82.8128 122.612 82.8738 122.849 82.9348C122.971 82.9687 123.093 82.9958 123.208 83.0162C123.425 83.0704 123.649 83.1111 123.873 83.145L137.225 85.4642C138.263 85.6405 139.26 85.7694 140.168 85.8508C141.057 85.9254 141.938 85.966 142.793 85.966C149.696 85.966 155.663 83.4705 160.526 78.5541C161.149 77.9167 161.726 77.286 162.275 76.6147C162.424 76.4452 162.553 76.2689 162.689 76.0858C162.913 75.8213 163.123 75.55 163.319 75.2788C163.428 75.1364 163.523 75.0075 163.618 74.8651C163.733 74.716 163.821 74.5735 163.916 74.4447C164.12 74.1531 164.316 73.8615 164.513 73.5631C164.716 73.2648 164.906 72.9664 165.096 72.668L165.469 72.0509C165.815 71.4745 166.154 70.8642 166.493 70.2268C166.636 69.9691 166.764 69.7114 166.893 69.4469C167.11 69.0265 167.327 68.5993 167.531 68.1653C167.531 68.1381 167.544 68.111 167.551 68.0974L167.944 67.2362C168.202 66.6802 168.453 66.0834 168.697 65.4663C169.016 64.6933 169.328 63.8659 169.653 62.9369C169.823 62.4554 169.992 61.9672 170.148 61.4722C170.311 60.9839 170.46 60.4821 170.616 59.9735C170.765 59.492 170.901 58.997 171.043 58.502C171.226 57.8374 171.403 57.1728 171.572 56.4947C171.742 55.8098 171.905 55.1249 172.054 54.4264C172.21 53.7212 172.352 53.0159 172.488 52.2903C172.705 51.1511 172.881 50.0932 173.037 49.0625C173.084 48.7709 173.118 48.5335 173.152 48.2894C173.22 47.8012 173.295 47.3265 173.349 46.8586V46.7907C173.396 46.4246 173.444 46.0652 173.471 45.7125C173.491 45.5362 173.505 45.387 173.518 45.2311C173.552 44.892 173.586 44.5936 173.607 44.2885C173.607 44.2207 173.62 44.1664 173.62 44.1189L173.661 43.5968C173.688 43.2645 173.708 42.9797 173.722 42.7084V42.6338L173.736 42.566C173.749 42.3083 173.756 42.0981 173.763 41.8879C173.763 41.8608 173.763 41.8269 173.763 41.8065V41.7862C173.783 41.4336 173.797 41.0809 173.81 40.7215V40.6537C173.837 39.6704 173.837 38.8024 173.81 38.009V38.0158ZM151.147 30.5971L144.468 65.4392C144.068 67.5414 142.759 68.762 140.948 68.762C140.833 68.762 140.711 68.762 140.589 68.7417C140.446 68.7281 140.331 68.7078 140.195 68.6874C139.192 68.5179 138.385 68.0364 137.876 67.3108C137.32 66.5106 137.164 65.4256 137.395 64.1982L144.074 29.3562C144.278 28.2576 144.739 27.376 145.417 26.7996C146.095 26.2232 146.983 25.9655 147.967 26.0537C148.089 26.0537 148.224 26.0808 148.36 26.1012C149.37 26.2707 150.164 26.7522 150.659 27.4777C151.222 28.2779 151.391 29.3629 151.154 30.5971H151.147Z" fill="white"/>
<path d="M281.205 106.852H283.009V112.006H283.87V106.852H285.674V106.079H281.205V106.852Z" fill="white"/>
<path d="M292.665 106.079H291.96H291.77L289.81 110.724L287.864 106.079H287.674H286.962H286.813V112.006H287.674V107.713L289.539 112.006H290.088L291.96 107.693V112.006H292.821V106.079H292.665Z" fill="white"/>
<path d="M63.8858 16.0375C63.8858 16.0375 63.9197 16.0646 63.94 16.0781C61.3835 17.4141 59.3763 19.5501 58.0878 22.3372C57.7691 19.6926 57.1927 17.2174 56.3518 14.9525C55.9721 13.9353 55.572 13.0198 55.1312 12.1654C54.8328 11.5822 54.5209 11.0126 54.1615 10.4361C53.9987 10.1717 53.8292 9.91399 53.6597 9.66309L54.8125 10.2802L63.4315 15.6916C63.5806 15.8069 63.7298 15.9154 63.8858 16.0442V16.0375Z" fill="white"/>
<path d="M216.248 52.8397L216.153 56.8135V56.9492L216.126 63.3507L215.997 63.2896C215.997 63.2896 215.997 63.3032 215.997 63.31L215.671 76.486C215.651 77.3811 215.854 78.0524 216.254 78.4186C216.512 78.656 216.872 78.7712 217.319 78.7712C217.421 78.7712 217.523 78.7712 217.618 78.7509C217.631 78.7509 217.794 78.7306 217.794 78.7306C219.103 78.4932 219.842 77.4625 219.882 75.8214L219.91 74.6347C219.571 74.0311 219.313 73.4208 219.143 72.7902C218.424 70.2811 218.831 67.6229 220.269 65.4732C220.269 65.4596 220.289 65.4529 220.289 65.4393C222.48 62.225 226.935 61.357 230.095 60.9705C230.76 60.9026 231.397 60.862 232.014 60.862L216.241 52.8262L216.248 52.8397Z" fill="white"/>
<path d="M232.835 62.4756V62.4963C232.835 62.4963 232.78 62.4756 232.76 62.4688C232.78 62.4688 232.808 62.4688 232.835 62.4688V62.4756Z" fill="white"/>
<path d="M174.082 41.8135C174.082 41.8135 174.082 41.8616 174.082 41.8822C174.095 41.8616 174.095 41.8479 174.082 41.8135Z" fill="white"/>
</g>
<defs>
<clipPath id="clip0_0_9471">
<rect width="301.65" height="155.297" fill="white"/>
</clipPath>
</defs>
</svg>
