<svg width="335" height="292" viewBox="0 0 335 292" fill="none" xmlns="http://www.w3.org/2000/svg">
<path d="M15.5488 178.123C16.4205 179.216 17.4083 180.25 18.524 181.227C20.3138 182.808 23.7887 185.121 26.3688 186.179C34.8643 189.654 43.2785 189.108 49.4497 187.771" fill="white"/>
<path d="M15.5488 178.123C16.4205 179.216 17.4083 180.25 18.524 181.227C20.3138 182.808 23.7887 185.121 26.3688 186.179C34.8643 189.654 43.2785 189.108 49.4497 187.771" stroke="black" stroke-width="2.13" stroke-linecap="round" stroke-linejoin="round"/>
<path d="M164.947 47.4533C163.46 45.2679 161.786 43.0941 159.904 40.9552C140.507 18.9968 114.555 18.869 110.79 18.9503C110.79 18.9503 105.141 9.16261 100.783 11.7548C98.0173 13.3939 100.981 18.5435 101.585 19.5315C100.772 18.3342 95.7975 11.348 92.8456 13.0103C89.6147 14.8353 94.4261 21.2984 94.4261 21.2984C94.4261 21.2984 87.4298 14.1262 85.1984 17.2997C84.2919 18.59 84.9892 20.5429 86.1514 22.4144C80.2358 23.6349 65.2669 27.7732 53.3545 41.7806C39.8151 57.6943 39.4199 75.5377 39.4548 80.1177C39.5826 85.5695 39.1643 87.8944 37.3861 90.5912C36.3634 92.1373 31.1452 98.5074 31.5171 108.993C31.9587 121.082 40.1754 126.859 41.3957 127.789C36.9561 129.951 29.4368 135.159 21.8826 143.749C17.5128 148.725 14.34 154.548 12.7129 158.896C10.1097 165.917 11.2137 172.648 15.5603 178.134C10.2724 184.353 -1.07056 200.279 2.0441 220.342C5.18199 240.58 19.6977 251.728 26.1478 255.773C27.647 256.715 28.7046 257.261 29.0997 257.459C31.5287 258.958 37.7813 262.167 46.6487 265.061C55.6092 267.991 67.2659 270.606 80.3753 270.85C88.4409 270.99 97.041 270.234 105.92 268.095C112.277 266.561 117.798 264.596 122.621 262.388C141.808 253.518 155.487 235.849 159.811 215.158C161.531 206.951 162.716 197.082 162.344 185.957C161.647 165.045 155.743 148.864 151.489 139.483C155.987 135.647 162.937 128.766 168.411 118.234C168.504 118.071 168.585 117.897 168.678 117.723C173.687 107.877 175.361 98.8794 175.977 93.1137C176.476 89.7775 178.87 67.9586 164.947 47.4881V47.4533ZM97.5989 164.58C91.9739 166.022 85.8027 166.847 79.5734 166.37C74.1576 165.952 69.7646 164.755 66.0456 163.22C69.5554 161.291 75.2617 158.431 82.9321 155.467C94.705 150.933 103.224 156.815 97.5989 164.592V164.58Z" fill="white"/>
<path d="M97.5982 164.58C91.9733 166.022 85.8021 166.847 79.5727 166.371C74.157 165.952 69.7639 164.755 66.0449 163.22C69.5547 161.291 75.261 158.431 82.9315 155.467C94.7044 150.933 103.223 156.815 97.5982 164.592V164.58Z" fill="white"/>
<path d="M84.0832 280.406C81.8867 289.868 63.1639 290.205 55.3075 289.728C48.1485 289.287 29.4722 285.66 27.8103 277.255C27.6592 276.523 27.6476 275.767 27.7754 274.954C28.8795 268.177 39.711 265.84 46.626 265.05C55.5865 267.979 67.2432 270.595 80.3526 270.839C82.9559 272.978 85.0711 276.093 84.0716 280.406H84.0832Z" fill="#FAB476"/>
<path d="M27.7867 274.954C27.6473 275.756 27.6705 276.523 27.8216 277.256C16.4787 276.116 5.13575 273.338 5.6936 266.712C6.36766 258.75 18.3033 256.076 26.1364 255.762C27.6356 256.704 28.6932 257.25 29.0884 257.448C31.5173 258.947 37.7699 262.156 46.6373 265.05C39.7223 265.841 28.8908 268.177 27.7867 274.954Z" fill="#FAB476"/>
<path d="M326.746 174.136C328.095 172.404 329.094 170.509 329.873 168.591C332.964 160.989 333.104 149.783 322.597 138.461C312.091 127.127 293.845 117.827 293.845 117.827C296.007 115.014 304.223 102.495 303.073 86.2092C302.05 71.8531 294.368 63.5766 291.8 60.6705C290.173 58.7176 286.616 55.9161 285.838 51.7662C285.047 47.5582 282.897 33.4578 270.752 22.0543C259.003 11.0228 245.068 9.01182 237.653 8.79096C238.118 7.17517 238.153 5.60588 237.305 4.52482C235.131 1.73497 227.019 10.1975 227.019 10.1975C227.019 10.1975 231.796 3.0834 228.507 1.66522C225.265 0.2703 218.129 9.80227 217.92 10.0813C218.001 9.79065 220.43 1.83959 216.92 1.51411C215.014 1.35137 208.901 9.54654 205.717 14.0103C188.423 20.0666 173.605 31.9816 164.936 47.4652C178.859 67.9357 176.453 89.7546 175.965 93.0908C175.349 98.8565 173.675 107.854 168.666 117.7C168.573 117.874 168.492 118.048 168.399 118.211C173.234 125.837 179.451 132.707 186.808 138.31C173.361 165.359 164.308 199.314 180.183 227.561C192.851 250.136 218.838 264.643 245.301 267.747C252.494 268.595 259.723 268.607 266.731 267.7C267.719 267.689 275.227 267.084 284.931 263.864C290.777 261.923 297.425 259.029 303.933 254.728C311.313 249.845 318.507 243.138 324.108 233.966C335.486 215.309 335.695 193.816 326.758 174.159L326.746 174.136ZM260.792 168.277C251.263 170.428 249.775 166.127 252.413 161.372C254.168 158.187 257.782 154.805 262.071 153.003C270.055 149.643 279.027 151.306 283.083 152.363C275.959 157.955 274.715 165.15 260.792 168.277Z" fill="white"/>
<path d="M283.084 152.363C275.96 157.955 274.716 165.15 260.793 168.277C251.263 170.428 249.776 166.127 252.414 161.372C254.169 158.187 257.783 154.805 262.071 153.003C270.056 149.643 279.028 151.306 283.084 152.363Z" fill="white"/>
<path d="M300.724 276.639C300.724 277.034 300.713 277.418 300.655 277.79C299.458 286.113 283.513 288.368 276.075 287.985C268.311 287.589 247.415 285.834 244.545 276.232C243.301 272.094 244.056 269.421 245.3 267.723C252.494 268.572 259.723 268.584 266.731 267.677C267.718 267.665 275.226 267.061 284.93 263.841C292.217 266.421 300.597 270.885 300.713 276.628L300.724 276.639Z" fill="#FAB476"/>
<path d="M300.644 277.79C300.703 277.418 300.726 277.035 300.714 276.639C300.598 270.897 292.219 266.433 284.932 263.853C290.777 261.911 297.425 259.017 303.933 254.716C311.987 256.518 323.063 260.237 323.551 267.061C324.074 274.559 310.906 277.395 300.656 277.802L300.644 277.79Z" fill="#FAB476"/>
<path d="M322.609 138.461C312.103 127.127 293.857 117.827 293.857 117.827C295.809 122.849 296.937 127.79 296.937 127.79C302.608 131.835 312.824 150.132 312.824 150.132L308.361 149.329C308.663 145.354 307.152 146.574 301.446 145.017C296.111 143.552 283.711 151.143 282.13 152.131C282.479 152.212 282.804 152.294 283.107 152.375C275.982 157.966 274.739 165.162 260.816 168.289C251.286 170.439 249.798 166.138 252.436 161.384C254.191 158.199 257.806 154.816 262.094 153.014C262.199 152.968 262.315 152.921 262.42 152.887C255.784 154.805 251.019 161.558 251.019 161.558L222.592 148.016C223.37 125.139 190.899 116.781 183.019 90.3126C169.968 46.4887 200.836 37.3055 212.295 35.713C223.754 34.1088 233.865 45.9308 240.78 44.7683C250.496 43.1526 248.055 29.3544 259.41 26.0996C265.534 24.3443 276.738 29.8194 282.944 40.6068C280.84 34.9225 277.203 28.1106 270.764 22.0543C259.014 11.0228 245.08 9.01182 237.665 8.79096C238.13 7.17517 238.165 5.60588 237.316 4.52482C235.143 1.73497 227.031 10.1975 227.031 10.1975C227.031 10.1975 231.808 3.0834 228.519 1.66522C225.276 0.2703 218.14 9.80227 217.931 10.0813C218.013 9.79065 220.442 1.83959 216.932 1.51411C215.026 1.35137 208.913 9.54654 205.728 14.0103C188.435 20.0666 173.617 31.9816 164.947 47.4652C178.87 67.9357 176.465 89.7546 175.976 93.0908C175.36 98.8565 173.687 107.854 168.678 117.7C168.585 117.874 168.504 118.048 168.411 118.211C173.245 125.837 179.463 132.707 186.82 138.31C173.373 165.359 164.32 199.314 180.195 227.561C192.863 250.136 218.849 264.643 245.312 267.747C252.506 268.595 259.735 268.607 266.743 267.7C267.731 267.689 275.239 267.084 284.943 263.864C289.371 262.388 294.24 260.377 299.168 257.634C284.292 263.271 261.13 267.328 238.2 252.426C199.964 227.573 219.628 186.028 219.628 186.028C219.628 186.028 241.152 195.002 258.317 193.967C275.494 192.944 290.324 180.192 290.324 180.192C290.324 180.192 304.223 182.354 314.427 181.494C320.819 180.948 325.096 177.832 327.409 175.589C327.2 175.112 326.991 174.624 326.77 174.147C328.118 172.415 329.117 170.521 329.896 168.603C332.987 161 333.127 149.794 322.621 138.472L322.609 138.461Z" fill="#81ABFF"/>
<path d="M283.084 152.363C275.96 157.955 274.716 165.15 260.793 168.277C251.263 170.428 249.776 166.127 252.414 161.372C254.169 158.187 257.783 154.805 262.071 153.003C262.176 152.956 262.292 152.91 262.397 152.875C269.707 149.934 277.784 151.108 282.119 152.131C282.468 152.212 282.793 152.294 283.095 152.375L283.084 152.363Z" fill="#75ABFF"/>
<path d="M164.947 47.4533C163.459 45.2679 161.786 43.0941 159.903 40.9552C140.506 18.9968 114.554 18.869 110.789 18.9503C110.789 18.9503 105.141 9.16261 100.783 11.7548C98.0166 13.3939 100.98 18.5435 101.584 19.5315C100.771 18.3342 95.7968 11.348 92.8448 13.0103C89.614 14.8353 94.4254 21.2984 94.4254 21.2984C94.4254 21.2984 87.4291 14.1262 85.1977 17.2997C84.2912 18.59 84.9885 20.5429 86.1507 22.4144C80.2351 23.6349 65.2662 27.7732 53.3538 41.7806C51.4827 43.9776 49.8673 46.2211 48.461 48.4529C55.3295 43.129 62.0934 40.5019 67.1954 42.5826C75.1564 45.8258 79.0148 56.7295 85.5812 56.8109C92.1475 56.8922 114.438 33.4575 132.836 47.1161C151.233 60.7748 153.151 90.8005 135.997 115.165C118.843 139.518 112.858 138.298 114.903 157.478L97.633 164.615C92.0081 166.068 85.8369 166.894 79.6076 166.405C74.1918 165.987 69.7987 164.79 66.0797 163.255C66.0797 163.255 50.704 152.107 44.4282 151.747C38.1408 151.387 34.8867 153.212 34.8867 153.212C34.8867 153.212 36.4208 144.261 42.2201 127.708C37.7805 129.87 29.4477 135.182 21.8935 143.784C17.5237 148.76 14.3509 154.583 12.7239 158.931C10.1206 165.952 11.2246 172.682 15.5712 178.169C15.3969 178.378 15.2109 178.599 15.0134 178.832C18.6859 182.47 23.3927 185.934 28.8317 187.283C42.2201 190.584 49.9602 188.399 49.9602 188.399C54.4463 194.455 68.1136 198.337 78.6546 200.186C89.2072 202.034 109.58 194.85 109.58 194.85C114.961 198.349 117.274 242.092 89.6837 255.46C65.4754 267.2 40.1746 260.435 18.8021 250.287C21.6262 252.786 24.2411 254.599 26.1471 255.797C27.6463 256.738 28.7039 257.285 29.099 257.482C31.528 258.982 37.7805 262.19 46.648 265.085C55.6085 268.014 67.2652 270.629 80.3746 270.873C88.4402 271.013 97.0403 270.257 105.919 268.118C112.277 266.584 117.797 264.62 122.62 262.411C141.808 253.542 155.487 235.872 159.81 215.181C161.53 206.974 162.715 197.105 162.343 185.981C161.646 165.069 155.742 148.887 151.489 139.507C155.986 135.671 162.936 128.789 168.41 118.257C168.503 118.094 168.584 117.92 168.677 117.746C173.686 107.9 175.36 98.9027 175.976 93.137C176.476 89.8008 178.87 67.9819 164.947 47.5114V47.4533ZM91.5083 153.433C79.4216 153.281 66.4632 162.906 66.0681 163.209C69.5779 161.279 75.2726 158.419 82.943 155.455C91.1248 152.305 97.726 154.176 99.109 158.233C98.8185 155.769 97.0287 153.502 91.5083 153.433Z" fill="#FFC3DD"/>
<path d="M97.6216 164.546L97.6099 164.569C91.985 166.022 85.8138 166.847 79.5845 166.359C74.1687 165.941 69.7756 164.743 66.0566 163.209C66.0566 163.209 66.0566 163.209 66.0683 163.209C69.5781 161.279 75.2728 158.42 82.9432 155.455C91.125 152.305 97.7262 154.177 99.1092 158.234C99.7135 160.001 99.3183 162.186 97.6216 164.546Z" fill="#FFC3DD"/>
<path d="M88.4515 99.6819C88.068 101.914 78.724 106.622 75.8999 106.238C73.0874 105.854 65.9284 100.019 66.2654 96.3573C66.4049 94.8345 73.1688 89.2665 77.6316 89.8012C82.0944 90.3243 88.8234 97.4616 88.4515 99.6935V99.6819Z" fill="#FAB476"/>
<path d="M265.243 82.3963C264.604 76.8747 253.482 75.6658 250.599 76.1075C247.717 76.5493 241.011 86.523 242.069 88.9292C243.94 93.2418 253.551 98.7634 256.445 97.601C259.327 96.4502 265.905 87.9063 265.255 82.3963H265.243ZM254.33 93.5092C252.18 93.486 244.626 88.3712 245.312 87.5343C246.648 85.872 259.025 81.3618 260.676 83.6518C262.326 85.9534 256.48 93.5325 254.33 93.5092Z" fill="#FAB476"/>
<path d="M254.332 93.509C252.182 93.4858 244.628 88.3711 245.313 87.5341C246.65 85.8718 259.027 81.3616 260.677 83.6516C262.328 85.9532 256.482 93.5323 254.332 93.509Z" fill="#EF1D12"/>
<path d="M49.4382 187.783C43.267 189.119 34.8644 189.666 26.3572 186.19C23.7888 185.132 20.3022 182.819 18.5125 181.238C11.7718 175.321 9.56365 167.312 12.6899 158.896C14.3054 154.537 17.4897 148.725 21.8596 143.75C29.4138 135.159 36.9331 129.951 41.3726 127.789C40.1523 126.859 31.9357 121.094 31.4941 108.993C31.1105 98.5076 36.3404 92.1375 37.3631 90.5914C39.1412 87.8946 39.5712 85.5581 39.4318 80.1179C39.3969 75.5379 39.7921 57.6945 53.3315 41.7807C65.2439 27.7734 80.2128 23.6467 86.1283 22.4146" stroke="black" stroke-width="3" stroke-linecap="round" stroke-linejoin="round"/>
<path d="M15.5486 178.123C10.2606 184.342 -1.08228 200.267 2.03238 220.331C5.17027 240.569 19.686 251.717 26.1361 255.762C27.6353 256.704 28.6929 257.25 29.088 257.447C31.517 258.947 37.7695 262.155 46.637 265.05C55.5974 267.979 67.2542 270.595 80.3636 270.839C88.4292 270.978 97.0409 270.223 105.92 268.084C112.277 266.549 117.798 264.585 122.621 262.376C141.808 253.507 155.487 235.838 159.811 215.146C161.531 206.94 162.716 197.071 162.344 185.946C161.647 165.034 155.743 148.853 151.489 139.472C156.057 135.578 163.169 128.533 168.678 117.711C173.687 107.865 175.361 98.868 175.976 93.1023C176.523 89.4174 179.417 63.065 159.903 40.9787C140.507 19.0203 114.555 18.8924 110.79 18.9738C110.79 18.9738 105.141 9.18605 100.783 11.7783C97.9242 13.4754 101.19 18.904 101.643 19.6363" stroke="black" stroke-width="3" stroke-linecap="round" stroke-linejoin="round"/>
<path d="M101.678 19.6944C101.678 19.6944 101.678 19.6944 101.654 19.6712C101.654 19.6596 101.631 19.6363 101.62 19.6131C101.027 18.7412 95.8551 11.29 92.8218 12.9988C89.5909 14.8238 94.4024 21.287 94.4024 21.287C94.4024 21.287 87.406 14.1147 85.1746 17.2882C84.2681 18.5785 84.9655 20.5314 86.1276 22.4029C87.8012 25.123 90.451 27.6455 90.451 27.6455" stroke="black" stroke-width="3" stroke-linecap="round" stroke-linejoin="round"/>
<path d="M66.0449 163.22C69.5547 161.291 75.261 158.431 82.9315 155.467C94.7044 150.933 103.223 156.815 97.5982 164.592" stroke="black" stroke-width="3" stroke-linecap="round" stroke-linejoin="round"/>
<path d="M121.749 153.607C118.03 156.548 99.1327 167.87 79.5731 166.371C60.1182 164.883 53.8772 153.305 44.5565 152.108C37.7345 151.236 29.2738 153.538 34.4804 168.51C36.0261 172.032 44.2195 188.724 64.6507 196.722C86.8135 204.894 107.617 195.978 110.464 194.42" stroke="black" stroke-width="3" stroke-linecap="round" stroke-linejoin="round"/>
<path d="M46.6366 265.05C39.7216 265.84 28.89 268.177 27.786 274.954C27.6465 275.756 27.6697 276.523 27.8208 277.255C29.4828 285.66 48.1591 289.287 55.3181 289.728C63.1629 290.205 81.8856 289.868 84.0938 280.406C85.0933 276.105 82.9781 272.978 80.3748 270.839" stroke="black" stroke-width="3" stroke-linecap="round" stroke-linejoin="round"/>
<path d="M27.8216 277.256C16.4787 276.116 5.13575 273.338 5.6936 266.712C6.35604 258.75 18.3033 256.076 26.1364 255.762" stroke="black" stroke-width="3" stroke-linecap="round" stroke-linejoin="round"/>
<path d="M66.2666 96.3454C65.9412 100.007 73.0886 105.843 75.9127 106.226C78.7369 106.61 88.0808 101.902 88.4643 99.67C88.8479 97.4381 82.1072 90.3008 77.6444 89.7661C73.1816 89.243 66.4061 94.7994 66.2666 96.3338V96.3454Z" stroke="black" stroke-width="2" stroke-linecap="round" stroke-linejoin="round"/>
<path d="M69.3105 96.9731C69.3105 96.9731 73.5758 99.6119 84.2214 99.0423" stroke="black" stroke-width="2" stroke-linecap="round" stroke-linejoin="round"/>
<path d="M326.746 174.136C335.695 193.804 335.474 215.297 324.096 233.943C318.494 243.114 311.3 249.822 303.921 254.704C297.424 259.005 290.776 261.899 284.919 263.841C275.215 267.061 267.707 267.665 266.719 267.677C259.711 268.583 252.482 268.583 245.288 267.723C218.814 264.62 192.839 250.112 180.171 227.538C164.307 199.291 173.349 165.336 186.796 138.286C179.439 132.683 173.221 125.825 168.387 118.188" stroke="black" stroke-width="3" stroke-linecap="round" stroke-linejoin="round"/>
<path d="M164.947 47.4536C173.617 31.9583 188.435 20.0549 205.728 13.9986C207.646 13.3244 209.587 12.72 211.562 12.2085" stroke="black" stroke-width="3" stroke-linecap="round" stroke-linejoin="round"/>
<path d="M289.209 179.983C311.348 185.179 321.576 180.82 326.747 174.136C328.095 172.404 329.095 170.509 329.874 168.591C332.965 160.989 333.104 149.783 322.598 138.461C312.092 127.127 293.846 117.828 293.846 117.828C296.008 115.014 304.224 102.495 303.074 86.2092C302.051 71.8532 294.369 63.5766 291.8 60.6705C290.173 58.7176 286.617 55.9162 285.838 51.7663C285.048 47.5583 282.898 33.4579 270.753 22.0544C259.004 11.0229 245.069 9.01188 237.654 8.79102" stroke="black" stroke-width="3" stroke-linecap="round" stroke-linejoin="round"/>
<path d="M234.144 14.9634C235.167 13.9637 236.933 11.325 237.654 8.77922C238.119 7.16344 238.154 5.59415 237.305 4.51308C235.132 1.72324 227.02 10.1858 227.02 10.1858C227.02 10.1858 231.796 3.07166 228.507 1.65349C225.265 0.258569 218.129 9.79054 217.92 10.0695" stroke="black" stroke-width="3" stroke-linecap="round" stroke-linejoin="round"/>
<path d="M217.931 10.0695C218.013 9.76731 220.442 1.81625 216.932 1.50239C215.026 1.33965 208.913 9.53482 205.729 13.9986" stroke="black" stroke-width="3" stroke-linecap="round" stroke-linejoin="round"/>
<path d="M296.797 128.034C296.797 128.034 306.792 137.298 313.742 150.713" stroke="black" stroke-width="3" stroke-linecap="round" stroke-linejoin="round"/>
<path d="M315.636 150.387C315.253 150.55 314.567 150.655 313.742 150.713C312.208 150.817 310.116 150.782 308.35 150.713" stroke="black" stroke-width="3" stroke-linecap="round" stroke-linejoin="round"/>
<path d="M212.283 182.435C235.353 194.467 251.972 196.861 272.542 190.282C279.271 188.131 284.745 184.342 289.22 179.983C298.401 171.009 303.398 159.57 306.571 154.642C307.466 153.27 308.07 151.933 308.349 150.713C309.57 145.447 304.607 142.448 289.452 148.69C286.837 149.771 284.804 151.015 283.107 152.352" stroke="black" stroke-width="3" stroke-linecap="round" stroke-linejoin="round"/>
<path d="M252.413 161.372C249.763 166.127 251.262 170.428 260.792 168.277C274.715 165.139 275.959 157.955 283.083 152.363C279.027 151.306 270.055 149.643 262.071 153.003C257.782 154.816 254.168 158.199 252.413 161.372Z" stroke="black" stroke-width="3" stroke-linecap="round" stroke-linejoin="round"/>
<path d="M252.414 161.372C243.07 159.408 221.709 148.399 221.709 148.399" stroke="black" stroke-width="3" stroke-linecap="round" stroke-linejoin="round"/>
<path d="M284.93 263.853C292.217 266.433 300.597 270.897 300.713 276.639C300.713 277.035 300.701 277.418 300.643 277.79C299.446 286.113 283.501 288.368 276.063 287.985C268.299 287.589 247.403 285.834 244.533 276.232C243.289 272.094 244.045 269.421 245.288 267.723" stroke="black" stroke-width="3" stroke-linecap="round" stroke-linejoin="round"/>
<path d="M303.934 254.716C311.988 256.518 323.063 260.237 323.551 267.061C324.074 274.559 310.907 277.395 300.656 277.802" stroke="black" stroke-width="3" stroke-linecap="round" stroke-linejoin="round"/>
<path d="M242.059 88.9293C243.93 93.2419 253.541 98.7635 256.435 97.6126C259.317 96.4502 265.895 87.9179 265.244 82.3964C264.594 76.8864 253.483 75.6659 250.601 76.1076C247.719 76.5493 241.013 86.523 242.059 88.9293Z" stroke="black" stroke-width="2.2" stroke-linecap="round" stroke-linejoin="round"/>
<path d="M245.811 87.1625C245.126 88.0111 252.68 93.1142 254.83 93.1374C256.98 93.1607 262.826 85.57 261.175 83.28C259.525 80.99 247.148 85.5002 245.811 87.1625Z" stroke="black" stroke-width="1.6" stroke-linecap="round" stroke-linejoin="round"/>
<path d="M50.1576 89.4986C51.2965 91.405 59.1529 92.6023 60.2104 92.0211C61.268 91.4515 65.2311 75.003 58.7228 73.6314C54.8063 72.806 48.1586 86.1624 50.1576 89.487V89.4986Z" fill="black"/>
<path d="M109.756 76.4216C104.77 75.6195 98.1689 92.2772 101.435 95.6483C104.224 98.5311 114.405 98.3916 114.811 94.4045C115.544 87.2206 113.731 77.0493 109.756 76.4216Z" fill="black"/>
<path d="M60.8789 80.7844C60.9003 79.0511 60.0385 77.6351 58.9538 77.6217C57.8692 77.6082 56.9725 79.0024 56.951 80.7357C56.9295 82.4689 57.7914 83.8849 58.876 83.8984C59.9607 83.9118 60.8574 82.5176 60.8789 80.7844Z" fill="white"/>
<path d="M108.802 79.7925C107.023 78.9788 102.212 86.9531 105.815 88.1156C109.417 89.278 110.638 80.6295 108.802 79.7925Z" fill="white"/>
<path d="M251.6 84.8956C251.6 84.8956 258.364 84.5469 259.433 87.9063C259.433 87.9063 261.35 85.2792 260.851 84.326C260.351 83.3845 257.108 82.7451 257.108 82.7451L251.611 84.8956H251.6Z" fill="black"/>
<path d="M111.998 104.902C112.281 102.479 109.245 100.132 105.216 99.6611C101.187 99.1898 97.6908 100.772 97.4075 103.195C97.1242 105.618 100.161 107.965 104.19 108.436C108.219 108.907 111.715 107.325 111.998 104.902Z" fill="#FF92A9"/>
<path d="M60.2031 98.1796C60.4864 95.7566 57.4499 93.4102 53.4208 92.9389C49.3917 92.4677 45.8959 94.0499 45.6126 96.473C45.3293 98.8961 48.3658 101.242 52.3949 101.714C56.424 102.185 59.9198 100.603 60.2031 98.1796Z" fill="#FF92A9"/>
<path d="M276.168 73.6317C272.217 75.0383 267.475 71.8648 265.569 66.5409C263.663 61.2169 265.325 55.7535 269.277 54.3353C273.228 52.9288 277.97 56.1022 279.876 61.4262C281.782 66.7501 280.12 72.2136 276.168 73.6317ZM276.482 65.4482C278.191 63.8905 278.086 61.0077 277.028 58.7409C276.947 58.5666 276.866 58.4271 276.773 58.3108C276.517 57.9737 276.308 57.6366 276.017 57.346C275.029 56.3463 273.565 55.5442 272.322 55.9511C271.915 56.0906 271.473 56.2068 271.206 56.5207C270.753 57.0438 270.474 57.7296 270.357 58.5201C270.113 60.1707 270.543 61.8563 271.357 63.3674C271.845 64.2741 272.496 64.9832 273.309 65.4831C273.716 65.7388 274.216 65.9015 274.774 65.9829C275.006 66.0178 275.227 66.0062 275.436 65.948C275.855 65.8318 276.134 65.7388 276.459 65.4482H276.482ZM272.008 72.0392C272.786 71.7602 273.1 70.6327 272.705 69.5283C272.31 68.424 271.357 67.7614 270.567 68.0404C269.776 68.3194 269.474 69.447 269.869 70.5513C270.264 71.6556 271.217 72.3182 272.008 72.0392Z" fill="black"/>
<path d="M222.638 91.5097C218.048 93.2069 212.55 89.7544 210.366 83.8028C208.169 77.8511 210.11 71.6553 214.701 69.9698C219.291 68.2726 224.788 71.7251 226.973 77.6767C229.17 83.6284 227.229 89.8242 222.638 91.5097ZM222.999 82.2916C223.301 82.0126 223.475 81.8383 223.51 81.7801C224.498 80.4666 224.695 78.8275 224.451 77.0723C224.358 76.3864 224.114 75.8052 223.87 75.1194C223.777 74.852 223.649 74.6195 223.51 74.4103C223.312 74.1197 222.917 73.585 222.58 73.2595C221.825 72.5039 220.895 71.8878 219.942 71.6553C219.872 71.6437 219.628 71.6088 219.21 71.5739C218.931 71.5507 218.687 71.5739 218.501 71.6204C217.897 71.7832 217.269 71.9808 216.851 72.4458C216.13 73.2595 215.874 74.48 215.851 75.6541C215.816 77.8511 216.758 80.2225 218.373 81.6871C219.256 82.4892 220.465 83.0588 221.523 82.9193C221.708 82.8961 221.999 82.8147 222.406 82.6636C222.603 82.5938 222.801 82.466 222.999 82.28V82.2916ZM217.827 89.8242C218.722 89.4871 219.082 88.22 218.629 86.9762C218.164 85.744 217.071 85.0117 216.165 85.3488C215.27 85.6859 214.91 86.953 215.363 88.1968C215.828 89.429 216.92 90.1613 217.827 89.8242Z" fill="black"/>
</svg>
