<svg preserveAspectRatio="none" width="100%" height="100%" overflow="visible" style="display: block;" viewBox="0 0 821.918 515.59" fill="none" xmlns="http://www.w3.org/2000/svg">
<g id="Color">
<path id="Vector" d="M691.084 7.0613C689.784 7.2113 688.614 7.1913 687.574 6.9913C662.964 2.3313 638.564 2.5313 614.364 7.6013C598.594 10.9013 583.664 15.1213 569.564 20.2413C562.274 22.8913 555.054 26.0713 547.904 29.7813C545.644 30.9513 541.984 33.1613 536.934 36.4013C533.424 38.6513 529.774 40.8813 525.984 43.1013C527.734 38.6113 530.014 37.0413 534.464 33.8313C541.814 28.5313 549.684 24.0313 558.064 20.3413C581.184 10.1613 606.004 4.4213 632.914 1.4613C651.804 -0.6087 671.014 -0.8187 688.954 3.0713C689.214 3.1313 689.424 3.30129 689.534 3.54129L691.104 7.0713L691.084 7.0613Z" fill="var(--fill-0, #EAC192)"/>
<path id="Vector_2" d="M691.084 7.06129L698.034 22.2013C698.134 22.4113 698.044 22.6613 697.834 22.7713C697.794 22.7913 697.754 22.8013 697.704 22.8113C696.724 22.9413 695.754 23.0113 694.814 23.0113C678.194 22.9713 666.644 23.2513 660.154 23.8713C643.744 25.4213 632.934 26.6813 627.704 27.6513C615.034 29.9713 605.544 31.8413 599.234 33.2513C574.214 38.8513 549.904 46.4213 526.284 55.9613C526.134 56.0213 525.964 55.9413 525.904 55.7913C525.894 55.7613 525.884 55.7213 525.884 55.6813L525.964 43.1213C529.754 40.9013 533.404 38.6713 536.914 36.4213C541.974 33.1813 545.624 30.9713 547.884 29.8013C555.034 26.0913 562.264 22.9113 569.544 20.2613C583.644 15.1413 598.584 10.9313 614.344 7.62129C638.544 2.55129 662.944 2.34129 687.554 7.01129C688.594 7.21129 689.774 7.24129 691.064 7.08129L691.084 7.06129Z" fill="var(--fill-0, #A78660)"/>
<path id="Vector_3" d="M706.504 42.8513C687.834 42.8913 671.164 43.9413 656.494 46.0013C643.774 47.7813 629.974 50.0213 615.104 52.7113C584.954 58.1613 555.504 66.3013 526.734 77.1413C526.544 77.2113 526.324 77.1213 526.254 76.9313C526.234 76.8913 526.234 76.8413 526.234 76.8013V62.9513C526.234 62.4313 526.554 61.9613 527.034 61.7613C549.164 52.7613 572.024 45.4313 595.594 39.7913C598.884 39.0013 606.074 37.4813 617.144 35.2213C625.184 33.5813 632.434 32.3913 638.874 31.6613C650.684 30.3213 657.984 29.5513 660.774 29.3613C671.364 28.6313 682.034 28.4013 692.764 28.6913C695.224 28.7613 697.574 28.4513 699.804 27.7713C700.014 27.7013 700.234 27.8113 700.324 28.0113L706.754 42.4713C706.814 42.6013 706.754 42.7613 706.624 42.8313C706.584 42.8513 706.544 42.8613 706.504 42.8613V42.8513Z" fill="var(--fill-0, #8F5841)"/>
<path id="Vector_4" d="M765.434 97.3113C761.294 95.0213 758.184 93.0213 756.104 91.3213C755.014 90.4313 750.724 86.4413 743.224 79.3313C741.904 78.0813 738.504 75.3213 733.024 71.0513C727.294 66.5913 719.714 62.2713 712.874 57.7013C709.614 55.5213 707.114 52.2513 708.204 48.2013L709.204 48.1613C709.454 48.1513 709.684 48.2713 709.804 48.4813C711.934 51.9213 715.004 55.0513 719.024 57.8813C730.134 65.6913 743.334 76.8913 755.194 85.8513C759.844 89.3613 764.904 93.2513 770.394 97.5013C770.494 97.5713 770.514 97.7013 770.444 97.8013C770.394 97.8713 770.314 97.9013 770.234 97.8913L765.424 97.3113H765.434Z" fill="var(--fill-0, #EAC192)"/>
<path id="Vector_5" d="M708.204 48.2113C707.114 52.2613 709.614 55.5313 712.874 57.7113C719.714 62.2813 727.294 66.6013 733.024 71.0613C738.504 75.3313 741.904 78.0913 743.224 79.3413C750.724 86.4413 755.024 90.4413 756.104 91.3313C758.184 93.0313 761.294 95.0313 765.434 97.3213C754.914 96.4213 746.864 95.9813 741.284 96.0213C718.914 96.1513 696.784 97.4413 674.884 99.9013C639.664 103.861 605.614 110.551 569.634 118.981C550.514 123.461 531.174 128.841 511.624 135.121C507.984 136.291 503.554 138.081 499.424 139.431C507.604 129.781 515.704 120.161 523.734 110.591C525.164 108.891 526.554 107.161 527.904 105.401C528.844 104.191 529.414 102.611 529.614 100.641C530.344 93.8213 530.244 87.5413 529.324 81.8013C559.624 70.7213 590.744 62.3713 622.674 56.7513C631.874 55.1413 641.104 53.6513 650.344 52.2813C660.414 50.8013 669.694 49.7813 678.184 49.2313C688.184 48.5913 698.184 48.2513 708.184 48.2213L708.204 48.2113Z" fill="var(--fill-0, #A78660)"/>
<path id="Vector_6" d="M518.714 75.7013L519.104 80.7013L518.924 81.7413C517.874 83.2313 516.684 84.0113 515.374 84.0813L515.964 78.9613C515.974 78.8813 515.974 78.8013 515.964 78.7213C515.774 76.0813 515.184 72.9213 514.184 69.2513C513.024 64.9813 515.544 61.6013 518.874 59.1513C519.124 58.9713 519.474 59.0213 519.664 59.2713C519.734 59.3713 519.774 59.4913 519.774 59.6113V63.9413C519.774 64.0313 519.744 64.1213 519.694 64.1813C516.344 68.6213 516.014 72.4613 518.724 75.7013H518.714Z" fill="var(--fill-0, #EAEAEA)"/>
<path id="Vector_7" d="M198.984 84.9213C199.014 85.6113 199.434 86.0313 200.264 86.1813C210.044 88.0013 219.734 90.2113 229.324 92.8313C234.944 94.3613 240.374 97.1413 245.624 101.161C239.814 100.841 235.714 102.911 233.324 107.371C231.674 110.441 230.534 112.951 229.884 114.921C228.904 117.901 227.854 119.601 226.134 121.641C222.534 125.891 217.544 125.701 212.584 123.581C209.644 122.341 207.164 121.101 205.144 119.871C191.074 111.321 174.624 108.021 158.434 111.571C155.614 112.181 153.634 112.851 152.494 113.571C145.674 117.851 140.514 122.101 137.014 126.301C129.324 135.531 126.634 146.851 125.614 158.741C125.174 163.871 125.234 168.221 125.804 171.781C126.524 176.341 127.674 180.531 129.234 184.371C133.784 195.561 140.074 206.051 148.114 215.831C154.094 223.101 160.234 230.341 166.544 237.531C171.154 242.801 175.534 248.781 176.694 255.781C178.184 264.711 176.674 272.031 173.364 281.341C170.604 289.131 168.984 293.731 168.484 295.111C166.544 300.551 165.454 304.981 163.934 310.421C163.634 311.511 162.464 315.331 160.434 321.871C157.404 331.651 154.834 340.851 152.724 349.461C151.034 356.361 150.004 365.101 148.904 371.871C147.754 379.021 147.194 387.211 147.284 393.561C147.414 402.031 148.834 410.031 151.554 417.561C154.364 425.341 159.104 433.861 165.774 443.131C176.794 458.471 195.464 468.611 213.984 472.001C228.734 474.711 241.564 474.191 256.224 472.771C264.204 472.001 271.284 470.581 277.454 468.511C284.084 466.281 290.294 463.571 296.074 460.361C296.084 460.361 297.314 459.561 299.764 457.991C301.094 457.131 302.494 456.461 303.964 455.971C296.634 461.631 290.284 465.721 284.934 468.241C276.564 472.181 268.254 475.191 260.004 477.281C258.894 477.561 254.734 478.281 247.524 479.421C242.484 480.221 238.284 480.711 234.934 480.901C218.154 481.811 204.444 481.781 193.814 480.801C177.694 479.321 161.474 474.871 145.174 467.441C132.694 461.751 122.114 454.651 113.434 446.131C112.724 444.851 110.874 441.761 107.884 436.861C101.694 426.741 97.5544 415.131 95.4444 402.021C92.2544 382.181 93.6744 362.011 98.4744 342.671C98.8944 340.971 98.8844 339.601 98.4444 338.551C109.314 336.581 119.954 333.621 130.384 329.681C130.894 329.491 131.284 329.361 131.564 329.301C134.814 328.071 137.734 326.371 140.344 324.211C143.224 321.821 144.814 317.701 141.144 315.421C138.694 313.901 132.924 314.531 130.194 315.091C126.464 315.851 116.884 318.221 101.464 322.191C85.7644 326.241 69.3544 328.811 52.2344 329.901C40.6244 330.631 28.7344 329.991 18.9144 326.931C14.8244 325.651 12.5044 322.921 11.9744 318.721C15.7244 318.241 19.6844 317.251 23.8644 315.741C42.7544 308.921 56.7844 303.421 74.9744 296.511C86.4344 292.151 97.4444 287.191 108.014 281.631C114.254 278.351 120.704 274.101 124.944 271.501C126.824 270.351 128.474 268.631 129.894 266.341C130.234 265.801 130.064 265.081 129.514 264.751C129.354 264.651 129.184 264.601 128.994 264.581L126.294 264.391C126.594 262.521 125.994 261.371 124.484 260.941C124.044 260.821 123.294 260.941 122.234 261.291C122.664 260.781 122.494 260.261 121.724 259.741C117.524 256.891 113.634 253.701 110.134 249.631C106.094 244.931 103.204 241.711 101.494 239.971C100.184 238.651 98.9844 237.181 97.8944 235.571C95.9644 232.701 94.9244 231.121 94.7744 230.821C88.1044 217.881 84.2544 204.081 83.2244 189.421C81.5244 165.261 89.5344 139.011 108.214 122.941C110.754 120.751 113.224 118.791 115.614 117.051C124.604 110.511 134.014 104.591 143.854 99.3013C149.124 96.4613 156.284 93.6813 162.234 90.4913C163.404 89.8613 164.374 89.0413 165.144 88.0313C165.334 87.7713 165.394 87.4313 165.294 87.1213C165.064 86.3813 164.614 85.7213 163.954 85.1313C164.074 83.9213 163.844 83.0613 163.264 82.5413C164.754 78.3013 166.964 74.6613 169.874 71.6213C169.694 73.5813 169.254 75.4013 168.574 77.1013C167.944 78.6913 167.694 79.7613 167.814 80.3313C168.334 82.6813 171.184 82.5813 172.854 80.9013C172.994 82.1113 173.774 82.0213 175.204 80.6313C178.264 77.6513 181.594 74.6813 185.184 71.7313C185.364 71.5813 185.494 71.3913 185.574 71.1813L185.644 70.9913C185.714 70.8113 185.624 70.6213 185.444 70.5513C185.404 70.5413 185.364 70.5313 185.324 70.5313C185.144 70.5313 184.944 70.4913 184.724 70.4213C185.404 69.9613 186.024 69.7113 186.604 69.6613C186.764 69.6513 186.904 69.7713 186.924 69.9313C186.924 69.9913 186.924 70.0513 186.884 70.1013C185.574 72.4913 183.864 74.8513 181.764 77.1813C181.104 77.9213 180.924 78.9713 181.304 79.8813C182.324 82.3313 184.954 81.4513 186.674 80.0713C190.624 76.8913 196.634 72.8813 201.684 72.6013C201.904 72.5913 202.084 72.7513 202.094 72.9713C202.094 73.0513 202.074 73.1313 202.034 73.2013C199.884 76.5813 197.394 79.7013 194.544 82.5413C194.244 82.8513 194.064 83.2613 194.044 83.7013C194.004 85.2113 194.654 86.1113 196.014 86.4013C197.104 86.6413 198.244 85.7213 199.004 84.9613L198.984 84.9213Z" fill="var(--fill-0, #FCC7DD)"/>
<path id="Vector_8" d="M169.854 71.6013C166.944 74.6413 164.734 78.2813 163.244 82.5213C162.234 81.9213 161.304 81.7713 160.434 82.0713C160.284 82.1113 160.134 82.0313 160.084 81.8813C160.064 81.8113 160.074 81.7213 160.114 81.6613C162.694 77.5213 165.834 73.6613 169.514 70.0713C169.664 69.9313 169.894 69.9313 170.034 70.0813C170.094 70.1413 170.124 70.2213 170.134 70.3113C170.174 70.9413 170.084 71.3713 169.854 71.6113V71.6013Z" fill="var(--fill-0, #FCC7DD)"/>
<path id="Vector_9" d="M172.834 80.8813C176.544 76.8813 180.504 73.3813 184.704 70.3913C184.924 70.4713 185.124 70.5013 185.304 70.5013C185.494 70.5013 185.644 70.6613 185.644 70.8413C185.644 70.8813 185.644 70.9213 185.624 70.9613L185.554 71.1513C185.474 71.3613 185.344 71.5513 185.164 71.7013C181.574 74.6613 178.244 77.6213 175.184 80.6013C173.764 81.9913 172.974 82.0813 172.834 80.8713V80.8813Z" fill="var(--fill-0, #FCC7DD)"/>
<path id="Vector_10" d="M518.714 75.7013C519.474 75.5313 519.844 75.8813 519.804 76.7813C519.754 78.1013 519.524 79.4013 519.104 80.7013L518.714 75.7013Z" fill="var(--fill-0, #A78660)"/>
<path id="Vector_11" d="M518.924 81.7413L518.244 85.4113C518.224 85.5113 518.224 85.6113 518.244 85.7013C518.484 86.9513 519.804 87.8513 519.454 89.0413C517.364 96.1413 513.414 101.801 507.594 106.021C505.694 107.401 502.304 109.161 497.404 111.311C494.464 112.611 492.834 116.131 490.984 119.581C489.944 121.531 488.574 123.341 486.884 125.021C486.734 125.171 486.494 125.171 486.344 125.021C486.294 124.971 486.254 124.901 486.244 124.831C485.834 122.791 485.884 121.081 484.404 119.641C482.434 117.731 478.844 118.481 476.494 117.191C476.264 117.061 476.184 116.771 476.314 116.551C476.374 116.451 476.454 116.381 476.564 116.341C482.824 114.201 487.194 113.551 490.554 107.941C493.554 102.931 496.904 95.6113 500.824 90.7313C503.994 86.7813 508.014 85.0513 512.874 85.5513C514.184 85.6813 514.904 85.2413 515.374 84.0813C516.694 84.0113 517.874 83.2313 518.924 81.7413Z" fill="var(--fill-0, #FC8B61)"/>
<path id="Vector_12" d="M529.334 81.7813C530.254 87.5313 530.354 93.8113 529.624 100.621C529.414 102.591 528.844 104.181 527.914 105.381C526.564 107.141 525.164 108.861 523.744 110.571C515.714 120.141 507.604 129.761 499.434 139.411L495.054 141.201C494.934 141.251 494.804 141.201 494.754 141.081C494.724 141.001 494.734 140.911 494.794 140.851C501.204 133.171 507.374 125.991 513.274 119.281C516.374 115.771 519.914 111.211 523.894 105.601C524.314 105.001 524.754 104.461 525.204 103.981C525.464 103.701 525.624 103.331 525.634 102.941L526.514 83.1313C526.514 83.0113 526.574 82.8913 526.674 82.8213C527.404 82.3313 528.284 81.9913 529.334 81.7913V81.7813Z" fill="var(--fill-0, #EAC192)"/>
<path id="Vector_13" d="M252.944 103.451C249.864 103.491 247.424 102.721 245.624 101.161C240.374 97.1413 234.944 94.3613 229.324 92.8313C219.734 90.2213 210.044 88.0013 200.264 86.1813C199.434 86.0313 199.014 85.6113 198.984 84.9213L199.894 84.0313C200.064 83.8613 200.294 83.7813 200.534 83.7913C220.034 84.8013 237.514 91.3513 252.954 103.451H252.944Z" fill="var(--fill-0, #FCC7DD)"/>
<path id="Vector_14" d="M163.934 85.1113C164.594 85.7013 165.034 86.3613 165.274 87.1013C165.374 87.4113 165.314 87.7513 165.124 88.0113C164.354 89.0313 163.384 89.8513 162.214 90.4713C156.274 93.6713 149.104 96.4513 143.834 99.2813C133.994 104.571 124.584 110.491 115.594 117.031C113.204 118.761 110.734 120.731 108.194 122.921C89.5144 139.001 81.5044 165.251 83.2044 189.401C84.2344 204.061 88.0844 217.861 94.7544 230.801C94.9044 231.101 95.9444 232.681 97.8744 235.551C98.9644 237.161 100.164 238.631 101.474 239.951C103.194 241.691 106.074 244.921 110.114 249.611C113.624 253.681 117.514 256.871 121.704 259.721C122.474 260.241 122.644 260.761 122.214 261.271C116.404 257.601 111.214 253.671 106.644 249.491C95.2544 239.031 86.4144 222.971 82.6244 208.481C80.3444 199.781 79.1044 190.391 78.8944 180.311C78.4044 156.551 91.5344 133.421 108.554 117.351C123.724 103.021 141.614 92.7913 162.234 86.6413C162.974 86.4213 163.544 85.9013 163.934 85.1013V85.1113Z" fill="var(--fill-0, #FCC7DD)"/>
<path id="Vector_15" d="M245.624 101.161C247.424 102.731 249.874 103.491 252.944 103.451C262.654 110.401 269.864 119.691 274.564 131.301C278.094 140.031 279.814 145.011 281.244 153.041C282.354 159.321 284.754 164.471 288.264 169.021C294.384 176.951 299.564 182.981 301.434 191.901C304.784 207.951 301.474 222.531 291.494 235.651C290.064 237.541 286.884 241.511 281.964 247.571C280.264 249.671 281.794 252.101 284.574 251.751L297.444 265.421C302.764 272.121 307.564 279.271 311.854 286.861C318.224 298.131 323.824 309.631 328.654 321.331C332.244 330.051 334.744 338.131 337.174 347.361C338.104 350.911 338.694 355.161 338.934 360.111C339.494 371.221 339.114 382.031 337.794 392.551C336.154 405.631 332.224 417.891 325.994 429.321C321.864 436.881 316.974 444.011 311.164 449.091C309.504 450.551 308.964 452.081 306.594 453.311C306.464 453.371 306.344 453.461 306.244 453.571L303.974 455.931C302.504 456.421 301.104 457.091 299.774 457.951C297.324 459.531 296.094 460.321 296.084 460.321C290.304 463.521 284.094 466.241 277.464 468.471C271.284 470.541 264.214 471.961 256.234 472.731C241.584 474.141 228.744 474.661 213.994 471.961C195.464 468.571 176.804 458.421 165.784 443.091C159.114 433.821 154.374 425.301 151.564 417.521C148.844 409.991 147.414 401.991 147.294 393.521C147.204 387.171 147.764 378.981 148.914 371.831C150.004 365.061 151.044 356.321 152.734 349.421C154.844 340.801 157.414 331.611 160.444 321.831C162.474 315.291 163.634 311.471 163.944 310.381C165.464 304.941 166.554 300.511 168.494 295.071C168.984 293.681 170.614 289.091 173.374 281.301C176.674 271.991 178.194 264.671 176.704 255.741C175.534 248.741 171.164 242.761 166.554 237.491C160.244 230.301 154.104 223.071 148.124 215.791C140.094 206.011 133.794 195.531 129.244 184.331C127.674 180.491 126.534 176.301 125.814 171.741C125.244 168.181 125.184 163.831 125.624 158.701C126.644 146.811 129.334 135.491 137.024 126.261C140.534 122.061 145.694 117.821 152.504 113.531C153.644 112.811 155.614 112.151 158.444 111.531C174.634 107.981 191.094 111.281 205.154 119.831C207.184 121.061 209.664 122.301 212.594 123.541C217.564 125.661 222.544 125.851 226.144 121.601C227.864 119.561 228.914 117.861 229.894 114.881C230.544 112.911 231.684 110.401 233.334 107.331C235.724 102.871 239.824 100.801 245.634 101.121L245.624 101.161ZM264.034 157.091C265.114 156.741 266.264 157.061 266.914 157.881C269.274 160.921 271.544 164.111 274.474 165.641C276.414 166.671 278.784 165.411 278.914 163.141C279.174 158.791 275.454 153.821 272.224 151.011C267.114 146.571 259.464 146.851 255.814 152.871C253.824 156.151 251.074 163.541 255.874 165.691C259.634 167.371 261.504 161.351 262.624 158.491C262.904 157.771 263.374 157.301 264.034 157.091ZM205.044 178.371C206.094 178.211 206.924 177.371 207.124 176.271C208.584 168.331 201.834 162.581 194.914 160.461C183.804 157.061 177.314 168.311 176.154 177.641C175.824 180.281 176.494 183.451 179.554 183.681C180.754 183.771 181.844 183.141 182.264 182.121C183.304 179.531 184.554 177.031 185.994 174.601C187.914 171.381 190.364 169.191 194.294 170.491C198.154 171.751 200.384 179.071 205.054 178.361L205.044 178.371ZM243.404 159.741C234.434 159.101 227.934 166.191 223.184 172.621C220.664 176.041 220.404 179.941 222.164 183.751C223.104 185.771 223.714 186.951 224.024 187.301C229.314 193.311 234.634 197.741 239.974 200.611C245.004 203.311 249.224 202.491 252.634 198.151C257.124 192.421 263.744 177.461 258.414 170.061C255.314 165.761 250.654 162.401 244.454 159.971C244.114 159.841 243.764 159.761 243.404 159.731V159.741Z" fill="var(--fill-0, white)"/>
<path id="Vector_16" d="M776.314 106.261C773.864 107.461 770.954 108.561 767.564 109.561C764.924 110.341 759.004 111.811 749.784 113.991C748.494 114.291 747.234 114.781 746.004 115.431C745.794 115.541 745.524 115.481 745.384 115.291C741.694 110.331 737.634 105.971 733.184 102.211C733.034 102.081 733.024 101.851 733.154 101.701C733.224 101.631 733.314 101.581 733.414 101.581C741.934 101.531 750.594 101.781 759.374 102.341C764.964 102.691 771.184 103.241 776.314 105.751C776.454 105.811 776.514 105.981 776.454 106.121C776.424 106.181 776.374 106.231 776.314 106.261Z" fill="var(--fill-0, #855635)"/>
<path id="Vector_17" d="M721.984 102.131C727.664 108.331 731.844 113.001 734.514 116.151C741.084 123.871 747.014 133.341 750.574 143.171C754.324 153.521 755.414 163.831 755.444 175.051C755.474 186.621 753.714 195.661 749.284 205.861C741.874 222.941 733.594 239.511 722.434 254.431C722.104 254.871 721.744 255.921 721.344 257.581C721.174 258.281 721.294 259.031 721.674 259.641C723.014 261.781 723.904 263.131 724.334 263.691C728.964 269.761 735.874 278.151 745.074 288.871C749.304 293.801 753.484 298.911 757.614 304.211C746.154 296.261 734.814 288.391 723.584 280.591C717.394 276.291 712.354 273.031 708.474 270.801C707.594 270.301 706.614 270.351 705.514 270.951C704.884 271.301 704.444 272.291 704.194 273.931C702.474 273.351 702.114 274.041 703.094 276.011C703.264 276.351 703.494 276.661 703.774 276.931C706.404 279.531 709.224 281.881 712.234 283.991C742.634 305.271 769.404 324.421 792.544 341.421C797.484 345.051 802.744 348.611 808.344 352.131C810.954 353.761 812.844 354.701 814.024 354.961C814.934 355.151 815.394 354.891 815.384 354.181L816.494 355.331C816.364 356.101 816.384 356.851 816.524 357.581C816.574 357.831 816.544 358.101 816.434 358.331C815.014 361.401 807.634 360.301 803.444 359.941C795.234 359.221 785.424 357.491 777.174 355.321C766.234 352.451 755.824 349.171 745.934 345.491C726.494 338.251 712.364 333.171 703.564 330.241C698.784 328.651 692.294 326.661 687.714 327.931C685.304 328.601 683.794 330.491 684.454 332.951C684.714 333.921 684.994 334.521 685.294 334.751C686.944 336.031 688.614 337.611 690.324 339.491C704.214 345.961 718.524 351.961 733.254 357.501C751.164 364.241 769.914 370.441 789.184 373.641C789.444 373.681 789.644 373.901 789.644 374.171C789.944 381.981 789.744 388.841 789.054 394.771C787.794 405.491 784.024 416.161 778.574 425.821C770.204 440.681 759.054 453.101 745.124 463.091C730.854 473.311 713.054 480.351 695.554 484.571C691.244 485.611 685.374 486.541 677.924 487.351C669.704 488.251 661.194 488.861 652.384 489.181C646.264 489.411 640.004 489.151 633.594 488.411C633.034 488.351 632.464 488.371 631.914 488.481L631.324 488.591C631.014 488.651 630.704 488.651 630.384 488.611C624.094 487.561 617.704 486.091 611.244 484.201C621.824 485.071 629.604 485.211 634.604 484.611C641.894 483.731 649.104 481.631 656.224 478.281C665.974 473.691 673.724 467.661 679.134 458.651C684.054 450.441 686.804 441.821 687.374 432.791C687.744 426.891 687.174 420.641 685.664 414.041C684.154 407.501 682.444 401.461 680.524 395.951C676.144 383.361 669.194 369.741 660.844 356.531C651.644 341.971 642.554 328.251 633.554 315.351C630.174 310.511 624.724 303.371 620.054 297.861C610.874 287.001 603.424 278.351 595.974 267.321C591.804 261.131 592.154 253.761 593.714 246.591C596.824 232.351 601.224 221.771 607.694 205.061C610.164 198.691 611.804 194.191 612.634 191.561C616.164 180.251 618.344 169.501 618.754 157.481C619.154 145.471 616.944 136.361 610.484 126.821C607.484 122.391 603.774 119.461 599.344 118.031C631.184 111.351 662.724 106.641 693.974 103.901C701.504 103.241 710.834 102.651 721.964 102.111L721.984 102.131Z" fill="var(--fill-0, #81ABFF)"/>
<path id="Vector_18" d="M753.904 207.771L740.304 236.271C736.984 241.671 733.304 246.951 729.264 252.101C728.814 252.671 727.574 254.401 725.554 257.291C725.404 257.501 725.304 257.741 725.264 257.981C724.954 259.631 725.384 261.081 726.544 262.331C734.174 270.591 740.534 277.681 745.644 283.601C753.104 292.261 760.384 301.281 767.484 310.651C767.564 310.741 767.544 310.881 767.454 310.961C767.374 311.031 767.254 311.031 767.174 310.961L757.624 304.201C753.494 298.911 749.314 293.791 745.084 288.861C735.884 278.141 728.964 269.751 724.344 263.681C723.914 263.121 723.024 261.771 721.684 259.631C721.294 259.011 721.174 258.271 721.354 257.571C721.754 255.911 722.124 254.861 722.444 254.421C733.604 239.501 741.884 222.931 749.294 205.851C753.734 195.651 755.494 186.611 755.454 175.041C755.424 163.821 754.334 153.511 750.584 143.161C747.024 133.331 741.094 123.861 734.524 116.141C731.854 113.001 727.674 108.331 721.994 102.121L724.554 102.011C724.844 101.991 725.134 102.101 725.344 102.301C732.634 108.971 739.934 116.411 745.194 125.231C753.394 138.961 758.954 155.141 759.354 171.141C759.674 183.781 757.864 195.991 753.914 207.771H753.904Z" fill="var(--fill-0, #81ABFF)"/>
<path id="Vector_19" d="M52.3844 114.591C52.4544 114.391 52.6744 114.291 52.8744 114.361C52.9744 114.391 53.0544 114.471 53.0944 114.561C55.4744 119.951 59.4944 123.111 65.1644 124.051C65.3144 124.081 65.4144 124.221 65.3944 124.371C65.3844 124.451 65.3344 124.511 65.2744 124.561C59.8144 128.121 56.4144 133.141 55.0744 139.611C55.0144 139.891 54.7244 140.081 54.4444 140.021C54.2944 139.991 54.1644 139.891 54.0944 139.751C52.6344 136.951 50.6744 134.241 48.2244 131.621C47.2044 130.531 45.4244 129.511 42.8844 128.551C42.7944 128.511 42.7544 128.411 42.7844 128.321C42.7844 128.301 42.8044 128.281 42.8244 128.261C43.0844 128.021 43.7344 127.591 44.7944 126.961C49.4444 124.221 50.7244 119.401 52.3844 114.591Z" fill="var(--fill-0, #FEDC47)"/>
<path id="Vector_20" d="M599.364 118.041C603.784 119.471 607.504 122.401 610.504 126.831C616.964 136.371 619.174 145.481 618.774 157.491C618.364 169.511 616.194 180.261 612.654 191.571C611.824 194.211 610.184 198.711 607.714 205.071C601.244 221.781 596.834 232.351 593.734 246.601C592.174 253.781 591.814 261.151 595.994 267.331C603.434 278.361 610.894 287.011 620.074 297.871C624.744 303.381 630.194 310.521 633.574 315.361C642.574 328.251 651.664 341.981 660.864 356.541C669.214 369.751 676.164 383.371 680.544 395.961C682.464 401.481 684.174 407.511 685.684 414.051C687.194 420.641 687.764 426.891 687.394 432.801C686.824 441.831 684.084 450.451 679.154 458.661C673.744 467.671 665.994 473.701 656.244 478.291C649.124 481.631 641.924 483.741 634.624 484.621C629.624 485.221 621.844 485.081 611.264 484.211C605.554 482.671 601.064 481.171 597.814 479.691C588.834 475.621 580.684 470.261 573.374 463.601C557.964 449.581 545.684 432.721 540.114 412.701C537.444 403.101 535.844 393.181 535.324 382.951C534.024 357.881 537.664 332.941 546.714 309.531C549.444 302.451 551.464 296.171 554.544 289.111C558.994 278.931 562.114 271.951 563.904 268.151C565.154 265.511 565.714 263.181 562.394 262.171C557.614 260.731 551.674 259.071 547.504 256.691C536.044 250.161 532.844 238.251 533.284 225.671C533.284 225.361 533.474 225.091 533.744 224.941C538.784 222.451 543.284 219.541 547.234 216.221C549.594 214.241 552.084 210.891 551.144 207.631C549.734 202.741 547.224 198.591 543.604 195.201C543.354 194.971 543.294 194.601 543.454 194.291C546.024 189.361 548.734 184.701 548.144 178.491C546.954 165.961 547.554 155.621 549.304 142.811C550.884 138.391 553.084 134.351 555.904 130.691C556.684 129.671 557.604 128.771 558.654 127.981C558.794 127.881 558.824 127.681 558.714 127.531C558.654 127.451 558.554 127.401 558.444 127.401C558.334 127.401 558.214 127.431 558.064 127.481L599.364 118.031V118.041ZM563.524 203.241C567.154 203.721 571.164 196.071 572.494 186.151C573.814 176.231 571.954 167.791 568.324 167.311C564.694 166.831 560.684 174.481 559.354 184.401C558.034 194.321 559.894 202.761 563.524 203.241Z" fill="var(--fill-0, white)"/>
<path id="Vector_21" d="M558.064 127.491C558.204 127.441 558.334 127.411 558.444 127.411C558.624 127.411 558.774 127.551 558.774 127.731C558.774 127.831 558.724 127.931 558.644 127.991C557.594 128.771 556.674 129.681 555.894 130.701C553.074 134.361 550.874 138.411 549.294 142.821C549.484 138.071 552.034 133.051 554.654 128.851C554.814 128.601 555.054 128.411 555.334 128.331L558.064 127.491Z" fill="var(--fill-0, #77A6F4)"/>
<path id="Vector_22" d="M547.264 130.881C545.364 134.151 544.134 137.761 543.584 141.711C543.534 142.121 543.244 142.461 542.844 142.591C541.654 142.981 540.464 143.271 539.284 143.471C519.244 146.841 506.254 149.061 500.334 150.131C496.704 150.791 492.634 151.221 488.124 151.431C487.754 151.451 487.484 151.411 487.304 151.321C487.134 151.231 487.064 151.021 487.154 150.851C487.184 150.791 487.234 150.741 487.304 150.701C490.494 148.991 494.394 147.271 499.004 145.551C514.494 139.761 530.504 134.771 547.044 130.591C547.144 130.561 547.254 130.631 547.284 130.731C547.294 130.781 547.284 130.831 547.264 130.881Z" fill="var(--fill-0, #855635)"/>
<path id="Vector_23" d="M532.774 194.961C524.874 183.371 516.794 171.901 508.514 160.541C507.684 159.401 506.024 157.741 503.544 155.551L510.514 154.491C510.794 154.451 511.074 154.521 511.304 154.681C514.904 157.151 517.804 160.031 519.994 163.321C526.994 173.801 531.594 181.251 539.214 189.271C539.414 189.481 539.454 189.801 539.304 190.051L537.634 192.941C537.564 193.061 537.454 193.151 537.334 193.201L532.764 194.941L532.774 194.961Z" fill="var(--fill-0, #81ABFF)"/>
<path id="Vector_24" d="M503.554 155.551C506.034 157.741 507.684 159.401 508.524 160.541C516.794 171.901 524.884 183.371 532.784 194.961C529.964 196.441 526.844 198.591 523.424 201.391C519.314 204.761 517.444 208.531 520.224 213.681C522.364 217.631 524.864 221.031 527.724 223.861C527.954 224.091 528.064 224.401 528.024 224.721C525.484 245.361 536.374 263.471 557.684 266.831C557.894 266.861 558.044 267.061 558.014 267.271C558.014 267.331 557.984 267.381 557.954 267.431C557.024 268.871 556.094 270.531 555.164 272.411C552.454 277.891 549.904 283.491 547.494 289.181C543.094 283.461 539.064 277.501 535.424 271.311C532.574 266.461 530.564 261.411 528.454 256.421C525.514 249.481 521.864 242.791 518.384 236.521C516.144 232.481 514.194 227.701 512.544 222.181C509.224 211.081 506.624 200.991 504.724 191.921C504.134 189.111 503.474 184.591 502.734 178.371C502.004 172.301 502.734 164.891 503.114 159.291C503.184 158.301 502.794 157.761 501.944 157.681C502.284 156.781 502.814 156.071 503.554 155.551Z" fill="var(--fill-0, #81ABFF)"/>
<path id="Vector_25" d="M23.5844 156.681C28.1844 168.051 34.6444 179.501 46.8044 183.771C50.0544 184.911 53.2244 185.761 56.3144 186.341C56.4944 186.371 56.6144 186.541 56.5844 186.721C56.5644 186.841 56.4844 186.931 56.3744 186.971C48.2344 189.951 40.7144 195.341 37.8844 203.801C36.0344 209.361 35.0344 215.111 34.9044 221.071C34.9044 221.371 34.6544 221.611 34.3444 221.601C34.1344 221.601 33.9444 221.471 33.8544 221.281C33.7544 221.071 31.8944 216.851 28.2744 208.601C22.9244 196.431 12.0444 194.671 0.224378 195.531C0.124378 195.551 0.0243775 195.491 0.00437747 195.391C-0.0156225 195.301 0.0343774 195.211 0.124377 195.171C2.89438 193.721 5.74438 191.991 8.66438 189.981C14.7044 185.841 19.4044 182.181 21.0944 176.231C23.0644 169.371 23.4544 162.781 23.1444 156.781C23.1344 156.651 23.2244 156.541 23.3544 156.541C23.4544 156.541 23.5544 156.591 23.5944 156.691L23.5844 156.681Z" fill="var(--fill-0, #FEDC47)"/>
<path id="Vector_26" d="M501.944 157.681C502.784 157.761 503.174 158.291 503.114 159.291C502.744 164.891 502.014 172.301 502.734 178.371C503.474 184.591 504.134 189.111 504.724 191.921C506.624 200.991 509.224 211.081 512.544 222.181C514.194 227.701 516.144 232.481 518.384 236.521C521.864 242.791 525.514 249.481 528.454 256.421C530.564 261.411 532.584 266.461 535.424 271.311C539.064 277.511 543.084 283.461 547.494 289.181C547.334 289.781 547.094 290.321 546.764 290.811C546.664 290.961 546.474 291.001 546.324 290.901C546.294 290.881 546.264 290.851 546.244 290.821C538.774 280.811 532.334 270.401 526.924 259.571C519.474 244.651 513.084 229.571 507.744 214.331C501.524 196.561 497.404 179.821 500.174 162.211C500.434 160.541 501.024 159.021 501.944 157.681Z" fill="var(--fill-0, #81ABFF)"/>
<path id="Vector_27" d="M526.194 206.871C525.974 206.861 525.814 206.681 525.824 206.461C525.824 206.341 525.894 206.221 526.004 206.151L537.214 198.921C537.684 198.621 538.304 198.651 538.734 199.021C541.644 201.451 543.924 204.621 545.594 208.541C545.824 209.101 545.734 209.731 545.344 210.191C541.834 214.321 536.434 217.331 531.694 220.061C531.344 220.261 530.904 220.151 530.684 219.821L525.874 212.361C525.784 212.211 525.824 212.021 525.974 211.931C526.034 211.901 526.094 211.881 526.164 211.881C530.914 212.271 537.184 212.261 541.484 210.071C542.294 209.661 542.714 208.661 542.474 207.661C542.064 205.851 540.774 205.661 539.034 205.991C534.964 206.761 530.694 207.061 526.204 206.891L526.194 206.871Z" fill="var(--fill-0, #FFAF69)"/>
<path id="Vector_28" d="M753.904 207.771C750.744 217.931 746.204 227.431 740.304 236.271L753.904 207.771Z" fill="var(--fill-0, #77A6F4)"/>
<path id="Vector_29" d="M398.974 312.451C395.484 309.761 393.074 308.101 391.754 307.451C389.774 306.491 386.694 305.571 382.524 304.711C373.764 302.891 365.404 300.291 357.444 296.901C348.184 292.961 340.144 288.791 333.324 284.401C327.474 280.631 321.024 276.521 313.984 272.071C311.714 270.631 309.414 268.621 307.154 266.931C305.484 265.681 303.754 264.401 301.954 263.081C301.344 262.491 300.694 262.101 299.994 261.911C297.854 259.711 295.034 257.271 291.534 254.601C290.214 253.591 288.944 252.121 287.714 250.211C288.064 249.851 288.424 249.611 288.794 249.481C289.044 249.401 289.314 249.451 289.514 249.631C299.904 258.821 310.844 266.961 322.314 274.031C330.844 279.301 341.354 284.681 353.824 290.171C361.884 293.721 367.114 295.991 373.624 297.891C383.934 300.891 391.004 302.011 397.564 307.561C399.274 309.011 399.744 310.641 398.994 312.461L398.974 312.451Z" fill="var(--fill-0, #FCC7DD)"/>
<path id="Vector_30" d="M287.714 250.211C288.934 252.131 290.204 253.591 291.534 254.601C295.034 257.271 297.854 259.711 299.994 261.911C298.074 262.151 297.214 263.321 297.434 265.421L284.564 251.751L287.714 250.201V250.211Z" fill="var(--fill-0, #FCC7DD)"/>
<path id="Vector_31" d="M398.974 312.451C398.234 313.931 396.724 315.371 394.434 316.761C393.164 316.521 391.804 316.631 390.374 317.091C390.144 317.171 389.904 317.211 389.654 317.221C382.334 317.691 374.674 317.031 366.674 315.231C352.974 312.161 342.734 309.681 330.664 304.121C329.964 303.801 329.224 303.391 328.444 302.871C328.284 302.761 328.084 302.701 327.894 302.721L326.804 302.791C319.774 288.591 312.074 275.411 301.954 263.071C303.754 264.391 305.484 265.671 307.154 266.921C309.424 268.621 311.714 270.631 313.984 272.061C321.024 276.511 327.474 280.621 333.324 284.391C340.144 288.781 348.184 292.951 357.444 296.891C365.404 300.281 373.764 302.891 382.524 304.701C386.694 305.561 389.774 306.481 391.754 307.441C393.084 308.091 395.484 309.751 398.974 312.441V312.451Z" fill="var(--fill-0, #FCC7DD)"/>
<path id="Vector_32" d="M126.264 264.391L128.964 264.581C129.604 264.631 130.074 265.191 130.034 265.821C130.024 266.001 129.964 266.181 129.864 266.341C128.444 268.631 126.794 270.351 124.914 271.501C120.674 274.101 114.224 278.351 107.984 281.631C97.4144 287.191 86.4044 292.151 74.9444 296.511C56.7644 303.421 42.7244 308.921 23.8344 315.741C19.6644 317.251 15.6944 318.251 11.9444 318.721C12.1944 318.081 12.2944 317.441 12.2544 316.801C22.2444 312.121 29.5844 308.991 34.2644 307.401C50.7444 301.831 66.9344 295.521 82.8444 288.481C96.4844 282.451 109.694 275.571 122.464 267.861C124.044 266.901 125.314 265.741 126.254 264.381L126.264 264.391Z" fill="var(--fill-0, #FCC7DD)"/>
<path id="Vector_33" d="M704.194 273.931C727.784 290.751 751.414 307.541 775.084 324.281C778.594 326.761 783.364 330.551 787.574 333.511C795.814 339.301 804.294 345.471 813.004 351.991C813.624 352.451 814.414 353.181 815.384 354.181C815.384 354.891 814.934 355.151 814.024 354.961C812.844 354.701 810.954 353.761 808.344 352.131C802.744 348.621 797.474 345.051 792.544 341.421C769.404 324.411 742.634 305.271 712.234 283.991C709.224 281.881 706.404 279.531 703.774 276.931C703.494 276.661 703.274 276.351 703.094 276.011C702.114 274.041 702.474 273.351 704.194 273.931Z" fill="var(--fill-0, #81ABFF)"/>
<path id="Vector_34" d="M394.434 316.761C387.314 319.801 379.544 321.271 371.104 321.171C357.964 321.021 345.864 318.941 333.364 316.431C333.104 316.371 332.884 316.201 332.774 315.961L326.794 302.791L327.884 302.721C328.084 302.711 328.274 302.761 328.434 302.871C329.214 303.391 329.954 303.801 330.654 304.121C342.734 309.671 352.974 312.151 366.664 315.231C374.664 317.031 382.324 317.691 389.644 317.221C389.884 317.211 390.124 317.171 390.364 317.091C391.804 316.631 393.154 316.521 394.424 316.761H394.434Z" fill="var(--fill-0, #FCC7DD)"/>
<path id="Vector_35" d="M131.544 329.291C132.944 325.811 130.484 324.581 127.544 325.331C115.464 328.431 101.494 332.101 90.0744 333.861C75.4844 336.111 61.9444 337.141 49.4544 336.931C40.6344 336.791 31.3544 335.571 21.6344 333.291C18.5044 332.561 14.8544 331.061 12.1644 329.321C11.1844 328.681 10.2944 327.741 9.49438 326.491C6.84438 322.321 7.76438 319.091 12.2544 316.811C12.2944 317.451 12.1944 318.081 11.9444 318.731C12.4744 322.931 14.7944 325.661 18.8844 326.941C28.7044 330.001 40.5944 330.641 52.2044 329.911C69.3244 328.821 85.7344 326.251 101.434 322.201C116.864 318.231 126.434 315.861 130.164 315.101C132.894 314.541 138.664 313.901 141.114 315.431C144.784 317.711 143.194 321.831 140.314 324.221C137.704 326.381 134.774 328.071 131.534 329.311L131.544 329.291Z" fill="var(--fill-0, #FCC7DD)"/>
<path id="Vector_36" d="M816.494 355.321C818.484 357.021 822.864 361.991 821.734 364.771C819.594 370.071 801.704 368.551 796.934 368.021C778.194 365.951 758.714 360.211 741.044 354.011C734.404 351.681 721.574 346.641 702.554 338.911C700.164 337.941 697.404 336.971 694.254 336.011C691.054 335.021 689.944 336.431 690.314 339.491C688.604 337.611 686.934 336.031 685.284 334.751C684.984 334.521 684.704 333.921 684.444 332.951C683.784 330.491 685.304 328.601 687.704 327.931C692.284 326.661 698.774 328.651 703.554 330.241C712.354 333.161 726.474 338.251 745.924 345.491C755.804 349.171 766.214 352.451 777.164 355.321C785.414 357.491 795.224 359.231 803.434 359.941C807.624 360.301 815.004 361.391 816.424 358.331C816.534 358.101 816.564 357.831 816.514 357.581C816.364 356.851 816.354 356.101 816.484 355.331L816.494 355.321Z" fill="var(--fill-0, #81ABFF)"/>
<path id="Vector_37" d="M98.4244 338.531C98.8644 339.581 98.8744 340.951 98.4544 342.651C93.6544 361.991 92.2344 382.161 95.4244 402.001C97.5344 415.111 101.684 426.721 107.864 436.841C110.864 441.741 112.714 444.831 113.414 446.111C106.084 438.451 100.664 429.891 97.1644 420.421C90.5244 402.471 88.5944 383.651 91.3644 363.951C92.0544 359.041 93.5644 350.881 95.9044 339.471C95.9544 339.231 96.1444 339.041 96.3744 338.991L98.4144 338.531H98.4244Z" fill="var(--fill-0, #FCC7DD)"/>
<path id="Vector_38" d="M777.894 449.791C777.694 450.211 777.454 450.411 777.164 450.401C774.534 450.471 771.894 450.831 769.244 451.481C768.544 451.651 768.144 451.561 768.034 451.191C769.614 448.531 772.904 448.061 777.884 449.781L777.894 449.791Z" fill="var(--fill-0, #FFAF69)"/>
<path id="Vector_39" d="M708.674 509.491C709.724 508.751 710.624 507.561 711.364 505.921C711.574 505.451 711.834 505.281 712.164 505.401C715.934 505.051 719.594 504.101 723.144 502.551C727.054 500.851 730.934 498.771 734.794 496.321C744.314 490.261 753.134 483.331 761.264 475.501C768.444 468.591 774.884 460.651 777.154 450.391C777.444 450.401 777.684 450.201 777.884 449.781C778.234 449.671 778.654 449.761 779.124 450.051C786.054 454.221 785.264 463.141 782.244 469.811C773.954 488.171 756.044 501.801 737.974 510.151C735.414 511.331 732.514 512.421 729.284 513.411C723.294 515.251 717.734 516.551 712.524 514.671C710.284 513.861 708.994 512.131 708.664 509.471L708.674 509.491Z" fill="var(--fill-0, #FFAF69)"/>
<path id="Vector_40" d="M777.164 450.401C774.894 460.661 768.444 468.601 761.274 475.511C753.144 483.331 744.314 490.271 734.804 496.331C730.944 498.781 727.064 500.861 723.154 502.561C719.604 504.101 715.934 505.051 712.174 505.411C712.114 505.171 712.094 504.981 712.124 504.831L712.414 504.321C716.884 496.381 721.974 488.491 727.684 480.661C742.864 473.761 756.314 463.941 768.054 451.221C768.154 451.581 768.564 451.681 769.264 451.511C771.914 450.851 774.554 450.491 777.184 450.431L777.164 450.401Z" fill="var(--fill-0, #FFAF69)"/>
<path id="Vector_41" d="M348.534 466.651C348.354 467.171 348.004 467.451 347.494 467.501C340.714 464.811 335.444 463.271 331.704 462.891C325.584 462.261 319.474 461.601 313.354 460.921C311.164 460.681 309.704 460.161 308.984 459.371L311.234 457.371C311.434 457.201 311.674 457.091 311.924 457.071C313.154 456.951 314.574 457.231 315.484 457.311C322.184 457.891 328.374 458.911 334.034 460.361C339.874 461.851 344.184 463.231 348.514 466.651H348.534Z" fill="var(--fill-0, #FFAF69)"/>
<path id="Vector_42" d="M308.994 459.371C309.714 460.161 311.174 460.671 313.364 460.921C319.484 461.601 325.594 462.261 331.714 462.891C335.454 463.271 340.714 464.811 347.504 467.501L346.294 468.701C346.134 468.861 345.944 469.001 345.744 469.121C336.954 473.871 327.214 475.751 317.504 477.361C304.774 479.461 291.934 479.501 278.974 477.461C290.244 472.811 300.254 466.791 309.014 459.381L308.994 459.371Z" fill="var(--fill-0, #FFAF69)"/>
<path id="Vector_43" d="M278.954 477.451C291.914 479.491 304.764 479.461 317.484 477.351C327.194 475.741 336.934 473.861 345.724 469.111C345.934 469.001 346.114 468.861 346.274 468.691L347.484 467.491C347.994 467.441 348.334 467.161 348.524 466.641C351.884 470.361 351.704 473.681 347.984 476.611C342.634 480.821 335.304 483.171 328.594 484.751C313.624 488.271 298.854 489.401 284.274 488.161C279.364 487.741 270.484 485.731 267.734 481.341C267.634 481.181 267.684 480.981 267.844 480.881C267.874 480.861 267.894 480.851 267.924 480.841L278.954 477.441V477.451Z" fill="var(--fill-0, #FFAF69)"/>
<path id="Vector_44" d="M157.624 478.921C156.274 480.371 154.374 481.261 151.924 481.591C143.414 482.751 135.364 484.821 127.774 487.821C126.994 488.161 126.084 488.311 125.034 488.261C126.994 485.751 129.324 483.941 132.034 482.811C138.604 480.071 145.714 478.331 153.384 477.601C153.594 477.581 153.804 477.601 154.004 477.671L157.634 478.911L157.624 478.921Z" fill="var(--fill-0, #FFAF69)"/>
<path id="Vector_45" d="M209.464 487.291C203.344 490.821 197.024 493.271 190.504 494.641C177.584 497.371 164.384 498.621 151.374 497.181C147.154 496.721 143.034 495.651 139.004 493.971C135.104 492.341 131.364 490.301 127.764 487.821C135.354 484.821 143.404 482.751 151.914 481.591C154.364 481.251 156.264 480.361 157.614 478.921C167.074 482.181 176.404 484.411 185.624 485.621C191.984 486.461 199.924 487.011 209.454 487.281L209.464 487.291Z" fill="var(--fill-0, #FFAF69)"/>
<path id="Vector_46" d="M727.674 480.641C721.964 488.471 716.874 496.361 712.404 504.301L712.114 504.811C712.084 504.961 712.104 505.151 712.164 505.391C711.834 505.271 711.574 505.441 711.364 505.911C710.624 507.551 709.724 508.741 708.674 509.481C707.854 500.291 716.594 488.971 722.784 482.871C723.354 482.301 724.984 481.561 727.664 480.641H727.674Z" fill="var(--fill-0, #FFAF69)"/>
<path id="Vector_47" d="M598.084 485.901C598.374 486.181 598.514 486.421 598.514 486.621C598.514 486.841 598.314 486.981 597.884 487.021C590.264 487.831 583.064 489.871 576.304 493.151C576.024 493.611 575.314 493.941 574.184 494.141C574.794 492.841 575.294 492.031 575.684 491.711C577.064 490.591 578.584 489.661 580.234 488.931C586.544 486.141 592.494 485.131 598.084 485.911V485.901Z" fill="var(--fill-0, #FFAF69)"/>
<path id="Vector_48" d="M662.074 495.951C653.144 499.771 643.814 502.011 634.054 502.671C620.814 503.571 608.574 503.231 597.334 501.651C591.654 500.851 583.884 498.611 578.744 494.891C577.974 494.331 577.154 493.751 576.294 493.151C583.064 489.871 590.254 487.831 597.874 487.021C598.294 486.981 598.504 486.841 598.504 486.621C598.504 486.421 598.364 486.191 598.074 485.901C609.844 490.471 621.914 493.561 634.274 495.191C636.784 495.521 639.504 495.361 641.514 495.511C648.014 495.971 654.864 496.121 662.074 495.951Z" fill="var(--fill-0, #FFAF69)"/>
<path id="Vector_49" d="M125.034 488.271C126.084 488.321 126.994 488.171 127.774 487.831C131.364 490.301 135.114 492.351 139.014 493.981C143.044 495.661 147.164 496.731 151.384 497.191C164.394 498.631 177.594 497.381 190.514 494.651C197.034 493.271 203.354 490.821 209.474 487.301L211.824 487.181C212.114 487.161 212.374 487.331 212.494 487.591C212.914 488.541 213.264 489.481 213.524 490.401C214.264 493.101 211.084 496.041 209.034 497.281C206.624 498.741 204.104 499.891 201.474 500.711C191.084 503.971 179.544 505.871 166.874 506.401C156.444 506.841 145.524 505.451 136.414 502.541C130.994 500.801 120.804 495.811 125.054 488.281L125.034 488.271Z" fill="var(--fill-0, #FFAF69)"/>
<path id="Vector_50" d="M576.304 493.151C577.164 493.751 577.974 494.331 578.754 494.891C583.894 498.611 591.664 500.851 597.344 501.651C608.584 503.231 620.824 503.571 634.064 502.671C643.814 502.011 653.154 499.771 662.084 495.951L666.794 495.511C666.994 495.491 667.174 495.631 667.214 495.831L667.944 499.821C668.134 500.891 667.754 501.991 666.944 502.711C665.154 504.291 662.914 505.641 660.224 506.751C643.434 513.701 626.064 515.681 608.104 512.711C599.524 511.281 590.464 509.061 582.574 505.011C577.654 502.491 574.854 498.871 574.194 494.131C575.324 493.931 576.034 493.611 576.314 493.141L576.304 493.151Z" fill="var(--fill-0, #FFAF69)"/>
<path id="Vector_51" d="M244.754 197.731C243.924 197.691 242.294 196.921 239.844 195.411C237.044 193.691 234.234 191.561 231.424 189.031C227.464 185.461 222.264 179.821 226.714 174.301C229.674 170.631 232.594 167.781 235.474 165.761C236.734 164.881 238.464 164.411 240.654 164.351C244.214 164.251 250.264 168.831 252.624 170.861C255.694 173.511 256.484 176.131 255.604 180.021C254.164 186.391 251.684 191.821 248.154 196.321C247.834 196.721 246.974 197.151 245.564 197.611C245.304 197.691 245.034 197.731 244.774 197.721L244.754 197.731ZM228.134 179.221C227.064 184.131 236.054 190.751 239.584 193.421C244.174 196.891 247.774 194.171 250.074 189.981C252.034 186.391 253.374 182.991 254.104 179.781C255.124 175.271 253.534 172.831 249.334 172.471C243.854 172.001 238.864 172.581 234.344 174.211C232.034 175.051 228.674 176.761 228.144 179.221H228.134Z" fill="var(--fill-0, #FFAF69)"/>
<path id="Vector_52" d="M570.647 181.205C571.374 175.903 570.632 171.423 568.99 171.198C567.349 170.973 565.429 175.089 564.703 180.391C563.977 185.693 564.719 190.174 566.36 190.399C568.002 190.623 569.921 186.508 570.647 181.205Z" fill="var(--fill-0, white)"/>
<path id="Vector_53" d="M561.619 196.659C562.193 196.657 562.653 195.143 562.647 193.276C562.64 191.409 562.169 189.897 561.595 189.899C561.021 189.901 560.56 191.416 560.567 193.283C560.573 195.15 561.044 196.661 561.619 196.659Z" fill="var(--fill-0, white)"/>
<path id="Vector_54" d="M244.724 190.871C244.334 191.311 243.654 191.361 243.204 190.981L232.654 181.971C231.964 181.381 231.864 180.341 232.444 179.641C233.024 178.931 233.764 178.471 234.664 178.261C239.954 177.031 244.474 178.321 248.214 182.141C248.674 182.601 248.834 183.281 248.644 183.901C247.814 186.551 246.514 188.881 244.734 190.871H244.724Z" fill="var(--fill-0, #EF3928)"/>
</g>
</svg>
