<svg preserveAspectRatio="none" width="100%" height="100%" overflow="visible" style="display: block;" viewBox="0 0 836.507 526.88" fill="none" xmlns="http://www.w3.org/2000/svg">
<g id="Line">
<path id="Vector" d="M272.572 162.825C271.912 163.035 271.442 163.505 271.162 164.225C270.042 167.085 268.172 173.105 264.412 171.425C259.622 169.285 262.362 161.885 264.352 158.605C267.992 152.585 275.642 152.305 280.762 156.745C284.002 159.555 287.722 164.535 287.452 168.875C287.312 171.145 284.952 172.395 283.012 171.375C280.082 169.845 277.822 166.655 275.452 163.615C274.802 162.795 273.652 162.475 272.572 162.825Z" fill="var(--fill-0, black)"/>
<path id="Vector_2" d="M213.582 184.105C208.912 184.815 206.672 177.505 202.822 176.235C198.892 174.935 196.442 177.125 194.522 180.345C193.082 182.765 191.842 185.275 190.792 187.865C190.382 188.885 189.282 189.515 188.082 189.425C185.022 189.185 184.352 186.025 184.682 183.385C185.842 174.055 192.342 162.805 203.442 166.205C210.362 168.325 217.112 174.075 215.652 182.015C215.452 183.105 214.622 183.945 213.572 184.115L213.582 184.105Z" fill="var(--fill-0, black)"/>
<path id="Vector_3" d="M231.722 178.355C236.472 171.925 242.972 164.825 251.942 165.475C252.302 165.505 252.662 165.585 252.992 165.715C259.192 168.135 263.852 171.505 266.952 175.805C272.282 183.205 265.662 198.165 261.172 203.895C257.762 208.235 253.542 209.055 248.512 206.355C243.172 203.485 237.862 199.045 232.562 193.045C232.262 192.705 231.642 191.525 230.702 189.495C228.942 185.685 229.202 181.785 231.722 178.365V178.355ZM254.092 203.355C255.502 202.895 256.372 202.465 256.682 202.065C260.212 197.565 262.702 192.135 264.132 185.765C265.012 181.875 264.222 179.255 261.152 176.605C258.792 174.565 252.742 169.995 249.182 170.095C246.992 170.155 245.262 170.625 244.002 171.505C241.122 173.525 238.212 176.365 235.242 180.045C230.792 185.565 235.992 191.195 239.952 194.775C242.772 197.305 245.572 199.425 248.372 201.155C250.822 202.665 252.452 203.435 253.282 203.475C253.542 203.485 253.812 203.445 254.072 203.365L254.092 203.355Z" fill="var(--fill-0, black)"/>
<path id="Vector_4" d="M572.052 208.975C568.422 208.495 566.552 200.055 567.882 190.135C569.202 180.215 573.222 172.565 576.852 173.045C580.482 173.525 582.352 181.965 581.022 191.885C579.702 201.805 575.682 209.455 572.052 208.975ZM574.892 196.125C576.532 196.345 578.452 192.235 579.182 186.935C579.912 181.635 579.162 177.155 577.522 176.935C575.882 176.715 573.962 180.825 573.232 186.125C572.502 191.425 573.252 195.905 574.892 196.125ZM570.152 202.385C570.732 202.385 571.192 200.865 571.182 199.005C571.182 197.145 570.702 195.635 570.122 195.635C569.542 195.635 569.082 197.155 569.092 199.015C569.092 200.875 569.572 202.385 570.152 202.385Z" fill="var(--fill-0, black)"/>
<path id="Vector_5" d="M527.962 106.715C524.262 112.445 519.242 116.785 512.882 119.725C512.612 119.855 511.082 120.535 508.292 121.765C507.282 122.205 506.462 122.985 505.952 123.955C503.572 128.555 501.622 131.895 497.852 135.265C492.832 139.765 489.352 135.555 489.752 130.245C489.802 129.635 489.372 129.085 488.762 128.985C485.782 128.475 482.332 127.765 480.732 125.725C477.722 121.885 480.822 118.225 484.672 116.805C485.262 116.585 487.542 115.825 491.532 114.515C492.902 114.065 494.072 112.915 495.052 111.075C498.072 105.365 501.002 100.285 503.822 95.8545C507.402 90.2245 512.412 86.8945 518.842 85.8745C519.402 85.7845 519.782 85.2545 519.692 84.6945C519.692 84.6945 519.692 84.6945 519.692 84.6845C519.332 82.6345 518.642 79.6945 517.622 75.8745C515.702 68.7345 521.402 61.6745 527.672 59.0445C527.932 58.9345 528.102 58.6745 528.082 58.3845C527.512 50.5545 527.902 44.0145 534.332 38.6245C537.612 35.8645 541.752 32.9545 546.732 29.8745C555.962 24.1745 566.202 19.3345 577.442 15.3445C590.932 10.5645 604.132 7.06453 617.052 4.84453C628.722 2.85453 638.802 1.48453 647.292 0.75453C651.172 0.41453 657.152 0.174527 665.242 0.0245269C676.892 -0.195473 687.902 1.06453 698.292 3.80453C700.782 4.45453 701.542 5.81453 703.302 7.71453C703.582 8.01453 703.822 8.34453 704.022 8.70453C707.822 15.6245 710.442 20.8045 711.872 24.2545C713.852 29.0245 716.752 35.7045 720.572 44.2945C722.722 49.1545 724.552 53.5145 728.542 56.5445C739.382 64.7645 747.942 71.4845 754.202 76.7045C763.542 84.4745 773.182 91.4745 781.982 98.7445C783.992 100.405 786.762 103.125 790.292 106.895C790.602 107.225 790.792 107.635 790.842 108.075C790.922 108.685 791.082 109.365 791.322 110.105C793.972 118.435 772.712 121.945 767.582 122.815C767.012 122.915 766.442 123.075 765.912 123.295C763.182 124.435 760.302 125.125 757.282 125.385C757.182 125.385 757.112 125.475 757.112 125.575C757.112 125.605 757.122 125.635 757.142 125.665C767.242 141.765 773.822 160.665 773.822 179.885C773.822 208.125 763.102 233.875 746.952 256.595C745.302 258.925 743.042 261.515 740.182 264.375C740.012 264.545 740.012 264.825 740.182 265.005C754.862 280.195 768.662 296.645 781.582 314.335C782.482 315.565 784.482 319.095 787.562 324.915C787.702 325.185 787.902 325.425 788.152 325.605C794.332 330.255 798.252 333.195 799.922 334.405C815.132 345.415 823.572 351.625 825.232 353.025C830.272 357.305 834.222 361.305 836.302 367.365C836.422 367.735 836.492 368.125 836.502 368.525C836.742 378.105 827.722 380.095 819.742 380.525C815.012 380.785 809.922 380.685 804.492 380.225C804.272 380.205 804.072 380.375 804.052 380.605C804.052 380.625 804.052 380.645 804.052 380.665C805.682 405.825 798.242 428.775 783.362 448.865C783.312 448.935 783.332 449.045 783.402 449.095C783.432 449.115 783.472 449.125 783.502 449.125C788.952 448.775 793.192 450.595 796.222 454.595C802.032 462.295 799.472 472.345 795.232 480.185C791.842 486.445 787.962 491.855 783.572 496.435C774.512 505.895 764.052 513.635 752.172 519.665C749.402 521.075 746.482 522.295 743.412 523.335C736.022 525.835 728.422 528.035 720.992 526.205C712.372 524.075 710.152 515.455 712.642 507.855C714.342 502.695 716.922 497.794 720.382 493.174C720.462 493.054 720.442 492.895 720.322 492.815C720.252 492.765 720.172 492.755 720.092 492.775C708.162 496.985 695.722 499.605 682.752 500.655C682.472 500.675 682.262 500.925 682.292 501.205C682.292 501.275 682.322 501.345 682.352 501.405C685.162 506.505 682.552 512.355 677.692 515.145C675.332 516.495 672.932 517.615 670.472 518.505C645.742 527.495 620.992 527.605 596.222 518.845C592.752 517.615 589.402 515.955 586.172 513.855C579.332 509.405 573.202 499.025 581.762 492.405C585.492 489.515 589.862 487.844 594.632 486.734C594.782 486.704 594.872 486.555 594.832 486.415C594.812 486.345 594.772 486.285 594.712 486.245C582.162 478.395 571.152 468.645 561.672 456.995C553.052 446.425 546.832 434.985 542.992 422.685C539.832 412.565 537.882 401.995 537.152 390.955C535.752 369.905 537.892 349.345 543.552 329.285C546.182 319.985 549.292 312.575 552.812 303.165C552.892 302.945 552.852 302.695 552.702 302.515C544.142 291.645 536.842 280.175 530.802 268.105C522.792 252.105 516.132 236.625 510.822 221.645C506.962 210.725 504.242 200.125 502.672 189.825C501.432 181.725 501.502 171.475 503.832 163.005C503.882 162.795 503.762 162.585 503.552 162.525C503.512 162.515 503.472 162.515 503.432 162.515C499.992 162.775 489.982 163.995 487.892 160.355C486.212 157.415 488.782 154.925 491.062 153.205C491.522 152.855 491.932 152.435 492.252 151.945C502.962 136.195 512.492 126.365 528.352 108.665C528.462 108.545 528.512 108.375 528.482 108.205L528.232 106.805C528.222 106.725 528.142 106.665 528.052 106.675C528.002 106.675 527.972 106.705 527.942 106.745L527.962 106.715ZM534.512 48.8345L534.432 61.3945C534.432 61.5545 534.562 61.6945 534.722 61.6945C534.762 61.6945 534.792 61.6945 534.832 61.6745C558.452 52.1445 582.772 44.5745 607.782 38.9645C614.102 37.5545 623.592 35.6845 636.252 33.3645C641.482 32.4045 652.302 31.1445 668.702 29.5845C675.192 28.9745 686.742 28.6845 703.362 28.7245C704.302 28.7245 705.262 28.6545 706.252 28.5245C706.482 28.4945 706.652 28.2845 706.612 28.0445C706.612 28.0045 706.592 27.9545 706.572 27.9145L699.622 12.7745L698.052 9.24453C697.942 9.00453 697.732 8.82453 697.472 8.77453C679.532 4.88453 660.322 5.09453 641.432 7.16453C614.512 10.1245 589.702 15.8645 566.582 26.0445C558.202 29.7445 550.332 34.2345 542.982 39.5345C538.532 42.7445 536.252 44.3145 534.502 48.8045L534.512 48.8345ZM715.292 48.2045L708.862 33.7445C708.772 33.5345 708.552 33.4345 708.342 33.5045C706.112 34.1845 703.772 34.4945 701.302 34.4245C690.572 34.1345 679.912 34.3545 669.312 35.0945C666.522 35.2845 659.222 36.0545 647.412 37.3945C640.972 38.1245 633.732 39.3145 625.682 40.9545C614.612 43.2145 607.422 44.7345 604.132 45.5245C580.562 51.1745 557.702 58.4945 535.572 67.4945C535.092 67.6945 534.772 68.1645 534.772 68.6845V82.5345C534.772 82.7345 534.942 82.9045 535.142 82.9045C535.192 82.9045 535.232 82.9045 535.272 82.8845C564.042 72.0545 593.492 63.9045 623.642 58.4545C638.512 55.7645 652.312 53.5245 665.032 51.7445C679.712 49.6945 696.382 48.6445 715.042 48.5945C715.192 48.5945 715.312 48.4745 715.312 48.3245C715.312 48.2845 715.312 48.2445 715.282 48.2045H715.292ZM716.742 53.9445C706.742 53.9745 696.742 54.3145 686.742 54.9545C678.252 55.5045 668.972 56.5245 658.902 58.0045C649.652 59.3645 640.432 60.8545 631.232 62.4745C599.292 68.0945 568.182 76.4445 537.882 87.5245C536.842 87.7245 535.952 88.0645 535.222 88.5545C535.122 88.6245 535.062 88.7445 535.062 88.8645L534.182 108.675C534.162 109.055 534.012 109.425 533.752 109.715C533.302 110.195 532.862 110.735 532.442 111.335C528.462 116.945 524.922 121.505 521.822 125.015C515.912 131.715 509.752 138.905 503.342 146.585C503.262 146.685 503.272 146.825 503.372 146.905C503.442 146.965 503.532 146.975 503.602 146.945L507.982 145.155C512.112 143.805 516.532 142.025 520.182 140.845C539.732 134.565 559.072 129.175 578.192 124.705C614.162 116.275 648.222 109.585 683.442 105.625C705.342 103.165 727.472 101.865 749.842 101.745C755.422 101.715 763.472 102.145 773.992 103.045L778.802 103.625C778.922 103.645 779.022 103.565 779.042 103.445C779.052 103.365 779.022 103.285 778.952 103.235C773.472 98.9745 768.402 95.0945 763.752 91.5845C751.892 82.6245 738.692 71.4245 727.582 63.6145C723.562 60.7845 720.482 57.6445 718.362 54.2145C718.232 54.0045 718.002 53.8845 717.762 53.8945L716.762 53.9345L716.742 53.9445ZM523.912 89.8245C523.442 90.9845 522.722 91.4245 521.412 91.2945C516.552 90.7945 512.532 92.5245 509.362 96.4745C505.442 101.355 502.092 108.685 499.092 113.685C495.732 119.295 491.362 119.935 485.102 122.085C484.852 122.175 484.732 122.445 484.822 122.695C484.862 122.805 484.932 122.895 485.032 122.945C487.382 124.235 490.972 123.485 492.942 125.395C494.422 126.835 494.372 128.555 494.782 130.585C494.822 130.795 495.032 130.925 495.232 130.885C495.302 130.875 495.372 130.835 495.422 130.785C497.122 129.105 498.482 127.295 499.522 125.345C501.372 121.895 503.002 118.375 505.942 117.075C510.842 114.925 514.232 113.155 516.132 111.785C521.952 107.565 525.912 101.905 527.992 94.8045C528.342 93.6145 527.032 92.7045 526.782 91.4645C526.762 91.3645 526.762 91.2645 526.782 91.1745L527.462 87.5045L527.642 86.4645C528.062 85.1645 528.292 83.8545 528.342 82.5445C528.372 81.6545 528.012 81.2945 527.252 81.4645C524.542 78.2145 524.872 74.3745 528.222 69.9445C528.272 69.8745 528.302 69.7845 528.302 69.7045V65.3745C528.302 65.0645 528.052 64.8145 527.742 64.8045C527.622 64.8045 527.502 64.8445 527.402 64.9145C524.072 67.3645 521.552 70.7445 522.712 75.0145C523.702 78.6845 524.302 81.8445 524.492 84.4845C524.502 84.5645 524.502 84.6445 524.492 84.7245L523.902 89.8445L523.912 89.8245ZM784.852 112.005C784.992 111.945 785.052 111.775 784.992 111.635C784.962 111.575 784.912 111.525 784.852 111.495C779.722 108.985 773.512 108.435 767.912 108.085C759.132 107.535 750.472 107.275 741.952 107.325C741.752 107.325 741.602 107.495 741.602 107.695C741.602 107.795 741.652 107.885 741.722 107.955C746.172 111.715 750.232 116.075 753.922 121.035C754.062 121.225 754.332 121.285 754.542 121.175C755.762 120.515 757.022 120.035 758.322 119.735C767.542 117.565 773.472 116.085 776.102 115.305C779.492 114.305 782.402 113.205 784.852 112.005ZM607.902 123.785L566.602 133.235L563.872 134.075C563.592 134.155 563.342 134.345 563.192 134.595C560.572 138.795 558.022 143.815 557.832 148.565C556.092 161.375 555.482 171.715 556.672 184.245C557.272 190.455 554.552 195.115 551.982 200.045C551.822 200.345 551.892 200.715 552.132 200.955C555.752 204.355 558.262 208.495 559.672 213.385C560.622 216.645 558.122 219.995 555.762 221.975C551.802 225.305 547.302 228.205 542.272 230.695C541.992 230.835 541.812 231.115 541.812 231.425C541.372 244.005 544.572 255.915 556.032 262.445C560.202 264.825 566.142 266.485 570.922 267.925C574.242 268.925 573.682 271.255 572.432 273.905C570.642 277.705 567.522 284.695 563.072 294.865C559.992 301.925 557.972 308.205 555.242 315.285C546.192 338.685 542.542 363.625 543.852 388.705C544.382 398.935 545.982 408.855 548.642 418.455C554.212 438.475 566.492 455.325 581.902 469.355C589.222 476.005 597.362 481.375 606.342 485.445C609.602 486.915 614.082 488.425 619.792 489.965C626.262 491.855 632.642 493.325 638.932 494.375C639.242 494.425 639.562 494.415 639.872 494.355L640.462 494.245C641.012 494.135 641.582 494.114 642.142 494.174C648.542 494.914 654.812 495.165 660.932 494.945C669.742 494.625 678.252 494.015 686.472 493.115C693.922 492.295 699.792 491.375 704.102 490.335C721.602 486.115 739.402 479.075 753.672 468.855C767.602 458.865 778.752 446.445 787.122 431.585C792.572 421.925 796.342 411.255 797.602 400.535C798.292 394.605 798.492 387.735 798.192 379.935C798.192 379.665 797.992 379.445 797.732 379.405C778.462 376.205 759.722 370.015 741.802 363.265C727.072 357.725 712.762 351.725 698.872 345.255C698.492 342.185 699.612 340.785 702.812 341.775C705.962 342.745 708.722 343.715 711.112 344.675C730.132 352.415 742.962 357.445 749.602 359.775C767.272 365.975 786.752 371.715 805.492 373.785C810.262 374.315 828.142 375.835 830.292 370.535C831.422 367.755 827.042 362.785 825.052 361.085L823.942 359.935C822.972 358.945 822.182 358.215 821.562 357.745C812.852 351.215 804.372 345.055 796.132 339.265C791.922 336.305 787.142 332.515 783.642 330.035C759.972 313.295 736.342 296.505 712.752 279.685C713.012 278.045 713.452 277.055 714.072 276.705C715.172 276.105 716.152 276.045 717.032 276.555C720.912 278.785 725.952 282.045 732.142 286.345C743.372 294.145 754.712 302.015 766.172 309.965L775.722 316.725C775.812 316.805 775.952 316.785 776.032 316.695C776.102 316.615 776.102 316.495 776.032 316.415C768.942 307.045 761.662 298.025 754.192 289.365C749.092 283.445 742.722 276.345 735.092 268.095C733.932 266.835 733.502 265.385 733.812 263.745C733.862 263.495 733.962 263.265 734.102 263.055C736.122 260.165 737.362 258.435 737.812 257.865C741.852 252.715 745.532 247.445 748.852 242.035C754.752 233.195 759.292 223.695 762.452 213.535C766.402 201.765 768.212 189.555 767.892 176.905C767.482 160.895 761.932 144.725 753.732 130.995C748.472 122.185 741.172 114.735 733.882 108.065C733.672 107.865 733.382 107.765 733.092 107.775L730.532 107.885C719.402 108.415 710.072 109.015 702.542 109.675C671.292 112.425 639.752 117.135 607.912 123.805L607.902 123.785ZM555.812 136.615C555.862 136.515 555.832 136.395 555.732 136.335C555.692 136.315 555.632 136.305 555.592 136.315C539.052 140.505 523.042 145.485 507.552 151.275C502.942 152.995 499.042 154.715 495.852 156.425C495.682 156.515 495.612 156.725 495.702 156.895C495.732 156.955 495.782 157.005 495.852 157.045C496.022 157.135 496.302 157.175 496.672 157.155C501.192 156.945 505.262 156.505 508.882 155.855C514.812 154.785 527.792 152.565 547.832 149.195C549.012 148.995 550.202 148.705 551.392 148.315C551.792 148.185 552.082 147.845 552.132 147.435C552.682 143.485 553.902 139.875 555.812 136.605V136.615ZM527.642 159.125C529.982 161.445 532.142 163.885 533.722 166.185C540.012 175.345 545.452 183.045 550.022 189.255C550.132 189.415 550.362 189.455 550.522 189.335C550.592 189.285 550.652 189.205 550.662 189.115C551.302 186.165 550.412 181.845 549.952 177.035C549.292 170.105 550.172 163.895 551.022 154.865C551.032 154.735 550.942 154.625 550.812 154.615C550.792 154.615 550.772 154.615 550.752 154.615L527.732 158.785C527.632 158.805 527.562 158.895 527.582 159.005C527.582 159.045 527.612 159.085 527.632 159.115L527.642 159.125ZM512.102 161.285C511.372 161.805 510.832 162.515 510.492 163.415C509.572 164.765 508.982 166.275 508.722 167.945C505.962 185.555 510.072 202.295 516.292 220.065C521.632 235.305 528.022 250.385 535.472 265.305C540.882 276.135 547.322 286.555 554.792 296.555C554.892 296.695 555.092 296.725 555.232 296.625C555.262 296.605 555.292 296.575 555.312 296.545C555.642 296.055 555.882 295.515 556.042 294.915C558.452 289.215 561.012 283.625 563.712 278.145C564.642 276.255 565.572 274.595 566.502 273.165C566.622 272.985 566.572 272.745 566.392 272.625C566.342 272.595 566.292 272.575 566.232 272.565C544.922 269.215 534.022 251.095 536.572 230.455C536.612 230.135 536.492 229.815 536.272 229.595C533.412 226.755 530.912 223.365 528.772 219.415C525.982 214.275 527.862 210.495 531.972 207.125C535.392 204.325 538.512 202.185 541.332 200.695L545.902 198.955C546.032 198.905 546.132 198.815 546.202 198.695L547.872 195.805C548.022 195.555 547.982 195.235 547.782 195.025C540.162 187.005 535.562 179.545 528.562 169.075C526.362 165.785 523.472 162.905 519.872 160.435C519.642 160.275 519.362 160.205 519.082 160.245L512.112 161.305L512.102 161.285ZM534.732 212.605C539.222 212.775 543.502 212.475 547.562 211.705C549.302 211.375 550.592 211.565 551.002 213.375C551.232 214.375 550.822 215.375 550.012 215.785C545.702 217.975 539.442 217.985 534.692 217.595C534.522 217.585 534.372 217.715 534.362 217.885C534.362 217.955 534.372 218.015 534.412 218.075L539.222 225.535C539.442 225.875 539.892 225.985 540.232 225.775C544.972 223.055 550.372 220.045 553.882 215.905C554.272 215.455 554.372 214.815 554.132 214.255C552.472 210.345 550.182 207.165 547.272 204.735C546.842 204.375 546.222 204.335 545.752 204.635L534.542 211.865C534.362 211.985 534.312 212.225 534.432 212.405C534.502 212.505 534.612 212.575 534.742 212.585L534.732 212.605ZM776.582 456.935C764.842 469.665 751.392 479.475 736.212 486.375C733.522 487.295 731.902 488.045 731.332 488.605C725.132 494.715 716.402 506.025 717.222 515.215C717.552 517.875 718.842 519.605 721.082 520.415C726.282 522.295 731.842 520.995 737.842 519.155C741.072 518.165 743.972 517.075 746.532 515.895C764.612 507.545 782.512 493.915 790.802 475.555C793.822 468.875 794.612 459.964 787.682 455.794C787.212 455.504 786.792 455.415 786.442 455.525C781.462 453.805 778.172 454.275 776.592 456.935H776.582ZM582.722 499.875C583.382 504.605 586.182 508.235 591.102 510.755C598.992 514.795 608.052 517.025 616.632 518.455C634.582 521.425 651.962 519.445 668.752 512.495C671.442 511.385 673.672 510.035 675.472 508.455C676.292 507.735 676.672 506.635 676.472 505.565L675.742 501.575C675.702 501.375 675.522 501.235 675.322 501.255L670.612 501.695C663.402 501.865 656.552 501.715 650.052 501.255C648.042 501.105 645.322 501.255 642.812 500.935C630.442 499.305 618.382 496.215 606.612 491.645C601.022 490.875 595.072 491.885 588.762 494.665C587.112 495.395 585.592 496.325 584.212 497.445C583.822 497.765 583.322 498.575 582.712 499.875H582.722Z" fill="var(--fill-0, black)"/>
<path id="Vector_6" d="M184.192 76.5345C187.152 73.8245 194.052 68.3945 198.392 70.1945C200.282 70.9745 201.072 72.6745 200.772 75.2845C200.752 75.4545 200.872 75.6145 201.042 75.6345C201.102 75.6345 201.172 75.6345 201.222 75.5945C204.722 73.7545 212.242 71.0645 215.112 75.0145C217.132 77.8045 215.562 81.1845 213.622 83.6245C213.522 83.7545 213.552 83.9445 213.682 84.0445C213.722 84.0745 213.772 84.0945 213.822 84.1045C238.122 86.8045 258.892 96.8645 276.112 114.285C279.552 117.755 283.512 123.765 285.982 129.025C289.272 136.065 291.762 142.505 293.422 148.335C293.882 149.955 294.622 153.275 295.642 158.285C296.712 163.535 298.752 167.225 301.782 171.235C308.352 179.935 313.272 185.345 315.532 193.715C318.522 204.825 318.232 216.185 314.652 227.785C313.482 231.565 311.622 235.595 309.062 239.865C306.422 244.265 303.912 247.915 301.542 250.815C301.382 251.015 301.412 251.315 301.612 251.485C312.802 260.575 324.072 268.725 335.422 275.925C338.452 277.845 343.702 280.655 351.162 284.355C364.232 290.825 377.852 296.955 392.252 300.485C394.192 300.955 396.362 301.635 398.792 302.505C405.732 305.005 417.212 311.615 412.412 320.795C406.962 331.235 387.152 333.415 376.972 333.085C367.722 332.785 358.332 331.685 348.792 329.785C347.272 329.485 345.832 329.105 344.462 328.655C344.342 328.615 344.212 328.685 344.172 328.805C344.152 328.855 344.162 328.905 344.172 328.955C346.562 335.055 348.492 341.205 349.982 347.405C351.462 353.635 352.412 360.015 352.812 366.535C353.412 376.415 353.132 386.725 351.972 397.465C349.462 420.535 340.822 440.404 326.032 457.054C325.942 457.164 325.952 457.325 326.062 457.415C326.102 457.455 326.152 457.475 326.212 457.475C334.182 457.705 342.322 459.055 350.622 461.535C354.262 462.615 357.162 464.075 360.102 466.105C366.242 470.355 368.512 478.935 363.292 484.765C359.352 489.135 353.772 491.665 347.642 493.915C344.512 495.065 341.242 495.995 337.832 496.715C329.482 498.475 322.012 499.635 315.432 500.195C312.732 500.425 308.792 500.475 303.612 500.345C293.872 500.105 287.202 499.905 279.442 496.575C275.292 494.795 272.332 492.335 270.362 488.395C270.292 488.245 270.122 488.175 269.952 488.215C268.342 488.625 266.612 488.595 265.022 488.945C253.142 491.605 240.802 492.885 227.992 492.785C227.802 492.785 227.642 492.935 227.632 493.135C227.632 493.195 227.642 493.254 227.672 493.304C229.362 496.524 229.132 499.645 227.002 502.665C223.092 508.205 216.872 510.855 210.602 512.785C201.732 515.505 191.342 517.235 179.432 517.965C170.632 518.505 161.422 517.784 151.772 515.804C142.872 513.974 128.462 509.804 126.972 498.744C125.312 486.404 140.432 481.395 150.352 478.845C150.482 478.815 150.552 478.674 150.512 478.554C150.492 478.484 150.452 478.435 150.392 478.405C144.892 475.785 140.142 473.285 136.152 470.905C126.952 465.415 119.172 458.675 112.812 450.695C110.002 447.165 108.092 443.315 105.302 438.625C99.1123 428.195 95.4423 415.555 93.4023 403.125C90.9723 388.355 92.0623 373.295 94.9123 357.555C95.5723 353.895 96.5523 350.145 97.8523 346.295C97.9223 346.095 97.8123 345.885 97.6223 345.815C97.5623 345.795 97.5023 345.795 97.4423 345.805C86.8223 347.405 76.0323 348.415 65.0723 348.835C54.2523 349.245 43.0323 348.135 31.4023 345.515C25.2423 344.125 17.6023 341.255 13.6323 336.085C10.1923 331.605 9.71232 325.765 13.1323 321.355C14.5223 319.555 17.4923 317.655 22.0523 315.655C31.6023 311.455 38.0523 308.745 41.3923 307.515C63.4023 299.455 80.4923 292.625 92.6623 287.035C99.9623 283.685 110.492 278.175 124.252 270.505C124.402 270.415 124.452 270.235 124.372 270.085C124.352 270.045 124.322 270.015 124.282 269.985C116.962 264.585 111.492 259.915 107.882 255.975C94.3523 241.185 85.3923 222.305 82.6523 202.115C81.6823 194.995 81.2323 188.695 81.3023 183.205C81.5323 164.775 89.9423 146.955 101.062 132.155C115.822 112.525 137.912 97.8845 160.822 89.8945C161.122 89.7945 161.352 89.5645 161.472 89.2645C163.732 83.5945 167.512 78.8945 172.082 74.3645C174.622 71.8345 179.082 67.9645 182.462 70.8945C182.682 71.0845 182.872 71.3145 183.012 71.5745C183.772 72.9845 184.002 74.5545 183.712 76.2945C183.692 76.4345 183.782 76.5745 183.922 76.5945C184.002 76.6045 184.082 76.5845 184.132 76.5345H184.192ZM193.242 76.1145C189.042 79.1145 185.082 82.6045 181.372 86.6045C179.702 88.2845 176.852 88.3845 176.332 86.0345C176.202 85.4645 176.462 84.3945 177.092 82.8045C177.772 81.1045 178.202 79.2845 178.392 77.3245C178.612 77.0945 178.712 76.6545 178.672 76.0245C178.652 75.8245 178.482 75.6745 178.282 75.6845C178.202 75.6845 178.122 75.7245 178.052 75.7845C174.362 79.3745 171.232 83.2445 168.652 87.3745C168.572 87.5045 168.612 87.6745 168.752 87.7545C168.822 87.7945 168.902 87.8045 168.972 87.7845C169.842 87.4845 170.782 87.6345 171.782 88.2345C172.362 88.7545 172.592 89.6245 172.472 90.8245C172.082 91.6245 171.522 92.1445 170.772 92.3645C150.152 98.5045 132.262 108.745 117.092 123.075C100.072 139.145 86.9423 162.275 87.4323 186.035C87.6423 196.115 88.8823 205.505 91.1623 214.205C94.9523 228.695 103.792 244.755 115.182 255.215C119.752 259.405 124.932 263.325 130.752 266.995C131.812 266.635 132.562 266.515 133.002 266.645C134.512 267.075 135.112 268.225 134.812 270.095C133.862 271.455 132.602 272.615 131.022 273.575C118.252 281.285 105.052 288.165 91.4023 294.195C75.4923 301.235 59.3023 307.535 42.8223 313.115C38.1323 314.705 30.8023 317.835 20.8123 322.515C16.3123 324.795 15.3923 328.015 18.0523 332.195C18.8523 333.445 19.7423 334.385 20.7223 335.025C23.4023 336.765 27.0623 338.265 30.1923 338.995C39.9123 341.285 49.1923 342.495 58.0123 342.635C70.5023 342.835 84.0423 341.815 98.6323 339.565C110.052 337.805 124.012 334.135 136.102 331.035C139.042 330.285 141.512 331.515 140.102 334.995C139.822 335.055 139.422 335.175 138.922 335.375C128.492 339.315 117.852 342.275 106.982 344.245L104.942 344.705C104.702 344.755 104.522 344.945 104.472 345.185C102.132 356.595 100.622 364.755 99.9323 369.665C97.1623 389.365 99.0923 408.185 105.732 426.135C109.232 435.605 114.652 444.165 121.982 451.825C130.662 460.345 141.242 467.445 153.722 473.135C170.032 480.565 186.242 485.024 202.362 486.494C212.992 487.464 226.702 487.505 243.482 486.595C246.832 486.415 251.022 485.914 256.072 485.114C263.282 483.964 267.442 483.255 268.552 482.975C276.802 480.885 285.112 477.865 293.482 473.935C298.832 471.415 305.182 467.325 312.512 461.665L314.782 459.304C314.882 459.194 315.002 459.104 315.132 459.044C317.492 457.824 318.032 456.285 319.702 454.825C325.512 449.745 330.412 442.615 334.532 435.055C340.762 423.625 344.692 411.365 346.332 398.285C347.652 387.765 348.032 376.955 347.472 365.845C347.232 360.895 346.642 356.645 345.712 353.095C343.282 343.865 340.782 335.785 337.192 327.065C332.362 315.355 326.762 303.865 320.392 292.595C316.102 285.005 311.302 277.855 305.982 271.155C305.762 269.055 306.622 267.875 308.542 267.645C309.242 267.825 309.892 268.215 310.502 268.815C320.622 281.155 328.322 294.325 335.352 308.535L341.332 321.705C341.442 321.945 341.662 322.125 341.922 322.175C354.422 324.675 366.522 326.765 379.662 326.915C388.102 327.015 395.872 325.545 402.992 322.505C405.282 321.105 406.792 319.675 407.532 318.195C408.292 316.375 407.812 314.745 406.102 313.295C399.542 307.745 392.472 306.625 382.162 303.625C375.652 301.725 370.432 299.455 362.362 295.905C349.892 290.415 339.392 285.035 330.852 279.765C319.382 272.685 308.442 264.555 298.052 255.365C297.852 255.195 297.582 255.135 297.332 255.215C296.962 255.345 296.602 255.595 296.252 255.945L293.102 257.495C290.322 257.835 288.792 255.405 290.492 253.315C295.412 247.255 298.592 243.285 300.022 241.395C310.002 228.275 313.312 213.685 309.962 197.645C308.092 188.725 302.922 182.695 296.792 174.765C293.282 170.215 290.882 165.065 289.772 158.785C288.342 150.765 286.622 145.775 283.092 137.045C278.392 125.425 271.192 116.145 261.472 109.195C246.032 97.0945 228.552 90.5445 209.052 89.5345C208.822 89.5145 208.592 89.6045 208.412 89.7745L207.502 90.6645C206.742 91.4245 205.602 92.3445 204.512 92.1045C203.152 91.8145 202.492 90.9145 202.542 89.4045C202.562 88.9645 202.732 88.5545 203.042 88.2445C205.892 85.3945 208.392 82.2845 210.532 78.9045C210.652 78.7245 210.602 78.4945 210.412 78.3745C210.342 78.3345 210.262 78.3045 210.182 78.3145C205.132 78.5945 199.122 82.6045 195.172 85.7845C193.452 87.1645 190.822 88.0545 189.802 85.5945C189.422 84.6845 189.602 83.6345 190.262 82.8945C192.362 80.5645 194.072 78.2045 195.382 75.8145C195.462 75.6745 195.412 75.4945 195.272 75.4145C195.222 75.3845 195.162 75.3745 195.102 75.3745C194.532 75.4145 193.902 75.6745 193.222 76.1345L193.242 76.1145ZM317.532 465.105C308.772 472.505 298.762 478.535 287.492 483.185L276.462 486.585C276.282 486.635 276.182 486.825 276.242 487.005C276.242 487.035 276.262 487.065 276.282 487.085C279.042 491.475 287.922 493.495 292.822 493.905C307.402 495.145 322.172 494.014 337.142 490.494C343.852 488.914 351.182 486.565 356.532 482.355C360.252 479.425 360.432 476.105 357.072 472.385C352.742 468.965 348.432 467.585 342.592 466.095C336.932 464.645 330.742 463.624 324.042 463.044C323.132 462.974 321.712 462.684 320.482 462.804C320.222 462.834 319.982 462.935 319.792 463.105L317.542 465.105H317.532ZM133.572 494.005C129.322 501.535 139.512 506.525 144.932 508.265C154.042 511.185 164.962 512.575 175.392 512.125C188.072 511.595 199.602 509.695 209.992 506.435C212.622 505.605 215.142 504.465 217.552 503.005C219.602 501.765 222.782 498.825 222.042 496.125C221.782 495.205 221.442 494.265 221.012 493.315C220.892 493.055 220.632 492.895 220.342 492.905L217.992 493.025C208.462 492.755 200.522 492.194 194.162 491.364C184.952 490.154 175.612 487.915 166.152 484.665L162.522 483.424C162.322 483.354 162.112 483.335 161.902 483.355C154.242 484.085 147.122 485.825 140.552 488.565C137.842 489.695 135.512 491.505 133.552 494.015L133.572 494.005Z" fill="var(--fill-0, black)"/>
<path id="Vector_7" d="M44.3523 137.115C43.5723 136.945 42.9023 136.455 42.5023 135.765C41.0223 133.225 41.2523 131.815 44.6023 131.185C55.3123 129.135 56.9023 120.545 58.1223 111.205C58.3923 109.175 60.8423 108.895 62.2523 110.135C62.4423 110.305 62.5923 110.525 62.6723 110.775C64.4623 116.675 66.8723 124.085 73.5323 124.915C79.0023 125.595 81.8423 125.975 82.0423 126.045C84.6323 127.025 84.9223 128.505 83.4323 130.805C83.2623 131.065 83.0323 131.285 82.7623 131.425C77.1223 134.465 72.8523 136.335 70.2523 141.825C68.4723 145.585 67.3023 149.375 66.7523 153.215C66.5123 154.915 64.6323 155.765 63.1223 154.955C62.5823 154.665 62.0223 153.925 61.4223 152.725C59.6023 149.025 57.7223 145.795 55.7723 143.035C52.8223 138.855 48.8523 138.075 44.3523 137.105V137.115ZM60.9323 120.325C59.2723 125.135 57.9923 129.955 53.3423 132.695C52.2823 133.325 51.6223 133.755 51.3723 133.995C51.3023 134.065 51.3023 134.175 51.3723 134.245C51.3923 134.265 51.4123 134.275 51.4323 134.285C53.9723 135.245 55.7523 136.265 56.7723 137.355C59.2223 139.965 61.1823 142.675 62.6423 145.485C62.7723 145.745 63.0923 145.835 63.3523 145.705C63.4923 145.635 63.5923 145.505 63.6223 145.345C64.9623 138.875 68.3623 133.855 73.8223 130.295C73.9523 130.215 73.9823 130.035 73.9023 129.915C73.8623 129.855 73.7923 129.805 73.7123 129.795C68.0423 128.855 64.0223 125.695 61.6423 120.305C61.5523 120.115 61.3223 120.025 61.1323 120.115C61.0423 120.155 60.9623 120.235 60.9323 120.335V120.325Z" fill="var(--fill-0, #D97D00)"/>
<path id="Vector_8" d="M5.32232 205.345C3.05232 205.305 -0.097677 205.255 0.00232296 202.325C0.012323 201.995 0.142323 201.675 0.362323 201.435C1.38232 200.295 2.27232 199.535 3.03232 199.165C7.86232 196.825 13.0123 193.625 18.5023 189.555C22.1723 186.835 24.4823 183.725 25.4323 180.215C26.5023 176.255 27.4023 170.285 27.1323 166.675C26.8323 162.395 26.4523 157.725 27.7523 153.925C27.8323 153.685 27.9623 153.475 28.1323 153.285C31.8623 149.255 34.9123 156.535 36.4523 159.615C38.1123 162.905 40.3723 167.995 42.7223 172.035C47.5523 180.345 54.9223 185.305 64.8423 186.925C68.6123 187.535 71.2423 187.945 72.7223 188.135C75.2523 188.465 76.4223 190.935 74.7823 193.075C74.6223 193.285 74.4123 193.455 74.1823 193.575C71.7723 194.775 67.7623 196.645 62.1523 199.165C61.4523 199.485 60.2223 200.235 58.4723 201.435C54.1823 204.355 51.3723 208.275 50.0423 213.185C48.1323 220.235 47.6023 226.655 47.2623 234.365C47.1923 235.745 46.5223 237.305 44.9023 237.365C43.0123 237.435 41.9823 235.885 41.3423 234.565C39.8923 231.575 36.9323 225.355 32.4523 215.895C28.8723 208.335 23.5023 206.375 15.3823 205.645C14.1723 205.535 10.8223 205.435 5.32232 205.345ZM31.6723 162.505C31.9823 168.515 31.5923 175.105 29.6223 181.955C27.9223 187.895 23.2323 191.565 17.1923 195.705C14.2723 197.715 11.4323 199.445 8.65232 200.895C8.55232 200.935 8.50232 201.035 8.54232 201.135C8.57232 201.225 8.66232 201.275 8.76232 201.255C20.5723 200.395 31.4623 202.155 36.8123 214.325C40.4323 222.575 42.2923 226.795 42.3923 227.005C42.5223 227.285 42.8523 227.405 43.1223 227.275C43.3123 227.185 43.4423 226.995 43.4423 226.785C43.5723 220.825 44.5623 215.075 46.4223 209.515C49.2523 201.055 56.7823 195.675 64.9123 192.685C65.0823 192.625 65.1723 192.435 65.1023 192.265C65.0623 192.155 64.9623 192.075 64.8523 192.055C61.7623 191.475 58.5923 190.625 55.3423 189.485C43.1723 185.215 36.7223 173.755 32.1223 162.395C32.0723 162.275 31.9323 162.215 31.8123 162.265C31.7223 162.305 31.6623 162.395 31.6723 162.495V162.505ZM42.9123 227.745C42.9223 228.105 42.9323 228.305 42.9323 228.325C43.0023 228.465 43.1723 228.515 43.3023 228.445C43.3723 228.415 43.4223 228.345 43.4423 228.275C43.4823 228.135 43.3923 227.925 43.1723 227.645C43.1123 227.585 43.0223 227.575 42.9523 227.625C42.9123 227.655 42.8923 227.695 42.9023 227.745H42.9123Z" fill="var(--fill-0, #D97D00)"/>
<path id="Vector_9" d="M236.682 184.955C237.222 182.505 240.582 180.785 242.882 179.945C247.392 178.305 252.392 177.725 257.872 178.205C262.072 178.565 263.662 180.995 262.642 185.515C261.922 188.725 260.572 192.125 258.612 195.715C256.322 199.905 252.712 202.625 248.122 199.155C244.592 196.485 235.602 189.865 236.672 184.955H236.682ZM253.262 196.605C255.042 194.615 256.352 192.285 257.172 189.635C257.362 189.015 257.192 188.335 256.742 187.875C252.992 184.055 248.482 182.765 243.192 183.995C242.292 184.205 241.552 184.665 240.972 185.375C240.392 186.085 240.492 187.115 241.182 187.705L251.732 196.715C252.182 197.105 252.862 197.055 253.252 196.605H253.262Z" fill="var(--fill-0, black)"/>
</g>
</svg>
