<svg width="601" height="482" viewBox="0 0 601 482" fill="none" xmlns="http://www.w3.org/2000/svg">
<g clip-path="url(#clip0_0_49198)">
<path d="M247.84 6.71659C254.154 2.55721 264.876 3.06861 262.115 12.9216C265.553 11.1942 272.519 10.7339 275.463 13.5296C281.878 19.6266 267.746 27.6897 268.314 28.4284C286.708 33.9856 302.585 45.8728 315.172 60.0783C327.94 43.9124 347.039 34.0935 366.524 28.2693C380.225 24.1781 394.874 21.4904 409.154 23.4337C411.547 16.2059 420.013 10.0975 427.19 8.25647C432.714 6.83592 437.487 8.26216 437.146 14.7853C442.936 10.0691 452.779 9.35314 452.04 19.1322C462.603 16.7287 467.632 20.4107 460.984 30.2523C459.893 31.8718 457.575 32.9912 457.62 35.2641C468.309 38.77 479.071 44.9011 487.981 51.7709C505.966 65.6355 517.314 87.8189 518.473 110.656C518.934 119.742 516.121 129.85 519.388 138.294C520.638 141.522 523.025 144.351 524.474 147.482C535.401 171.092 529.276 201.889 508.813 218.357C506.955 219.851 505.103 220.408 503.364 221.476C502.557 221.97 502.835 222.095 503.017 222.931L582.384 291.907C589.112 298.874 604.961 312.375 600.068 323.262C595.931 332.473 576.304 326.705 568.866 324.665C554.648 320.767 540.538 314.829 526.52 310.227C525.946 313.272 527.202 316.375 527.19 319.222C526.98 364.032 506.921 409.001 465.49 429.502C464.393 430.042 461.916 430.411 461.484 430.775C461.018 431.161 458.12 439.815 456.876 441.997C444.38 463.931 400.659 489.302 376.969 473.108C369.03 467.681 368.411 459.385 370.099 450.498C356.876 450.828 344.13 446.197 331.856 441.81L330.02 442.372C319.468 453.97 296.437 472.823 280.145 463.169C271.934 458.305 273.338 448.094 273.576 439.935C272.207 440.537 269.917 441.071 268.9 442.083C266.416 444.566 263.058 451.379 259.938 454.845C249.227 466.743 227.293 479.045 211.433 481.443C194.016 484.069 175.639 477.773 180.168 456.703C164.172 456.703 149.074 450.822 134.521 444.941C133.56 444.992 124.622 454.458 122.741 456.067C113.342 464.084 93.2718 477.983 84.481 462.084C76.7642 448.117 85.805 427.667 90.0896 413.7C81.6284 404.887 73.8378 395.301 68.7747 384.067C56.8983 357.713 58.4781 328.597 67.2006 301.544C53.2616 306.266 37.0211 312.477 22.2296 313.358C3.3468 314.488 -8.85344 304.942 7.94392 289.14C20.8033 277.043 39.0611 263.61 53.2616 252.529C73.8719 236.454 95.1072 221.044 116.854 206.56C94.181 170.041 81.4466 128.447 99.1872 86.8075C119.246 39.7303 169.428 16.3082 218.854 16.5525C221.61 13.1432 223.679 9.65998 227.043 6.745C232.742 1.80147 246.641 -5.53427 247.823 6.72796L247.84 6.71659Z" fill="black"/>
<path d="M188.874 439.934C186.964 442.327 185.35 444.94 183.793 447.577C182.168 450.327 183.481 451.969 179.276 451.736C141.686 449.662 92.9536 419.348 76.0881 385.453C62.2513 357.645 63.831 327.296 74.7413 298.811C75.6562 297.515 93.948 289.998 97.2382 288.412C105.637 284.361 114.138 280.15 122.258 275.571C124.014 274.582 134.981 268.553 135.362 267.894C136.493 265.951 134.765 263.2 132.373 264.57C107.813 276.724 83.5378 289.912 57.6087 299.055C45.7551 303.237 23.9287 310.039 11.8137 307.59C-2.5345 304.686 9.60892 294.759 15.0698 290.038C27.4462 279.338 42.1069 268.206 55.1425 258.109C78.3099 240.159 102.426 223.527 125.883 205.958C127.395 201.412 123.633 201.446 120.61 203.469C105.608 177.308 94.3174 150.982 96.3972 119.997C100.818 54.1345 168.07 15.7056 229.401 22.7232C231.822 21.6833 231.197 19.9445 229.168 18.8706C228.088 18.2967 224.315 18.2797 224.878 16.9671C225.378 15.8136 231.606 9.92679 232.998 8.94377C234.794 7.67664 236.959 6.25608 239.112 5.75036C244.698 4.43777 243.062 7.27888 241.124 10.8644C239.931 13.0691 232.844 19.6661 237.856 20.7116C239.658 21.0867 243.505 16.0806 245.062 14.8021C248.767 11.7622 252.637 8.65966 257.768 9.20515C258.086 11.3985 256.756 13.0804 255.54 14.734C254.012 16.808 246.994 21.7458 248.721 24.138C252.011 26.0757 255.108 21.8765 257.972 20.2684C262.371 17.7967 266.877 16.0409 272.042 16.6545C273.105 17.6887 269.133 21.1946 268.331 21.9333C266.144 23.9619 258.762 28.394 257.728 29.9509C256.285 32.1272 257.342 33.8376 259.899 33.4057C260.853 33.2466 261.518 32.3034 262.473 32.1613C264.501 31.8602 275.895 36.6275 278.475 37.8379C301.443 48.6398 325.44 73.0108 326.048 99.8138C325.571 96.967 324.088 92.2508 323.116 89.404C318.9 77.0963 303.705 57.5211 290.34 71.238C287.521 74.1302 285.845 78.926 282.907 81.8069C268.684 95.7681 256.984 79.1476 245.931 71.005C218.758 50.9808 185.424 62.0327 168.758 89.3131C148.045 123.219 158.393 157.318 178.066 188.513C181.856 194.525 192.652 206.56 193.692 212.606C195.749 224.573 179.003 244.176 172.48 254.404C145.335 296.975 113.104 351.974 143.062 401.642C153.915 419.632 168.792 433.008 188.874 439.934Z" fill="#81ABFF"/>
<path d="M326.043 99.814C328.02 111.661 324.616 123.543 326.736 135.424C328.543 145.556 336.089 153.949 337.555 164.33C340.232 183.269 333.924 195.412 322.298 209.344C320.212 211.845 310.677 220.976 310.535 223.05C319.042 244.256 327.639 264.775 332.56 287.248C343.073 335.274 341.561 380.578 302.779 415.126C293.692 423.223 283.549 428.559 272.957 434.343C271.434 434.554 272.207 433.929 272.298 433.071C273.145 425.218 274.452 420.257 267.366 414.507C247.159 398.125 202.745 422.53 188.862 439.94C182.072 440.02 174.395 435.116 168.661 431.212C155.944 422.558 145.499 409.887 138.612 396.17C111.638 342.479 152.665 281.173 182.396 237.909C185.657 232.954 188.885 227.88 190.988 222.317C194.102 214.078 192.323 209.833 187.169 203.049C173.571 185.752 161.501 165.194 157.506 143.022C146.375 81.2786 209.768 29.9227 258.035 79.5626C266.809 87.1029 275.633 89.0632 283.578 79.0682C299.363 47.5887 325.054 77.301 326.037 99.814H326.043Z" fill="white"/>
<path d="M223.468 118.582C233.964 116.883 240.357 129.072 240.414 138.016C240.453 144.777 235.703 155.255 228.236 156.238C208.154 158.881 206.012 121.406 223.468 118.582Z" fill="black"/>
<path d="M227.162 123.52C238.339 120.105 239.777 141.953 230.054 142.454C222.224 142.857 221.889 125.128 227.162 123.52Z" fill="white"/>
<path d="M218.195 144.039C221.502 140.589 224.69 150.124 220.712 151.238C217.047 152.266 216.559 145.749 218.195 144.039Z" fill="#F9F8F8"/>
<path d="M304.159 119.185C312.922 117.503 317.82 130.561 317.991 137.402C318.172 144.652 313.143 156.665 304.165 153.028C292.527 148.312 292.209 121.48 304.154 119.185H304.159Z" fill="#010101"/>
<path d="M307.234 123.514C311.154 122.315 314.263 127.361 314.74 130.697C315.149 133.549 313.962 140.055 310.689 140.68C303.483 142.055 302.58 124.941 307.239 123.514H307.234Z" fill="white"/>
<path d="M301.591 142.061C304.461 141.198 305.364 148.119 303.324 148.795C299.614 150.022 299.119 142.8 301.591 142.061Z" fill="#EDEDED"/>
<path d="M273.758 142.794C282.06 141.805 298.812 152.181 294.84 162.028C291.698 169.824 279.696 173.961 271.889 172.893C264.973 171.944 251.102 163.557 254.506 155.21C256.449 150.454 268.655 143.402 273.753 142.794H273.758Z" fill="#050302"/>
<path d="M273.758 146.521C278.816 145.879 291.47 152.34 292.277 157.511C292.868 161.289 283.055 168.159 279.622 169.148C273.821 170.819 265.78 167.404 261.484 163.437C255.785 158.176 257.2 156.062 262.785 151.692C265.547 149.533 270.269 146.965 273.764 146.521H273.758Z" fill="#FFAF69"/>
<path d="M288.044 155.784C290.533 155.67 291.658 157.767 289.027 159.318C284.032 162.256 265.666 162.835 260.904 159.676C259.541 158.767 258.876 156.92 260.66 156.369C262.348 155.846 272.258 158.227 275.423 158.182C279.412 158.125 284.668 155.937 288.044 155.784Z" fill="#0F0905"/>
<path d="M435.776 409.711C450.432 408.972 457.756 414.092 455.716 429.644C452.67 452.81 410.99 476.846 389.214 472.664C371.32 469.226 370.86 454.822 379.162 441.23C388.271 426.32 418.57 410.58 435.776 409.711Z" fill="#FFAF69"/>
<path d="M243.988 414.677C264.672 413.376 273.105 423.581 262.376 442.372C251.756 460.97 220.616 478.705 199.119 476.551C193.221 475.96 185.788 472.676 184.674 466.17C180.395 441.105 222.912 416.007 243.982 414.683L243.988 414.677Z" fill="#FFAF69"/>
<path d="M94.8401 418.223C104.506 428.548 117.013 435.383 129.293 442.117C129.48 442.929 127.446 444.617 126.815 445.214C122.735 449.077 117.292 454.01 112.734 457.203C78.1394 481.489 84.5492 436.434 94.8401 418.217V418.223Z" fill="#FFAF69"/>
<path d="M325.423 438.702C325.639 439.787 324.861 440.23 324.196 440.872C317.28 447.56 301.704 459.351 292.158 460.345C275.446 462.084 277.94 447.128 280.265 435.735C287.538 432.86 294.135 428.479 300.409 423.882C307.944 430.099 316.308 435.139 325.429 438.707L325.423 438.702Z" fill="#FFAF69"/>
<path d="M344.045 259.325C336.407 250.063 327.009 240.449 319.854 231.067C318.905 229.823 316.098 225.55 316.127 224.237C316.144 223.357 326.241 213.254 327.889 211.202C343.789 191.428 347.045 173.393 337.504 149.482C335.311 143.993 331.725 139.084 331.083 132.935C329.952 122.111 332.015 110.508 330.998 99.5012C329.799 86.506 325.707 75.5393 318.582 64.726C338.391 39.1162 376.048 27.0699 407.683 28.3996C410.433 28.5132 418.775 31.0873 419.661 27.9905C420.712 24.3311 415.951 25.5982 414.183 23.7686C417.309 20.6888 420.212 17.2283 424.139 15.1146C429.06 12.461 434.691 10.0517 431.412 18.0466C430.316 20.7229 424.724 26.8029 426.741 28.8996C429.134 31.3884 431.344 25.9619 432.384 24.9107C434.85 22.4276 438.925 18.9614 442.084 17.5465C444.977 16.251 448.409 14.6713 446.784 19.7626C445.602 23.4674 437.743 27.8086 439.294 30.8998C441.039 34.383 445.63 28.3143 447.727 26.9165C450.943 24.763 455.58 22.3878 459.472 23.4674C460.836 25.1778 447.147 37.0309 446.721 38.9174C446.42 40.2584 447.704 41.6448 449.204 41.4914C450.966 41.3096 451.227 38.9003 453.506 38.9856C454.978 39.0424 461.626 41.963 463.422 42.7926C488.908 54.498 509.592 76.4541 512.234 105.394C510.671 99.2625 503.733 83.2671 499.807 78.4088C491.476 68.1012 483.941 69.9025 475.918 79.3179C472.4 83.4489 471.281 87.6197 465.683 90.188C454.58 95.2736 449.13 85.3581 441.772 79.3464C393.17 39.639 338.089 92.0291 348.051 145.754C351.318 163.381 359.597 176.188 367.32 191.655C374.707 206.463 374.332 210.731 366.257 224.754C359.41 236.647 350.17 246.989 344.033 259.319L344.045 259.325Z" fill="#FCC7DD"/>
<path d="M526.031 303.879C523.122 280.025 516.246 256.916 507.91 234.5L578.668 296.248C583.663 301.788 596.965 312.221 595.42 320.46C595.096 322.199 593.539 322.472 592.016 322.648C585.356 323.415 578.327 321.489 571.979 319.699C556.648 315.369 541.323 308.567 526.031 303.885V303.879Z" fill="#FCC7DD"/>
<path d="M327.293 248.773C339.544 262.644 350.96 277.446 362.967 291.606C370.638 300.658 396.681 326.79 399.25 336.007C402.426 347.428 389.623 344.354 382.827 342.502C369.491 338.859 355.517 331.336 343.374 324.853C342.419 318.432 342.306 311.619 341.47 305.033C339.027 285.748 333.293 267.144 327.287 248.773H327.293Z" fill="#81ABFF"/>
<path d="M377.56 434.968C375.321 437.917 373.383 442.008 371.877 445.412C352.335 443.935 331.56 437.286 314.683 427.399C312.91 426.36 306.057 422.018 305.233 420.711C304.779 419.99 304.614 420.03 305.336 419.416C315.524 410.751 325.287 399.005 331.634 387.181C337.851 409.177 354.648 429.547 377.565 434.974L377.56 434.968Z" fill="#FCC7DD"/>
<path d="M512.251 105.4C514.263 113.292 512.069 124.509 512.95 132.941C513.848 141.567 520.121 148.573 522.394 157.017C527.764 176.962 522.934 195.94 508.546 210.617C506.023 213.191 499.039 217.123 497.937 218.629C495.88 221.425 499.346 226.124 500.318 228.749C517.058 274.23 529.793 316.807 513.939 364.969C505.12 391.761 487.379 410.899 462.893 424.405C461.376 424.843 462.064 421.212 461.825 419.928C458.927 404.586 446.607 403.358 433.197 404.637C417.138 406.171 387.368 422.053 377.571 434.974C377.173 435.196 376.764 435.4 376.332 435.52C373.946 436.196 366.075 432.258 363.444 430.826C347.829 422.286 336.135 406.381 331.202 389.471L331.64 387.187C340.641 370.413 342.817 350.786 342.817 331.95C356.972 337.586 373.787 348.371 389.129 349.871C400.295 350.962 408.501 345.314 404.375 333.382C400.415 321.926 372.9 294.572 363.592 283.543C356.898 275.611 350.642 267.314 344.05 259.325C343.834 256.996 344.579 254.78 346.283 252.671C353.375 242.37 360.2 231.926 366.769 221.345C373.775 209.469 371.945 204.077 366.223 192.213C358.825 179.49 352.841 166.194 348.278 152.323C331.066 88.6769 401.148 31.7353 450.608 85.9494C462.387 95.6774 468.831 87.7109 475.889 77.4943C495.323 55.6234 509.291 88.9496 512.257 105.4H512.251Z" fill="white"/>
<path d="M414.053 153.375C433.737 151.772 435.021 171.007 415.109 171.239C398.267 171.438 395.658 154.869 414.053 153.375Z" fill="#F497AA"/>
<path d="M398.193 149.312C395.778 146.902 400.244 139.856 402.068 137.663C408.04 130.475 416.933 128.77 424.69 134.294C427.537 136.322 433.844 143.726 430.992 147.346C427.855 151.335 422.695 142.533 420.604 140.862C416.842 137.856 411.279 139.311 408.04 142.396C405.955 144.385 402.114 153.227 398.193 149.312Z" fill="#010101"/>
<path d="M494.09 152.721C496.232 152.38 498.363 152.477 500.494 152.846C516.399 155.63 508.16 172.347 492.118 168.052C480.895 165.046 484.066 154.323 494.096 152.721H494.09Z" fill="#F497AA"/>
<path d="M495.897 131.077C501.722 130.958 507.057 136.226 507.751 141.874C507.978 143.732 508.148 146.147 505.705 146.374C501.352 146.783 500.704 139.078 495.812 139.016C489.061 138.93 488.101 147.783 484.112 147.465C478.73 147.039 483.81 138.038 485.856 135.794C488.231 133.197 492.374 131.146 495.897 131.072V131.077Z" fill="#020202"/>
<path d="M460.569 145.891C467.581 144.783 474.986 148.744 479.975 153.494C486.834 160.023 483.208 164.853 477.156 169.927C469.474 176.376 462.677 177.081 453.887 172.126C449.926 169.893 443.397 164.097 443.982 159.142C444.602 153.892 455.614 146.67 460.564 145.886L460.569 145.891Z" fill="#040302"/>
<path d="M460.569 149.613C463.587 149.096 466.451 149.346 469.218 150.596C471.394 151.579 479.139 157.239 479.725 159.375C480.56 162.415 471.843 169.648 469.138 170.597C462.564 172.899 449.829 167.342 447.948 160.642C446.806 156.591 457.023 150.221 460.569 149.613Z" fill="#FFAF69"/>
<path d="M449.971 158.244C451.864 157.636 456.739 159.29 459.154 159.42C465.172 159.75 471.19 159.142 477.173 158.778C480.878 160.409 477.458 162.415 475.156 162.96C469.888 164.222 455.415 164.165 450.625 161.739C449.005 160.921 447.96 158.881 449.966 158.238L449.971 158.244Z" fill="#0A0704"/>
</g>
<defs>
<clipPath id="clip0_0_49198">
<rect width="601" height="482" fill="white"/>
</clipPath>
</defs>
</svg>
