<svg width="972" height="624" viewBox="0 0 972 624" fill="none" xmlns="http://www.w3.org/2000/svg">
<ellipse cx="781.11" cy="598.212" rx="145.746" ry="24.8089" fill="#CEDDFF"/>
<path d="M270.643 3.87489C271.66 4.62819 279.303 -0.804387 283.911 1.82392C285.159 2.53324 285.181 4.41924 286.589 4.90862C288.47 5.56844 290.806 4.93061 293.297 5.93685C299.274 8.35621 297.064 15.5208 293.578 19.3863C337.99 24.8519 386.872 52.8341 400.503 97.7133C409.806 128.351 406.744 159.121 393.465 187.989C392.062 191.04 380.609 209.774 381.533 210.676C386.833 210.351 392.073 211.204 397.286 211.962C428.936 216.576 520.773 232.763 539.803 257.43C552.186 273.475 535.58 280.854 521.559 283.103C511.442 284.725 501.044 283.57 490.96 285.484L416.712 287.644C415.899 288.376 425.004 305.058 426.016 307.461C440.67 342.405 443.227 380.57 432.389 417.103C422.607 450.083 396.263 472.457 367.319 488.963C372.152 511.199 364.333 550.893 339.546 558.421C312.223 566.718 296.767 536.119 290.35 514.592C282.042 514.191 273.893 515.626 265.502 515.246C224.582 513.404 173.242 492.004 145.705 461.349C102.134 412.852 97.6641 348.799 116.519 288.321C96.1025 277.005 76.2142 264.611 57.816 250.216C42.2331 238.02 0.466064 201.565 0.00418508 181.495C-0.303734 167.996 16.4559 169.799 25.1381 171.856C48.1441 177.299 70.3198 191.722 92.0996 200.536C107.397 206.728 123.546 211.528 139.662 215.075C125.91 202.681 116.805 187.576 117.64 168.315C118.482 148.872 130.798 135.989 134.548 118.173C136.693 107.979 136.225 97.8398 139.123 87.5684C150.148 48.5287 192.712 26.8369 229.558 18.5945C233.055 17.8137 239.263 18.0997 242.243 16.9834C245.839 15.6363 252.503 2.61022 263.055 0.322818C269.417 -1.05732 268.581 2.34079 270.643 3.86939V3.87489Z" fill="black"/>
<path d="M144.066 104.048C147.145 57.3429 193.888 32.7314 235.084 25.2148C238.751 24.544 256.286 24.6485 255.093 19.9637C254.571 17.9017 249.71 19.2709 250.711 16.6646C251.821 13.7723 266.085 3.27009 264.985 6.75067C264.512 9.43397 254.697 17.9787 260.064 19.3974C263.407 20.2826 273.513 6.81116 279.276 8.41124C279.732 11.4244 275.608 12.4197 275.02 14.6961C274.475 16.7855 276.169 19.2159 275.998 19.3864C275.707 19.6723 267.536 20.893 272.661 24.3736C273.953 25.2533 296.024 26.617 300.423 27.3923C340.903 34.5184 384.622 62.3466 395.273 104.037C404.863 141.581 394.734 178.943 371.998 209.4C363.948 211.242 347.353 207.498 340.452 209.735C338.154 210.483 338.594 213.024 338.643 215.075C378.338 215.998 417.872 221.849 456.483 230.811C474.859 235.078 524.665 247.884 534.816 263.506C540.748 272.639 524.841 274.646 518.38 275.531C495.083 278.72 468.365 276.592 444.689 277.698C424.833 280.854 401.772 277.401 382.016 279.886C376.292 280.606 375.308 284.972 381.213 286.292C386.783 287.54 406.083 284.939 409.102 288.343C429.414 325.502 438.244 367.077 427.379 408.8C406.419 489.288 293.198 522.719 220.424 499.845C181.286 487.545 143.318 459.304 127.57 420.655C137.473 432.564 153.815 444.733 167.853 451.276C168.991 451.804 172.906 454.234 173.747 452.535L176.568 453.184C194.955 494.319 267.14 520.261 261.081 452.711L262.791 450.336C287.677 444.458 308.022 434.555 325.48 415.733C374.945 362.419 361.561 298.741 319.294 245.965C313.257 238.427 288.244 215.393 287.029 208.977C286.468 206.018 286.814 202.835 287.826 199.986C291.383 189.99 305.515 173.384 311.343 163.042C328.438 132.723 333.794 97.7848 312.707 67.8561C290.899 36.9103 248.825 38.9447 221.101 60.7025C214.426 65.9426 204.237 80.9537 194.675 74.8448C188.274 70.7594 185.3 59.3609 176.799 60.3066C159.396 62.2366 147.613 89.1906 144.055 104.037L144.066 104.048Z" fill="#81ABFF"/>
<path d="M147.365 223.883L119.339 282.135C97.7736 269.67 76.1093 255.984 56.6939 240.34C41.8258 228.359 23.818 211.649 13.4422 195.643C5.9367 184.068 1.48287 174.6 20.9863 178.201C38.2517 181.396 60.8728 195.032 77.3575 202.087C99.8631 211.715 123.149 219.688 147.365 223.889V223.883Z" fill="#81ABFF"/>
<path d="M360.633 493.219V512.459C360.633 522.587 350.631 544.119 341.212 549.107C323.413 558.531 310.673 543.212 303.618 528.795C302.106 525.699 295.7 513.459 299.819 512.112C305.224 510.347 314.775 509.66 321.065 508.082C334.861 504.612 348.14 500.054 360.627 493.225L360.633 493.219Z" fill="#FAB476"/>
<path d="M262.791 450.341L260.201 449.214C252.3 422.216 209.103 384.469 180.978 402.575C163.751 413.666 167.122 433.84 174.869 449.852L173.742 452.541C174.017 453.613 173.896 455.114 173.132 455.202C164.196 456.225 130.936 431.283 127.571 420.66C108.98 398.298 111.966 336.615 118.212 309.611C125.322 278.869 139.706 257.985 152.336 230.504C154.046 226.781 157.791 220.227 155.135 216.642C153.892 214.965 142.813 208.889 139.618 205.782C125.426 191.992 121.682 175.633 126.79 156.586C130.017 144.55 137.996 134.592 141.075 122.501C142.675 116.222 142.626 110.047 144.061 104.053C147.618 78.4134 172.136 36.6244 195.142 72.5025C199.035 75.6367 203.473 73.5362 206.904 70.8694C242.408 31.2743 305.487 29.4268 324.82 86.9032C337.308 124.018 318.189 160.798 296.052 189.484C289.712 198.667 284.895 207.833 294.578 216.383C325.909 247.373 355.139 284.054 358.977 330.473C362.815 376.87 335.202 421.842 293.616 442.044C284.697 446.377 272.205 452.172 262.786 450.341H262.791Z" fill="white"/>
<path d="M250.409 90.01C269.638 86.6449 270.358 117.074 254.775 126.268C229.19 141.356 227.442 94.0295 250.409 90.01Z" fill="#040404"/>
<path d="M253.637 94.156C261.582 91.5057 260.851 104.807 258.376 108.694C256.199 112.114 251.481 114.842 247.874 111.839C246.12 110.382 245.746 107.814 245.988 105.544C246.274 102.833 247.264 100.199 248.831 97.9665C249.749 96.6579 250.893 95.4647 252.312 94.7279C252.779 94.4859 253.219 94.299 253.642 94.156H253.637Z" fill="#FCFCFB"/>
<path d="M241.754 116.282C243.31 117.233 242.282 120.978 241.44 122.094C240.874 122.842 239.802 122.946 239.208 122.149C238.576 121.308 238.493 119.949 238.62 118.943C238.757 117.789 239.395 116.128 240.775 116.068C241.177 116.051 241.501 116.133 241.754 116.287V116.282Z" fill="#F1F1F1"/>
<path d="M173.748 119.438C173.363 120.076 172.577 121.171 171.191 121.984C170.509 122.38 169.866 122.606 169.349 122.738L167.474 121.11C174.259 101.568 155.476 123.436 166.22 123.716L167.15 124.937L167.754 126.097C164.879 130.062 163.18 134.312 163.851 139.228C153.783 146.37 148.444 135.109 149.659 125.58C150.571 118.383 159.017 104.9 167.441 106.418C172.428 107.314 176.954 114.743 173.748 119.438Z" fill="#060606"/>
<path d="M174.847 120.538C169.761 124.689 162.91 132.316 164.955 139.228H163.856C160.766 136.319 165.032 127.862 167.155 124.937C165.978 122.094 166.544 121.517 169.354 122.738C169.937 122.281 170.652 121.803 171.504 121.363C173.269 120.45 174.924 120.082 176.123 119.928C175.7 120.131 175.276 120.335 174.853 120.538H174.847Z" fill="#060606"/>
<path d="M168.578 122.023C166.071 125.415 162.107 127.192 160.287 123.601C159.698 122.435 159.643 121.066 159.808 119.774C160.1 117.465 160.655 115.254 161.898 113.269C163.58 110.575 167.105 109.134 169.414 111.9C171.867 114.836 170.783 119.048 168.584 122.023H168.578Z" fill="#F4F4F4"/>
<path d="M157.252 130.441C157.934 131.172 156.741 134.801 155.608 134.812C152.331 134.845 155.3 128.346 157.252 130.441Z" fill="#F4F4F4"/>
<path d="M164.95 139.228C161.057 133.212 168.755 122.517 174.842 120.538C183.112 113.786 189.688 113.89 199.31 117.503C217.934 124.491 214.871 133.487 201.801 144.754C195.131 150.505 188.022 155.509 178.916 152.182C174.325 150.505 166.302 143.824 164.944 139.228H164.95Z" fill="#090705"/>
<path d="M206.399 127.455C210.775 132.503 193.851 146.766 189.463 147.789C182.579 149.394 169.124 143.214 168.486 136.313C168.019 131.26 179.945 121.731 184.443 120.796C190.266 119.587 202.577 123.051 206.399 127.455Z" fill="#FAB476"/>
<path d="M200.944 127.345C202.83 127.158 203.973 129.094 203.38 130.93C202.038 135.065 178.576 134.246 173.973 136.797C172.764 137.462 170.669 136.335 170.454 135.362C169.129 129.281 197.111 128.23 200.944 127.345Z" fill="#171009"/>
<path d="M262.791 450.341C266.458 464.979 263.583 483.701 249.924 491.894C221.238 509.105 186.103 476.949 173.742 452.541C165.626 436.507 160.963 415.36 177.134 402.619C206.986 379.102 255.296 420.429 262.785 450.347L262.791 450.341Z" fill="#020101"/>
<path d="M192.151 404.434C223.834 399.353 268.686 445.371 253.345 476.619C247.874 487.764 237.377 489.936 225.924 488.864C202.131 486.637 171.576 449.258 172.714 425.763C173.209 415.552 182.155 406.039 192.151 404.434Z" fill="#FAB476"/>
<path d="M672.863 116.145C673.401 116.639 684.404 112.565 686.917 112.07C735.612 102.431 787.057 118.102 819.625 155.701C849.548 190.243 850.191 235.865 842.158 278.841C860.275 270.22 877.107 258.854 894.889 249.688C909.971 241.908 946.267 222.459 943.271 255.203C942.111 267.844 927.748 292.846 920.655 304.036C915.08 312.834 908.938 321.554 901.531 328.867C922.008 345.528 942.33 376.809 944.425 403.582C944.689 406.969 943.612 424.317 944.387 425.054C944.645 425.301 948.94 425.246 951.431 426.263C976.163 436.392 973.689 500.84 966.937 521.812C954.614 560.076 911.077 563.276 905.369 519.607C901.812 524.105 898.018 528.333 893.833 532.259C869.266 555.309 830.605 574.158 797.306 579.745C761.868 585.689 724.923 580.36 694.846 560.28C697.986 570.001 695.159 584.44 684.454 587.827C660.188 595.498 623.618 564.277 611.922 544.801C596.779 519.579 600.315 488.144 636.572 498.707C614.567 464.726 613.759 417.312 623.381 378.915C603.57 374.692 584.517 358.939 582.664 337.704C581.856 328.427 584.198 319.41 583.659 310.315C582.67 293.699 574.504 280.771 570.325 265.392C555.875 212.21 578.315 172.406 619.736 140.531C622.584 138.337 627.428 136.627 629.605 134.466C631.425 132.662 632.927 127.708 635.472 126.597C637.743 125.608 640.751 126.548 641.895 125.866C642.17 125.707 643.561 121.467 644.446 120.17C651.407 109.981 657.34 118.146 658.539 117.244C659.276 116.689 660.639 108.601 666.6 108.733C673.27 108.881 672.219 115.562 672.857 116.145H672.863Z" fill="black"/>
<path d="M845.446 555.88C893.234 522.994 890.364 470.279 845.809 436.237C837.654 430.007 826.47 422.689 816.864 419.56L816.386 417.058C829.396 406.045 830.913 401.261 812.609 416.201C771.16 445.211 725.467 471.928 677.624 487.132C649.219 496.161 633.828 485.994 658.522 460.739C673.61 445.31 689.864 431.465 706.585 417.85C726.793 399.172 746.736 380.07 766.652 360.929C788.937 339.507 799.214 325.458 775.438 347.612L772.892 347.001C767.977 336.565 766.432 333.414 769.285 321.955C778.908 283.267 792.605 256.753 769.401 218.022C749.875 185.437 702.731 181.594 675.04 205.721C666.6 213.078 659.776 227.545 650.819 233.17C632.569 244.629 620.94 207.244 596.702 215.333C579.415 221.106 575.615 243.221 577.21 259.052C560.06 213.221 593.672 167.677 629.435 142.526C630.139 146.623 630.733 166.401 635.027 167.71C641.757 169.761 636.754 153.397 636.528 149.707C636.193 144.209 636.231 137.891 637.688 132.629C639.272 132.365 639.211 134.57 639.53 135.697C640.718 139.931 640.344 147.706 641.526 150.202C642.972 153.26 647.569 152.605 647.569 150.758V133.168C647.569 132.255 650.681 120.362 653.057 122.721C655.432 125.079 651.22 146.98 659.743 140.937C662.278 139.139 662.129 121.357 666.814 118.333C670.064 121.72 666.116 134.867 671.213 134.839C676.448 134.812 673.308 123.738 676.91 121.83C679.582 120.417 695.049 117.541 698.706 117.244C742.144 113.686 784.208 125.354 813.032 158.989C842.433 193.289 841.993 233.192 835.235 275.762C834.498 280.408 829.868 295.661 831.683 298.641C861.221 310.975 892.008 325.392 912.479 350.867C945.723 392.243 943.1 433.724 922.244 480.402C907.882 512.546 877.107 540.996 845.446 555.864V555.88Z" fill="#FCC7DD"/>
<path d="M837.748 294.221C838.748 292.488 839.04 289.816 840.074 288.31C842.086 285.373 865.103 275.338 870.371 272.435C882.28 265.87 894.405 257.265 906.617 251.519C941.945 234.891 941.973 247.362 927.369 276.669C919.005 293.451 907.981 309.127 896.456 323.841C877.942 311.986 859.093 300.434 837.748 294.215V294.221Z" fill="#F8C6DC"/>
<path d="M943.293 432.757C953.026 434.5 957.446 445.437 960.064 453.899C966.931 476.091 968.202 532.501 941.061 542.107C924.422 547.996 917.939 538.918 913.914 524.231C913.282 521.927 911.198 514.339 911.588 512.673C911.874 511.447 918.478 503.743 919.979 501.242C932.18 480.924 940.131 456.214 943.288 432.751L943.293 432.757Z" fill="#FAB476"/>
<path d="M620.901 505.558C641.24 502.116 673.957 534.101 682.93 550.745C691.563 566.751 692.031 586.705 668.205 580.855C649.499 576.264 620.632 550.838 614.05 532.776C610.833 523.956 608.348 507.68 620.901 505.558Z" fill="#FAB476"/>
<path d="M816.864 419.56C785.676 446.086 718.335 482.541 678.916 493.236C663.922 497.305 636.335 501.055 641.46 476.663C643.962 464.764 668.733 443.006 678.333 434.39C710.445 405.556 741.336 376.386 772.892 347.007C775.471 344.61 783.73 336.125 786.034 335.372C790.493 333.915 791.796 337.615 789.437 341.019C764.848 366.235 739.659 390.907 713.541 414.628C695.412 431.096 674.682 445.481 658.527 464.055C638.221 487.402 650.472 492.119 675.507 485.433C690.051 481.551 708.146 473.452 721.959 467.024C757.947 450.286 793.094 428.721 824.529 404.582C826.25 403.582 829.159 406.122 828.867 407.86C828.664 409.058 818.717 417.977 816.864 419.555V419.56Z" fill="#020101"/>
<path d="M772.887 347.001C771.034 349.509 769.143 351.988 767.136 354.364C765.134 356.728 763.127 359.076 760.9 361.188C730.922 389.566 699.679 417.982 669.624 445.255C661.162 452.475 631.211 480.715 647.393 491.305C663.834 502.061 713.211 478.664 728.25 471.428C758.057 457.088 787.057 440.312 813.004 419.918L816.864 419.56L819.79 418.301C879.905 441.384 911.687 518.149 845.446 555.88C808.677 581.185 723.752 579.469 690.172 548.21C685.707 544.053 679.659 532.941 674.512 527.283C667.062 519.095 657.219 513.063 650.302 505.321C628.473 480.897 623.53 440.724 625.592 409.13C625.85 405.165 628.726 382.852 629.924 380.685C631.211 378.354 643.588 382.764 641.922 376.309C641.07 372.998 626.499 371.827 622.27 370.651C613.742 368.281 605.247 364.025 599.166 357.476C583.121 340.183 592.32 324.149 590.263 303.711C588.713 288.266 578.595 272.864 577.204 259.052C568.341 231.724 591.924 198.067 620.208 218.132C627.758 226.05 635.967 231.042 644.831 233.11C654.366 228.276 662.284 220.337 668.579 209.29C694.252 180.06 745.675 180.554 768.675 212.919C793.457 247.802 783.472 281.893 772.211 319.349C769.148 328.284 769.302 336.246 774.097 344.389L772.893 346.996L772.887 347.001Z" fill="white"/>
<path d="M694.015 290.657C687.967 284.648 701.763 263.22 715.058 264.627C722.025 265.364 733.974 276.053 730.57 283.229C727.507 289.679 719.413 278.676 716.549 277.483C702.692 271.726 702.467 299.059 694.015 290.657Z" fill="#040404"/>
<path d="M713.261 293.429C735.827 290.278 734.699 310.37 715.79 313.526C692.778 317.37 694.208 296.085 713.261 293.429Z" fill="#F498AB"/>
<path d="M609.915 282.333C620.736 280.546 633.113 298.878 627.84 302.545C622.562 306.218 619.147 292.395 611.845 293.077C607.386 293.495 606.077 305.405 603.636 306.922C596.861 311.145 599.083 293.726 600.831 289.827C602.288 286.583 606.418 282.905 609.909 282.327L609.915 282.333Z" fill="#050404"/>
<path d="M614.303 308.781C630.211 306.235 635.176 324.347 619.268 326.948C602.531 329.686 595.24 311.832 614.303 308.781Z" fill="#F498AB"/>
<path d="M649.467 287.897C659.073 286.121 676.982 292.643 679.021 302.996C680.424 310.122 668.365 329.703 661.074 331.374C651.474 333.579 637.298 324.529 632.168 316.781C626.202 307.764 639.982 289.651 649.461 287.897H649.467Z" fill="#090605"/>
<path d="M652.831 292.263C657.94 291.884 673.451 299.285 673.984 304.723C674.49 309.836 663.532 326.651 657.956 327.206C652.787 327.718 636.33 317.496 635.456 312.322C634.241 305.135 645.43 292.813 652.826 292.263H652.831Z" fill="#F7B276"/>
<path d="M660.53 303.365C664.615 303.057 669.63 301.341 669.63 306.856C669.63 310.222 661.8 322.835 658.869 323.704C652.271 325.667 633.466 312.861 638.739 307.956C641.472 305.416 656.175 303.689 660.53 303.359V303.365Z" fill="#0B0502"/>
<path d="M662.949 309.633C659.87 317.111 657.55 323.055 649.786 315.676C653.046 311.8 657.704 308.974 662.949 309.633Z" fill="#E33927"/>
<ellipse cx="312.727" cy="573.403" rx="125.755" ry="11.4429" fill="#CEDDFF"/>
</svg>
