<svg width="218" height="307" viewBox="0 0 218 307" fill="none" xmlns="http://www.w3.org/2000/svg">
<path d="M115.283 2.83339C117.653 1.50339 120.623 -0.556608 123.023 1.96339C125.423 4.48339 124.233 8.82339 123.523 11.8334C126.943 11.9534 130.443 12.2034 133.853 12.6134C158.333 15.5934 177.993 27.7234 189.843 49.5534C201.683 71.3534 199.203 103.083 189.003 125.173C187.583 128.243 185.653 131.013 184.253 134.083C195.463 148.483 203.393 165.153 209.443 182.333C216.313 201.833 220.753 219.233 214.673 239.783C210.233 254.793 200.063 267.503 186.713 275.523C194.503 276.973 207.623 281.283 207.703 291.023C207.783 300.863 187.913 304.253 180.593 304.873C170.883 305.693 145.553 304.183 141.623 293.133C141.483 292.733 141.293 290.903 141.113 290.883C137.463 291.493 133.793 291.483 130.123 291.633C127.903 291.723 125.503 292.283 123.263 291.643C124.253 301.683 111.703 304.223 104.123 305.353C91.4829 307.243 64.603 307.113 55.573 296.503C46.543 285.893 64.103 279.763 71.8029 277.523C69.6829 275.783 67.3429 274.343 65.1929 272.643C59.8729 268.423 54.763 263.593 50.583 258.273C41.943 247.263 37.763 233.573 36.833 219.683L29.423 224.133C22.613 227.263 15.473 230.743 7.72295 230.183C2.16295 229.783 -1.15705 226.623 0.372951 220.823C1.75295 215.593 13.833 203.123 17.843 198.063C23.023 191.513 28.323 184.433 33.0429 177.533C42.393 163.883 49.4729 148.803 59.0229 135.293L58.943 134.493C47.9729 118.603 40.6329 100.863 42.083 81.1434C43.743 58.5334 55.1229 39.6234 72.8329 25.9534C82.2629 18.6734 92.9429 14.3734 104.743 12.5234C105.623 9.05339 105.993 5.10339 108.283 2.19339C110.573 -0.716608 113.923 -0.946608 115.283 2.81339V2.83339ZM120.283 9.95339C120.453 8.43339 120.153 6.63339 120.283 5.08339C119.213 4.85339 116.813 6.58339 116.603 7.51339C116.353 8.60339 116.623 10.0334 116.533 11.1934C116.393 13.1234 116.273 16.8334 115.583 18.4934C115.043 19.7734 113.913 20.7034 112.783 19.4534C111.883 18.4534 112.753 15.6034 112.793 14.2134C112.883 11.6734 112.813 8.57339 112.423 6.07339C112.383 5.82339 112.043 3.84339 111.543 4.33339C111.363 4.51339 110.263 7.30339 110.113 7.77339C109.033 11.2134 108.373 16.6134 108.283 20.2034C108.253 21.3534 109.363 24.7534 106.733 24.2734C104.103 23.7934 104.893 18.2134 104.423 16.3134C95.863 18.6534 87.6329 20.8734 80.0929 25.7034C64.0529 35.9834 50.493 53.7134 47.173 72.7234C43.7929 92.1034 47.423 107.893 57.3829 124.563C58.993 127.263 61.503 130.103 62.873 132.813C63.323 133.713 63.833 134.473 63.533 135.553C52.863 150.203 45.113 166.683 34.913 181.633C29.153 190.063 22.673 198.733 16.113 206.553C13.453 209.723 10.333 212.743 7.74295 215.923C5.69295 218.453 0.582951 225.303 6.77295 226.143C12.963 226.983 21.543 223.033 27.113 220.053C28.243 219.443 36.2329 214.673 36.4729 214.183C36.533 194.593 41.1129 174.563 50.743 157.503C51.4329 156.283 55.173 149.783 56.013 149.523C57.2229 149.153 58.533 150.243 58.233 151.473C41.553 178.733 33.623 218.113 48.663 247.713C55.633 261.433 72.8129 275.293 86.8929 281.183C95.5529 284.803 107.203 286.053 116.663 286.883C140.693 288.973 168.103 283.183 188.363 269.903C203.723 259.833 213.373 239.303 213.473 221.073C213.593 199.733 201.083 168.433 190.273 150.063C187.063 144.613 183.213 139.573 180.013 134.123C182.733 128.113 185.653 122.203 187.803 115.943C196.263 91.3234 196.503 63.4134 180.093 42.0734C165.443 23.0234 147.603 17.0234 124.163 15.5634C122.333 15.4534 116.793 16.4934 117.333 13.4934C117.593 12.0434 119.553 12.0334 119.813 11.6534C119.863 11.5834 120.273 10.1034 120.283 9.93339V9.95339ZM181.393 278.473C172.493 282.903 162.923 286.493 153.213 288.723C151.763 289.053 146.473 289.713 145.683 290.183C144.113 291.123 146.833 294.243 147.783 294.993C157.973 303.013 189.073 302.203 199.953 295.493C202.573 293.873 203.993 292.483 202.763 289.223C200.463 283.113 187.163 279.933 181.393 278.473ZM117.193 296.303C117.783 295.683 118.273 294.793 118.473 293.963C118.603 293.403 118.903 291.623 118.363 291.443C115.343 290.883 112.253 290.803 109.223 290.333C101.433 289.133 93.1329 287.703 85.813 284.763C83.993 284.033 78.923 281.143 77.673 280.913C74.473 280.313 63.693 284.353 60.653 286.103C56.073 288.733 55.773 291.813 59.823 295.273C65.833 300.403 79.1929 302.113 86.923 302.403C94.0229 302.663 112.173 301.673 117.193 296.303Z" fill="#080707"/>
<path d="M120.283 9.95334C120.263 10.1133 119.863 11.5933 119.813 11.6733C119.553 12.0533 117.593 12.0633 117.333 13.5133C116.793 16.5133 122.333 15.4633 124.163 15.5833C147.603 17.0433 165.443 23.0433 180.093 42.0933C196.503 63.4233 196.263 91.3333 187.803 115.963C185.653 122.223 182.733 128.123 180.013 134.143C183.213 139.593 187.062 144.633 190.273 150.083C201.083 168.443 213.593 199.753 213.473 221.093C213.373 239.333 203.723 259.863 188.363 269.923C168.103 283.203 140.693 288.993 116.663 286.903C107.203 286.083 95.5425 284.833 86.8925 281.203C72.8125 275.313 55.6325 261.453 48.6625 247.733C33.6225 218.133 41.5525 178.753 58.2325 151.493C58.5425 150.263 57.2325 149.173 56.0125 149.543C55.1825 149.793 51.4325 156.303 50.7425 157.523C41.1125 174.583 36.5325 194.623 36.4725 214.203C36.2325 214.703 28.2425 219.473 27.1125 220.073C21.5425 223.063 13.1725 227.043 6.77251 226.163C0.372514 225.283 5.69251 218.473 7.74251 215.943C10.3225 212.763 13.4425 209.743 16.1125 206.573C22.6725 198.753 29.1525 190.083 34.9125 181.653C45.1125 166.713 52.8625 150.223 63.5325 135.573C63.8425 134.493 63.3325 133.733 62.8725 132.833C61.5025 130.123 58.9925 127.273 57.3825 124.583C47.4125 107.913 43.7825 92.1233 47.1725 72.7433C50.4925 53.7333 64.0525 36.0033 80.0925 25.7233C87.6325 20.8833 95.8625 18.6733 104.423 16.3333C104.903 18.2333 104.143 23.8233 106.733 24.2933C109.323 24.7633 108.263 21.3633 108.283 20.2233C108.373 16.6333 109.023 11.2333 110.113 7.79334C110.263 7.31334 111.363 4.53334 111.543 4.35334C112.043 3.86334 112.383 5.83334 112.423 6.09334C112.813 8.59334 112.883 11.6933 112.793 14.2333C112.743 15.6233 111.883 18.4733 112.783 19.4733C113.913 20.7333 115.043 19.8033 115.583 18.5133C116.273 16.8633 116.383 13.1533 116.533 11.2133C116.623 10.0533 116.353 8.62334 116.603 7.53334C116.813 6.59334 119.213 4.86334 120.283 5.10334C120.153 6.66334 120.453 8.45334 120.283 9.97334V9.95334ZM186.973 176.973C188.723 176.853 193.943 176.123 195.393 175.273C197.323 174.153 196.683 171.873 194.353 171.963C190.643 172.113 186.753 173.023 182.843 172.983C159.703 172.713 135.403 151.133 127.333 130.313C126.303 127.663 125.233 124.463 125.023 121.623C124.863 119.413 125.143 113.573 128.373 114.023C132.153 114.553 140.093 123.343 143.253 126.133C149.683 131.813 159.843 139.303 168.183 141.423C170.933 142.123 177.703 143.263 180.233 142.383C182.163 141.703 181.793 139.383 179.833 139.013C177.183 138.523 174.183 138.543 171.483 138.003L169.803 134.813C167.533 127.583 174.812 119.703 177.523 113.183C185.493 94.0133 184.812 75.1733 176.523 56.3833C169.843 41.2433 155.343 29.5333 138.343 37.2633C125.813 42.9633 120.843 60.7333 104.623 51.5933C99.1425 48.5033 93.5025 42.2633 87.1525 41.0833C70.6625 38.0433 58.6525 53.6233 54.4025 67.7333C50.1525 81.8433 54.8625 103.763 62.1225 116.333C67.7925 126.163 77.9625 132.723 72.1925 145.483C71.1525 147.783 69.6025 149.763 68.4425 151.973C56.8925 173.953 46.3425 205.293 54.2625 229.863C59.4225 245.843 66.3725 257.243 78.8025 268.523C105.393 292.653 161.783 286.033 184.853 259.653C198.543 244.003 201.423 227.533 197.893 207.133C196.053 196.523 192.613 186.123 186.973 176.953V176.973Z" fill="#F9C5DB"/>
<path d="M117.192 296.303C112.172 301.663 94.0224 302.663 86.9224 302.403C79.1924 302.123 65.8324 300.403 59.8224 295.273C55.7724 291.813 56.0724 288.733 60.6524 286.103C63.6924 284.353 74.4824 280.313 77.6724 280.913C78.9124 281.143 83.9924 284.033 85.8124 284.763C93.1324 287.693 101.432 289.123 109.222 290.333C112.252 290.803 115.342 290.883 118.362 291.443C118.902 291.623 118.602 293.403 118.472 293.963C118.272 294.803 117.782 295.683 117.192 296.303Z" fill="#F6B274"/>
<path d="M181.393 278.473C187.163 279.933 200.463 283.113 202.763 289.223C203.993 292.493 202.573 293.883 199.953 295.493C189.073 302.203 157.973 303.013 147.783 294.993C146.833 294.243 144.113 291.123 145.683 290.183C146.473 289.713 151.763 289.053 153.213 288.723C162.923 286.493 172.493 282.903 181.393 278.473Z" fill="#F6B274"/>
<path d="M186.973 176.973C192.613 186.143 196.053 196.533 197.893 207.153C201.433 227.553 198.543 244.023 184.853 259.673C161.783 286.043 105.393 292.673 78.8025 268.543C66.3725 257.263 59.4125 245.863 54.2625 229.883C46.3325 205.313 56.8925 173.963 68.4425 151.993C69.6025 149.783 71.1525 147.793 72.1925 145.503C77.9625 132.743 67.7925 126.183 62.1225 116.353C54.8625 103.783 50.1725 81.7733 54.4025 67.7533C58.6325 53.7333 70.6625 38.0633 87.1525 41.1033C93.5025 42.2733 99.1525 48.5233 104.623 51.6133C120.843 60.7533 125.813 42.9933 138.343 37.2833C155.343 29.5433 169.843 41.2633 176.523 56.4033C184.812 75.1933 185.493 94.0333 177.523 113.203C174.813 119.713 167.533 127.593 169.803 134.833L171.483 138.023C157.783 135.293 148.373 124.583 138.483 115.953C135.193 113.083 129.003 107.873 124.643 111.043C118.923 115.223 121.513 125.953 123.653 131.523C132.803 155.413 160.333 178.763 186.973 177.003V176.973ZM148.443 66.6033C145.373 67.2333 143.123 74.0233 142.573 76.7233C140.783 85.5033 140.753 93.1433 152.103 91.9933C160.693 91.1233 161.213 84.9433 159.133 77.7833C157.863 73.4333 153.983 65.4633 148.443 66.6033ZM79.9925 72.8533C77.2825 73.3133 75.1725 76.7833 74.3025 79.1533C73.2225 82.1033 72.7725 87.2433 72.7925 90.4033C72.7925 91.3333 73.1325 94.2033 73.4325 95.0233C75.1225 99.5933 85.2825 98.1433 88.4725 96.0733C92.5925 93.3933 90.6525 86.7533 89.3125 82.8933C88.0425 79.2533 84.6825 72.0633 79.9925 72.8433V72.8533ZM122.383 107.373C125.213 104.903 130.373 96.9233 130.183 93.1933C129.953 88.7733 122.123 82.2833 117.883 81.8133C111.573 81.1133 101.783 90.7733 102.913 97.0333C103.563 100.613 109.493 107.773 112.813 109.363C116.463 111.103 119.563 109.833 122.383 107.373ZM150.203 95.1033C146.303 95.4333 139.103 98.3833 141.543 103.363C144.333 109.063 159.253 108.143 160.883 102.033C162.373 96.4433 154.203 94.7733 150.213 95.1033H150.203ZM84.7625 100.833C81.2425 100.933 75.1125 102.843 74.1925 106.763C73.1425 111.203 79.3925 113.103 82.7325 113.163C86.4025 113.233 92.6325 111.343 93.8625 107.443C95.3725 102.633 88.2725 100.743 84.7725 100.833H84.7625Z" fill="#FEFEFE"/>
<path d="M186.972 176.974C160.332 178.734 132.802 155.383 123.652 131.493C121.522 125.923 118.922 115.193 124.642 111.013C128.992 107.843 135.182 113.054 138.482 115.924C148.382 124.564 157.782 135.263 171.482 137.993C174.182 138.533 177.192 138.514 179.832 139.004C181.792 139.364 182.162 141.693 180.232 142.373C177.702 143.263 170.932 142.113 168.182 141.413C159.842 139.293 149.682 131.803 143.252 126.123C140.092 123.333 132.152 114.543 128.372 114.013C125.142 113.563 124.862 119.413 125.022 121.613C125.232 124.453 126.302 127.653 127.332 130.303C135.402 151.113 159.702 172.694 182.842 172.974C186.762 173.024 190.652 172.104 194.352 171.953C196.682 171.863 197.322 174.143 195.392 175.263C193.942 176.103 188.722 176.843 186.972 176.963V176.974Z" fill="#080707"/>
<path d="M148.443 66.6033C153.983 65.4733 157.863 73.4333 159.133 77.7833C161.223 84.9433 160.693 91.1233 152.103 91.9933C140.753 93.1433 140.793 85.4933 142.573 76.7233C143.123 74.0133 145.373 67.2333 148.443 66.6033ZM148.693 70.3333C146.733 70.6633 145.493 74.4533 145.503 76.1633C145.513 77.8733 147.163 81.1333 149.343 79.9933C152.493 78.3533 152.173 69.7333 148.693 70.3233V70.3333Z" fill="#080707"/>
<path d="M79.9926 72.8535C84.6826 72.0635 88.0426 79.2635 89.3126 82.9035C90.6526 86.7535 92.5926 93.4035 88.4726 96.0835C85.2826 98.1535 75.1226 99.6035 73.4326 95.0335C73.1326 94.2135 72.7926 91.3335 72.7926 90.4135C72.7726 87.2535 73.2226 82.1235 74.3026 79.1635C75.1726 76.7935 77.2726 73.3135 79.9926 72.8635V72.8535ZM81.9926 76.5835C78.9626 77.4535 81.3326 86.9335 85.3826 85.7335C87.7326 85.0335 86.0626 79.5735 85.0626 78.1635C84.4926 77.3635 83.0126 76.2835 81.9926 76.5835Z" fill="#080707"/>
<path d="M122.383 107.373C119.553 109.833 116.453 111.103 112.813 109.363C109.483 107.773 103.553 100.613 102.913 97.0334C101.783 90.7734 111.573 81.1134 117.883 81.8134C122.123 82.2834 129.953 88.7634 130.183 93.1934C130.383 96.9334 125.213 104.913 122.383 107.373ZM109.143 89.1234C107.723 90.6834 104.963 94.1534 105.403 96.2834C105.983 99.0834 112.713 106.743 115.473 107.203C118.013 107.623 120.833 105.323 122.413 103.523C124.243 101.423 128.283 94.4734 127.153 91.7834C124.413 89.5634 120.623 84.7334 116.883 84.5434C114.333 84.4134 110.793 87.3134 109.153 89.1234H109.143Z" fill="#080707"/>
<path d="M150.203 95.1033C154.193 94.7733 162.363 96.4433 160.873 102.033C159.243 108.153 144.323 109.073 141.533 103.363C139.093 98.3833 146.293 95.4233 150.193 95.1033H150.203Z" fill="#FE9BAD"/>
<path d="M84.7627 100.834C88.2627 100.744 95.3727 102.634 93.8527 107.444C92.6227 111.344 86.4027 113.234 82.7227 113.164C79.3927 113.104 73.1327 111.194 74.1827 106.764C75.1127 102.844 81.2427 100.934 84.7527 100.834H84.7627Z" fill="#FE9BAD"/>
<path d="M148.693 70.3336C152.183 69.7436 152.503 78.3636 149.343 80.0036C147.163 81.1336 145.523 77.9536 145.503 76.1736C145.483 74.3936 146.733 70.6736 148.693 70.3436V70.3336Z" fill="#FEFEFE"/>
<path d="M81.9927 76.5835C83.0127 76.2835 84.4927 77.3635 85.0627 78.1635C86.0627 79.5735 87.7327 85.0335 85.3827 85.7335C81.3327 86.9335 78.9727 77.4535 81.9927 76.5835Z" fill="#FEFEFE"/>
<path d="M109.143 89.1233C110.793 87.3133 114.323 84.4133 116.873 84.5433C120.613 84.7333 124.403 89.5633 127.143 91.7833C128.273 94.4733 124.233 101.423 122.403 103.523C120.823 105.333 118.013 107.623 115.463 107.203C112.703 106.753 105.973 99.0833 105.393 96.2833C104.953 94.1433 107.703 90.6833 109.133 89.1233H109.143ZM115.733 91.8533C114.033 91.9933 110.303 92.5233 108.793 93.1533C104.613 94.8933 108.113 99.4333 110.033 101.653C111.463 103.313 114.343 106.203 116.653 106.023C119.683 105.793 123.153 100.313 124.403 97.7733C125.103 96.3633 126.493 93.9333 124.903 92.7633C123.163 91.4833 117.893 91.6633 115.723 91.8433L115.733 91.8533Z" fill="#F6B274"/>
<path d="M115.733 91.8535C117.903 91.6735 123.173 91.4935 124.913 92.7735C126.503 93.9435 125.103 96.3735 124.413 97.7835C123.163 100.323 119.693 105.803 116.663 106.033C114.353 106.203 111.473 103.323 110.043 101.663C108.123 99.4435 104.623 94.9035 108.803 93.1635C110.313 92.5335 114.043 92.0035 115.743 91.8635L115.733 91.8535ZM114.973 95.5835C114.123 95.7035 110.413 97.0235 110.573 98.1035C110.653 98.6235 112.993 100.913 113.533 101.403C114.153 101.963 115.883 103.593 116.603 103.483C117.693 103.313 121.963 97.8035 121.753 96.9535C121.383 95.4435 116.233 95.4135 114.963 95.5935L114.973 95.5835Z" fill="#080707"/>
<path d="M114.973 95.5837C116.243 95.4037 121.393 95.4437 121.763 96.9437C121.973 97.8037 117.703 103.304 116.613 103.474C115.893 103.584 114.163 101.954 113.543 101.394C113.003 100.904 110.663 98.6137 110.583 98.0937C110.423 97.0237 114.133 95.7037 114.983 95.5737L114.973 95.5837Z" fill="#EC3928"/>
</svg>
