<svg width="358" height="298" viewBox="0 0 358 298" fill="none" xmlns="http://www.w3.org/2000/svg">
<path d="M63.5449 105.219C62.929 104.603 59.8143 101.325 57.4551 96.0479L63.5449 105.219Z" fill="white"/>
<path d="M63.5449 105.219C62.929 104.603 59.8143 101.325 57.4551 96.0479" stroke="black" stroke-width="2.13" stroke-linecap="round" stroke-linejoin="round"/>
<path d="M205.737 168.444C203.552 163.562 201.855 160.563 201.855 160.563L205.737 168.444Z" fill="white"/>
<path d="M205.737 168.444C203.552 163.562 201.855 160.563 201.855 160.563" stroke="black" stroke-width="2.13" stroke-linecap="round" stroke-linejoin="round"/>
<path d="M46.6578 130.084C45.5072 132.049 43.3804 136.838 41.2188 143.44L46.6578 130.084Z" fill="white"/>
<path d="M46.6578 130.084C45.5072 132.049 43.3804 136.838 41.2188 143.44" stroke="black" stroke-width="2.13" stroke-linecap="round" stroke-linejoin="round"/>
<path d="M244.648 150.345C233.223 142.58 215.5 133.967 190.281 124.876C199.508 118.936 214.931 92.8163 204.39 60.2565C195.266 32.0791 171.198 20.0943 162.04 16.4559C160.134 9.46968 157.414 7.02856 155.392 7.02856C153.044 7.02856 153.753 12.8872 153.753 12.8872C152.579 9.36506 147.652 1.40237 144.851 3.02978C142.096 4.63395 145.618 9.59755 145.781 9.81841C142.027 6.07537 135.472 0.216689 132.892 2.08821C130.312 3.97136 135.948 10.295 135.948 10.295C133.182 9.6208 105.697 6.54034 86.0095 22.9539C69.5297 36.6939 65.8456 54.8279 65.3807 59.3033C64.6369 61.7561 56.5713 67.8472 54.828 79.0066C53.7472 85.9463 55.1883 91.8515 57.1757 96.3269C43.7757 87.8062 8.4104 66.2082 2.55299 71.5089C-4.46661 77.8558 16.29 114.6 40.9516 143.731C36.3493 157.773 31.5378 180.069 35.3731 200.958C41.1259 232.344 63.1492 249.652 69.5994 254.662C77.293 260.626 89.1357 266.845 104.43 270.227C116.017 272.796 129.58 273.738 144.828 271.692C147.443 271.343 150.116 270.902 152.835 270.367C186.027 263.846 203.227 247.676 210.77 227.868C212.176 224.172 213.245 220.347 214.024 216.43C214.977 211.629 215.093 206.619 214.675 201.655C213.582 188.915 208.922 176.477 205.47 168.747C212.037 170.711 223.24 173.861 233.886 175.861C246.937 178.325 259.14 179.057 260.918 173.757C262.975 167.561 258.268 159.552 244.682 150.345H244.648ZM136.471 254.407C98.2356 258.533 101.92 204.666 127.372 201.539C156.717 197.935 171.476 250.629 136.471 254.407Z" fill="white"/>
<path d="M136.773 254.116C98.5372 258.243 102.221 204.375 127.673 201.248C157.018 197.645 171.778 250.338 136.773 254.116Z" fill="#FAB476"/>
<path d="M145.095 271.39C144.246 279.434 140.516 296.615 124.059 295.824C108.858 295.092 105.453 276.958 104.697 269.925C116.284 272.494 129.847 273.436 145.095 271.39Z" fill="#FAB476"/>
<path d="M345.386 202.539C344.653 210.618 340.539 217.871 333.961 222.556C335.321 228.926 336.704 241.027 331.137 253.942C329.708 257.266 327.988 260.254 326.093 262.927C317.528 275.028 305.221 280.84 298.282 282.817C297.376 283.072 296.562 283.258 295.865 283.398C272.203 287.827 255.711 281.445 246.402 275.865C241.463 272.901 238.558 270.158 237.686 269.379C234.397 266.426 227.947 260.196 223.24 251.163C220.288 245.502 218.022 238.737 217.65 230.984C215.105 229.67 212.711 228.438 211.037 227.589C212.443 223.893 213.513 220.068 214.291 216.151C215.244 211.35 215.36 206.34 214.942 201.376C217.859 201.992 220.927 202.667 223.682 203.283C227.18 196.808 231.329 192.774 233.584 190.798C233.095 186.241 233.153 181.138 234.153 175.582C247.204 178.046 259.407 178.779 261.185 173.478C263.242 167.282 258.536 159.273 244.95 150.066C253.259 138.442 265.323 130.398 280.21 129.177C314.553 126.376 331.393 149.404 335.344 162.121C335.751 163.446 336.007 164.748 336.181 166.061C336.89 171.467 336.111 176.756 338.378 181.754C340.144 185.637 343.77 189.647 345.037 195.808C345.455 197.808 345.618 200.028 345.386 202.55V202.539Z" fill="white"/>
<path d="M345.037 195.796C343.771 189.635 340.133 185.625 338.378 181.742C336.112 176.744 336.891 171.467 336.182 166.05C341.237 162.469 350.872 156.448 354.265 160.005C358.635 164.585 356.067 178.557 345.037 195.796Z" fill="white"/>
<path d="M246.402 275.854C244.333 278.841 240.73 281.933 236.744 282.456C231.363 283.154 223.751 280.329 221.322 269.135C219.753 261.963 221.74 255 223.228 251.152C227.935 260.184 234.373 266.415 237.674 269.367C238.545 270.146 241.463 272.889 246.39 275.854H246.402Z" fill="#FAB476"/>
<path d="M310.567 289.93C300.433 290.651 298.376 286.269 298.271 282.816C305.21 280.84 317.517 275.04 326.083 262.927C331.092 261.462 336.949 260.672 338.599 264.229C341.644 270.774 326.919 288.768 310.556 289.93H310.567Z" fill="#FAB476"/>
<path d="M280.199 129.166C265.323 130.386 253.248 138.43 244.938 150.055C258.512 159.273 263.231 167.282 261.174 173.466C259.407 178.767 247.193 178.034 234.141 175.57C233.153 181.126 233.095 186.23 233.572 190.786C231.317 192.762 227.168 196.796 223.67 203.271C220.916 202.655 217.847 201.969 214.93 201.364C215.349 206.34 215.233 211.35 214.28 216.139C213.501 220.056 212.432 223.881 211.025 227.577C212.699 228.438 215.093 229.67 217.638 230.972C218.022 238.725 220.276 245.491 223.228 251.152C227.935 260.184 234.374 266.414 237.674 269.367C238.546 270.146 241.463 272.889 246.391 275.853C252.004 279.224 260.221 282.874 271.052 284.281C242.416 272.25 258.814 244.131 266.136 237.47C271.354 232.715 275.945 228.124 268.124 218.197C260.29 208.269 258.082 193.309 259.953 187.59C261.825 181.87 264.474 174.524 276.305 171.002C291.611 166.445 299.898 178.836 309.009 176.023C315.145 174.129 311.81 160.958 320.573 157.331C324.199 155.832 330.312 156.088 334.821 160.609C330.068 147.672 313.228 126.469 280.199 129.177V129.166Z" fill="#FFC3DD"/>
<path d="M345.037 195.796C343.771 189.635 340.133 185.625 338.378 181.742C336.112 176.744 336.891 171.467 336.182 166.05C341.237 162.469 350.872 156.448 354.265 160.005C358.635 164.585 356.067 178.557 345.037 195.796Z" fill="#FFC3DD"/>
<path d="M57.3271 95.7457C57.3619 95.8503 57.4085 95.9433 57.455 96.0363C44.055 87.5156 8.68969 65.9176 2.83228 71.2183C-4.18731 77.5652 16.5693 114.31 41.2309 143.44C41.2309 143.44 57.025 111.218 64.5792 105.696L57.3271 95.7457ZM244.95 150.043C233.526 142.278 215.803 133.664 190.583 124.574C199.811 118.634 215.233 92.5141 204.692 59.9543C195.569 31.7768 171.5 19.7921 162.342 16.1537C160.436 9.16743 157.717 6.72632 155.694 6.72632C153.347 6.72632 154.056 12.585 154.056 12.585C152.882 9.06281 147.954 1.10013 145.153 2.72754C142.399 4.3317 145.92 9.2953 146.083 9.51616C142.329 5.77312 135.775 -0.0855569 133.195 1.78596C130.614 3.66911 136.251 9.99276 136.251 9.99276C133.485 9.31855 105.999 6.2381 86.312 22.6517C84.7314 23.9652 83.2903 25.3137 81.9422 26.6853C91.3559 20.8499 98.9217 18.6529 105.302 21.652C115.181 26.3017 112.566 33.2764 120.132 34.1482C127.686 35.02 137.855 18.7459 161.691 28.6266C185.516 38.5073 189.584 57.9897 182.03 82.1103C174.475 106.242 162.563 110.311 163.725 125.713C164.887 141.116 181.158 154.484 186.388 178.034C190.037 194.448 185.493 223.73 156.485 238.086C154.521 246.223 148.384 252.826 136.821 254.069C126.233 255.209 118.865 251.907 114.274 246.479C110.857 246.455 107.289 246.328 103.57 246.06C69.5882 243.607 48.8199 224.137 36.2335 203.283C42.6952 232.983 63.661 249.466 69.9252 254.325C77.6189 260.288 89.4615 266.507 104.756 269.89C116.343 272.459 129.906 273.401 145.153 271.355C147.768 271.006 150.441 270.564 153.161 270.03C186.353 263.508 203.553 247.339 211.096 227.531C212.502 223.834 213.571 220.01 214.35 216.093C215.303 211.292 215.419 206.282 215.001 201.318C213.908 188.578 209.248 176.14 205.796 168.41C212.362 170.374 223.566 173.524 234.212 175.524C247.263 177.988 259.466 178.72 261.244 173.42C263.301 167.224 258.594 159.215 245.008 150.008L244.95 150.043Z" fill="#75ABFF"/>
<path d="M110.532 56.0952C109.486 56.0022 99.0146 59.2454 97.3992 64.3834C95.7838 69.5213 100.258 82.0989 104.918 82.9475C109.579 83.8077 121.294 73.9037 121.956 69.9979C122.63 66.0922 116.715 56.6532 110.532 56.0952ZM106.15 78.5883C102.315 78.3791 101.351 68.5914 101.292 64.8019C102.978 64.1393 106.197 63.0815 108.998 63.4069C113.031 63.8835 118.005 67.3243 117.772 69.2191C117.54 71.1139 110.427 78.8208 106.15 78.5883Z" fill="#FAB476"/>
<path d="M117.773 69.2303C117.54 71.1251 110.428 78.832 106.151 78.5996C102.316 78.3903 101.351 68.6026 101.293 64.8131C102.978 64.1505 106.197 63.0927 108.998 63.4181C113.031 63.8947 118.005 67.3356 117.773 69.2303Z" fill="#EF1D12"/>
<path d="M101.293 64.8135C100.561 65.1041 100.119 65.325 100.119 65.325L101.293 64.8135Z" fill="#FFAA5A"/>
<path d="M326.455 203.306C326.013 201.458 319.168 196.599 315.774 197.552C312.392 198.517 308.848 207.281 309.068 208.607C309.405 210.652 319.017 213.617 320.342 213.466C321.666 213.314 326.896 205.131 326.455 203.294V203.306ZM319.9 210.002C318.285 210.594 313.206 208.455 312.09 207.421C312.09 207.421 320.493 203.515 323.073 203.225C323.073 203.225 321.527 209.409 319.9 210.002Z" fill="#FAB476"/>
<path d="M323.061 203.225C323.061 203.225 321.515 209.409 319.888 210.002C318.273 210.594 313.194 208.456 312.078 207.421C312.078 207.421 320.481 203.515 323.061 203.225Z" fill="#EF1D12"/>
<path d="M146.059 9.5396C145.896 9.31874 142.375 4.35513 145.129 2.75097C147.942 1.11194 152.869 9.08625 154.031 12.6084C154.031 12.6084 153.334 6.74975 155.67 6.74975C157.692 6.74975 160.412 9.19087 162.318 16.1771" stroke="black" stroke-width="2.9" stroke-linecap="round" stroke-linejoin="round"/>
<path d="M146.07 9.5512C142.317 5.79653 135.762 -0.0621464 133.182 1.80938C130.602 3.69252 136.238 10.0162 136.238 10.0162C133.472 9.34196 105.987 6.26151 86.2993 22.6751C69.8195 36.4151 66.1354 54.5491 65.6705 59.0245C64.9267 61.4772 56.8611 67.5684 55.1179 78.7278C54.037 85.6675 55.4782 91.5843 57.4655 96.0481C59.8131 101.326 62.9277 104.604 63.5553 105.22" stroke="black" stroke-width="2.9" stroke-linecap="round" stroke-linejoin="round"/>
<path d="M190.57 124.586C199.798 118.646 215.22 92.5258 204.679 59.966C195.556 31.7885 171.487 19.8038 162.329 16.1654C160.633 15.4912 159.447 15.0959 158.959 14.9448" stroke="black" stroke-width="2.9" stroke-linecap="round" stroke-linejoin="round"/>
<path d="M57.455 96.0479C44.055 87.5273 8.68969 65.9292 2.83228 71.2299C-4.18731 77.5768 16.5693 114.321 41.2309 143.452" stroke="black" stroke-width="2.9" stroke-linecap="round" stroke-linejoin="round"/>
<path d="M46.6691 130.072C43.0547 136.21 30.0266 169.932 35.6516 200.655C41.4044 232.041 63.4278 249.35 69.8779 254.348C84.4169 265.601 113.716 277.795 153.102 270.064C192.488 262.323 209.363 240.992 214.291 216.127C219.219 191.275 201.867 160.551 201.867 160.551" stroke="black" stroke-width="2.9" stroke-linecap="round" stroke-linejoin="round"/>
<path d="M182.168 121.633C185.062 122.621 187.863 123.609 190.571 124.586C245.763 144.487 264.974 162.063 261.173 173.466C257.966 183.08 220.346 172.839 205.737 168.456" stroke="black" stroke-width="2.9" stroke-linecap="round" stroke-linejoin="round"/>
<path d="M127.674 201.248C102.21 204.375 98.5379 258.243 136.774 254.116C171.779 250.338 157.031 197.645 127.674 201.248Z" stroke="black" stroke-width="2.9" stroke-linecap="round" stroke-linejoin="round"/>
<path d="M104.709 269.925C105.464 276.97 108.87 295.092 124.071 295.824C140.528 296.615 144.258 279.434 145.107 271.39" stroke="black" stroke-width="2.9" stroke-linecap="round" stroke-linejoin="round"/>
<path d="M110.532 56.0951C116.715 56.6531 122.619 66.0921 121.956 69.9978C121.294 73.9036 109.579 83.8076 104.918 82.9474C100.258 82.0872 95.7838 69.5213 97.3992 64.3717C99.0146 59.2337 109.486 55.9905 110.543 56.0835L110.532 56.0951Z" stroke="black" stroke-width="1.9" stroke-linecap="round" stroke-linejoin="round"/>
<path d="M101.293 64.8132C102.978 64.1506 106.197 63.0928 108.998 63.4299C113.031 63.9065 118.005 67.3473 117.773 69.2421C117.54 71.1369 110.428 78.8438 106.163 78.6113C102.327 78.4021 101.363 68.6144 101.293 64.8249C100.561 65.1155 100.119 65.3363 100.119 65.3363" stroke="black" stroke-width="1.6" stroke-linecap="round" stroke-linejoin="round"/>
<path d="M328.336 225.671C330.37 224.823 332.253 223.776 333.961 222.556C340.539 217.86 344.653 210.618 345.385 202.539C345.618 200.016 345.455 197.796 345.037 195.796C343.77 189.636 340.132 185.625 338.377 181.743C336.111 176.744 336.89 171.467 336.181 166.05C336.006 164.736 335.751 163.434 335.344 162.109C331.393 149.392 314.552 126.364 280.21 129.166C265.334 130.386 253.247 138.43 244.949 150.055" stroke="black" stroke-width="2.9" stroke-linecap="round" stroke-linejoin="round"/>
<path d="M234.153 175.559C233.165 181.115 233.107 186.218 233.583 190.775C235.001 204.259 241.149 212.919 241.881 213.977" stroke="black" stroke-width="2.9" stroke-linecap="round" stroke-linejoin="round"/>
<path d="M333.962 222.556C335.322 228.926 336.705 241.027 331.138 253.941C322.375 274.226 303.152 282.026 295.865 283.386C259.652 290.163 240.208 271.622 237.686 269.367C232.329 264.566 218.627 251.093 217.65 230.972" stroke="black" stroke-width="2.9" stroke-linecap="round" stroke-linejoin="round"/>
<path d="M223.682 203.271C227.18 196.796 231.329 192.763 233.583 190.787" stroke="black" stroke-width="2.9" stroke-linecap="round" stroke-linejoin="round"/>
<path d="M230.446 237.354C229.679 237.098 223.298 233.866 217.65 230.972C215.105 229.658 212.711 228.426 211.037 227.578" stroke="black" stroke-width="2.9" stroke-linecap="round" stroke-linejoin="round"/>
<path d="M214.941 201.353C217.858 201.969 220.927 202.643 223.681 203.259C228.76 204.399 232.769 205.329 232.769 205.329" stroke="black" stroke-width="2.9" stroke-linecap="round" stroke-linejoin="round"/>
<path d="M336.182 166.05C341.237 162.469 350.872 156.448 354.265 160.005C358.635 164.585 356.067 178.557 345.037 195.796" stroke="black" stroke-width="2.9" stroke-linecap="round" stroke-linejoin="round"/>
<path d="M223.239 251.152C221.74 254.988 219.764 261.963 221.333 269.135C223.762 280.329 231.375 283.154 236.756 282.456C240.742 281.933 244.333 278.841 246.413 275.854" stroke="black" stroke-width="2.9" stroke-linecap="round" stroke-linejoin="round"/>
<path d="M298.283 282.816C298.388 286.269 300.445 290.663 310.579 289.93C326.931 288.768 341.656 270.774 338.623 264.229C336.972 260.672 331.115 261.462 326.106 262.927" stroke="black" stroke-width="2.9" stroke-linecap="round" stroke-linejoin="round"/>
<path d="M275.108 140.778C275.108 140.778 270.646 131.293 274.132 130.735C277.619 130.177 282.779 139.802 282.779 139.802C282.779 139.802 279.292 129.758 282.639 129.619C285.987 129.479 289.752 142.173 289.752 142.173C289.752 142.173 287.939 132.548 290.31 132.548C292.681 132.548 297.422 138.267 298.12 147.183" stroke="black" stroke-width="2.9" stroke-linecap="round" stroke-linejoin="round"/>
<path d="M324.443 193.902C325.256 189.903 329.021 183.777 333.635 187.287C334.553 188.008 335.96 189.275 334.774 190.345C334.286 190.751 333.577 190.705 333.124 190.286C331.811 189.24 330.904 188.485 329.545 189.729C328.313 190.937 327.406 192.948 326.813 194.622C326.29 196.11 324.059 195.436 324.443 193.913V193.902Z" fill="black"/>
<path d="M309.066 208.607C309.404 210.653 319.015 213.617 320.34 213.466C321.665 213.315 326.894 205.143 326.453 203.294C326.011 201.458 319.154 196.587 315.772 197.552C312.379 198.505 308.846 207.282 309.066 208.607Z" stroke="black" stroke-width="1.8" stroke-linecap="round" stroke-linejoin="round"/>
<path d="M312.09 207.433C312.09 207.433 320.492 203.527 323.072 203.236C323.072 203.236 321.527 209.42 319.9 210.013C318.284 210.606 313.194 208.467 312.09 207.433Z" stroke="black" stroke-width="1.6" stroke-linecap="round" stroke-linejoin="round"/>
<path d="M288.821 211.989C290.786 214.512 298.933 211.071 299.142 206.584C299.351 202.097 293.738 195.285 290.158 196.471C286.579 197.668 285.405 207.584 288.821 211.989Z" fill="black"/>
<path d="M90.8096 51.7709C88.6363 51.3408 85.7774 58.0016 87.9623 58.7223C90.1472 59.4314 92.9945 52.2126 90.8096 51.7709Z" fill="white"/>
<path d="M145.489 53.3515C143.095 53.026 138.376 57.8966 140.945 60.1285C143.513 62.372 148.708 53.7816 145.489 53.3515Z" fill="white"/>
<path d="M291.925 199.214C290.717 199.993 292.437 205.654 294.715 204.689C296.993 203.724 294.052 197.842 291.925 199.214Z" fill="white"/>
<path d="M116.562 69.9047C116.562 69.9047 114.61 65.4177 110.81 65.9059C107.009 66.3941 102.814 69.9047 103.197 74.1011L101.826 69.8117L100.85 64.5459L105.533 63.2788L111.681 64.3483L115.97 66.7894L117.818 68.8353L116.551 69.9047H116.562Z" fill="black"/>
<path d="M317.9 205.526C317.9 205.526 321.12 204.945 321.701 206.107L322.77 203.771C322.77 203.771 318.377 204.654 317.889 205.526H317.9Z" fill="black"/>
<path d="M336.03 201.443C338.83 200.354 340.568 198.104 339.912 196.416C339.257 194.729 336.455 194.243 333.655 195.332C330.856 196.42 329.118 198.671 329.773 200.358C330.429 202.046 333.23 202.531 336.03 201.443Z" fill="#FF92A9"/>
<path d="M297.801 220.304C300.923 219.09 302.863 216.583 302.133 214.704C301.403 212.825 298.279 212.286 295.156 213.5C292.034 214.714 290.094 217.221 290.824 219.1C291.554 220.979 294.678 221.518 297.801 220.304Z" fill="#FF92A9"/>
<path d="M140.887 71.2649C135.936 69.7305 133.38 63.7556 135.193 57.9201C137.006 52.0847 142.479 48.5974 147.442 50.1318C152.393 51.6662 154.95 57.6412 153.137 63.4766C151.324 69.312 145.85 72.7993 140.887 71.2649ZM146.919 64.5344C149.72 64.3949 151.626 61.8724 152.149 59.2221C152.184 59.0128 152.207 58.8385 152.195 58.6874C152.172 58.2224 152.195 57.7923 152.114 57.3389C151.823 55.8045 150.905 54.119 149.383 53.6075C148.883 53.4448 148.36 53.2355 147.872 53.3169C147.047 53.4448 146.28 53.84 145.617 54.4328C144.223 55.665 143.479 57.397 143.235 59.2453C143.095 60.3496 143.258 61.4075 143.723 62.3955C143.955 62.8954 144.339 63.3836 144.85 63.8369C145.059 64.0346 145.292 64.1741 145.548 64.267C146.047 64.453 146.396 64.5809 146.931 64.546L146.919 64.5344ZM137.831 67.0336C138.807 67.3359 139.911 66.5919 140.283 65.383C140.655 64.1741 140.155 62.9419 139.179 62.6513C138.203 62.3606 137.099 63.093 136.727 64.3019C136.355 65.5109 136.854 66.743 137.831 67.0336Z" fill="black"/>
<path d="M82.3595 65.6155C78.3849 64.3252 76.5486 59.0129 78.2686 53.747C79.977 48.4928 84.5909 45.2845 88.5656 46.5748C92.5402 47.8651 94.3765 53.1774 92.6565 58.4433C90.9481 63.6975 86.3342 66.9058 82.3595 65.6155ZM87.5313 59.4778C87.8916 59.443 88.0891 59.4197 88.1472 59.4081C89.507 59.0361 90.5181 58.0248 91.2967 56.688C91.5989 56.1649 91.75 55.6418 91.9476 55.0257C92.0289 54.7932 92.0754 54.5607 92.087 54.3515C92.1103 54.0493 92.1335 53.4681 92.087 53.0612C91.9824 52.1429 91.6918 51.2246 91.1805 50.5503C91.1456 50.5038 90.9946 50.3527 90.7273 50.1086C90.553 49.9459 90.3786 49.818 90.2275 49.7599C89.7277 49.5506 89.2048 49.353 88.6818 49.446C87.7637 49.6204 86.9386 50.3179 86.2994 51.1083C85.1023 52.5962 84.4631 54.7235 84.7653 56.595C84.928 57.618 85.4277 58.6525 86.2064 59.1291C86.3458 59.2105 86.5783 59.3151 86.9269 59.4314C87.1013 59.4895 87.2988 59.5127 87.5313 59.4895V59.4778ZM80.0468 61.8841C80.8255 62.1398 81.7436 61.454 82.1038 60.3613C82.4525 59.2686 82.1039 58.1759 81.3252 57.9202C80.5465 57.6644 79.6284 58.3503 79.2681 59.443C78.9194 60.5357 79.2681 61.6284 80.0468 61.8841Z" fill="black"/>
</svg>
