<?xml version="1.0" encoding="UTF-8"?>
<svg id="katman_2" data-name="katman 2" xmlns="http://www.w3.org/2000/svg" viewBox="0 0 150.83 263.76">
  <defs>
    <style>
      .cls-1 {
        fill: #fff;
      }

      .cls-2 {
        fill: #ff394a;
      }
    </style>
  </defs>
  <g id="katman_1" data-name="katman 1">
    <g>
      <path class="cls-2" d="M150.78,5.84v119.22c0,2.6-2.1,4.7-4.7,4.7h-39.44c-2.59,0-4.69-2.11-4.69-4.7V53.59c0-2.59-2.1-4.7-4.7-4.7h-27.23c-2.59,0-4.69-2.11-4.69-4.7V4.7c0-2.6,2.1-4.7,4.69-4.7h74.92c3.22,0,5.83,2.61,5.83,5.84Z"/>
      <path class="cls-1" d="M150.83,219.57v39.49c0,2.6-2.1,4.7-4.7,4.7h-51.22c-32.39,0-58.64-26.29-58.64-58.72v-65.4c0-2.6-2.1-4.7-4.7-4.7H4.7c-2.59,0-4.7-2.11-4.7-4.7v-39.49c0-2.59,2.1-4.7,4.7-4.7h26.88c2.59,0,4.7-2.11,4.7-4.7v-10.34c0-2.6,2.1-4.7,4.69-4.7h39.44c2.59,0,4.7,2.11,4.7,4.7v132.52c0,6.26,5.07,11.34,11.32,11.34h49.71c2.59,0,4.7,2.11,4.7,4.7Z"/>
    </g>
  </g>
</svg>